<?xml version="1.0" encoding="UTF-8"?><svg xmlns="http://www.w3.org/2000/svg" xmlns:xlink="http://www.w3.org/1999/xlink" clip-rule="evenodd" stroke-miterlimit="10" viewBox="0 0 720 540"><desc>SVG generated by Keynote</desc><defs></defs><g transform="matrix(1.00, 0.00, -0.00, -1.00, 0.0, 540.0)"><path d="M 0.0 0.0 L 720.0 0.0 L 720.0 540.0 L 0.0 540.0 Z M 0.0 0.0 " fill="#FFFFFF"></path><path d="M 0.0 511.0 L 720.0 511.0 L 720.0 504.0 L 0.0 504.0 Z M 0.0 511.1 " fill="#5ECCF3" fill-opacity="0.50"></path><path d="M 0.0 540.0 L 720.0 540.0 L 720.0 516.0 L 0.0 516.0 Z M 0.0 540.0 " fill="#212744"></path><path d="M 0.0 516.0 L 720.0 516.0 L 720.0 509.0 L 0.0 509.0 Z M 0.0 515.7 " fill="#5ECCF3"></path><path d="M 426.0 504.0 L 720.0 504.0 L 720.0 512.0 L 426.0 512.0 Z M 426.0 504.5 " fill="#5ECCF3"></path><path d="M 426.0 491.0 L 720.0 491.0 L 720.0 505.0 L 426.0 505.0 Z M 426.0 491.2 " fill="#5ECCF3" fill-opacity="0.50"></path><path d="M 425.8 499.0 L 426.0 500.5 C 426.0 500.7 425.9 501.0 426.1 501.0 L 666.6 501.0 C 666.8 501.0 667.0 500.7 667.0 500.5 L 667.0 499.0 C 667.0 498.8 666.8 499.0 666.6 499.0 L 426.1 499.0 C 425.9 499.0 425.8 498.8 425.8 499.0 Z M 425.8 499.0 " fill="#FFFFFF"></path><path d="M 580.6 491.2 L 581.0 493.1 C 581.0 493.4 580.8 494.0 581.1 494.0 L 706.1 494.0 C 706.4 494.0 707.0 493.4 707.0 493.1 L 707.0 491.2 C 707.0 491.0 706.4 491.0 706.1 491.0 L 581.1 491.0 C 580.8 491.0 580.6 491.0 580.6 491.2 Z M 580.6 491.2 " fill="#FFFFFF"></path><path d="M 715.0 540.0 L 720.0 540.0 L 720.0 491.0 L 715.0 491.0 Z M 715.4 540.2 " fill="#FFFFFF" fill-opacity="0.65"></path><path d="M 712.0 540.0 L 714.0 540.0 L 714.0 491.0 L 712.0 491.0 Z M 712.2 540.2 " fill="#FFFFFF" fill-opacity="0.65"></path><path d="M 711.0 540.0 L 711.0 540.0 L 711.0 491.0 L 711.0 491.0 Z M 710.7 540.2 " fill="#FFFFFF" fill-opacity="0.60"></path><path d="M 707.0 540.0 L 709.0 540.0 L 709.0 491.0 L 707.0 491.0 Z M 706.7 540.2 " fill="#FFFFFF" fill-opacity="0.40"></path><path d="M 702.0 540.0 L 706.0 540.0 L 706.0 494.0 L 702.0 494.0 Z M 702.0 540.0 " fill="#FFFFFF" fill-opacity="0.20"></path><path d="M 699.0 540.0 L 699.0 540.0 L 699.0 494.0 L 699.0 494.0 Z M 698.7 540.0 " fill="#FFFFFF" fill-opacity="0.30"></path><text xml:space="preserve" font-family="TrebuchetMS-Bold,Trebuchet MS" font-weight="bold" font-size="34.0" fill="#212744" transform="matrix(1.00, 0.00, -0.00, -1.00, 67.1, 459.8)">C</text><text xml:space="preserve" font-family="TrebuchetMS-Bold,Trebuchet MS" font-weight="bold" font-size="34.0" fill="#212744" transform="matrix(1.00, 0.00, -0.00, -1.00, 87.9, 459.8)">a</text><text xml:space="preserve" font-family="TrebuchetMS-Bold,Trebuchet MS" font-weight="bold" font-size="34.0" fill="#212744" transform="matrix(1.00, 0.00, -0.00, -1.00, 106.0, 459.8)">m</text><text xml:space="preserve" font-family="TrebuchetMS-Bold,Trebuchet MS" font-weight="bold" font-size="34.0" fill="#212744" transform="matrix(1.00, 0.00, -0.00, -1.00, 135.3, 459.8)">e</text><text xml:space="preserve" font-family="TrebuchetMS-Bold,Trebuchet MS" font-weight="bold" font-size="34.0" fill="#212744" transform="matrix(1.00, 0.00, -0.00, -1.00, 154.8, 459.8)">r</text><text xml:space="preserve" font-family="TrebuchetMS-Bold,Trebuchet MS" font-weight="bold" font-size="34.0" fill="#212744" transform="matrix(1.00, 0.00, -0.00, -1.00, 168.3, 459.8)">a</text><text xml:space="preserve" font-family="TrebuchetMS-Bold,Trebuchet MS" font-weight="bold" font-size="34.0" fill="#212744" transform="matrix(1.00, 0.00, -0.00, -1.00, 186.4, 459.8)"> </text><text xml:space="preserve" font-family="TrebuchetMS-Bold,Trebuchet MS" font-weight="bold" font-size="34.0" fill="#212744" transform="matrix(1.00, 0.00, -0.00, -1.00, 196.6, 459.8)">S</text><text xml:space="preserve" font-family="TrebuchetMS-Bold,Trebuchet MS" font-weight="bold" font-size="34.0" fill="#212744" transform="matrix(1.00, 0.00, -0.00, -1.00, 214.0, 459.8)">e</text><text xml:space="preserve" font-family="TrebuchetMS-Bold,Trebuchet MS" font-weight="bold" font-size="34.0" fill="#212744" transform="matrix(1.00, 0.00, -0.00, -1.00, 233.5, 459.8)">t</text><text xml:space="preserve" font-family="TrebuchetMS-Bold,Trebuchet MS" font-weight="bold" font-size="34.0" fill="#212744" transform="matrix(1.00, 0.00, -0.00, -1.00, 247.0, 459.8)">t</text><text xml:space="preserve" font-family="TrebuchetMS-Bold,Trebuchet MS" font-weight="bold" font-size="34.0" fill="#212744" transform="matrix(1.00, 0.00, -0.00, -1.00, 260.5, 459.8)">i</text><text xml:space="preserve" font-family="TrebuchetMS-Bold,Trebuchet MS" font-weight="bold" font-size="34.0" fill="#212744" transform="matrix(1.00, 0.00, -0.00, -1.00, 270.7, 459.8)">n</text><text xml:space="preserve" font-family="TrebuchetMS-Bold,Trebuchet MS" font-weight="bold" font-size="34.0" fill="#212744" transform="matrix(1.00, 0.00, -0.00, -1.00, 290.8, 459.8)">g</text><text xml:space="preserve" font-family="TrebuchetMS-Bold,Trebuchet MS" font-weight="bold" font-size="34.0" fill="#212744" transform="matrix(1.00, 0.00, -0.00, -1.00, 307.8, 459.8)">s</text><text xml:space="preserve" font-family="Georgia,Georgia" font-size="26.0" fill="#000000" transform="matrix(1.00, 0.00, -0.00, -1.00, 326.9, 378.2)">•</text><text xml:space="preserve" font-family="Georgia,Georgia" font-size="26.0" fill="#000000" transform="matrix(1.00, 0.00, -0.00, -1.00, 347.0, 378.2)">M</text><text xml:space="preserve" font-family="Georgia,Georgia" font-size="26.0" fill="#000000" transform="matrix(1.00, 0.00, -0.00, -1.00, 371.2, 378.2)">o</text><text xml:space="preserve" font-family="Georgia,Georgia" font-size="26.0" fill="#000000" transform="matrix(1.00, 0.00, -0.00, -1.00, 385.2, 378.2)">d</text><text xml:space="preserve" font-family="Georgia,Georgia" font-size="26.0" fill="#000000" transform="matrix(1.00, 0.00, -0.00, -1.00, 400.1, 378.2)">e</text><text xml:space="preserve" font-family="Georgia,Georgia" font-size="26.0" fill="#000000" transform="matrix(1.00, 0.00, -0.00, -1.00, 412.7, 378.2)">l</text><text xml:space="preserve" font-family="Georgia,Georgia" font-size="26.0" fill="#000000" transform="matrix(1.00, 0.00, -0.00, -1.00, 420.1, 378.2)">:</text><text xml:space="preserve" font-family="Georgia,Georgia" font-size="26.0" fill="#000000" transform="matrix(1.00, 0.00, -0.00, -1.00, 428.2, 378.2)"> </text><text xml:space="preserve" font-family="Georgia,Georgia" font-size="26.0" fill="#000000" transform="matrix(1.00, 0.00, -0.00, -1.00, 434.5, 378.2)">D</text><text xml:space="preserve" font-family="Georgia,Georgia" font-size="26.0" fill="#000000" transform="matrix(1.00, 0.00, -0.00, -1.00, 454.0, 378.2)">C</text><text xml:space="preserve" font-family="Georgia,Georgia" font-size="26.0" fill="#000000" transform="matrix(1.00, 0.00, -0.00, -1.00, 470.7, 378.2)">C</text><text xml:space="preserve" font-family="Georgia,Georgia" font-size="26.0" fill="#000000" transform="matrix(1.00, 0.00, -0.00, -1.00, 487.4, 378.2)">1</text><text xml:space="preserve" font-family="Georgia,Georgia" font-size="26.0" fill="#000000" transform="matrix(1.00, 0.00, -0.00, -1.00, 498.5, 378.2)">6</text><text xml:space="preserve" font-family="Georgia,Georgia" font-size="26.0" fill="#000000" transform="matrix(1.00, 0.00, -0.00, -1.00, 513.3, 378.2)">4</text><text xml:space="preserve" font-family="Georgia,Georgia" font-size="26.0" fill="#000000" transform="matrix(1.00, 0.00, -0.00, -1.00, 527.9, 378.2)">5</text><text xml:space="preserve" font-family="Georgia,Georgia" font-size="26.0" fill="#000000" transform="matrix(1.00, 0.00, -0.00, -1.00, 541.7, 378.2)">C</text><text xml:space="preserve" font-family="Georgia,Georgia" font-size="26.0" fill="#000000" transform="matrix(1.00, 0.00, -0.00, -1.00, 558.4, 378.2)"> </text><text xml:space="preserve" font-family="Georgia,Georgia" font-size="26.0" fill="#000000" transform="matrix(1.00, 0.00, -0.00, -1.00, 326.9, 345.2)">•</text><text xml:space="preserve" font-family="Georgia,Georgia" font-size="26.0" fill="#000000" transform="matrix(1.00, 0.00, -0.00, -1.00, 347.0, 345.2)">H</text><text xml:space="preserve" font-family="Georgia,Georgia" font-size="26.0" fill="#000000" transform="matrix(1.00, 0.00, -0.00, -1.00, 368.2, 345.2)">i</text><text xml:space="preserve" font-family="Georgia,Georgia" font-size="26.0" fill="#000000" transform="matrix(1.00, 0.00, -0.00, -1.00, 375.8, 345.2)">g</text><text xml:space="preserve" font-family="Georgia,Georgia" font-size="26.0" fill="#000000" transform="matrix(1.00, 0.00, -0.00, -1.00, 389.1, 345.2)">h</text><text xml:space="preserve" font-family="Georgia,Georgia" font-size="26.0" fill="#000000" transform="matrix(1.00, 0.00, -0.00, -1.00, 404.2, 345.2)"> </text><text xml:space="preserve" font-family="Georgia,Georgia" font-size="26.0" fill="#000000" transform="matrix(1.00, 0.00, -0.00, -1.00, 410.5, 345.2)">R</text><text xml:space="preserve" font-family="Georgia,Georgia" font-size="26.0" fill="#000000" transform="matrix(1.00, 0.00, -0.00, -1.00, 428.7, 345.2)">e</text><text xml:space="preserve" font-family="Georgia,Georgia" font-size="26.0" fill="#000000" transform="matrix(1.00, 0.00, -0.00, -1.00, 441.3, 345.2)">s</text><text xml:space="preserve" font-family="Georgia,Georgia" font-size="26.0" fill="#000000" transform="matrix(1.00, 0.00, -0.00, -1.00, 452.6, 345.2)">o</text><text xml:space="preserve" font-family="Georgia,Georgia" font-size="26.0" fill="#000000" transform="matrix(1.00, 0.00, -0.00, -1.00, 466.6, 345.2)">l</text><text xml:space="preserve" font-family="Georgia,Georgia" font-size="26.0" fill="#000000" transform="matrix(1.00, 0.00, -0.00, -1.00, 474.0, 345.2)">u</text><text xml:space="preserve" font-family="Georgia,Georgia" font-size="26.0" fill="#000000" transform="matrix(1.00, 0.00, -0.00, -1.00, 489.0, 345.2)">t</text><text xml:space="preserve" font-family="Georgia,Georgia" font-size="26.0" fill="#000000" transform="matrix(1.00, 0.00, -0.00, -1.00, 498.0, 345.2)">i</text><text xml:space="preserve" font-family="Georgia,Georgia" font-size="26.0" fill="#000000" transform="matrix(1.00, 0.00, -0.00, -1.00, 505.6, 345.2)">o</text><text xml:space="preserve" font-family="Georgia,Georgia" font-size="26.0" fill="#000000" transform="matrix(1.00, 0.00, -0.00, -1.00, 519.6, 345.2)">n</text><text xml:space="preserve" font-family="Georgia,Georgia" font-size="26.0" fill="#000000" transform="matrix(1.00, 0.00, -0.00, -1.00, 534.9, 345.2)"> </text><text xml:space="preserve" font-family="Georgia,Georgia" font-size="26.0" fill="#000000" transform="matrix(1.00, 0.00, -0.00, -1.00, 541.2, 345.2)">U</text><text xml:space="preserve" font-family="Georgia,Georgia" font-size="26.0" fill="#000000" transform="matrix(1.00, 0.00, -0.00, -1.00, 560.9, 345.2)">S</text><text xml:space="preserve" font-family="Georgia,Georgia" font-size="26.0" fill="#000000" transform="matrix(1.00, 0.00, -0.00, -1.00, 575.5, 345.2)">B</text><text xml:space="preserve" font-family="Georgia,Georgia" font-size="26.0" fill="#000000" transform="matrix(1.00, 0.00, -0.00, -1.00, 592.5, 345.2)">2</text><text xml:space="preserve" font-family="Georgia,Georgia" font-size="26.0" fill="#000000" transform="matrix(1.00, 0.00, -0.00, -1.00, 607.0, 345.2)">.</text><text xml:space="preserve" font-family="Georgia,Georgia" font-size="26.0" fill="#000000" transform="matrix(1.00, 0.00, -0.00, -1.00, 614.0, 345.2)">0</text><text xml:space="preserve" font-family="Georgia,Georgia" font-size="26.0" fill="#000000" transform="matrix(1.00, 0.00, -0.00, -1.00, 629.9, 345.2)"> </text><text xml:space="preserve" font-family="Georgia,Georgia" font-size="26.0" fill="#000000" transform="matrix(1.00, 0.00, -0.00, -1.00, 347.0, 315.2)">C</text><text xml:space="preserve" font-family="Georgia,Georgia" font-size="26.0" fill="#000000" transform="matrix(1.00, 0.00, -0.00, -1.00, 363.7, 315.2)">M</text><text xml:space="preserve" font-family="Georgia,Georgia" font-size="26.0" fill="#000000" transform="matrix(1.00, 0.00, -0.00, -1.00, 387.9, 315.2)">O</text><text xml:space="preserve" font-family="Georgia,Georgia" font-size="26.0" fill="#000000" transform="matrix(1.00, 0.00, -0.00, -1.00, 407.2, 315.2)">S</text><text xml:space="preserve" font-family="Georgia,Georgia" font-size="26.0" fill="#000000" transform="matrix(1.00, 0.00, -0.00, -1.00, 421.8, 315.2)"> </text><text xml:space="preserve" font-family="Georgia,Georgia" font-size="26.0" fill="#000000" transform="matrix(1.00, 0.00, -0.00, -1.00, 428.1, 315.2)">C</text><text xml:space="preserve" font-family="Georgia,Georgia" font-size="26.0" fill="#000000" transform="matrix(1.00, 0.00, -0.00, -1.00, 444.8, 315.2)">a</text><text xml:space="preserve" font-family="Georgia,Georgia" font-size="26.0" fill="#000000" transform="matrix(1.00, 0.00, -0.00, -1.00, 457.9, 315.2)">m</text><text xml:space="preserve" font-family="Georgia,Georgia" font-size="26.0" fill="#000000" transform="matrix(1.00, 0.00, -0.00, -1.00, 480.8, 315.2)">e</text><text xml:space="preserve" font-family="Georgia,Georgia" font-size="26.0" fill="#000000" transform="matrix(1.00, 0.00, -0.00, -1.00, 493.3, 315.2)">r</text><text xml:space="preserve" font-family="Georgia,Georgia" font-size="26.0" fill="#000000" transform="matrix(1.00, 0.00, -0.00, -1.00, 504.0, 315.2)">a</text><text xml:space="preserve" font-family="Georgia,Georgia" font-size="26.0" fill="#000000" transform="matrix(1.00, 0.00, -0.00, -1.00, 517.1, 315.2)"> </text><text xml:space="preserve" font-family="Georgia,Georgia" font-size="26.0" fill="#000000" transform="matrix(1.00, 0.00, -0.00, -1.00, 326.9, 282.2)">•</text><text xml:space="preserve" font-family="Georgia,Georgia" font-size="26.0" fill="#000000" transform="matrix(1.00, 0.00, -0.00, -1.00, 347.0, 282.2)">1</text><text xml:space="preserve" font-family="Georgia,Georgia" font-size="26.0" fill="#000000" transform="matrix(1.00, 0.00, -0.00, -1.00, 358.2, 282.2)">2</text><text xml:space="preserve" font-family="Georgia,Georgia" font-size="26.0" fill="#000000" transform="matrix(1.00, 0.00, -0.00, -1.00, 372.7, 282.2)">8</text><text xml:space="preserve" font-family="Georgia,Georgia" font-size="26.0" fill="#000000" transform="matrix(1.00, 0.00, -0.00, -1.00, 388.2, 282.2)">0</text><text xml:space="preserve" font-family="Georgia,Georgia" font-size="26.0" fill="#000000" transform="matrix(1.00, 0.00, -0.00, -1.00, 404.2, 282.2)"> </text><text xml:space="preserve" font-family="Georgia,Georgia" font-size="26.0" fill="#000000" transform="matrix(1.00, 0.00, -0.00, -1.00, 410.5, 282.2)">x</text><text xml:space="preserve" font-family="Georgia,Georgia" font-size="26.0" fill="#000000" transform="matrix(1.00, 0.00, -0.00, -1.00, 423.6, 282.2)"> </text><text xml:space="preserve" font-family="Georgia,Georgia" font-size="26.0" fill="#000000" transform="matrix(1.00, 0.00, -0.00, -1.00, 429.9, 282.2)">1</text><text xml:space="preserve" font-family="Georgia,Georgia" font-size="26.0" fill="#000000" transform="matrix(1.00, 0.00, -0.00, -1.00, 441.1, 282.2)">0</text><text xml:space="preserve" font-family="Georgia,Georgia" font-size="26.0" fill="#000000" transform="matrix(1.00, 0.00, -0.00, -1.00, 457.0, 282.2)">2</text><text xml:space="preserve" font-family="Georgia,Georgia" font-size="26.0" fill="#000000" transform="matrix(1.00, 0.00, -0.00, -1.00, 471.5, 282.2)">4</text><text xml:space="preserve" font-family="Georgia,Georgia" font-size="26.0" fill="#000000" transform="matrix(1.00, 0.00, -0.00, -1.00, 486.2, 282.2)"> </text><text xml:space="preserve" font-family="Georgia,Georgia" font-size="26.0" fill="#000000" transform="matrix(1.00, 0.00, -0.00, -1.00, 326.9, 249.2)">•</text><text xml:space="preserve" font-family="Georgia,Georgia" font-size="26.0" fill="#000000" transform="matrix(1.00, 0.00, -0.00, -1.00, 347.0, 249.2)">C</text><text xml:space="preserve" font-family="Georgia,Georgia" font-size="26.0" fill="#000000" transform="matrix(1.00, 0.00, -0.00, -1.00, 363.7, 249.2)">o</text><text xml:space="preserve" font-family="Georgia,Georgia" font-size="26.0" fill="#000000" transform="matrix(1.00, 0.00, -0.00, -1.00, 377.8, 249.2)">l</text><text xml:space="preserve" font-family="Georgia,Georgia" font-size="26.0" fill="#000000" transform="matrix(1.00, 0.00, -0.00, -1.00, 385.2, 249.2)">o</text><text xml:space="preserve" font-family="Georgia,Georgia" font-size="26.0" fill="#000000" transform="matrix(1.00, 0.00, -0.00, -1.00, 399.2, 249.2)">r</text><text xml:space="preserve" font-family="Georgia,Georgia" font-size="26.0" fill="#000000" transform="matrix(1.00, 0.00, -0.00, -1.00, 409.9, 249.2)"> </text><text xml:space="preserve" font-family="Georgia,Georgia" font-size="26.0" fill="#000000" transform="matrix(1.00, 0.00, -0.00, -1.00, 416.1, 249.2)">s</text><text xml:space="preserve" font-family="Georgia,Georgia" font-size="26.0" fill="#000000" transform="matrix(1.00, 0.00, -0.00, -1.00, 427.4, 249.2)">e</text><text xml:space="preserve" font-family="Georgia,Georgia" font-size="26.0" fill="#000000" transform="matrix(1.00, 0.00, -0.00, -1.00, 440.0, 249.2)">n</text><text xml:space="preserve" font-family="Georgia,Georgia" font-size="26.0" fill="#000000" transform="matrix(1.00, 0.00, -0.00, -1.00, 455.3, 249.2)">s</text><text xml:space="preserve" font-family="Georgia,Georgia" font-size="26.0" fill="#000000" transform="matrix(1.00, 0.00, -0.00, -1.00, 466.6, 249.2)">o</text><text xml:space="preserve" font-family="Georgia,Georgia" font-size="26.0" fill="#000000" transform="matrix(1.00, 0.00, -0.00, -1.00, 480.6, 249.2)">r</text><text xml:space="preserve" font-family="Georgia,Georgia" font-size="26.0" fill="#000000" transform="matrix(1.00, 0.00, -0.00, -1.00, 491.2, 249.2)"> </text><text xml:space="preserve" font-family="Georgia,Georgia" font-size="26.0" fill="#000000" transform="matrix(1.00, 0.00, -0.00, -1.00, 326.9, 216.2)">•</text><text xml:space="preserve" font-family="Georgia-Bold,Georgia" font-weight="bold" font-size="26.0" fill="#000000" transform="matrix(1.00, 0.00, -0.00, -1.00, 347.0, 216.2)">P</text><text xml:space="preserve" font-family="Georgia-Bold,Georgia" font-weight="bold" font-size="26.0" fill="#000000" transform="matrix(1.00, 0.00, -0.00, -1.00, 365.3, 216.2)">i</text><text xml:space="preserve" font-family="Georgia-Bold,Georgia" font-weight="bold" font-size="26.0" fill="#000000" transform="matrix(1.00, 0.00, -0.00, -1.00, 374.5, 216.2)">x</text><text xml:space="preserve" font-family="Georgia-Bold,Georgia" font-weight="bold" font-size="26.0" fill="#000000" transform="matrix(1.00, 0.00, -0.00, -1.00, 389.7, 216.2)">e</text><text xml:space="preserve" font-family="Georgia-Bold,Georgia" font-weight="bold" font-size="26.0" fill="#000000" transform="matrix(1.00, 0.00, -0.00, -1.00, 404.6, 216.2)">l</text><text xml:space="preserve" font-family="Georgia-Bold,Georgia" font-weight="bold" font-size="26.0" fill="#000000" transform="matrix(1.00, 0.00, -0.00, -1.00, 413.6, 216.2)"> </text><text xml:space="preserve" font-family="Georgia-Bold,Georgia" font-weight="bold" font-size="26.0" fill="#000000" transform="matrix(1.00, 0.00, -0.00, -1.00, 420.2, 216.2)">s</text><text xml:space="preserve" font-family="Georgia-Bold,Georgia" font-weight="bold" font-size="26.0" fill="#000000" transform="matrix(1.00, 0.00, -0.00, -1.00, 433.5, 216.2)">i</text><text xml:space="preserve" font-family="Georgia-Bold,Georgia" font-weight="bold" font-size="26.0" fill="#000000" transform="matrix(1.00, 0.00, -0.00, -1.00, 442.7, 216.2)">z</text><text xml:space="preserve" font-family="Georgia-Bold,Georgia" font-weight="bold" font-size="26.0" fill="#000000" transform="matrix(1.00, 0.00, -0.00, -1.00, 456.3, 216.2)">e</text><text xml:space="preserve" font-family="Georgia-Bold,Georgia" font-weight="bold" font-size="26.0" fill="#000000" transform="matrix(1.00, 0.00, -0.00, -1.00, 471.2, 216.2)">:</text><text xml:space="preserve" font-family="Georgia-Bold,Georgia" font-weight="bold" font-size="26.0" fill="#000000" transform="matrix(1.00, 0.00, -0.00, -1.00, 480.7, 216.2)"> </text><text xml:space="preserve" font-family="Georgia-Bold,Georgia" font-weight="bold" font-size="26.0" fill="#000000" transform="matrix(1.00, 0.00, -0.00, -1.00, 487.3, 216.2)">3</text><text xml:space="preserve" font-family="Georgia-Bold,Georgia" font-weight="bold" font-size="26.0" fill="#000000" transform="matrix(1.00, 0.00, -0.00, -1.00, 503.6, 216.2)">.</text><text xml:space="preserve" font-family="Georgia-Bold,Georgia" font-weight="bold" font-size="26.0" fill="#000000" transform="matrix(1.00, 0.00, -0.00, -1.00, 512.1, 216.2)">6</text><text xml:space="preserve" font-family="Georgia-Bold,Georgia" font-weight="bold" font-size="26.0" fill="#000000" transform="matrix(1.00, 0.00, -0.00, -1.00, 528.9, 216.2)"> </text><text xml:space="preserve" font-family="Georgia-Bold,Georgia" font-weight="bold" font-size="26.0" fill="#000000" transform="matrix(1.00, 0.00, -0.00, -1.00, 535.5, 216.2)">µ</text><text xml:space="preserve" font-family="Georgia-Bold,Georgia" font-weight="bold" font-size="26.0" fill="#000000" transform="matrix(1.00, 0.00, -0.00, -1.00, 552.9, 216.2)">m</text><text xml:space="preserve" font-family="Georgia-Bold,Georgia" font-weight="bold" font-size="26.0" fill="#000000" transform="matrix(1.00, 0.00, -0.00, -1.00, 579.3, 216.2)">,</text><text xml:space="preserve" font-family="Georgia-Bold,Georgia" font-weight="bold" font-size="26.0" fill="#000000" transform="matrix(1.00, 0.00, -0.00, -1.00, 587.8, 216.2)"> </text><text xml:space="preserve" font-family="Georgia-Bold,Georgia" font-weight="bold" font-size="26.0" fill="#000000" transform="matrix(1.00, 0.00, -0.00, -1.00, 347.0, 186.2)">S</text><text xml:space="preserve" font-family="Georgia-Bold,Georgia" font-weight="bold" font-size="26.0" fill="#000000" transform="matrix(1.00, 0.00, -0.00, -1.00, 363.9, 186.2)">q</text><text xml:space="preserve" font-family="Georgia-Bold,Georgia" font-weight="bold" font-size="26.0" fill="#000000" transform="matrix(1.00, 0.00, -0.00, -1.00, 380.8, 186.2)">u</text><text xml:space="preserve" font-family="Georgia-Bold,Georgia" font-weight="bold" font-size="26.0" fill="#000000" transform="matrix(1.00, 0.00, -0.00, -1.00, 398.4, 186.2)">a</text><text xml:space="preserve" font-family="Georgia-Bold,Georgia" font-weight="bold" font-size="26.0" fill="#000000" transform="matrix(1.00, 0.00, -0.00, -1.00, 413.9, 186.2)">r</text><text xml:space="preserve" font-family="Georgia-Bold,Georgia" font-weight="bold" font-size="26.0" fill="#000000" transform="matrix(1.00, 0.00, -0.00, -1.00, 427.4, 186.2)">e</text><text xml:space="preserve" font-family="Georgia-Bold,Georgia" font-weight="bold" font-size="19.0" fill="#000000" transform="matrix(1.00, 0.00, -0.00, -1.00, 17.7, 73.1)">F</text><text xml:space="preserve" font-family="Georgia-Bold,Georgia" font-weight="bold" font-size="19.0" fill="#000000" transform="matrix(1.00, 0.00, -0.00, -1.00, 30.5, 73.1)">o</text><text xml:space="preserve" font-family="Georgia-Bold,Georgia" font-weight="bold" font-size="19.0" fill="#000000" transform="matrix(1.00, 0.00, -0.00, -1.00, 42.6, 73.1)">r</text><text xml:space="preserve" font-family="Georgia-Bold,Georgia" font-weight="bold" font-size="19.0" fill="#000000" transform="matrix(1.00, 0.00, -0.00, -1.00, 52.5, 73.1)"> </text><text xml:space="preserve" font-family="Georgia-Bold,Georgia" font-weight="bold" font-size="19.0" fill="#000000" transform="matrix(1.00, 0.00, -0.00, -1.00, 57.3, 73.1)">m</text><text xml:space="preserve" font-family="Georgia-Bold,Georgia" font-weight="bold" font-size="19.0" fill="#000000" transform="matrix(1.00, 0.00, -0.00, -1.00, 76.6, 73.1)">o</text><text xml:space="preserve" font-family="Georgia-Bold,Georgia" font-weight="bold" font-size="19.0" fill="#000000" transform="matrix(1.00, 0.00, -0.00, -1.00, 88.6, 73.1)">r</text><text xml:space="preserve" font-family="Georgia-Bold,Georgia" font-weight="bold" font-size="19.0" fill="#000000" transform="matrix(1.00, 0.00, -0.00, -1.00, 98.5, 73.1)">e</text><text xml:space="preserve" font-family="Georgia-Bold,Georgia" font-weight="bold" font-size="19.0" fill="#000000" transform="matrix(1.00, 0.00, -0.00, -1.00, 109.4, 73.1)"> </text><text xml:space="preserve" font-family="Georgia-Bold,Georgia" font-weight="bold" font-size="19.0" fill="#000000" transform="matrix(1.00, 0.00, -0.00, -1.00, 114.2, 73.1)">s</text><text xml:space="preserve" font-family="Georgia-Bold,Georgia" font-weight="bold" font-size="19.0" fill="#000000" transform="matrix(1.00, 0.00, -0.00, -1.00, 123.9, 73.1)">p</text><text xml:space="preserve" font-family="Georgia-Bold,Georgia" font-weight="bold" font-size="19.0" fill="#000000" transform="matrix(1.00, 0.00, -0.00, -1.00, 136.4, 73.1)">e</text><text xml:space="preserve" font-family="Georgia-Bold,Georgia" font-weight="bold" font-size="19.0" fill="#000000" transform="matrix(1.00, 0.00, -0.00, -1.00, 147.3, 73.1)">c</text><text xml:space="preserve" font-family="Georgia-Bold,Georgia" font-weight="bold" font-size="19.0" fill="#000000" transform="matrix(1.00, 0.00, -0.00, -1.00, 157.4, 73.1)">i</text><text xml:space="preserve" font-family="Georgia-Bold,Georgia" font-weight="bold" font-size="19.0" fill="#000000" transform="matrix(1.00, 0.00, -0.00, -1.00, 164.1, 73.1)">f</text><text xml:space="preserve" font-family="Georgia-Bold,Georgia" font-weight="bold" font-size="19.0" fill="#000000" transform="matrix(1.00, 0.00, -0.00, -1.00, 171.6, 73.1)">i</text><text xml:space="preserve" font-family="Georgia-Bold,Georgia" font-weight="bold" font-size="19.0" fill="#000000" transform="matrix(1.00, 0.00, -0.00, -1.00, 178.3, 73.1)">c</text><text xml:space="preserve" font-family="Georgia-Bold,Georgia" font-weight="bold" font-size="19.0" fill="#000000" transform="matrix(1.00, 0.00, -0.00, -1.00, 188.4, 73.1)">a</text><text xml:space="preserve" font-family="Georgia-Bold,Georgia" font-weight="bold" font-size="19.0" fill="#000000" transform="matrix(1.00, 0.00, -0.00, -1.00, 199.7, 73.1)">t</text><text xml:space="preserve" font-family="Georgia-Bold,Georgia" font-weight="bold" font-size="19.0" fill="#000000" transform="matrix(1.00, 0.00, -0.00, -1.00, 207.2, 73.1)">i</text><text xml:space="preserve" font-family="Georgia-Bold,Georgia" font-weight="bold" font-size="19.0" fill="#000000" transform="matrix(1.00, 0.00, -0.00, -1.00, 214.0, 73.1)">o</text><text xml:space="preserve" font-family="Georgia-Bold,Georgia" font-weight="bold" font-size="19.0" fill="#000000" transform="matrix(1.00, 0.00, -0.00, -1.00, 226.0, 73.1)">n</text><text xml:space="preserve" font-family="Georgia-Bold,Georgia" font-weight="bold" font-size="19.0" fill="#000000" transform="matrix(1.00, 0.00, -0.00, -1.00, 239.1, 73.1)">s</text><text xml:space="preserve" font-family="Georgia-Bold,Georgia" font-weight="bold" font-size="19.0" fill="#000000" transform="matrix(1.00, 0.00, -0.00, -1.00, 248.9, 73.1)">:</text><text xml:space="preserve" font-family="Georgia-Bold,Georgia" font-weight="bold" font-size="19.0" fill="#000000" transform="matrix(1.00, 0.00, -0.00, -1.00, 255.8, 73.1)"> </text><text xml:space="preserve" font-family="Georgia,Georgia" font-size="19.0" fill="#000000" transform="matrix(1.00, 0.00, -0.00, -1.00, 260.7, 73.1)">h</text><text xml:space="preserve" font-family="Georgia,Georgia" font-size="19.0" fill="#000000" transform="matrix(1.00, 0.00, -0.00, -1.00, 271.8, 73.1)">t</text><text xml:space="preserve" font-family="Georgia,Georgia" font-size="19.0" fill="#000000" transform="matrix(1.00, 0.00, -0.00, -1.00, 278.3, 73.1)">t</text><text xml:space="preserve" font-family="Georgia,Georgia" font-size="19.0" fill="#000000" transform="matrix(1.00, 0.00, -0.00, -1.00, 284.9, 73.1)">p</text><text xml:space="preserve" font-family="Georgia,Georgia" font-size="19.0" fill="#000000" transform="matrix(1.00, 0.00, -0.00, -1.00, 295.8, 73.1)">:</text><text xml:space="preserve" font-family="Georgia,Georgia" font-size="19.0" fill="#000000" transform="matrix(1.00, 0.00, -0.00, -1.00, 301.7, 73.1)">/</text><text xml:space="preserve" font-family="Georgia,Georgia" font-size="19.0" fill="#000000" transform="matrix(1.00, 0.00, -0.00, -1.00, 310.6, 73.1)">/</text><text xml:space="preserve" font-family="Georgia,Georgia" font-size="19.0" fill="#000000" transform="matrix(1.00, 0.00, -0.00, -1.00, 319.5, 73.1)">w</text><text xml:space="preserve" font-family="Georgia,Georgia" font-size="19.0" fill="#000000" transform="matrix(1.00, 0.00, -0.00, -1.00, 333.5, 73.1)">w</text><text xml:space="preserve" font-family="Georgia,Georgia" font-size="19.0" fill="#000000" transform="matrix(1.00, 0.00, -0.00, -1.00, 347.5, 73.1)">w</text><text xml:space="preserve" font-family="Georgia,Georgia" font-size="19.0" fill="#000000" transform="matrix(1.00, 0.00, -0.00, -1.00, 361.5, 73.1)">.</text><text xml:space="preserve" font-family="Georgia,Georgia" font-size="19.0" fill="#000000" transform="matrix(1.00, 0.00, -0.00, -1.00, 366.7, 73.1)">t</text><text xml:space="preserve" font-family="Georgia,Georgia" font-size="19.0" fill="#000000" transform="matrix(1.00, 0.00, -0.00, -1.00, 373.2, 73.1)">h</text><text xml:space="preserve" font-family="Georgia,Georgia" font-size="19.0" fill="#000000" transform="matrix(1.00, 0.00, -0.00, -1.00, 384.3, 73.1)">o</text><text xml:space="preserve" font-family="Georgia,Georgia" font-size="19.0" fill="#000000" transform="matrix(1.00, 0.00, -0.00, -1.00, 394.5, 73.1)">r</text><text xml:space="preserve" font-family="Georgia,Georgia" font-size="19.0" fill="#000000" transform="matrix(1.00, 0.00, -0.00, -1.00, 402.3, 73.1)">l</text><text xml:space="preserve" font-family="Georgia,Georgia" font-size="19.0" fill="#000000" transform="matrix(1.00, 0.00, -0.00, -1.00, 407.7, 73.1)">a</text><text xml:space="preserve" font-family="Georgia,Georgia" font-size="19.0" fill="#000000" transform="matrix(1.00, 0.00, -0.00, -1.00, 417.3, 73.1)">b</text><text xml:space="preserve" font-family="Georgia,Georgia" font-size="19.0" fill="#000000" transform="matrix(1.00, 0.00, -0.00, -1.00, 428.0, 73.1)">s</text><text xml:space="preserve" font-family="Georgia,Georgia" font-size="19.0" fill="#000000" transform="matrix(1.00, 0.00, -0.00, -1.00, 436.2, 73.1)">.</text><text xml:space="preserve" font-family="Georgia,Georgia" font-size="19.0" fill="#000000" transform="matrix(1.00, 0.00, -0.00, -1.00, 441.3, 73.1)">u</text><text xml:space="preserve" font-family="Georgia,Georgia" font-size="19.0" fill="#000000" transform="matrix(1.00, 0.00, -0.00, -1.00, 452.2, 73.1)">s</text><text xml:space="preserve" font-family="Georgia,Georgia" font-size="19.0" fill="#000000" transform="matrix(1.00, 0.00, -0.00, -1.00, 460.4, 73.1)">/</text><text xml:space="preserve" font-family="Georgia,Georgia" font-size="19.0" fill="#000000" transform="matrix(1.00, 0.00, -0.00, -1.00, 469.3, 73.1)">N</text><text xml:space="preserve" font-family="Georgia,Georgia" font-size="19.0" fill="#000000" transform="matrix(1.00, 0.00, -0.00, -1.00, 483.9, 73.1)">e</text><text xml:space="preserve" font-family="Georgia,Georgia" font-size="19.0" fill="#000000" transform="matrix(1.00, 0.00, -0.00, -1.00, 493.1, 73.1)">w</text><text xml:space="preserve" font-family="Georgia,Georgia" font-size="19.0" fill="#000000" transform="matrix(1.00, 0.00, -0.00, -1.00, 507.1, 73.1)">G</text><text xml:space="preserve" font-family="Georgia,Georgia" font-size="19.0" fill="#000000" transform="matrix(1.00, 0.00, -0.00, -1.00, 520.9, 73.1)">r</text><text xml:space="preserve" font-family="Georgia,Georgia" font-size="19.0" fill="#000000" transform="matrix(1.00, 0.00, -0.00, -1.00, 528.7, 73.1)">o</text><text xml:space="preserve" font-family="Georgia,Georgia" font-size="19.0" fill="#000000" transform="matrix(1.00, 0.00, -0.00, -1.00, 538.9, 73.1)">u</text><text xml:space="preserve" font-family="Georgia,Georgia" font-size="19.0" fill="#000000" transform="matrix(1.00, 0.00, -0.00, -1.00, 549.8, 73.1)">p</text><text xml:space="preserve" font-family="Georgia,Georgia" font-size="19.0" fill="#000000" transform="matrix(1.00, 0.00, -0.00, -1.00, 560.7, 73.1)">P</text><text xml:space="preserve" font-family="Georgia,Georgia" font-size="19.0" fill="#000000" transform="matrix(1.00, 0.00, -0.00, -1.00, 572.3, 73.1)">a</text><text xml:space="preserve" font-family="Georgia,Georgia" font-size="19.0" fill="#000000" transform="matrix(1.00, 0.00, -0.00, -1.00, 581.9, 73.1)">g</text><text xml:space="preserve" font-family="Georgia,Georgia" font-size="19.0" fill="#000000" transform="matrix(1.00, 0.00, -0.00, -1.00, 591.5, 73.1)">e</text><text xml:space="preserve" font-family="Georgia,Georgia" font-size="19.0" fill="#000000" transform="matrix(1.00, 0.00, -0.00, -1.00, 600.7, 73.1)">9</text><text xml:space="preserve" font-family="Georgia,Georgia" font-size="19.0" fill="#000000" transform="matrix(1.00, 0.00, -0.00, -1.00, 611.5, 73.1)">_</text><text xml:space="preserve" font-family="Georgia,Georgia" font-size="19.0" fill="#000000" transform="matrix(1.00, 0.00, -0.00, -1.00, 623.7, 73.1)">P</text><text xml:space="preserve" font-family="Georgia,Georgia" font-size="19.0" fill="#000000" transform="matrix(1.00, 0.00, -0.00, -1.00, 635.3, 73.1)">F</text><text xml:space="preserve" font-family="Georgia,Georgia" font-size="19.0" fill="#000000" transform="matrix(1.00, 0.00, -0.00, -1.00, 646.7, 73.1)">.</text><text xml:space="preserve" font-family="Georgia,Georgia" font-size="19.0" fill="#000000" transform="matrix(1.00, 0.00, -0.00, -1.00, 651.8, 73.1)">c</text><text xml:space="preserve" font-family="Georgia,Georgia" font-size="19.0" fill="#000000" transform="matrix(1.00, 0.00, -0.00, -1.00, 660.4, 73.1)">f</text><text xml:space="preserve" font-family="Georgia,Georgia" font-size="19.0" fill="#000000" transform="matrix(1.00, 0.00, -0.00, -1.00, 666.6, 73.1)">m</text><text xml:space="preserve" font-family="Georgia,Georgia" font-size="19.0" fill="#000000" transform="matrix(1.00, 0.00, -0.00, -1.00, 683.3, 73.1)">?</text><text xml:space="preserve" font-family="Georgia,Georgia" font-size="19.0" fill="#000000" transform="matrix(1.00, 0.00, -0.00, -1.00, 17.7, 54.2)">G</text><text xml:space="preserve" font-family="Georgia,Georgia" font-size="19.0" fill="#000000" transform="matrix(1.00, 0.00, -0.00, -1.00, 31.5, 54.2)">u</text><text xml:space="preserve" font-family="Georgia,Georgia" font-size="19.0" fill="#000000" transform="matrix(1.00, 0.00, -0.00, -1.00, 42.4, 54.2)">i</text><text xml:space="preserve" font-family="Georgia,Georgia" font-size="19.0" fill="#000000" transform="matrix(1.00, 0.00, -0.00, -1.00, 48.0, 54.2)">d</text><text xml:space="preserve" font-family="Georgia,Georgia" font-size="19.0" fill="#000000" transform="matrix(1.00, 0.00, -0.00, -1.00, 58.9, 54.2)">e</text><text xml:space="preserve" font-family="Georgia,Georgia" font-size="19.0" fill="#000000" transform="matrix(1.00, 0.00, -0.00, -1.00, 68.1, 54.2)">=</text><text xml:space="preserve" font-family="Georgia,Georgia" font-size="19.0" fill="#000000" transform="matrix(1.00, 0.00, -0.00, -1.00, 80.3, 54.2)">1</text><text xml:space="preserve" font-family="Georgia,Georgia" font-size="19.0" fill="#000000" transform="matrix(1.00, 0.00, -0.00, -1.00, 88.5, 54.2)">0</text><text xml:space="preserve" font-family="Georgia,Georgia" font-size="19.0" fill="#000000" transform="matrix(1.00, 0.00, -0.00, -1.00, 100.2, 54.2)">&amp;</text><text xml:space="preserve" font-family="Georgia,Georgia" font-size="19.0" fill="#000000" transform="matrix(1.00, 0.00, -0.00, -1.00, 113.7, 54.2)">C</text><text xml:space="preserve" font-family="Georgia,Georgia" font-size="19.0" fill="#000000" transform="matrix(1.00, 0.00, -0.00, -1.00, 125.9, 54.2)">a</text><text xml:space="preserve" font-family="Georgia,Georgia" font-size="19.0" fill="#000000" transform="matrix(1.00, 0.00, -0.00, -1.00, 135.4, 54.2)">t</text><text xml:space="preserve" font-family="Georgia,Georgia" font-size="19.0" fill="#000000" transform="matrix(1.00, 0.00, -0.00, -1.00, 142.0, 54.2)">e</text><text xml:space="preserve" font-family="Georgia,Georgia" font-size="19.0" fill="#000000" transform="matrix(1.00, 0.00, -0.00, -1.00, 151.2, 54.2)">g</text><text xml:space="preserve" font-family="Georgia,Georgia" font-size="19.0" fill="#000000" transform="matrix(1.00, 0.00, -0.00, -1.00, 160.9, 54.2)">o</text><text xml:space="preserve" font-family="Georgia,Georgia" font-size="19.0" fill="#000000" transform="matrix(1.00, 0.00, -0.00, -1.00, 171.1, 54.2)">r</text><text xml:space="preserve" font-family="Georgia,Georgia" font-size="19.0" fill="#000000" transform="matrix(1.00, 0.00, -0.00, -1.00, 178.9, 54.2)">y</text><text xml:space="preserve" font-family="Georgia,Georgia" font-size="19.0" fill="#000000" transform="matrix(1.00, 0.00, -0.00, -1.00, 188.2, 54.2)">_</text><text xml:space="preserve" font-family="Georgia,Georgia" font-size="19.0" fill="#000000" transform="matrix(1.00, 0.00, -0.00, -1.00, 200.5, 54.2)">I</text><text xml:space="preserve" font-family="Georgia,Georgia" font-size="19.0" fill="#000000" transform="matrix(1.00, 0.00, -0.00, -1.00, 207.9, 54.2)">D</text><text xml:space="preserve" font-family="Georgia,Georgia" font-size="19.0" fill="#000000" transform="matrix(1.00, 0.00, -0.00, -1.00, 222.1, 54.2)">=</text><text xml:space="preserve" font-family="Georgia,Georgia" font-size="19.0" fill="#000000" transform="matrix(1.00, 0.00, -0.00, -1.00, 234.3, 54.2)">2</text><text xml:space="preserve" font-family="Georgia,Georgia" font-size="19.0" fill="#000000" transform="matrix(1.00, 0.00, -0.00, -1.00, 244.9, 54.2)">2</text><text xml:space="preserve" font-family="Georgia,Georgia" font-size="19.0" fill="#000000" transform="matrix(1.00, 0.00, -0.00, -1.00, 255.5, 54.2)">0</text><text xml:space="preserve" font-family="Georgia,Georgia" font-size="19.0" fill="#000000" transform="matrix(1.00, 0.00, -0.00, -1.00, 267.2, 54.2)">&amp;</text><text xml:space="preserve" font-family="Georgia,Georgia" font-size="19.0" fill="#000000" transform="matrix(1.00, 0.00, -0.00, -1.00, 280.7, 54.2)">O</text><text xml:space="preserve" font-family="Georgia,Georgia" font-size="19.0" fill="#000000" transform="matrix(1.00, 0.00, -0.00, -1.00, 294.8, 54.2)">b</text><text xml:space="preserve" font-family="Georgia,Georgia" font-size="19.0" fill="#000000" transform="matrix(1.00, 0.00, -0.00, -1.00, 305.5, 54.2)">j</text><text xml:space="preserve" font-family="Georgia,Georgia" font-size="19.0" fill="#000000" transform="matrix(1.00, 0.00, -0.00, -1.00, 311.0, 54.2)">e</text><text xml:space="preserve" font-family="Georgia,Georgia" font-size="19.0" fill="#000000" transform="matrix(1.00, 0.00, -0.00, -1.00, 320.2, 54.2)">c</text><text xml:space="preserve" font-family="Georgia,Georgia" font-size="19.0" fill="#000000" transform="matrix(1.00, 0.00, -0.00, -1.00, 328.8, 54.2)">t</text><text xml:space="preserve" font-family="Georgia,Georgia" font-size="19.0" fill="#000000" transform="matrix(1.00, 0.00, -0.00, -1.00, 335.4, 54.2)">G</text><text xml:space="preserve" font-family="Georgia,Georgia" font-size="19.0" fill="#000000" transform="matrix(1.00, 0.00, -0.00, -1.00, 349.2, 54.2)">r</text><text xml:space="preserve" font-family="Georgia,Georgia" font-size="19.0" fill="#000000" transform="matrix(1.00, 0.00, -0.00, -1.00, 357.0, 54.2)">o</text><text xml:space="preserve" font-family="Georgia,Georgia" font-size="19.0" fill="#000000" transform="matrix(1.00, 0.00, -0.00, -1.00, 367.2, 54.2)">u</text><text xml:space="preserve" font-family="Georgia,Georgia" font-size="19.0" fill="#000000" transform="matrix(1.00, 0.00, -0.00, -1.00, 378.1, 54.2)">p</text><text xml:space="preserve" font-family="Georgia,Georgia" font-size="19.0" fill="#000000" transform="matrix(1.00, 0.00, -0.00, -1.00, 389.0, 54.2)">_</text><text xml:space="preserve" font-family="Georgia,Georgia" font-size="19.0" fill="#000000" transform="matrix(1.00, 0.00, -0.00, -1.00, 401.2, 54.2)">I</text><text xml:space="preserve" font-family="Georgia,Georgia" font-size="19.0" fill="#000000" transform="matrix(1.00, 0.00, -0.00, -1.00, 408.6, 54.2)">D</text><text xml:space="preserve" font-family="Georgia,Georgia" font-size="19.0" fill="#000000" transform="matrix(1.00, 0.00, -0.00, -1.00, 422.8, 54.2)">=</text><text xml:space="preserve" font-family="Georgia,Georgia" font-size="19.0" fill="#000000" transform="matrix(1.00, 0.00, -0.00, -1.00, 435.1, 54.2)">4</text><text xml:space="preserve" font-family="Georgia,Georgia" font-size="19.0" fill="#000000" transform="matrix(1.00, 0.00, -0.00, -1.00, 445.8, 54.2)">0</text><text xml:space="preserve" font-family="Georgia,Georgia" font-size="19.0" fill="#000000" transform="matrix(1.00, 0.00, -0.00, -1.00, 457.5, 54.2)">2</text><text xml:space="preserve" font-family="Georgia,Georgia" font-size="19.0" fill="#000000" transform="matrix(1.00, 0.00, -0.00, -1.00, 468.1, 54.2)">4</text><text xml:space="preserve" font-family="Georgia,Georgia" font-size="19.0" fill="#000000" transform="matrix(1.00, 0.00, -0.00, -1.00, 478.8, 54.2)"> </text></g></svg>