<?xml version="1.0" encoding="UTF-8"?><svg xmlns="http://www.w3.org/2000/svg" xmlns:xlink="http://www.w3.org/1999/xlink" clip-rule="evenodd" stroke-miterlimit="10" viewBox="0 0 720 540"><desc>SVG generated by Keynote</desc><defs><radialGradient id="gradSh1.0" cx="0.0" cy="0.0" r="100.0" fx="0.0" fy="0.0" gradientUnits="userSpaceOnUse" gradientTransform="matrix(1.57, -0.23, -0.23, -1.57, 209.9, 344.5)"><stop offset="0.00000" stop-color="#C0C7F3"></stop><stop offset="0.00513" stop-color="#C0C6F3"></stop><stop offset="0.42962" stop-color="#7F90EB"></stop><stop offset="0.43475" stop-color="#7F8FEB"></stop><stop offset="1.00000" stop-color="#4860BA"></stop></radialGradient><radialGradient id="gradSh1.1" cx="0.0" cy="0.0" r="100.0" fx="0.0" fy="0.0" gradientUnits="userSpaceOnUse" gradientTransform="matrix(-0.10, -0.10, -0.10, 0.10, 209.7, 313.7)"><stop offset="0.00000" stop-color="#C0C7F3"></stop><stop offset="0.00513" stop-color="#C0C6F3"></stop><stop offset="0.42962" stop-color="#7F90EB"></stop><stop offset="0.43475" stop-color="#7F8FEB"></stop><stop offset="1.00000" stop-color="#4860BA"></stop></radialGradient><radialGradient id="gradSh1.2" cx="0.0" cy="0.0" r="100.0" fx="0.0" fy="0.0" gradientUnits="userSpaceOnUse" gradientTransform="matrix(1.57, -0.23, -0.23, -1.57, 209.9, 282.5)"><stop offset="0.00000" stop-color="#C0C7F3"></stop><stop offset="0.00513" stop-color="#C0C6F3"></stop><stop offset="0.42962" stop-color="#7F90EB"></stop><stop offset="0.43475" stop-color="#7F8FEB"></stop><stop offset="1.00000" stop-color="#4860BA"></stop></radialGradient><radialGradient id="gradSh1.3" cx="0.0" cy="0.0" r="100.0" fx="0.0" fy="0.0" gradientUnits="userSpaceOnUse" gradientTransform="matrix(-0.10, -0.10, -0.10, 0.10, 209.7, 251.7)"><stop offset="0.00000" stop-color="#C0C7F3"></stop><stop offset="0.00513" stop-color="#C0C6F3"></stop><stop offset="0.42962" stop-color="#7F90EB"></stop><stop offset="0.43475" stop-color="#7F8FEB"></stop><stop offset="1.00000" stop-color="#4860BA"></stop></radialGradient><radialGradient id="gradSh1.4" cx="0.0" cy="0.0" r="100.0" fx="0.0" fy="0.0" gradientUnits="userSpaceOnUse" gradientTransform="matrix(1.57, -0.23, -0.23, -1.57, 209.9, 220.5)"><stop offset="0.00000" stop-color="#C0C7F3"></stop><stop offset="0.00513" stop-color="#C0C6F3"></stop><stop offset="0.42962" stop-color="#7F90EB"></stop><stop offset="0.43475" stop-color="#7F8FEB"></stop><stop offset="1.00000" stop-color="#4860BA"></stop></radialGradient><radialGradient id="gradSh1.5" cx="0.0" cy="0.0" r="100.0" fx="0.0" fy="0.0" gradientUnits="userSpaceOnUse" gradientTransform="matrix(-0.10, -0.10, -0.10, 0.10, 209.7, 189.7)"><stop offset="0.00000" stop-color="#C0C7F3"></stop><stop offset="0.00513" stop-color="#C0C6F3"></stop><stop offset="0.42962" stop-color="#7F90EB"></stop><stop offset="0.43475" stop-color="#7F8FEB"></stop><stop offset="1.00000" stop-color="#4860BA"></stop></radialGradient><radialGradient id="gradSh1.6" cx="0.0" cy="0.0" r="100.0" fx="0.0" fy="0.0" gradientUnits="userSpaceOnUse" gradientTransform="matrix(1.57, -0.23, -0.23, -1.57, 209.9, 158.5)"><stop offset="0.00000" stop-color="#C0C7F3"></stop><stop offset="0.00513" stop-color="#C0C6F3"></stop><stop offset="0.42962" stop-color="#7F90EB"></stop><stop offset="0.43475" stop-color="#7F8FEB"></stop><stop offset="1.00000" stop-color="#4860BA"></stop></radialGradient></defs><g transform="matrix(1.00, 0.00, -0.00, -1.00, 0.0, 540.0)"><path d="M 0.0 0.0 L 720.0 0.0 L 720.0 540.0 L 0.0 540.0 Z M 0.0 0.0 " fill="#FFFFFF"></path><path d="M 0.0 511.0 L 720.0 511.0 L 720.0 504.0 L 0.0 504.0 Z M 0.0 511.1 " fill="#5ECCF3" fill-opacity="0.50"></path><path d="M 0.0 540.0 L 720.0 540.0 L 720.0 516.0 L 0.0 516.0 Z M 0.0 540.0 " fill="#212744"></path><path d="M 0.0 516.0 L 720.0 516.0 L 720.0 509.0 L 0.0 509.0 Z M 0.0 515.7 " fill="#5ECCF3"></path><path d="M 426.0 504.0 L 720.0 504.0 L 720.0 512.0 L 426.0 512.0 Z M 426.0 504.5 " fill="#5ECCF3"></path><path d="M 426.0 491.0 L 720.0 491.0 L 720.0 505.0 L 426.0 505.0 Z M 426.0 491.2 " fill="#5ECCF3" fill-opacity="0.50"></path><path d="M 425.8 499.0 L 426.0 500.5 C 426.0 500.7 425.9 501.0 426.1 501.0 L 666.6 501.0 C 666.8 501.0 667.0 500.7 667.0 500.5 L 667.0 499.0 C 667.0 498.8 666.8 499.0 666.6 499.0 L 426.1 499.0 C 425.9 499.0 425.8 498.8 425.8 499.0 Z M 425.8 499.0 " fill="#FFFFFF"></path><path d="M 580.6 491.2 L 581.0 493.1 C 581.0 493.4 580.8 494.0 581.1 494.0 L 706.1 494.0 C 706.4 494.0 707.0 493.4 707.0 493.1 L 707.0 491.2 C 707.0 491.0 706.4 491.0 706.1 491.0 L 581.1 491.0 C 580.8 491.0 580.6 491.0 580.6 491.2 Z M 580.6 491.2 " fill="#FFFFFF"></path><path d="M 715.0 540.0 L 720.0 540.0 L 720.0 491.0 L 715.0 491.0 Z M 715.4 540.2 " fill="#FFFFFF" fill-opacity="0.65"></path><path d="M 712.0 540.0 L 714.0 540.0 L 714.0 491.0 L 712.0 491.0 Z M 712.2 540.2 " fill="#FFFFFF" fill-opacity="0.65"></path><path d="M 711.0 540.0 L 711.0 540.0 L 711.0 491.0 L 711.0 491.0 Z M 710.7 540.2 " fill="#FFFFFF" fill-opacity="0.60"></path><path d="M 707.0 540.0 L 709.0 540.0 L 709.0 491.0 L 707.0 491.0 Z M 706.7 540.2 " fill="#FFFFFF" fill-opacity="0.40"></path><path d="M 702.0 540.0 L 706.0 540.0 L 706.0 494.0 L 702.0 494.0 Z M 702.0 540.0 " fill="#FFFFFF" fill-opacity="0.20"></path><path d="M 699.0 540.0 L 699.0 540.0 L 699.0 494.0 L 699.0 494.0 Z M 698.7 540.0 " fill="#FFFFFF" fill-opacity="0.30"></path><text xml:space="preserve" font-family="TrebuchetMS-Bold,Trebuchet MS" font-weight="bold" font-size="34.0" fill="#212744" transform="matrix(1.00, 0.00, -0.00, -1.00, 72.8, 461.7)">P</text><text xml:space="preserve" font-family="TrebuchetMS-Bold,Trebuchet MS" font-weight="bold" font-size="34.0" fill="#212744" transform="matrix(1.00, 0.00, -0.00, -1.00, 92.8, 461.7)">r</text><text xml:space="preserve" font-family="TrebuchetMS-Bold,Trebuchet MS" font-weight="bold" font-size="34.0" fill="#212744" transform="matrix(1.00, 0.00, -0.00, -1.00, 107.3, 461.7)">o</text><text xml:space="preserve" font-family="TrebuchetMS-Bold,Trebuchet MS" font-weight="bold" font-size="34.0" fill="#212744" transform="matrix(1.00, 0.00, -0.00, -1.00, 126.5, 461.7)">g</text><text xml:space="preserve" font-family="TrebuchetMS-Bold,Trebuchet MS" font-weight="bold" font-size="34.0" fill="#212744" transform="matrix(1.00, 0.00, -0.00, -1.00, 143.6, 461.7)">r</text><text xml:space="preserve" font-family="TrebuchetMS-Bold,Trebuchet MS" font-weight="bold" font-size="34.0" fill="#212744" transform="matrix(1.00, 0.00, -0.00, -1.00, 157.1, 461.7)">a</text><text xml:space="preserve" font-family="TrebuchetMS-Bold,Trebuchet MS" font-weight="bold" font-size="34.0" fill="#212744" transform="matrix(1.00, 0.00, -0.00, -1.00, 175.2, 461.7)">m</text><text xml:space="preserve" font-family="TrebuchetMS-Bold,Trebuchet MS" font-weight="bold" font-size="34.0" fill="#212744" transform="matrix(1.00, 0.00, -0.00, -1.00, 204.4, 461.7)"> </text><text xml:space="preserve" font-family="TrebuchetMS-Bold,Trebuchet MS" font-weight="bold" font-size="34.0" fill="#212744" transform="matrix(1.00, 0.00, -0.00, -1.00, 214.7, 461.7)">o</text><text xml:space="preserve" font-family="TrebuchetMS-Bold,Trebuchet MS" font-weight="bold" font-size="34.0" fill="#212744" transform="matrix(1.00, 0.00, -0.00, -1.00, 233.9, 461.7)">u</text><text xml:space="preserve" font-family="TrebuchetMS-Bold,Trebuchet MS" font-weight="bold" font-size="34.0" fill="#212744" transform="matrix(1.00, 0.00, -0.00, -1.00, 254.0, 461.7)">t</text><text xml:space="preserve" font-family="TrebuchetMS-Bold,Trebuchet MS" font-weight="bold" font-size="34.0" fill="#212744" transform="matrix(1.00, 0.00, -0.00, -1.00, 267.5, 461.7)">l</text><text xml:space="preserve" font-family="TrebuchetMS-Bold,Trebuchet MS" font-weight="bold" font-size="34.0" fill="#212744" transform="matrix(1.00, 0.00, -0.00, -1.00, 277.5, 461.7)">i</text><text xml:space="preserve" font-family="TrebuchetMS-Bold,Trebuchet MS" font-weight="bold" font-size="34.0" fill="#212744" transform="matrix(1.00, 0.00, -0.00, -1.00, 287.6, 461.7)">n</text><text xml:space="preserve" font-family="TrebuchetMS-Bold,Trebuchet MS" font-weight="bold" font-size="34.0" fill="#212744" transform="matrix(1.00, 0.00, -0.00, -1.00, 307.7, 461.7)">e</text><g><clipPath id="clip0x6000010a77a0"><path d="M 48.8 316.1 L 370.7 316.1 L 370.7 369.4 L 48.8 369.4 Z M 48.8 316.1 "></path></clipPath><g clip-path="url(#clip0x6000010a77a0)"><image xlink:href="BA71F3ABA3421D019F1314D58CE0AF0C.png" width="320.00" height="51.00" transform="matrix(1.00, 0.00, -0.00, -1.01, 49.8, 368.4)" opacity="0.45"></image></g></g><g><clipPath id="clip0x6000010a7560"><path d="M 53.8 326.3 L 54.0 363.1 C 54.0 364.9 55.3 366.0 57.1 366.0 L 362.4 366.0 C 364.2 366.0 366.0 364.9 366.0 363.1 L 366.0 326.3 C 366.0 324.5 364.2 323.0 362.4 323.0 L 57.1 323.0 C 55.3 323.0 53.8 324.5 53.8 326.3 Z M 53.8 326.3 "></path></clipPath><g clip-path="url(#clip0x6000010a7560)"><g><clipPath id="clip0x6000010a79e0"><path d="M 48.8 316.1 L 370.7 316.1 L 370.7 369.4 L 48.8 369.4 Z M 48.8 316.1 "></path></clipPath><g clip-path="url(#clip0x6000010a79e0)"><path d="M 48.8 316.1 L 370.7 316.1 L 370.7 369.4 L 48.8 369.4 Z M 48.8 316.1 " fill="url(#gradSh1.0)"></path></g></g></g></g><g><clipPath id="clip0x6000016a7a40"><path d="M 54.8 336.1 L 364.7 336.1 L 364.7 353.3 L 54.8 353.3 Z M 54.8 336.1 "></path></clipPath><g clip-path="url(#clip0x6000016a7a40)"><text xml:space="preserve" font-family="Georgia,Georgia" font-size="9.0" fill="#FFFFFF" transform="matrix(1.00, 0.00, -0.00, -1.00, 172.5, 341.7)">1</text><text xml:space="preserve" font-family="Georgia,Georgia" font-size="9.0" fill="#FFFFFF" transform="matrix(1.00, 0.00, -0.00, -1.00, 176.4, 341.7)">)</text><text xml:space="preserve" font-family="Georgia,Georgia" font-size="9.0" fill="#FFFFFF" transform="matrix(1.00, 0.00, -0.00, -1.00, 179.8, 341.7)"> </text><text xml:space="preserve" font-family="Georgia,Georgia" font-size="9.0" fill="#FFFFFF" transform="matrix(1.00, 0.00, -0.00, -1.00, 182.0, 341.7)">D</text><text xml:space="preserve" font-family="Georgia,Georgia" font-size="9.0" fill="#FFFFFF" transform="matrix(1.00, 0.00, -0.00, -1.00, 188.7, 341.7)">a</text><text xml:space="preserve" font-family="Georgia,Georgia" font-size="9.0" fill="#FFFFFF" transform="matrix(1.00, 0.00, -0.00, -1.00, 193.2, 341.7)">t</text><text xml:space="preserve" font-family="Georgia,Georgia" font-size="9.0" fill="#FFFFFF" transform="matrix(1.00, 0.00, -0.00, -1.00, 196.3, 341.7)">a</text><text xml:space="preserve" font-family="Georgia,Georgia" font-size="9.0" fill="#FFFFFF" transform="matrix(1.00, 0.00, -0.00, -1.00, 200.9, 341.7)"> </text><text xml:space="preserve" font-family="Georgia,Georgia" font-size="9.0" fill="#FFFFFF" transform="matrix(1.00, 0.00, -0.00, -1.00, 203.0, 341.7)">a</text><text xml:space="preserve" font-family="Georgia,Georgia" font-size="9.0" fill="#FFFFFF" transform="matrix(1.00, 0.00, -0.00, -1.00, 207.6, 341.7)">c</text><text xml:space="preserve" font-family="Georgia,Georgia" font-size="9.0" fill="#FFFFFF" transform="matrix(1.00, 0.00, -0.00, -1.00, 211.7, 341.7)">q</text><text xml:space="preserve" font-family="Georgia,Georgia" font-size="9.0" fill="#FFFFFF" transform="matrix(1.00, 0.00, -0.00, -1.00, 216.7, 341.7)">u</text><text xml:space="preserve" font-family="Georgia,Georgia" font-size="9.0" fill="#FFFFFF" transform="matrix(1.00, 0.00, -0.00, -1.00, 221.9, 341.7)">i</text><text xml:space="preserve" font-family="Georgia,Georgia" font-size="9.0" fill="#FFFFFF" transform="matrix(1.00, 0.00, -0.00, -1.00, 224.5, 341.7)">s</text><text xml:space="preserve" font-family="Georgia,Georgia" font-size="9.0" fill="#FFFFFF" transform="matrix(1.00, 0.00, -0.00, -1.00, 228.4, 341.7)">i</text><text xml:space="preserve" font-family="Georgia,Georgia" font-size="9.0" fill="#FFFFFF" transform="matrix(1.00, 0.00, -0.00, -1.00, 231.0, 341.7)">t</text><text xml:space="preserve" font-family="Georgia,Georgia" font-size="9.0" fill="#FFFFFF" transform="matrix(1.00, 0.00, -0.00, -1.00, 234.1, 341.7)">i</text><text xml:space="preserve" font-family="Georgia,Georgia" font-size="9.0" fill="#FFFFFF" transform="matrix(1.00, 0.00, -0.00, -1.00, 236.8, 341.7)">o</text><text xml:space="preserve" font-family="Georgia,Georgia" font-size="9.0" fill="#FFFFFF" transform="matrix(1.00, 0.00, -0.00, -1.00, 241.6, 341.7)">n</text></g></g><g><clipPath id="clip0x6000016a8340"><path d="M 195.4 297.4 L 224.1 297.4 L 224.1 326.1 L 195.4 326.1 Z M 195.4 297.4 "></path></clipPath><g clip-path="url(#clip0x6000016a8340)"><image xlink:href="05ABF1D1731EF8661EE5FEC2D62FA44F.png" width="27.00" height="27.00" transform="matrix(0.00, -0.99, -0.99, 0.00, 223.1, 325.1)" opacity="0.45"></image></g></g><g><clipPath id="clip0x6000016a84c0"><path d="M 204.0 314.0 L 200.4 314.0 L 209.7 304.4 L 219.1 314.0 L 216.0 314.0 L 216.0 323.0 L 204.0 323.0 Z M 203.8 313.7 "></path></clipPath><g clip-path="url(#clip0x6000016a84c0)"><g><clipPath id="clip0x6000016a8700"><path d="M 195.4 297.4 L 224.1 297.4 L 224.1 326.1 L 195.4 326.1 Z M 195.4 297.4 "></path></clipPath><g clip-path="url(#clip0x6000016a8700)"><path d="M 195.4 297.4 L 224.1 297.4 L 224.1 326.1 L 195.4 326.1 Z M 195.4 297.4 " fill="url(#gradSh1.1)"></path></g></g></g></g><g><clipPath id="clip0x6000018a8940"><path d="M 48.8 254.1 L 370.7 254.1 L 370.7 307.4 L 48.8 307.4 Z M 48.8 254.1 "></path></clipPath><g clip-path="url(#clip0x6000018a8940)"><image xlink:href="0657BB93288CE8E795C2B54C218DB915.png" width="320.00" height="51.00" transform="matrix(1.00, 0.00, -0.00, -1.01, 49.8, 306.4)" opacity="0.45"></image></g></g><g><clipPath id="clip0x608000eb0c20"><path d="M 53.8 264.3 L 54.0 301.1 C 54.0 302.9 55.3 304.0 57.1 304.0 L 362.4 304.0 C 364.2 304.0 366.0 302.9 366.0 301.1 L 366.0 264.3 C 366.0 262.5 364.2 261.0 362.4 261.0 L 57.1 261.0 C 55.3 261.0 53.8 262.5 53.8 264.3 Z M 53.8 264.3 "></path></clipPath><g clip-path="url(#clip0x608000eb0c20)"><g><clipPath id="clip0x608000eb0da0"><path d="M 48.8 254.1 L 370.7 254.1 L 370.7 307.4 L 48.8 307.4 Z M 48.8 254.1 "></path></clipPath><g clip-path="url(#clip0x608000eb0da0)"><path d="M 48.8 254.1 L 370.7 254.1 L 370.7 307.4 L 48.8 307.4 Z M 48.8 254.1 " fill="url(#gradSh1.2)"></path></g></g></g></g><g><clipPath id="clip0x6080010b0fe0"><path d="M 54.8 274.1 L 364.7 274.1 L 364.7 291.3 L 54.8 291.3 Z M 54.8 274.1 "></path></clipPath><g clip-path="url(#clip0x6080010b0fe0)"><text xml:space="preserve" font-family="Georgia,Georgia" font-size="9.0" fill="#FFFFFF" transform="matrix(1.00, 0.00, -0.00, -1.00, 171.2, 279.7)">2</text><text xml:space="preserve" font-family="Georgia,Georgia" font-size="9.0" fill="#FFFFFF" transform="matrix(1.00, 0.00, -0.00, -1.00, 176.2, 279.7)">)</text><text xml:space="preserve" font-family="Georgia,Georgia" font-size="9.0" fill="#FFFFFF" transform="matrix(1.00, 0.00, -0.00, -1.00, 179.6, 279.7)"> </text><text xml:space="preserve" font-family="Georgia,Georgia" font-size="9.0" fill="#FFFFFF" transform="matrix(1.00, 0.00, -0.00, -1.00, 181.7, 279.7)">I</text><text xml:space="preserve" font-family="Georgia,Georgia" font-size="9.0" fill="#FFFFFF" transform="matrix(1.00, 0.00, -0.00, -1.00, 185.3, 279.7)">m</text><text xml:space="preserve" font-family="Georgia,Georgia" font-size="9.0" fill="#FFFFFF" transform="matrix(1.00, 0.00, -0.00, -1.00, 193.2, 279.7)">a</text><text xml:space="preserve" font-family="Georgia,Georgia" font-size="9.0" fill="#FFFFFF" transform="matrix(1.00, 0.00, -0.00, -1.00, 197.7, 279.7)">g</text><text xml:space="preserve" font-family="Georgia,Georgia" font-size="9.0" fill="#FFFFFF" transform="matrix(1.00, 0.00, -0.00, -1.00, 202.3, 279.7)">e</text><text xml:space="preserve" font-family="Georgia,Georgia" font-size="9.0" fill="#FFFFFF" transform="matrix(1.00, 0.00, -0.00, -1.00, 206.7, 279.7)"> </text><text xml:space="preserve" font-family="Georgia,Georgia" font-size="9.0" fill="#FFFFFF" transform="matrix(1.00, 0.00, -0.00, -1.00, 208.8, 279.7)">t</text><text xml:space="preserve" font-family="Georgia,Georgia" font-size="9.0" fill="#FFFFFF" transform="matrix(1.00, 0.00, -0.00, -1.00, 211.9, 279.7)">r</text><text xml:space="preserve" font-family="Georgia,Georgia" font-size="9.0" fill="#FFFFFF" transform="matrix(1.00, 0.00, -0.00, -1.00, 215.6, 279.7)">e</text><text xml:space="preserve" font-family="Georgia,Georgia" font-size="9.0" fill="#FFFFFF" transform="matrix(1.00, 0.00, -0.00, -1.00, 220.0, 279.7)">a</text><text xml:space="preserve" font-family="Georgia,Georgia" font-size="9.0" fill="#FFFFFF" transform="matrix(1.00, 0.00, -0.00, -1.00, 224.5, 279.7)">t</text><text xml:space="preserve" font-family="Georgia,Georgia" font-size="9.0" fill="#FFFFFF" transform="matrix(1.00, 0.00, -0.00, -1.00, 227.6, 279.7)">m</text><text xml:space="preserve" font-family="Georgia,Georgia" font-size="9.0" fill="#FFFFFF" transform="matrix(1.00, 0.00, -0.00, -1.00, 235.5, 279.7)">e</text><text xml:space="preserve" font-family="Georgia,Georgia" font-size="9.0" fill="#FFFFFF" transform="matrix(1.00, 0.00, -0.00, -1.00, 239.9, 279.7)">n</text><text xml:space="preserve" font-family="Georgia,Georgia" font-size="9.0" fill="#FFFFFF" transform="matrix(1.00, 0.00, -0.00, -1.00, 245.2, 279.7)">t</text></g></g><g><clipPath id="clip0x6000018a8f40"><path d="M 195.4 235.3 L 224.1 235.3 L 224.1 264.1 L 195.4 264.1 Z M 195.4 235.3 "></path></clipPath><g clip-path="url(#clip0x6000018a8f40)"><image xlink:href="B2DABA69BE0064CC3263399015CDE68F.png" width="27.00" height="27.00" transform="matrix(0.00, -0.99, -0.99, 0.00, 223.1, 263.1)" opacity="0.45"></image></g></g><g><clipPath id="clip0x6000018a90c0"><path d="M 204.0 252.0 L 200.4 252.0 L 209.7 242.3 L 219.1 252.0 L 216.0 252.0 L 216.0 261.0 L 204.0 261.0 Z M 203.8 251.7 "></path></clipPath><g clip-path="url(#clip0x6000018a90c0)"><g><clipPath id="clip0x6000018a9300"><path d="M 195.4 235.3 L 224.1 235.3 L 224.1 264.1 L 195.4 264.1 Z M 195.4 235.3 "></path></clipPath><g clip-path="url(#clip0x6000018a9300)"><path d="M 195.4 235.3 L 224.1 235.3 L 224.1 264.1 L 195.4 264.1 Z M 195.4 235.3 " fill="url(#gradSh1.3)"></path></g></g></g></g><g><clipPath id="clip0x600001aa9540"><path d="M 48.8 192.0 L 370.7 192.0 L 370.7 245.3 L 48.8 245.3 Z M 48.8 192.0 "></path></clipPath><g clip-path="url(#clip0x600001aa9540)"><image xlink:href="AD681760B3FD8FC2A57ABC831A2B8F57.png" width="320.00" height="51.00" transform="matrix(1.00, 0.00, -0.00, -1.01, 49.8, 244.3)" opacity="0.45"></image></g></g><g><clipPath id="clip0x600001aa96c0"><path d="M 53.8 202.3 L 54.0 239.1 C 54.0 240.9 55.3 242.0 57.1 242.0 L 362.4 242.0 C 364.2 242.0 366.0 240.9 366.0 239.1 L 366.0 202.3 C 366.0 200.5 364.2 199.0 362.4 199.0 L 57.1 199.0 C 55.3 199.0 53.8 200.5 53.8 202.3 Z M 53.8 202.3 "></path></clipPath><g clip-path="url(#clip0x600001aa96c0)"><g><clipPath id="clip0x600001aa9900"><path d="M 48.8 192.0 L 370.7 192.0 L 370.7 245.3 L 48.8 245.3 Z M 48.8 192.0 "></path></clipPath><g clip-path="url(#clip0x600001aa9900)"><path d="M 48.8 192.0 L 370.7 192.0 L 370.7 245.3 L 48.8 245.3 Z M 48.8 192.0 " fill="url(#gradSh1.4)"></path></g></g></g></g><g><clipPath id="clip0x6080010b4700"><path d="M 54.8 212.1 L 364.7 212.1 L 364.7 229.3 L 54.8 229.3 Z M 54.8 212.1 "></path></clipPath><g clip-path="url(#clip0x6080010b4700)"><text xml:space="preserve" font-family="Georgia,Georgia" font-size="9.0" fill="#FFFFFF" transform="matrix(1.00, 0.00, -0.00, -1.00, 167.0, 217.7)">3</text><text xml:space="preserve" font-family="Georgia,Georgia" font-size="9.0" fill="#FFFFFF" transform="matrix(1.00, 0.00, -0.00, -1.00, 172.0, 217.7)">)</text><text xml:space="preserve" font-family="Georgia,Georgia" font-size="9.0" fill="#FFFFFF" transform="matrix(1.00, 0.00, -0.00, -1.00, 175.4, 217.7)"> </text><text xml:space="preserve" font-family="Georgia,Georgia" font-size="9.0" fill="#FFFFFF" transform="matrix(1.00, 0.00, -0.00, -1.00, 177.6, 217.7)">T</text><text xml:space="preserve" font-family="Georgia,Georgia" font-size="9.0" fill="#FFFFFF" transform="matrix(1.00, 0.00, -0.00, -1.00, 183.1, 217.7)">e</text><text xml:space="preserve" font-family="Georgia,Georgia" font-size="9.0" fill="#FFFFFF" transform="matrix(1.00, 0.00, -0.00, -1.00, 187.5, 217.7)">m</text><text xml:space="preserve" font-family="Georgia,Georgia" font-size="9.0" fill="#FFFFFF" transform="matrix(1.00, 0.00, -0.00, -1.00, 195.4, 217.7)">p</text><text xml:space="preserve" font-family="Georgia,Georgia" font-size="9.0" fill="#FFFFFF" transform="matrix(1.00, 0.00, -0.00, -1.00, 200.5, 217.7)">l</text><text xml:space="preserve" font-family="Georgia,Georgia" font-size="9.0" fill="#FFFFFF" transform="matrix(1.00, 0.00, -0.00, -1.00, 203.1, 217.7)">a</text><text xml:space="preserve" font-family="Georgia,Georgia" font-size="9.0" fill="#FFFFFF" transform="matrix(1.00, 0.00, -0.00, -1.00, 207.7, 217.7)">t</text><text xml:space="preserve" font-family="Georgia,Georgia" font-size="9.0" fill="#FFFFFF" transform="matrix(1.00, 0.00, -0.00, -1.00, 210.8, 217.7)">e</text><text xml:space="preserve" font-family="Georgia,Georgia" font-size="9.0" fill="#FFFFFF" transform="matrix(1.00, 0.00, -0.00, -1.00, 215.1, 217.7)"> </text><text xml:space="preserve" font-family="Georgia,Georgia" font-size="9.0" fill="#FFFFFF" transform="matrix(1.00, 0.00, -0.00, -1.00, 217.3, 217.7)">s</text><text xml:space="preserve" font-family="Georgia,Georgia" font-size="9.0" fill="#FFFFFF" transform="matrix(1.00, 0.00, -0.00, -1.00, 221.2, 217.7)">e</text><text xml:space="preserve" font-family="Georgia,Georgia" font-size="9.0" fill="#FFFFFF" transform="matrix(1.00, 0.00, -0.00, -1.00, 225.5, 217.7)">l</text><text xml:space="preserve" font-family="Georgia,Georgia" font-size="9.0" fill="#FFFFFF" transform="matrix(1.00, 0.00, -0.00, -1.00, 228.1, 217.7)">e</text><text xml:space="preserve" font-family="Georgia,Georgia" font-size="9.0" fill="#FFFFFF" transform="matrix(1.00, 0.00, -0.00, -1.00, 232.5, 217.7)">c</text><text xml:space="preserve" font-family="Georgia,Georgia" font-size="9.0" fill="#FFFFFF" transform="matrix(1.00, 0.00, -0.00, -1.00, 236.6, 217.7)">t</text><text xml:space="preserve" font-family="Georgia,Georgia" font-size="9.0" fill="#FFFFFF" transform="matrix(1.00, 0.00, -0.00, -1.00, 239.7, 217.7)">i</text><text xml:space="preserve" font-family="Georgia,Georgia" font-size="9.0" fill="#FFFFFF" transform="matrix(1.00, 0.00, -0.00, -1.00, 242.3, 217.7)">o</text><text xml:space="preserve" font-family="Georgia,Georgia" font-size="9.0" fill="#FFFFFF" transform="matrix(1.00, 0.00, -0.00, -1.00, 247.2, 217.7)">n</text></g></g><g><clipPath id="clip0x6080010b50c0"><path d="M 195.4 173.3 L 224.1 173.3 L 224.1 202.0 L 195.4 202.0 Z M 195.4 173.3 "></path></clipPath><g clip-path="url(#clip0x6080010b50c0)"><image xlink:href="E5A8C934E1A7F20D2B77A037D1A4A4C4.png" width="27.00" height="27.00" transform="matrix(0.00, -0.99, -0.99, 0.00, 223.1, 201.0)" opacity="0.45"></image></g></g><g><clipPath id="clip0x600001ca68a0"><path d="M 204.0 190.0 L 200.4 190.0 L 209.7 180.3 L 219.1 190.0 L 216.0 190.0 L 216.0 199.0 L 204.0 199.0 Z M 203.8 189.7 "></path></clipPath><g clip-path="url(#clip0x600001ca68a0)"><g><clipPath id="clip0x600001ca6a20"><path d="M 195.4 173.3 L 224.1 173.3 L 224.1 202.0 L 195.4 202.0 Z M 195.4 173.3 "></path></clipPath><g clip-path="url(#clip0x600001ca6a20)"><path d="M 195.4 173.3 L 224.1 173.3 L 224.1 202.0 L 195.4 202.0 Z M 195.4 173.3 " fill="url(#gradSh1.5)"></path></g></g></g></g><g><clipPath id="clip0x600001ea6c60"><path d="M 48.8 130.0 L 370.7 130.0 L 370.7 183.3 L 48.8 183.3 Z M 48.8 130.0 "></path></clipPath><g clip-path="url(#clip0x600001ea6c60)"><image xlink:href="A916E2B0DB3596FB37E75976621E0D1A.png" width="320.00" height="51.00" transform="matrix(1.00, 0.00, -0.00, -1.01, 49.8, 182.3)" opacity="0.45"></image></g></g><g><clipPath id="clip0x6080010b52a0"><path d="M 53.8 140.3 L 54.0 177.1 C 54.0 178.9 55.3 180.0 57.1 180.0 L 362.4 180.0 C 364.2 180.0 366.0 178.9 366.0 177.1 L 366.0 140.3 C 366.0 138.5 364.2 137.0 362.4 137.0 L 57.1 137.0 C 55.3 137.0 53.8 138.5 53.8 140.3 Z M 53.8 140.3 "></path></clipPath><g clip-path="url(#clip0x6080010b52a0)"><g><clipPath id="clip0x6080010b54e0"><path d="M 48.8 130.0 L 370.7 130.0 L 370.7 183.3 L 48.8 183.3 Z M 48.8 130.0 "></path></clipPath><g clip-path="url(#clip0x6080010b54e0)"><path d="M 48.8 130.0 L 370.7 130.0 L 370.7 183.3 L 48.8 183.3 Z M 48.8 130.0 " fill="url(#gradSh1.6)"></path></g></g></g></g><g><clipPath id="clip0x6080012b5720"><path d="M 54.8 150.1 L 364.7 150.1 L 364.7 167.3 L 54.8 167.3 Z M 54.8 150.1 "></path></clipPath><g clip-path="url(#clip0x6080012b5720)"><text xml:space="preserve" font-family="Georgia,Georgia" font-size="9.0" fill="#FFFFFF" transform="matrix(1.00, 0.00, -0.00, -1.00, 147.6, 155.6)">4</text><text xml:space="preserve" font-family="Georgia,Georgia" font-size="9.0" fill="#FFFFFF" transform="matrix(1.00, 0.00, -0.00, -1.00, 152.7, 155.6)">)</text><text xml:space="preserve" font-family="Georgia,Georgia" font-size="9.0" fill="#FFFFFF" transform="matrix(1.00, 0.00, -0.00, -1.00, 156.1, 155.6)"> </text><text xml:space="preserve" font-family="Georgia,Georgia" font-size="9.0" fill="#FFFFFF" transform="matrix(1.00, 0.00, -0.00, -1.00, 158.3, 155.6)"> </text><text xml:space="preserve" font-family="Georgia,Georgia" font-size="9.0" fill="#FFFFFF" transform="matrix(1.00, 0.00, -0.00, -1.00, 160.4, 155.6)">D</text><text xml:space="preserve" font-family="Georgia,Georgia" font-size="9.0" fill="#FFFFFF" transform="matrix(1.00, 0.00, -0.00, -1.00, 167.2, 155.6)">i</text><text xml:space="preserve" font-family="Georgia,Georgia" font-size="9.0" fill="#FFFFFF" transform="matrix(1.00, 0.00, -0.00, -1.00, 169.8, 155.6)">s</text><text xml:space="preserve" font-family="Georgia,Georgia" font-size="9.0" fill="#FFFFFF" transform="matrix(1.00, 0.00, -0.00, -1.00, 173.7, 155.6)">p</text><text xml:space="preserve" font-family="Georgia,Georgia" font-size="9.0" fill="#FFFFFF" transform="matrix(1.00, 0.00, -0.00, -1.00, 178.8, 155.6)">l</text><text xml:space="preserve" font-family="Georgia,Georgia" font-size="9.0" fill="#FFFFFF" transform="matrix(1.00, 0.00, -0.00, -1.00, 181.4, 155.6)">a</text><text xml:space="preserve" font-family="Georgia,Georgia" font-size="9.0" fill="#FFFFFF" transform="matrix(1.00, 0.00, -0.00, -1.00, 185.9, 155.6)">c</text><text xml:space="preserve" font-family="Georgia,Georgia" font-size="9.0" fill="#FFFFFF" transform="matrix(1.00, 0.00, -0.00, -1.00, 190.0, 155.6)">e</text><text xml:space="preserve" font-family="Georgia,Georgia" font-size="9.0" fill="#FFFFFF" transform="matrix(1.00, 0.00, -0.00, -1.00, 194.4, 155.6)">m</text><text xml:space="preserve" font-family="Georgia,Georgia" font-size="9.0" fill="#FFFFFF" transform="matrix(1.00, 0.00, -0.00, -1.00, 202.3, 155.6)">e</text><text xml:space="preserve" font-family="Georgia,Georgia" font-size="9.0" fill="#FFFFFF" transform="matrix(1.00, 0.00, -0.00, -1.00, 206.7, 155.6)">n</text><text xml:space="preserve" font-family="Georgia,Georgia" font-size="9.0" fill="#FFFFFF" transform="matrix(1.00, 0.00, -0.00, -1.00, 212.0, 155.6)">t</text><text xml:space="preserve" font-family="Georgia,Georgia" font-size="9.0" fill="#FFFFFF" transform="matrix(1.00, 0.00, -0.00, -1.00, 215.1, 155.6)"> </text><text xml:space="preserve" font-family="Georgia,Georgia" font-size="9.0" fill="#FFFFFF" transform="matrix(1.00, 0.00, -0.00, -1.00, 217.3, 155.6)">m</text><text xml:space="preserve" font-family="Georgia,Georgia" font-size="9.0" fill="#FFFFFF" transform="matrix(1.00, 0.00, -0.00, -1.00, 225.2, 155.6)">e</text><text xml:space="preserve" font-family="Georgia,Georgia" font-size="9.0" fill="#FFFFFF" transform="matrix(1.00, 0.00, -0.00, -1.00, 229.5, 155.6)">a</text><text xml:space="preserve" font-family="Georgia,Georgia" font-size="9.0" fill="#FFFFFF" transform="matrix(1.00, 0.00, -0.00, -1.00, 234.1, 155.6)">s</text><text xml:space="preserve" font-family="Georgia,Georgia" font-size="9.0" fill="#FFFFFF" transform="matrix(1.00, 0.00, -0.00, -1.00, 238.0, 155.6)">u</text><text xml:space="preserve" font-family="Georgia,Georgia" font-size="9.0" fill="#FFFFFF" transform="matrix(1.00, 0.00, -0.00, -1.00, 243.2, 155.6)">r</text><text xml:space="preserve" font-family="Georgia,Georgia" font-size="9.0" fill="#FFFFFF" transform="matrix(1.00, 0.00, -0.00, -1.00, 246.8, 155.6)">e</text><text xml:space="preserve" font-family="Georgia,Georgia" font-size="9.0" fill="#FFFFFF" transform="matrix(1.00, 0.00, -0.00, -1.00, 251.2, 155.6)">m</text><text xml:space="preserve" font-family="Georgia,Georgia" font-size="9.0" fill="#FFFFFF" transform="matrix(1.00, 0.00, -0.00, -1.00, 259.1, 155.6)">e</text><text xml:space="preserve" font-family="Georgia,Georgia" font-size="9.0" fill="#FFFFFF" transform="matrix(1.00, 0.00, -0.00, -1.00, 263.5, 155.6)">n</text><text xml:space="preserve" font-family="Georgia,Georgia" font-size="9.0" fill="#FFFFFF" transform="matrix(1.00, 0.00, -0.00, -1.00, 268.8, 155.6)">t</text></g></g><g><clipPath id="clip0x6080012b6380"><path d="M 440.5 239.5 L 527.2 239.5 L 527.2 302.3 L 440.5 302.3 Z M 440.5 239.5 "></path></clipPath><g clip-path="url(#clip0x6080012b6380)"><path d="M -0.5 0.3 L 82.5 0.3 L 82.5 59.3 L -0.5 59.3 Z M 0.0 0.0 " fill="none" stroke="#C3260C" stroke-width="2.00" stroke-linejoin="bevel" stroke-dasharray="8.0, 6.0" transform="matrix(1.00, 0.00, 0.00, -1.00, 442.5, 300.3)"></path></g></g><g><clipPath id="clip0x6080012b65c0"><path d="M 425.5 300.7 L 565.6 300.7 L 565.6 331.9 L 425.5 331.9 Z M 425.5 300.7 "></path></clipPath><g clip-path="url(#clip0x6080012b65c0)"><text xml:space="preserve" font-family="Georgia,Georgia" font-size="18.0" fill="#C3260C" transform="matrix(1.00, 0.00, -0.00, -1.00, 430.6, 309.7)">M</text><text xml:space="preserve" font-family="Georgia,Georgia" font-size="18.0" fill="#C3260C" transform="matrix(1.00, 0.00, -0.00, -1.00, 447.3, 309.7)">o</text><text xml:space="preserve" font-family="Georgia,Georgia" font-size="18.0" fill="#C3260C" transform="matrix(1.00, 0.00, -0.00, -1.00, 457.0, 309.7)">v</text><text xml:space="preserve" font-family="Georgia,Georgia" font-size="18.0" fill="#C3260C" transform="matrix(1.00, 0.00, -0.00, -1.00, 465.9, 309.7)">e</text><text xml:space="preserve" font-family="Georgia,Georgia" font-size="18.0" fill="#C3260C" transform="matrix(1.00, 0.00, -0.00, -1.00, 474.6, 309.7)">d</text><text xml:space="preserve" font-family="Georgia,Georgia" font-size="18.0" fill="#C3260C" transform="matrix(1.00, 0.00, -0.00, -1.00, 485.0, 309.7)"> </text><text xml:space="preserve" font-family="Georgia,Georgia" font-size="18.0" fill="#C3260C" transform="matrix(1.00, 0.00, -0.00, -1.00, 489.3, 309.7)">t</text><text xml:space="preserve" font-family="Georgia,Georgia" font-size="18.0" fill="#C3260C" transform="matrix(1.00, 0.00, -0.00, -1.00, 495.5, 309.7)">e</text><text xml:space="preserve" font-family="Georgia,Georgia" font-size="18.0" fill="#C3260C" transform="matrix(1.00, 0.00, -0.00, -1.00, 504.2, 309.7)">m</text><text xml:space="preserve" font-family="Georgia,Georgia" font-size="18.0" fill="#C3260C" transform="matrix(1.00, 0.00, -0.00, -1.00, 520.1, 309.7)">p</text><text xml:space="preserve" font-family="Georgia,Georgia" font-size="18.0" fill="#C3260C" transform="matrix(1.00, 0.00, -0.00, -1.00, 530.4, 309.7)">l</text><text xml:space="preserve" font-family="Georgia,Georgia" font-size="18.0" fill="#C3260C" transform="matrix(1.00, 0.00, -0.00, -1.00, 535.5, 309.7)">a</text><text xml:space="preserve" font-family="Georgia,Georgia" font-size="18.0" fill="#C3260C" transform="matrix(1.00, 0.00, -0.00, -1.00, 544.6, 309.7)">t</text><text xml:space="preserve" font-family="Georgia,Georgia" font-size="18.0" fill="#C3260C" transform="matrix(1.00, 0.00, -0.00, -1.00, 550.8, 309.7)">e</text></g></g><g><clipPath id="clip0x6080012b6ce0"><path d="M 493.3 229.7 L 580.0 229.7 L 580.0 292.5 L 493.3 292.5 Z M 493.3 229.7 "></path></clipPath><g clip-path="url(#clip0x6080012b6ce0)"><path d="M -0.3 -0.5 L 82.7 -0.5 L 82.7 58.5 L -0.3 58.5 Z M 0.0 0.0 " fill="none" stroke="#384B91" stroke-width="2.00" stroke-linejoin="bevel" transform="matrix(1.00, 0.00, 0.00, -1.00, 495.3, 290.5)"></path></g></g><g><clipPath id="clip0x6080012b6f20"><path d="M 426.1 163.6 L 646.6 163.6 L 646.6 351.4 L 426.1 351.4 Z M 426.1 163.6 "></path></clipPath><g clip-path="url(#clip0x6080012b6f20)"><path d="M -0.1 0.4 L 216.9 0.4 L 216.9 183.4 L -0.1 183.4 Z M 0.0 0.0 " fill="none" stroke="#00B050" stroke-width="2.00" stroke-linejoin="bevel" transform="matrix(1.00, 0.00, 0.00, -1.00, 428.1, 349.4)"></path></g></g><g><clipPath id="clip0x6080012b7160"><path d="M 556.9 285.3 L 643.2 285.3 L 643.2 316.6 L 556.9 316.6 Z M 556.9 285.3 "></path></clipPath><g clip-path="url(#clip0x6080012b7160)"><text xml:space="preserve" font-family="Georgia,Georgia" font-size="18.0" fill="#181D33" transform="matrix(1.00, 0.00, -0.00, -1.00, 562.0, 294.4)">T</text><text xml:space="preserve" font-family="Georgia,Georgia" font-size="18.0" fill="#181D33" transform="matrix(1.00, 0.00, -0.00, -1.00, 573.1, 294.4)">e</text><text xml:space="preserve" font-family="Georgia,Georgia" font-size="18.0" fill="#181D33" transform="matrix(1.00, 0.00, -0.00, -1.00, 581.8, 294.4)">m</text><text xml:space="preserve" font-family="Georgia,Georgia" font-size="18.0" fill="#181D33" transform="matrix(1.00, 0.00, -0.00, -1.00, 597.7, 294.4)">p</text><text xml:space="preserve" font-family="Georgia,Georgia" font-size="18.0" fill="#181D33" transform="matrix(1.00, 0.00, -0.00, -1.00, 608.0, 294.4)">l</text><text xml:space="preserve" font-family="Georgia,Georgia" font-size="18.0" fill="#181D33" transform="matrix(1.00, 0.00, -0.00, -1.00, 613.1, 294.4)">a</text><text xml:space="preserve" font-family="Georgia,Georgia" font-size="18.0" fill="#181D33" transform="matrix(1.00, 0.00, -0.00, -1.00, 622.2, 294.4)">t</text><text xml:space="preserve" font-family="Georgia,Georgia" font-size="18.0" fill="#181D33" transform="matrix(1.00, 0.00, -0.00, -1.00, 628.4, 294.4)">e</text></g></g><g><clipPath id="clip0x600001ea7020"><path d="M 542.5 126.8 L 662.6 126.8 L 662.6 158.0 L 542.5 158.0 Z M 542.5 126.8 "></path></clipPath><g clip-path="url(#clip0x600001ea7020)"><text xml:space="preserve" font-family="Georgia,Georgia" font-size="18.0" fill="#00B050" transform="matrix(1.00, 0.00, -0.00, -1.00, 547.6, 135.8)">S</text><text xml:space="preserve" font-family="Georgia,Georgia" font-size="18.0" fill="#00B050" transform="matrix(1.00, 0.00, -0.00, -1.00, 557.7, 135.8)">e</text><text xml:space="preserve" font-family="Georgia,Georgia" font-size="18.0" fill="#00B050" transform="matrix(1.00, 0.00, -0.00, -1.00, 566.4, 135.8)">a</text><text xml:space="preserve" font-family="Georgia,Georgia" font-size="18.0" fill="#00B050" transform="matrix(1.00, 0.00, -0.00, -1.00, 575.5, 135.8)">r</text><text xml:space="preserve" font-family="Georgia,Georgia" font-size="18.0" fill="#00B050" transform="matrix(1.00, 0.00, -0.00, -1.00, 582.9, 135.8)">c</text><text xml:space="preserve" font-family="Georgia,Georgia" font-size="18.0" fill="#00B050" transform="matrix(1.00, 0.00, -0.00, -1.00, 591.0, 135.8)">h</text><text xml:space="preserve" font-family="Georgia,Georgia" font-size="18.0" fill="#00B050" transform="matrix(1.00, 0.00, -0.00, -1.00, 601.5, 135.8)"> </text><text xml:space="preserve" font-family="Georgia,Georgia" font-size="18.0" fill="#00B050" transform="matrix(1.00, 0.00, -0.00, -1.00, 605.9, 135.8)">a</text><text xml:space="preserve" font-family="Georgia,Georgia" font-size="18.0" fill="#00B050" transform="matrix(1.00, 0.00, -0.00, -1.00, 614.9, 135.8)">r</text><text xml:space="preserve" font-family="Georgia,Georgia" font-size="18.0" fill="#00B050" transform="matrix(1.00, 0.00, -0.00, -1.00, 622.3, 135.8)">e</text><text xml:space="preserve" font-family="Georgia,Georgia" font-size="18.0" fill="#00B050" transform="matrix(1.00, 0.00, -0.00, -1.00, 631.0, 135.8)">a</text><text xml:space="preserve" font-family="Georgia,Georgia" font-size="18.0" fill="#00B050" transform="matrix(1.00, 0.00, -0.00, -1.00, 640.1, 135.8)"> </text><text xml:space="preserve" font-family="Georgia,Georgia" font-size="18.0" fill="#00B050" transform="matrix(1.00, 0.00, -0.00, -1.00, 644.4, 135.8)">A</text></g></g><g><clipPath id="clip0x600001ea76e0"><path d="M 551.9 206.8 L 660.1 206.8 L 660.1 232.3 L 551.9 232.3 Z M 551.9 206.8 "></path></clipPath><g clip-path="url(#clip0x600001ea76e0)"><text xml:space="preserve" font-family="Georgia,Georgia" font-size="15.0" fill="#FF0000" transform="matrix(1.00, 0.00, -0.00, -1.00, 556.2, 214.4)">(</text><text xml:space="preserve" font-family="Georgia,Georgia" font-size="15.0" fill="#FF0000" transform="matrix(1.00, 0.00, -0.00, -1.00, 561.8, 214.4)">x</text><text xml:space="preserve" font-family="Georgia,Georgia" font-size="15.0" fill="#FF0000" transform="matrix(1.00, 0.00, -0.00, -1.00, 569.4, 214.4)">t</text><text xml:space="preserve" font-family="Georgia,Georgia" font-size="15.0" fill="#FF0000" transform="matrix(1.00, 0.00, -0.00, -1.00, 574.6, 214.4)">e</text><text xml:space="preserve" font-family="Georgia,Georgia" font-size="15.0" fill="#FF0000" transform="matrix(1.00, 0.00, -0.00, -1.00, 581.8, 214.4)">m</text><text xml:space="preserve" font-family="Georgia,Georgia" font-size="15.0" fill="#FF0000" transform="matrix(1.00, 0.00, -0.00, -1.00, 595.0, 214.4)">p</text><text xml:space="preserve" font-family="Georgia,Georgia" font-size="15.0" fill="#FF0000" transform="matrix(1.00, 0.00, -0.00, -1.00, 603.6, 214.4)">,</text><text xml:space="preserve" font-family="Georgia,Georgia" font-size="15.0" fill="#FF0000" transform="matrix(1.00, 0.00, -0.00, -1.00, 607.6, 214.4)">y</text><text xml:space="preserve" font-family="Georgia,Georgia" font-size="15.0" fill="#FF0000" transform="matrix(1.00, 0.00, -0.00, -1.00, 615.0, 214.4)">t</text><text xml:space="preserve" font-family="Georgia,Georgia" font-size="15.0" fill="#FF0000" transform="matrix(1.00, 0.00, -0.00, -1.00, 620.2, 214.4)">e</text><text xml:space="preserve" font-family="Georgia,Georgia" font-size="15.0" fill="#FF0000" transform="matrix(1.00, 0.00, -0.00, -1.00, 627.5, 214.4)">m</text><text xml:space="preserve" font-family="Georgia,Georgia" font-size="15.0" fill="#FF0000" transform="matrix(1.00, 0.00, -0.00, -1.00, 640.7, 214.4)">p</text><text xml:space="preserve" font-family="Georgia,Georgia" font-size="15.0" fill="#FF0000" transform="matrix(1.00, 0.00, -0.00, -1.00, 649.3, 214.4)">)</text></g></g><g><clipPath id="clip0x6080012b7700"><path d="M 519.0 239.2 L 527.6 239.2 L 527.6 247.4 L 519.0 247.4 Z M 519.0 239.2 "></path></clipPath><g clip-path="url(#clip0x6080012b7700)"><path d="M 525.6 245.5 C 526.9 244.3 526.9 242.3 525.6 241.1 C 524.3 239.8 522.2 239.8 521.0 241.1 C 519.7 242.3 519.7 244.3 521.0 245.5 C 522.2 246.7 524.3 246.7 525.6 245.5 Z M 525.6 245.5 " fill="#CC0066"></path></g></g><g><clipPath id="clip0x6080012b7940"><path d="M 526.3 231.3 L 628.9 231.3 L 628.9 256.8 L 526.3 256.8 Z M 526.3 231.3 "></path></clipPath><g clip-path="url(#clip0x6080012b7940)"><text xml:space="preserve" font-family="Georgia,Georgia" font-size="15.0" fill="#CC0066" transform="matrix(1.00, 0.00, -0.00, -1.00, 530.5, 238.9)">(</text><text xml:space="preserve" font-family="Georgia,Georgia" font-size="15.0" fill="#CC0066" transform="matrix(1.00, 0.00, -0.00, -1.00, 536.2, 238.9)">x</text><text xml:space="preserve" font-family="Georgia,Georgia" font-size="15.0" fill="#CC0066" transform="matrix(1.00, 0.00, -0.00, -1.00, 543.7, 238.9)">p</text><text xml:space="preserve" font-family="Georgia,Georgia" font-size="15.0" fill="#CC0066" transform="matrix(1.00, 0.00, -0.00, -1.00, 552.3, 238.9)">e</text><text xml:space="preserve" font-family="Georgia,Georgia" font-size="15.0" fill="#CC0066" transform="matrix(1.00, 0.00, -0.00, -1.00, 559.6, 238.9)">a</text><text xml:space="preserve" font-family="Georgia,Georgia" font-size="15.0" fill="#CC0066" transform="matrix(1.00, 0.00, -0.00, -1.00, 567.1, 238.9)">k</text><text xml:space="preserve" font-family="Georgia,Georgia" font-size="15.0" fill="#CC0066" transform="matrix(1.00, 0.00, -0.00, -1.00, 575.1, 238.9)">,</text><text xml:space="preserve" font-family="Georgia,Georgia" font-size="15.0" fill="#CC0066" transform="matrix(1.00, 0.00, -0.00, -1.00, 579.2, 238.9)">y</text><text xml:space="preserve" font-family="Georgia,Georgia" font-size="15.0" fill="#CC0066" transform="matrix(1.00, 0.00, -0.00, -1.00, 586.6, 238.9)">p</text><text xml:space="preserve" font-family="Georgia,Georgia" font-size="15.0" fill="#CC0066" transform="matrix(1.00, 0.00, -0.00, -1.00, 595.1, 238.9)">e</text><text xml:space="preserve" font-family="Georgia,Georgia" font-size="15.0" fill="#CC0066" transform="matrix(1.00, 0.00, -0.00, -1.00, 602.4, 238.9)">a</text><text xml:space="preserve" font-family="Georgia,Georgia" font-size="15.0" fill="#CC0066" transform="matrix(1.00, 0.00, -0.00, -1.00, 609.9, 238.9)">k</text><text xml:space="preserve" font-family="Georgia,Georgia" font-size="15.0" fill="#CC0066" transform="matrix(1.00, 0.00, -0.00, -1.00, 618.0, 238.9)">)</text></g></g><g><clipPath id="clip0x6080012b8000"><path d="M 574.8 227.4 L 584.0 227.4 L 584.0 236.3 L 574.8 236.3 Z M 574.8 227.4 "></path></clipPath><g clip-path="url(#clip0x6080012b8000)"><path d="M 581.2 233.6 C 582.2 232.7 582.2 231.1 581.2 230.1 C 580.2 229.2 578.6 229.2 577.6 230.1 C 576.6 231.1 576.6 232.7 577.6 233.6 C 578.6 234.6 580.2 234.6 581.2 233.6 Z M 581.2 233.6 " fill="#FF0000"></path><path d="M 4.4 0.7 C 5.4 1.7 5.4 3.3 4.4 4.2 C 3.4 5.2 1.8 5.2 0.8 4.2 C -0.3 3.3 -0.3 1.7 0.8 0.7 C 1.8 -0.2 3.4 -0.2 4.4 0.7 Z M 4.4 0.7 " fill="none" stroke="#FF0000" stroke-width="2.00" stroke-linejoin="bevel" transform="matrix(1.00, 0.00, 0.00, -1.00, 576.8, 234.3)"></path></g></g></g></svg>