<?xml version="1.0" encoding="UTF-8"?><svg xmlns="http://www.w3.org/2000/svg" xmlns:xlink="http://www.w3.org/1999/xlink" clip-rule="evenodd" stroke-miterlimit="10" viewBox="0 0 720 540"><desc>SVG generated by Keynote</desc><defs></defs><g transform="matrix(1.00, 0.00, -0.00, -1.00, 0.0, 540.0)"><path d="M 0.0 0.0 L 720.0 0.0 L 720.0 540.0 L 0.0 540.0 Z M 0.0 0.0 " fill="#FFFFFF"></path><path d="M 0.0 511.0 L 720.0 511.0 L 720.0 504.0 L 0.0 504.0 Z M 0.0 511.1 " fill="#5ECCF3" fill-opacity="0.50"></path><path d="M 0.0 540.0 L 720.0 540.0 L 720.0 516.0 L 0.0 516.0 Z M 0.0 540.0 " fill="#212744"></path><path d="M 0.0 516.0 L 720.0 516.0 L 720.0 509.0 L 0.0 509.0 Z M 0.0 515.7 " fill="#5ECCF3"></path><path d="M 426.0 504.0 L 720.0 504.0 L 720.0 512.0 L 426.0 512.0 Z M 426.0 504.5 " fill="#5ECCF3"></path><path d="M 426.0 491.0 L 720.0 491.0 L 720.0 505.0 L 426.0 505.0 Z M 426.0 491.2 " fill="#5ECCF3" fill-opacity="0.50"></path><path d="M 425.8 499.0 L 426.0 500.5 C 426.0 500.7 425.9 501.0 426.1 501.0 L 666.6 501.0 C 666.8 501.0 667.0 500.7 667.0 500.5 L 667.0 499.0 C 667.0 498.8 666.8 499.0 666.6 499.0 L 426.1 499.0 C 425.9 499.0 425.8 498.8 425.8 499.0 Z M 425.8 499.0 " fill="#FFFFFF"></path><path d="M 580.6 491.2 L 581.0 493.1 C 581.0 493.4 580.8 494.0 581.1 494.0 L 706.1 494.0 C 706.4 494.0 707.0 493.4 707.0 493.1 L 707.0 491.2 C 707.0 491.0 706.4 491.0 706.1 491.0 L 581.1 491.0 C 580.8 491.0 580.6 491.0 580.6 491.2 Z M 580.6 491.2 " fill="#FFFFFF"></path><path d="M 715.0 540.0 L 720.0 540.0 L 720.0 491.0 L 715.0 491.0 Z M 715.4 540.2 " fill="#FFFFFF" fill-opacity="0.65"></path><path d="M 712.0 540.0 L 714.0 540.0 L 714.0 491.0 L 712.0 491.0 Z M 712.2 540.2 " fill="#FFFFFF" fill-opacity="0.65"></path><path d="M 711.0 540.0 L 711.0 540.0 L 711.0 491.0 L 711.0 491.0 Z M 710.7 540.2 " fill="#FFFFFF" fill-opacity="0.60"></path><path d="M 707.0 540.0 L 709.0 540.0 L 709.0 491.0 L 707.0 491.0 Z M 706.7 540.2 " fill="#FFFFFF" fill-opacity="0.40"></path><path d="M 702.0 540.0 L 706.0 540.0 L 706.0 494.0 L 702.0 494.0 Z M 702.0 540.0 " fill="#FFFFFF" fill-opacity="0.20"></path><path d="M 699.0 540.0 L 699.0 540.0 L 699.0 494.0 L 699.0 494.0 Z M 698.7 540.0 " fill="#FFFFFF" fill-opacity="0.30"></path><text xml:space="preserve" font-family="Georgia,Georgia" font-size="26.0" fill="#000000" transform="matrix(1.00, 0.00, -0.00, -1.00, 48.2, 389.5)">•</text><text xml:space="preserve" font-family="Georgia,Georgia" font-size="26.0" fill="#000000" transform="matrix(1.00, 0.00, -0.00, -1.00, 68.4, 389.5)">P</text><text xml:space="preserve" font-family="Georgia,Georgia" font-size="26.0" fill="#000000" transform="matrix(1.00, 0.00, -0.00, -1.00, 84.3, 389.5)">e</text><text xml:space="preserve" font-family="Georgia,Georgia" font-size="26.0" fill="#000000" transform="matrix(1.00, 0.00, -0.00, -1.00, 96.8, 389.5)">r</text><text xml:space="preserve" font-family="Georgia,Georgia" font-size="26.0" fill="#000000" transform="matrix(1.00, 0.00, -0.00, -1.00, 107.5, 389.5)">f</text><text xml:space="preserve" font-family="Georgia,Georgia" font-size="26.0" fill="#000000" transform="matrix(1.00, 0.00, -0.00, -1.00, 115.9, 389.5)">o</text><text xml:space="preserve" font-family="Georgia,Georgia" font-size="26.0" fill="#000000" transform="matrix(1.00, 0.00, -0.00, -1.00, 130.0, 389.5)">r</text><text xml:space="preserve" font-family="Georgia,Georgia" font-size="26.0" fill="#000000" transform="matrix(1.00, 0.00, -0.00, -1.00, 140.6, 389.5)">m</text><text xml:space="preserve" font-family="Georgia,Georgia" font-size="26.0" fill="#000000" transform="matrix(1.00, 0.00, -0.00, -1.00, 163.5, 389.5)"> </text><text xml:space="preserve" font-family="Georgia,Georgia" font-size="26.0" fill="#000000" transform="matrix(1.00, 0.00, -0.00, -1.00, 169.8, 389.5)">N</text><text xml:space="preserve" font-family="Georgia,Georgia" font-size="26.0" fill="#000000" transform="matrix(1.00, 0.00, -0.00, -1.00, 189.7, 389.5)">C</text><text xml:space="preserve" font-family="Georgia,Georgia" font-size="26.0" fill="#000000" transform="matrix(1.00, 0.00, -0.00, -1.00, 206.4, 389.5)">C</text><text xml:space="preserve" font-family="Georgia,Georgia" font-size="26.0" fill="#000000" transform="matrix(1.00, 0.00, -0.00, -1.00, 223.1, 389.5)">:</text><text xml:space="preserve" font-family="Georgia,Georgia" font-size="26.0" fill="#000000" transform="matrix(1.00, 0.00, -0.00, -1.00, 231.2, 389.5)"> </text><text xml:space="preserve" font-family="Georgia,Georgia" font-size="26.0" fill="#000000" transform="matrix(1.00, 0.00, -0.00, -1.00, 237.5, 389.5)">c</text><text xml:space="preserve" font-family="Georgia,Georgia" font-size="26.0" fill="#000000" transform="matrix(1.00, 0.00, -0.00, -1.00, 249.3, 389.5)"> </text><text xml:space="preserve" font-family="Georgia,Georgia" font-size="26.0" fill="#000000" transform="matrix(1.00, 0.00, -0.00, -1.00, 255.6, 389.5)">=</text><text xml:space="preserve" font-family="Georgia,Georgia" font-size="26.0" fill="#000000" transform="matrix(1.00, 0.00, -0.00, -1.00, 272.3, 389.5)"> </text><text xml:space="preserve" font-family="Georgia,Georgia" font-size="26.0" fill="#000000" transform="matrix(1.00, 0.00, -0.00, -1.00, 278.6, 389.5)">n</text><text xml:space="preserve" font-family="Georgia,Georgia" font-size="26.0" fill="#000000" transform="matrix(1.00, 0.00, -0.00, -1.00, 293.9, 389.5)">o</text><text xml:space="preserve" font-family="Georgia,Georgia" font-size="26.0" fill="#000000" transform="matrix(1.00, 0.00, -0.00, -1.00, 307.9, 389.5)">r</text><text xml:space="preserve" font-family="Georgia,Georgia" font-size="26.0" fill="#000000" transform="matrix(1.00, 0.00, -0.00, -1.00, 318.6, 389.5)">m</text><text xml:space="preserve" font-family="Georgia,Georgia" font-size="26.0" fill="#000000" transform="matrix(1.00, 0.00, -0.00, -1.00, 341.5, 389.5)">x</text><text xml:space="preserve" font-family="Georgia,Georgia" font-size="26.0" fill="#000000" transform="matrix(1.00, 0.00, -0.00, -1.00, 354.6, 389.5)">c</text><text xml:space="preserve" font-family="Georgia,Georgia" font-size="26.0" fill="#000000" transform="matrix(1.00, 0.00, -0.00, -1.00, 366.4, 389.5)">o</text><text xml:space="preserve" font-family="Georgia,Georgia" font-size="26.0" fill="#000000" transform="matrix(1.00, 0.00, -0.00, -1.00, 380.4, 389.5)">r</text><text xml:space="preserve" font-family="Georgia,Georgia" font-size="26.0" fill="#000000" transform="matrix(1.00, 0.00, -0.00, -1.00, 391.1, 389.5)">r</text><text xml:space="preserve" font-family="Georgia,Georgia" font-size="26.0" fill="#000000" transform="matrix(1.00, 0.00, -0.00, -1.00, 401.7, 389.5)">2</text><text xml:space="preserve" font-family="Georgia-Italic,Georgia" font-style="italic" font-size="26.0" fill="#000000" transform="matrix(1.00, 0.00, -0.00, -1.00, 416.3, 389.5)">(</text><text xml:space="preserve" font-family="Georgia-Italic,Georgia" font-style="italic" font-size="26.0" fill="#000000" transform="matrix(1.00, 0.00, -0.00, -1.00, 426.0, 389.5)">t</text><text xml:space="preserve" font-family="Georgia-Italic,Georgia" font-style="italic" font-size="26.0" fill="#000000" transform="matrix(1.00, 0.00, -0.00, -1.00, 435.1, 389.5)">e</text><text xml:space="preserve" font-family="Georgia-Italic,Georgia" font-style="italic" font-size="26.0" fill="#000000" transform="matrix(1.00, 0.00, -0.00, -1.00, 447.3, 389.5)">m</text><text xml:space="preserve" font-family="Georgia-Italic,Georgia" font-style="italic" font-size="26.0" fill="#000000" transform="matrix(1.00, 0.00, -0.00, -1.00, 470.2, 389.5)">p</text><text xml:space="preserve" font-family="Georgia-Italic,Georgia" font-style="italic" font-size="26.0" fill="#000000" transform="matrix(1.00, 0.00, -0.00, -1.00, 485.2, 389.5)">l</text><text xml:space="preserve" font-family="Georgia-Italic,Georgia" font-style="italic" font-size="26.0" fill="#000000" transform="matrix(1.00, 0.00, -0.00, -1.00, 492.6, 389.5)">a</text><text xml:space="preserve" font-family="Georgia-Italic,Georgia" font-style="italic" font-size="26.0" fill="#000000" transform="matrix(1.00, 0.00, -0.00, -1.00, 507.5, 389.5)">t</text><text xml:space="preserve" font-family="Georgia-Italic,Georgia" font-style="italic" font-size="26.0" fill="#000000" transform="matrix(1.00, 0.00, -0.00, -1.00, 516.6, 389.5)">e</text><text xml:space="preserve" font-family="Georgia-Italic,Georgia" font-style="italic" font-size="26.0" fill="#000000" transform="matrix(1.00, 0.00, -0.00, -1.00, 528.8, 389.5)">,</text><text xml:space="preserve" font-family="Georgia-Italic,Georgia" font-style="italic" font-size="26.0" fill="#000000" transform="matrix(1.00, 0.00, -0.00, -1.00, 535.8, 389.5)"> </text><text xml:space="preserve" font-family="Georgia-Italic,Georgia" font-style="italic" font-size="26.0" fill="#000000" transform="matrix(1.00, 0.00, -0.00, -1.00, 542.1, 389.5)">A</text><text xml:space="preserve" font-family="Georgia-Italic,Georgia" font-style="italic" font-size="26.0" fill="#000000" transform="matrix(1.00, 0.00, -0.00, -1.00, 559.5, 389.5)">)</text><text xml:space="preserve" font-family="Georgia-Italic,Georgia" font-style="italic" font-size="26.0" fill="#000000" transform="matrix(1.00, 0.00, -0.00, -1.00, 569.3, 389.5)"> </text><text xml:space="preserve" font-family="Georgia,Georgia" font-size="26.0" fill="#000000" transform="matrix(1.00, 0.00, -0.00, -1.00, 48.2, 356.5)">•</text><text xml:space="preserve" font-family="Georgia,Georgia" font-size="26.0" fill="#000000" transform="matrix(1.00, 0.00, -0.00, -1.00, 68.4, 356.5)">F</text><text xml:space="preserve" font-family="Georgia,Georgia" font-size="26.0" fill="#000000" transform="matrix(1.00, 0.00, -0.00, -1.00, 84.0, 356.5)">i</text><text xml:space="preserve" font-family="Georgia,Georgia" font-size="26.0" fill="#000000" transform="matrix(1.00, 0.00, -0.00, -1.00, 91.6, 356.5)">n</text><text xml:space="preserve" font-family="Georgia,Georgia" font-size="26.0" fill="#000000" transform="matrix(1.00, 0.00, -0.00, -1.00, 107.0, 356.5)">d</text><text xml:space="preserve" font-family="Georgia,Georgia" font-size="26.0" fill="#000000" transform="matrix(1.00, 0.00, -0.00, -1.00, 121.9, 356.5)"> </text><text xml:space="preserve" font-family="Georgia,Georgia" font-size="26.0" fill="#000000" transform="matrix(1.00, 0.00, -0.00, -1.00, 128.2, 356.5)">p</text><text xml:space="preserve" font-family="Georgia,Georgia" font-size="26.0" fill="#000000" transform="matrix(1.00, 0.00, -0.00, -1.00, 143.0, 356.5)">e</text><text xml:space="preserve" font-family="Georgia,Georgia" font-size="26.0" fill="#000000" transform="matrix(1.00, 0.00, -0.00, -1.00, 155.6, 356.5)">a</text><text xml:space="preserve" font-family="Georgia,Georgia" font-size="26.0" fill="#000000" transform="matrix(1.00, 0.00, -0.00, -1.00, 168.7, 356.5)">k</text><text xml:space="preserve" font-family="Georgia,Georgia" font-size="26.0" fill="#000000" transform="matrix(1.00, 0.00, -0.00, -1.00, 182.6, 356.5)"> </text><text xml:space="preserve" font-family="Georgia,Georgia" font-size="26.0" fill="#000000" transform="matrix(1.00, 0.00, -0.00, -1.00, 188.9, 356.5)">o</text><text xml:space="preserve" font-family="Georgia,Georgia" font-size="26.0" fill="#000000" transform="matrix(1.00, 0.00, -0.00, -1.00, 202.9, 356.5)">f</text><text xml:space="preserve" font-family="Georgia,Georgia" font-size="26.0" fill="#000000" transform="matrix(1.00, 0.00, -0.00, -1.00, 211.4, 356.5)"> </text><text xml:space="preserve" font-family="Georgia,Georgia" font-size="26.0" fill="#000000" transform="matrix(1.00, 0.00, -0.00, -1.00, 217.7, 356.5)">N</text><text xml:space="preserve" font-family="Georgia,Georgia" font-size="26.0" fill="#000000" transform="matrix(1.00, 0.00, -0.00, -1.00, 237.6, 356.5)">C</text><text xml:space="preserve" font-family="Georgia,Georgia" font-size="26.0" fill="#000000" transform="matrix(1.00, 0.00, -0.00, -1.00, 254.3, 356.5)">C</text><text xml:space="preserve" font-family="Georgia,Georgia" font-size="26.0" fill="#000000" transform="matrix(1.00, 0.00, -0.00, -1.00, 271.0, 356.5)">:</text><text xml:space="preserve" font-family="Georgia,Georgia" font-size="26.0" fill="#000000" transform="matrix(1.00, 0.00, -0.00, -1.00, 279.1, 356.5)"> </text><text xml:space="preserve" font-family="Georgia,Georgia" font-size="26.0" fill="#000000" transform="matrix(1.00, 0.00, -0.00, -1.00, 285.4, 356.5)">[</text><text xml:space="preserve" font-family="Georgia,Georgia" font-size="26.0" fill="#000000" transform="matrix(1.00, 0.00, -0.00, -1.00, 295.1, 356.5)">x</text><text xml:space="preserve" font-family="Georgia,Georgia" font-size="26.0" fill="#000000" transform="matrix(1.00, 0.00, -0.00, -1.00, 308.3, 356.5)">p</text><text xml:space="preserve" font-family="Georgia,Georgia" font-size="26.0" fill="#000000" transform="matrix(1.00, 0.00, -0.00, -1.00, 323.1, 356.5)">e</text><text xml:space="preserve" font-family="Georgia,Georgia" font-size="26.0" fill="#000000" transform="matrix(1.00, 0.00, -0.00, -1.00, 335.7, 356.5)">a</text><text xml:space="preserve" font-family="Georgia,Georgia" font-size="26.0" fill="#000000" transform="matrix(1.00, 0.00, -0.00, -1.00, 348.8, 356.5)">k</text><text xml:space="preserve" font-family="Georgia,Georgia" font-size="26.0" fill="#000000" transform="matrix(1.00, 0.00, -0.00, -1.00, 362.7, 356.5)">,</text><text xml:space="preserve" font-family="Georgia,Georgia" font-size="26.0" fill="#000000" transform="matrix(1.00, 0.00, -0.00, -1.00, 369.7, 356.5)">y</text><text xml:space="preserve" font-family="Georgia,Georgia" font-size="26.0" fill="#000000" transform="matrix(1.00, 0.00, -0.00, -1.00, 382.5, 356.5)">p</text><text xml:space="preserve" font-family="Georgia,Georgia" font-size="26.0" fill="#000000" transform="matrix(1.00, 0.00, -0.00, -1.00, 397.4, 356.5)">e</text><text xml:space="preserve" font-family="Georgia,Georgia" font-size="26.0" fill="#000000" transform="matrix(1.00, 0.00, -0.00, -1.00, 409.9, 356.5)">a</text><text xml:space="preserve" font-family="Georgia,Georgia" font-size="26.0" fill="#000000" transform="matrix(1.00, 0.00, -0.00, -1.00, 423.0, 356.5)">k</text><text xml:space="preserve" font-family="Georgia,Georgia" font-size="26.0" fill="#000000" transform="matrix(1.00, 0.00, -0.00, -1.00, 437.0, 356.5)">]</text><text xml:space="preserve" font-family="Georgia,Georgia" font-size="26.0" fill="#000000" transform="matrix(1.00, 0.00, -0.00, -1.00, 446.7, 356.5)"> </text><text xml:space="preserve" font-family="Georgia,Georgia" font-size="26.0" fill="#000000" transform="matrix(1.00, 0.00, -0.00, -1.00, 453.0, 356.5)">=</text><text xml:space="preserve" font-family="Georgia,Georgia" font-size="26.0" fill="#000000" transform="matrix(1.00, 0.00, -0.00, -1.00, 469.7, 356.5)"> </text><text xml:space="preserve" font-family="Georgia,Georgia" font-size="26.0" fill="#000000" transform="matrix(1.00, 0.00, -0.00, -1.00, 68.4, 326.5)">f</text><text xml:space="preserve" font-family="Georgia,Georgia" font-size="26.0" fill="#000000" transform="matrix(1.00, 0.00, -0.00, -1.00, 76.9, 326.5)">i</text><text xml:space="preserve" font-family="Georgia,Georgia" font-size="26.0" fill="#000000" transform="matrix(1.00, 0.00, -0.00, -1.00, 84.5, 326.5)">n</text><text xml:space="preserve" font-family="Georgia,Georgia" font-size="26.0" fill="#000000" transform="matrix(1.00, 0.00, -0.00, -1.00, 99.8, 326.5)">d</text><text xml:space="preserve" font-family="Georgia,Georgia" font-size="26.0" fill="#000000" transform="matrix(1.00, 0.00, -0.00, -1.00, 114.8, 326.5)">(</text><text xml:space="preserve" font-family="Georgia,Georgia" font-size="26.0" fill="#000000" transform="matrix(1.00, 0.00, -0.00, -1.00, 124.5, 326.5)">c</text><text xml:space="preserve" font-family="Georgia,Georgia" font-size="26.0" fill="#000000" transform="matrix(1.00, 0.00, -0.00, -1.00, 136.3, 326.5)">=</text><text xml:space="preserve" font-family="Georgia,Georgia" font-size="26.0" fill="#000000" transform="matrix(1.00, 0.00, -0.00, -1.00, 153.1, 326.5)">=</text><text xml:space="preserve" font-family="Georgia,Georgia" font-size="26.0" fill="#000000" transform="matrix(1.00, 0.00, -0.00, -1.00, 169.8, 326.5)">m</text><text xml:space="preserve" font-family="Georgia,Georgia" font-size="26.0" fill="#000000" transform="matrix(1.00, 0.00, -0.00, -1.00, 192.7, 326.5)">a</text><text xml:space="preserve" font-family="Georgia,Georgia" font-size="26.0" fill="#000000" transform="matrix(1.00, 0.00, -0.00, -1.00, 205.8, 326.5)">x</text><text xml:space="preserve" font-family="Georgia,Georgia" font-size="26.0" fill="#000000" transform="matrix(1.00, 0.00, -0.00, -1.00, 218.9, 326.5)">(</text><text xml:space="preserve" font-family="Georgia,Georgia" font-size="26.0" fill="#000000" transform="matrix(1.00, 0.00, -0.00, -1.00, 228.6, 326.5)">c</text><text xml:space="preserve" font-family="Georgia,Georgia" font-size="26.0" fill="#000000" transform="matrix(1.00, 0.00, -0.00, -1.00, 240.5, 326.5)">(</text><text xml:space="preserve" font-family="Georgia,Georgia" font-size="26.0" fill="#000000" transform="matrix(1.00, 0.00, -0.00, -1.00, 250.2, 326.5)">:</text><text xml:space="preserve" font-family="Georgia,Georgia" font-size="26.0" fill="#000000" transform="matrix(1.00, 0.00, -0.00, -1.00, 258.3, 326.5)">)</text><text xml:space="preserve" font-family="Georgia,Georgia" font-size="26.0" fill="#000000" transform="matrix(1.00, 0.00, -0.00, -1.00, 268.1, 326.5)">)</text><text xml:space="preserve" font-family="Georgia,Georgia" font-size="26.0" fill="#000000" transform="matrix(1.00, 0.00, -0.00, -1.00, 277.8, 326.5)">)</text><text xml:space="preserve" font-family="Georgia,Georgia" font-size="26.0" fill="#000000" transform="matrix(1.00, 0.00, -0.00, -1.00, 287.6, 326.5)">;</text><g><clipPath id="clip0x6080022b3a40"><path d="M 313.9 157.2 L 408.6 157.2 L 408.6 229.3 L 313.9 229.3 Z M 313.9 157.2 "></path></clipPath><g clip-path="url(#clip0x6080022b3a40)"><path d="M 0.1 0.3 L 91.1 0.3 L 91.1 68.3 L 0.1 68.3 Z M 0.0 0.0 " fill="none" stroke="#384B91" stroke-width="2.00" stroke-linejoin="bevel" transform="matrix(1.00, 0.00, 0.00, -1.00, 315.9, 227.3)"></path></g></g><g><clipPath id="clip0x6080022b3c80"><path d="M 240.2 80.9 L 481.8 80.9 L 481.8 297.3 L 240.2 297.3 Z M 240.2 80.9 "></path></clipPath><g clip-path="url(#clip0x6080022b3c80)"><path d="M -0.2 0.3 L 237.8 0.3 L 237.8 212.3 L -0.2 212.3 Z M 0.0 0.0 " fill="none" stroke="#00B050" stroke-width="2.00" stroke-linejoin="bevel" transform="matrix(1.00, 0.00, 0.00, -1.00, 242.2, 295.3)"></path></g></g><g><clipPath id="clip0x6080022b3ec0"><path d="M 316.8 174.9 L 403.1 174.9 L 403.1 206.1 L 316.8 206.1 Z M 316.8 174.9 "></path></clipPath><g clip-path="url(#clip0x6080022b3ec0)"><text xml:space="preserve" font-family="Georgia,Georgia" font-size="18.0" fill="#181D33" transform="matrix(1.00, 0.00, -0.00, -1.00, 321.9, 183.9)">T</text><text xml:space="preserve" font-family="Georgia,Georgia" font-size="18.0" fill="#181D33" transform="matrix(1.00, 0.00, -0.00, -1.00, 333.0, 183.9)">e</text><text xml:space="preserve" font-family="Georgia,Georgia" font-size="18.0" fill="#181D33" transform="matrix(1.00, 0.00, -0.00, -1.00, 341.8, 183.9)">m</text><text xml:space="preserve" font-family="Georgia,Georgia" font-size="18.0" fill="#181D33" transform="matrix(1.00, 0.00, -0.00, -1.00, 357.6, 183.9)">p</text><text xml:space="preserve" font-family="Georgia,Georgia" font-size="18.0" fill="#181D33" transform="matrix(1.00, 0.00, -0.00, -1.00, 367.9, 183.9)">l</text><text xml:space="preserve" font-family="Georgia,Georgia" font-size="18.0" fill="#181D33" transform="matrix(1.00, 0.00, -0.00, -1.00, 373.1, 183.9)">a</text><text xml:space="preserve" font-family="Georgia,Georgia" font-size="18.0" fill="#181D33" transform="matrix(1.00, 0.00, -0.00, -1.00, 382.1, 183.9)">t</text><text xml:space="preserve" font-family="Georgia,Georgia" font-size="18.0" fill="#181D33" transform="matrix(1.00, 0.00, -0.00, -1.00, 388.3, 183.9)">e</text></g></g><g><clipPath id="clip0x6080022b43a0"><path d="M 367.8 42.6 L 487.9 42.6 L 487.9 73.8 L 367.8 73.8 Z M 367.8 42.6 "></path></clipPath><g clip-path="url(#clip0x6080022b43a0)"><text xml:space="preserve" font-family="Georgia,Georgia" font-size="18.0" fill="#00B050" transform="matrix(1.00, 0.00, -0.00, -1.00, 372.9, 51.6)">S</text><text xml:space="preserve" font-family="Georgia,Georgia" font-size="18.0" fill="#00B050" transform="matrix(1.00, 0.00, -0.00, -1.00, 383.0, 51.6)">e</text><text xml:space="preserve" font-family="Georgia,Georgia" font-size="18.0" fill="#00B050" transform="matrix(1.00, 0.00, -0.00, -1.00, 391.8, 51.6)">a</text><text xml:space="preserve" font-family="Georgia,Georgia" font-size="18.0" fill="#00B050" transform="matrix(1.00, 0.00, -0.00, -1.00, 400.8, 51.6)">r</text><text xml:space="preserve" font-family="Georgia,Georgia" font-size="18.0" fill="#00B050" transform="matrix(1.00, 0.00, -0.00, -1.00, 408.2, 51.6)">c</text><text xml:space="preserve" font-family="Georgia,Georgia" font-size="18.0" fill="#00B050" transform="matrix(1.00, 0.00, -0.00, -1.00, 416.4, 51.6)">h</text><text xml:space="preserve" font-family="Georgia,Georgia" font-size="18.0" fill="#00B050" transform="matrix(1.00, 0.00, -0.00, -1.00, 426.8, 51.6)"> </text><text xml:space="preserve" font-family="Georgia,Georgia" font-size="18.0" fill="#00B050" transform="matrix(1.00, 0.00, -0.00, -1.00, 431.2, 51.6)">a</text><text xml:space="preserve" font-family="Georgia,Georgia" font-size="18.0" fill="#00B050" transform="matrix(1.00, 0.00, -0.00, -1.00, 440.3, 51.6)">r</text><text xml:space="preserve" font-family="Georgia,Georgia" font-size="18.0" fill="#00B050" transform="matrix(1.00, 0.00, -0.00, -1.00, 447.6, 51.6)">e</text><text xml:space="preserve" font-family="Georgia,Georgia" font-size="18.0" fill="#00B050" transform="matrix(1.00, 0.00, -0.00, -1.00, 456.3, 51.6)">a</text><text xml:space="preserve" font-family="Georgia,Georgia" font-size="18.0" fill="#00B050" transform="matrix(1.00, 0.00, -0.00, -1.00, 465.4, 51.6)"> </text><text xml:space="preserve" font-family="Georgia,Georgia" font-size="18.0" fill="#00B050" transform="matrix(1.00, 0.00, -0.00, -1.00, 469.7, 51.6)">A</text></g></g><g><clipPath id="clip0x6080022b4a60"><path d="M 403.4 154.6 L 413.0 154.6 L 413.0 164.3 L 403.4 164.3 Z M 403.4 154.6 "></path></clipPath><g clip-path="url(#clip0x6080022b4a60)"><path d="M 410.2 161.5 C 411.3 160.4 411.3 158.6 410.2 157.4 C 409.1 156.3 407.3 156.3 406.2 157.4 C 405.1 158.6 405.1 160.4 406.2 161.5 C 407.3 162.6 409.1 162.6 410.2 161.5 Z M 410.2 161.5 " fill="#FF0000"></path><path d="M 4.8 0.8 C 5.9 2.0 5.9 3.8 4.8 4.9 C 3.7 6.0 1.9 6.0 0.8 4.9 C -0.3 3.8 -0.3 2.0 0.8 0.8 C 1.9 -0.3 3.7 -0.3 4.8 0.8 Z M 4.8 0.8 " fill="none" stroke="#FF0000" stroke-width="2.00" stroke-linejoin="bevel" transform="matrix(1.00, 0.00, 0.00, -1.00, 405.4, 162.3)"></path></g></g><g><clipPath id="clip0x6080022b4d60"><path d="M 358.5 121.2 L 481.4 121.2 L 481.4 152.4 L 358.5 152.4 Z M 358.5 121.2 "></path></clipPath><g clip-path="url(#clip0x6080022b4d60)"><text xml:space="preserve" font-family="Georgia,Georgia" font-size="18.0" fill="#FF0000" transform="matrix(1.00, 0.00, -0.00, -1.00, 363.6, 130.3)">(</text><text xml:space="preserve" font-family="Georgia,Georgia" font-size="18.0" fill="#FF0000" transform="matrix(1.00, 0.00, -0.00, -1.00, 370.4, 130.3)">x</text><text xml:space="preserve" font-family="Georgia,Georgia" font-size="18.0" fill="#FF0000" transform="matrix(1.00, 0.00, -0.00, -1.00, 379.4, 130.3)">p</text><text xml:space="preserve" font-family="Georgia,Georgia" font-size="18.0" fill="#FF0000" transform="matrix(1.00, 0.00, -0.00, -1.00, 389.7, 130.3)">e</text><text xml:space="preserve" font-family="Georgia,Georgia" font-size="18.0" fill="#FF0000" transform="matrix(1.00, 0.00, -0.00, -1.00, 398.4, 130.3)">a</text><text xml:space="preserve" font-family="Georgia,Georgia" font-size="18.0" fill="#FF0000" transform="matrix(1.00, 0.00, -0.00, -1.00, 407.5, 130.3)">k</text><text xml:space="preserve" font-family="Georgia,Georgia" font-size="18.0" fill="#FF0000" transform="matrix(1.00, 0.00, -0.00, -1.00, 417.1, 130.3)">,</text><text xml:space="preserve" font-family="Georgia,Georgia" font-size="18.0" fill="#FF0000" transform="matrix(1.00, 0.00, -0.00, -1.00, 422.0, 130.3)">y</text><text xml:space="preserve" font-family="Georgia,Georgia" font-size="18.0" fill="#FF0000" transform="matrix(1.00, 0.00, -0.00, -1.00, 430.8, 130.3)">p</text><text xml:space="preserve" font-family="Georgia,Georgia" font-size="18.0" fill="#FF0000" transform="matrix(1.00, 0.00, -0.00, -1.00, 441.1, 130.3)">e</text><text xml:space="preserve" font-family="Georgia,Georgia" font-size="18.0" fill="#FF0000" transform="matrix(1.00, 0.00, -0.00, -1.00, 449.8, 130.3)">a</text><text xml:space="preserve" font-family="Georgia,Georgia" font-size="18.0" fill="#FF0000" transform="matrix(1.00, 0.00, -0.00, -1.00, 458.9, 130.3)">k</text><text xml:space="preserve" font-family="Georgia,Georgia" font-size="18.0" fill="#FF0000" transform="matrix(1.00, 0.00, -0.00, -1.00, 468.5, 130.3)">)</text></g></g><text xml:space="preserve" font-family="Georgia,Georgia" font-size="18.0" fill="#000000" transform="matrix(1.00, 0.00, -0.00, -1.00, 91.4, 16.9)">(</text><text xml:space="preserve" font-family="Georgia,Georgia" font-size="18.0" fill="#000000" transform="matrix(1.00, 0.00, -0.00, -1.00, 98.2, 16.9)">x</text><text xml:space="preserve" font-family="Georgia,Georgia" font-size="18.0" fill="#000000" transform="matrix(1.00, 0.00, -0.00, -1.00, 107.3, 16.9)">p</text><text xml:space="preserve" font-family="Georgia,Georgia" font-size="18.0" fill="#000000" transform="matrix(1.00, 0.00, -0.00, -1.00, 117.6, 16.9)">e</text><text xml:space="preserve" font-family="Georgia,Georgia" font-size="18.0" fill="#000000" transform="matrix(1.00, 0.00, -0.00, -1.00, 126.3, 16.9)">a</text><text xml:space="preserve" font-family="Georgia,Georgia" font-size="18.0" fill="#000000" transform="matrix(1.00, 0.00, -0.00, -1.00, 135.3, 16.9)">k</text><text xml:space="preserve" font-family="Georgia,Georgia" font-size="18.0" fill="#000000" transform="matrix(1.00, 0.00, -0.00, -1.00, 145.0, 16.9)">,</text><text xml:space="preserve" font-family="Georgia,Georgia" font-size="18.0" fill="#000000" transform="matrix(1.00, 0.00, -0.00, -1.00, 149.8, 16.9)">y</text><text xml:space="preserve" font-family="Georgia,Georgia" font-size="18.0" fill="#000000" transform="matrix(1.00, 0.00, -0.00, -1.00, 158.7, 16.9)">p</text><text xml:space="preserve" font-family="Georgia,Georgia" font-size="18.0" fill="#000000" transform="matrix(1.00, 0.00, -0.00, -1.00, 169.0, 16.9)">e</text><text xml:space="preserve" font-family="Georgia,Georgia" font-size="18.0" fill="#000000" transform="matrix(1.00, 0.00, -0.00, -1.00, 177.7, 16.9)">a</text><text xml:space="preserve" font-family="Georgia,Georgia" font-size="18.0" fill="#000000" transform="matrix(1.00, 0.00, -0.00, -1.00, 186.8, 16.9)">k</text><text xml:space="preserve" font-family="Georgia,Georgia" font-size="18.0" fill="#000000" transform="matrix(1.00, 0.00, -0.00, -1.00, 196.4, 16.9)">)</text><text xml:space="preserve" font-family="Georgia,Georgia" font-size="18.0" fill="#000000" transform="matrix(1.00, 0.00, -0.00, -1.00, 203.1, 16.9)"> </text><text xml:space="preserve" font-family="Georgia,Georgia" font-size="18.0" fill="#000000" transform="matrix(1.00, 0.00, -0.00, -1.00, 207.5, 16.9)">i</text><text xml:space="preserve" font-family="Georgia,Georgia" font-size="18.0" fill="#000000" transform="matrix(1.00, 0.00, -0.00, -1.00, 212.8, 16.9)">s</text><text xml:space="preserve" font-family="Georgia,Georgia" font-size="18.0" fill="#000000" transform="matrix(1.00, 0.00, -0.00, -1.00, 220.5, 16.9)"> </text><text xml:space="preserve" font-family="Georgia,Georgia" font-size="18.0" fill="#000000" transform="matrix(1.00, 0.00, -0.00, -1.00, 224.9, 16.9)">t</text><text xml:space="preserve" font-family="Georgia,Georgia" font-size="18.0" fill="#000000" transform="matrix(1.00, 0.00, -0.00, -1.00, 231.1, 16.9)">h</text><text xml:space="preserve" font-family="Georgia,Georgia" font-size="18.0" fill="#000000" transform="matrix(1.00, 0.00, -0.00, -1.00, 241.6, 16.9)">e</text><text xml:space="preserve" font-family="Georgia,Georgia" font-size="18.0" fill="#000000" transform="matrix(1.00, 0.00, -0.00, -1.00, 250.3, 16.9)"> </text><text xml:space="preserve" font-family="Georgia,Georgia" font-size="18.0" fill="#000000" transform="matrix(1.00, 0.00, -0.00, -1.00, 254.6, 16.9)">o</text><text xml:space="preserve" font-family="Georgia,Georgia" font-size="18.0" fill="#000000" transform="matrix(1.00, 0.00, -0.00, -1.00, 264.3, 16.9)">b</text><text xml:space="preserve" font-family="Georgia,Georgia" font-size="18.0" fill="#000000" transform="matrix(1.00, 0.00, -0.00, -1.00, 274.4, 16.9)">j</text><text xml:space="preserve" font-family="Georgia,Georgia" font-size="18.0" fill="#000000" transform="matrix(1.00, 0.00, -0.00, -1.00, 279.7, 16.9)">e</text><text xml:space="preserve" font-family="Georgia,Georgia" font-size="18.0" fill="#000000" transform="matrix(1.00, 0.00, -0.00, -1.00, 288.4, 16.9)">c</text><text xml:space="preserve" font-family="Georgia,Georgia" font-size="18.0" fill="#000000" transform="matrix(1.00, 0.00, -0.00, -1.00, 296.6, 16.9)">t</text><text xml:space="preserve" font-family="Georgia,Georgia" font-size="18.0" fill="#000000" transform="matrix(1.00, 0.00, -0.00, -1.00, 302.8, 16.9)"> </text><text xml:space="preserve" font-family="Georgia,Georgia" font-size="18.0" fill="#000000" transform="matrix(1.00, 0.00, -0.00, -1.00, 307.1, 16.9)">c</text><text xml:space="preserve" font-family="Georgia,Georgia" font-size="18.0" fill="#000000" transform="matrix(1.00, 0.00, -0.00, -1.00, 315.3, 16.9)">o</text><text xml:space="preserve" font-family="Georgia,Georgia" font-size="18.0" fill="#000000" transform="matrix(1.00, 0.00, -0.00, -1.00, 325.0, 16.9)">o</text><text xml:space="preserve" font-family="Georgia,Georgia" font-size="18.0" fill="#000000" transform="matrix(1.00, 0.00, -0.00, -1.00, 334.7, 16.9)">r</text><text xml:space="preserve" font-family="Georgia,Georgia" font-size="18.0" fill="#000000" transform="matrix(1.00, 0.00, -0.00, -1.00, 342.1, 16.9)">d</text><text xml:space="preserve" font-family="Georgia,Georgia" font-size="18.0" fill="#000000" transform="matrix(1.00, 0.00, -0.00, -1.00, 352.4, 16.9)">i</text><text xml:space="preserve" font-family="Georgia,Georgia" font-size="18.0" fill="#000000" transform="matrix(1.00, 0.00, -0.00, -1.00, 357.7, 16.9)">n</text><text xml:space="preserve" font-family="Georgia,Georgia" font-size="18.0" fill="#000000" transform="matrix(1.00, 0.00, -0.00, -1.00, 368.3, 16.9)">a</text><text xml:space="preserve" font-family="Georgia,Georgia" font-size="18.0" fill="#000000" transform="matrix(1.00, 0.00, -0.00, -1.00, 377.4, 16.9)">t</text><text xml:space="preserve" font-family="Georgia,Georgia" font-size="18.0" fill="#000000" transform="matrix(1.00, 0.00, -0.00, -1.00, 383.6, 16.9)">e</text><text xml:space="preserve" font-family="Georgia,Georgia" font-size="18.0" fill="#000000" transform="matrix(1.00, 0.00, -0.00, -1.00, 392.3, 16.9)"> </text><text xml:space="preserve" font-family="Georgia,Georgia" font-size="18.0" fill="#000000" transform="matrix(1.00, 0.00, -0.00, -1.00, 396.7, 16.9)">i</text><text xml:space="preserve" font-family="Georgia,Georgia" font-size="18.0" fill="#000000" transform="matrix(1.00, 0.00, -0.00, -1.00, 401.9, 16.9)">n</text><text xml:space="preserve" font-family="Georgia,Georgia" font-size="18.0" fill="#000000" transform="matrix(1.00, 0.00, -0.00, -1.00, 412.6, 16.9)"> </text><text xml:space="preserve" font-family="Georgia,Georgia" font-size="18.0" fill="#000000" transform="matrix(1.00, 0.00, -0.00, -1.00, 416.9, 16.9)"> </text><image xlink:href="../../4262DD27-C1BC-417D-94F4-F7EAD3861BE3/assets/A3ADCDF0EAF32984D1003E19ADD6A848.png" width="63.00" height="21.00" transform="matrix(1.00, 0.00, -0.00, -1.00, 420.0, 32.0)"></image><text xml:space="preserve" font-family="Georgia-BoldItalic,Georgia" font-style="italic" font-weight="bold" font-size="18.0" fill="#000000" transform="matrix(1.00, 0.00, -0.00, -1.00, 421.2, 16.9)">w</text><text xml:space="preserve" font-family="Georgia-BoldItalic,Georgia" font-style="italic" font-weight="bold" font-size="18.0" fill="#000000" transform="matrix(1.00, 0.00, -0.00, -1.00, 438.0, 16.9)">h</text><text xml:space="preserve" font-family="Georgia-BoldItalic,Georgia" font-style="italic" font-weight="bold" font-size="18.0" fill="#000000" transform="matrix(1.00, 0.00, -0.00, -1.00, 450.2, 16.9)">o</text><text xml:space="preserve" font-family="Georgia-BoldItalic,Georgia" font-style="italic" font-weight="bold" font-size="18.0" fill="#000000" transform="matrix(1.00, 0.00, -0.00, -1.00, 461.6, 16.9)">l</text><text xml:space="preserve" font-family="Georgia-BoldItalic,Georgia" font-style="italic" font-weight="bold" font-size="18.0" fill="#000000" transform="matrix(1.00, 0.00, -0.00, -1.00, 468.0, 16.9)">e</text><text xml:space="preserve" font-family="Georgia-Italic,Georgia" font-style="italic" font-size="18.0" fill="#000000" transform="matrix(1.00, 0.00, -0.00, -1.00, 478.0, 16.9)"> </text><image xlink:href="../../4262DD27-C1BC-417D-94F4-F7EAD3861BE3/assets/504D2765E0C815237E1008607D48BE83.png" width="146.00" height="25.00" transform="matrix(1.00, 0.00, -0.00, -1.00, 479.0, 32.0)"></image><text xml:space="preserve" font-family="Georgia-BoldItalic,Georgia" font-style="italic" font-weight="bold" font-size="18.0" fill="#000000" transform="matrix(1.00, 0.00, -0.00, -1.00, 482.3, 16.9)">p</text><text xml:space="preserve" font-family="Georgia-BoldItalic,Georgia" font-style="italic" font-weight="bold" font-size="18.0" fill="#000000" transform="matrix(1.00, 0.00, -0.00, -1.00, 494.3, 16.9)">i</text><text xml:space="preserve" font-family="Georgia-BoldItalic,Georgia" font-style="italic" font-weight="bold" font-size="18.0" fill="#000000" transform="matrix(1.00, 0.00, -0.00, -1.00, 500.8, 16.9)">x</text><text xml:space="preserve" font-family="Georgia-BoldItalic,Georgia" font-style="italic" font-weight="bold" font-size="18.0" fill="#000000" transform="matrix(1.00, 0.00, -0.00, -1.00, 511.4, 16.9)">e</text><text xml:space="preserve" font-family="Georgia-BoldItalic,Georgia" font-style="italic" font-weight="bold" font-size="18.0" fill="#000000" transform="matrix(1.00, 0.00, -0.00, -1.00, 521.4, 16.9)">l</text><text xml:space="preserve" font-family="Georgia-BoldItalic,Georgia" font-style="italic" font-weight="bold" font-size="18.0" fill="#000000" transform="matrix(1.00, 0.00, -0.00, -1.00, 527.8, 16.9)"> </text><text xml:space="preserve" font-family="Georgia-BoldItalic,Georgia" font-style="italic" font-weight="bold" font-size="18.0" fill="#000000" transform="matrix(1.00, 0.00, -0.00, -1.00, 532.3, 16.9)">p</text><text xml:space="preserve" font-family="Georgia-BoldItalic,Georgia" font-style="italic" font-weight="bold" font-size="18.0" fill="#000000" transform="matrix(1.00, 0.00, -0.00, -1.00, 544.3, 16.9)">r</text><text xml:space="preserve" font-family="Georgia-BoldItalic,Georgia" font-style="italic" font-weight="bold" font-size="18.0" fill="#000000" transform="matrix(1.00, 0.00, -0.00, -1.00, 553.9, 16.9)">e</text><text xml:space="preserve" font-family="Georgia-BoldItalic,Georgia" font-style="italic" font-weight="bold" font-size="18.0" fill="#000000" transform="matrix(1.00, 0.00, -0.00, -1.00, 563.9, 16.9)">c</text><text xml:space="preserve" font-family="Georgia-BoldItalic,Georgia" font-style="italic" font-weight="bold" font-size="18.0" fill="#000000" transform="matrix(1.00, 0.00, -0.00, -1.00, 573.5, 16.9)">i</text><text xml:space="preserve" font-family="Georgia-BoldItalic,Georgia" font-style="italic" font-weight="bold" font-size="18.0" fill="#000000" transform="matrix(1.00, 0.00, -0.00, -1.00, 580.1, 16.9)">s</text><text xml:space="preserve" font-family="Georgia-BoldItalic,Georgia" font-style="italic" font-weight="bold" font-size="18.0" fill="#000000" transform="matrix(1.00, 0.00, -0.00, -1.00, 589.4, 16.9)">i</text><text xml:space="preserve" font-family="Georgia-BoldItalic,Georgia" font-style="italic" font-weight="bold" font-size="18.0" fill="#000000" transform="matrix(1.00, 0.00, -0.00, -1.00, 596.0, 16.9)">o</text><text xml:space="preserve" font-family="Georgia-BoldItalic,Georgia" font-style="italic" font-weight="bold" font-size="18.0" fill="#000000" transform="matrix(1.00, 0.00, -0.00, -1.00, 607.4, 16.9)">n</text><text xml:space="preserve" font-family="TrebuchetMS-Bold,Trebuchet MS" font-weight="bold" font-size="34.0" fill="#212744" transform="matrix(1.00, 0.00, -0.00, -1.00, 2.6, 453.0)">4</text><text xml:space="preserve" font-family="TrebuchetMS-Bold,Trebuchet MS" font-weight="bold" font-size="34.0" fill="#212744" transform="matrix(1.00, 0.00, -0.00, -1.00, 22.5, 453.0)">)</text><text xml:space="preserve" font-family="TrebuchetMS-Bold,Trebuchet MS" font-weight="bold" font-size="34.0" fill="#212744" transform="matrix(1.00, 0.00, -0.00, -1.00, 35.0, 453.0)"> </text><text xml:space="preserve" font-family="TrebuchetMS-Bold,Trebuchet MS" font-weight="bold" font-size="34.0" fill="#212744" transform="matrix(1.00, 0.00, -0.00, -1.00, 45.2, 453.0)">D</text><text xml:space="preserve" font-family="TrebuchetMS-Bold,Trebuchet MS" font-weight="bold" font-size="34.0" fill="#212744" transform="matrix(1.00, 0.00, -0.00, -1.00, 67.1, 453.0)">i</text><text xml:space="preserve" font-family="TrebuchetMS-Bold,Trebuchet MS" font-weight="bold" font-size="34.0" fill="#212744" transform="matrix(1.00, 0.00, -0.00, -1.00, 77.2, 453.0)">s</text><text xml:space="preserve" font-family="TrebuchetMS-Bold,Trebuchet MS" font-weight="bold" font-size="34.0" fill="#212744" transform="matrix(1.00, 0.00, -0.00, -1.00, 91.9, 453.0)">p</text><text xml:space="preserve" font-family="TrebuchetMS-Bold,Trebuchet MS" font-weight="bold" font-size="34.0" fill="#212744" transform="matrix(1.00, 0.00, -0.00, -1.00, 111.7, 453.0)">l</text><text xml:space="preserve" font-family="TrebuchetMS-Bold,Trebuchet MS" font-weight="bold" font-size="34.0" fill="#212744" transform="matrix(1.00, 0.00, -0.00, -1.00, 121.7, 453.0)">a</text><text xml:space="preserve" font-family="TrebuchetMS-Bold,Trebuchet MS" font-weight="bold" font-size="34.0" fill="#212744" transform="matrix(1.00, 0.00, -0.00, -1.00, 139.8, 453.0)">c</text><text xml:space="preserve" font-family="TrebuchetMS-Bold,Trebuchet MS" font-weight="bold" font-size="34.0" fill="#212744" transform="matrix(1.00, 0.00, -0.00, -1.00, 157.2, 453.0)">e</text><text xml:space="preserve" font-family="TrebuchetMS-Bold,Trebuchet MS" font-weight="bold" font-size="34.0" fill="#212744" transform="matrix(1.00, 0.00, -0.00, -1.00, 176.7, 453.0)">m</text><text xml:space="preserve" font-family="TrebuchetMS-Bold,Trebuchet MS" font-weight="bold" font-size="34.0" fill="#212744" transform="matrix(1.00, 0.00, -0.00, -1.00, 206.0, 453.0)">e</text><text xml:space="preserve" font-family="TrebuchetMS-Bold,Trebuchet MS" font-weight="bold" font-size="34.0" fill="#212744" transform="matrix(1.00, 0.00, -0.00, -1.00, 225.5, 453.0)">n</text><text xml:space="preserve" font-family="TrebuchetMS-Bold,Trebuchet MS" font-weight="bold" font-size="34.0" fill="#212744" transform="matrix(1.00, 0.00, -0.00, -1.00, 245.6, 453.0)">t</text><text xml:space="preserve" font-family="TrebuchetMS-Bold,Trebuchet MS" font-weight="bold" font-size="34.0" fill="#212744" transform="matrix(1.00, 0.00, -0.00, -1.00, 259.1, 453.0)"> </text><text xml:space="preserve" font-family="TrebuchetMS-Bold,Trebuchet MS" font-weight="bold" font-size="34.0" fill="#212744" transform="matrix(1.00, 0.00, -0.00, -1.00, 269.3, 453.0)">m</text><text xml:space="preserve" font-family="TrebuchetMS-Bold,Trebuchet MS" font-weight="bold" font-size="34.0" fill="#212744" transform="matrix(1.00, 0.00, -0.00, -1.00, 298.6, 453.0)">e</text><text xml:space="preserve" font-family="TrebuchetMS-Bold,Trebuchet MS" font-weight="bold" font-size="34.0" fill="#212744" transform="matrix(1.00, 0.00, -0.00, -1.00, 318.1, 453.0)">a</text><text xml:space="preserve" font-family="TrebuchetMS-Bold,Trebuchet MS" font-weight="bold" font-size="34.0" fill="#212744" transform="matrix(1.00, 0.00, -0.00, -1.00, 336.2, 453.0)">s</text><text xml:space="preserve" font-family="TrebuchetMS-Bold,Trebuchet MS" font-weight="bold" font-size="34.0" fill="#212744" transform="matrix(1.00, 0.00, -0.00, -1.00, 350.9, 453.0)">u</text><text xml:space="preserve" font-family="TrebuchetMS-Bold,Trebuchet MS" font-weight="bold" font-size="34.0" fill="#212744" transform="matrix(1.00, 0.00, -0.00, -1.00, 370.9, 453.0)">r</text><text xml:space="preserve" font-family="TrebuchetMS-Bold,Trebuchet MS" font-weight="bold" font-size="34.0" fill="#212744" transform="matrix(1.00, 0.00, -0.00, -1.00, 385.5, 453.0)">e</text><text xml:space="preserve" font-family="TrebuchetMS-Bold,Trebuchet MS" font-weight="bold" font-size="34.0" fill="#212744" transform="matrix(1.00, 0.00, -0.00, -1.00, 405.0, 453.0)">m</text><text xml:space="preserve" font-family="TrebuchetMS-Bold,Trebuchet MS" font-weight="bold" font-size="34.0" fill="#212744" transform="matrix(1.00, 0.00, -0.00, -1.00, 434.2, 453.0)">e</text><text xml:space="preserve" font-family="TrebuchetMS-Bold,Trebuchet MS" font-weight="bold" font-size="34.0" fill="#212744" transform="matrix(1.00, 0.00, -0.00, -1.00, 453.8, 453.0)">n</text><text xml:space="preserve" font-family="TrebuchetMS-Bold,Trebuchet MS" font-weight="bold" font-size="34.0" fill="#212744" transform="matrix(1.00, 0.00, -0.00, -1.00, 473.9, 453.0)">t</text><text xml:space="preserve" font-family="TrebuchetMS-Bold,Trebuchet MS" font-weight="bold" font-size="34.0" fill="#212744" transform="matrix(1.00, 0.00, -0.00, -1.00, 487.4, 453.0)">s</text></g></svg>