<?xml version="1.0" encoding="UTF-8"?><svg xmlns="http://www.w3.org/2000/svg" xmlns:xlink="http://www.w3.org/1999/xlink" clip-rule="evenodd" stroke-miterlimit="10" viewBox="0 0 720 540"><desc>SVG generated by Keynote</desc><defs></defs><g transform="matrix(1.00, 0.00, -0.00, -1.00, 0.0, 540.0)"><path d="M 0.0 0.0 L 720.0 0.0 L 720.0 540.0 L 0.0 540.0 Z M 0.0 0.0 " fill="#FFFFFF"></path><path d="M 0.0 511.0 L 720.0 511.0 L 720.0 504.0 L 0.0 504.0 Z M 0.0 511.1 " fill="#5ECCF3" fill-opacity="0.50"></path><path d="M 0.0 540.0 L 720.0 540.0 L 720.0 516.0 L 0.0 516.0 Z M 0.0 540.0 " fill="#212744"></path><path d="M 0.0 516.0 L 720.0 516.0 L 720.0 509.0 L 0.0 509.0 Z M 0.0 515.7 " fill="#5ECCF3"></path><path d="M 426.0 504.0 L 720.0 504.0 L 720.0 512.0 L 426.0 512.0 Z M 426.0 504.5 " fill="#5ECCF3"></path><path d="M 426.0 491.0 L 720.0 491.0 L 720.0 505.0 L 426.0 505.0 Z M 426.0 491.2 " fill="#5ECCF3" fill-opacity="0.50"></path><path d="M 425.8 499.0 L 426.0 500.5 C 426.0 500.7 425.9 501.0 426.1 501.0 L 666.6 501.0 C 666.8 501.0 667.0 500.7 667.0 500.5 L 667.0 499.0 C 667.0 498.8 666.8 499.0 666.6 499.0 L 426.1 499.0 C 425.9 499.0 425.8 498.8 425.8 499.0 Z M 425.8 499.0 " fill="#FFFFFF"></path><path d="M 580.6 491.2 L 581.0 493.1 C 581.0 493.4 580.8 494.0 581.1 494.0 L 706.1 494.0 C 706.4 494.0 707.0 493.4 707.0 493.1 L 707.0 491.2 C 707.0 491.0 706.4 491.0 706.1 491.0 L 581.1 491.0 C 580.8 491.0 580.6 491.0 580.6 491.2 Z M 580.6 491.2 " fill="#FFFFFF"></path><path d="M 715.0 540.0 L 720.0 540.0 L 720.0 491.0 L 715.0 491.0 Z M 715.4 540.2 " fill="#FFFFFF" fill-opacity="0.65"></path><path d="M 712.0 540.0 L 714.0 540.0 L 714.0 491.0 L 712.0 491.0 Z M 712.2 540.2 " fill="#FFFFFF" fill-opacity="0.65"></path><path d="M 711.0 540.0 L 711.0 540.0 L 711.0 491.0 L 711.0 491.0 Z M 710.7 540.2 " fill="#FFFFFF" fill-opacity="0.60"></path><path d="M 707.0 540.0 L 709.0 540.0 L 709.0 491.0 L 707.0 491.0 Z M 706.7 540.2 " fill="#FFFFFF" fill-opacity="0.40"></path><path d="M 702.0 540.0 L 706.0 540.0 L 706.0 494.0 L 702.0 494.0 Z M 702.0 540.0 " fill="#FFFFFF" fill-opacity="0.20"></path><path d="M 699.0 540.0 L 699.0 540.0 L 699.0 494.0 L 699.0 494.0 Z M 698.7 540.0 " fill="#FFFFFF" fill-opacity="0.30"></path><g><clipPath id="clip0x6000032b8000"><path d="M 205.4 4.0 L 510.8 4.0 L 510.8 35.2 L 205.4 35.2 Z M 205.4 4.0 "></path></clipPath><g clip-path="url(#clip0x6000032b8000)"><text xml:space="preserve" font-family="Georgia,Georgia" font-size="18.0" fill="#000000" transform="matrix(1.00, 0.00, -0.00, -1.00, 210.5, 13.1)">N</text><text xml:space="preserve" font-family="Georgia,Georgia" font-size="18.0" fill="#000000" transform="matrix(1.00, 0.00, -0.00, -1.00, 224.3, 13.1)">o</text><text xml:space="preserve" font-family="Georgia,Georgia" font-size="18.0" fill="#000000" transform="matrix(1.00, 0.00, -0.00, -1.00, 234.0, 13.1)">r</text><text xml:space="preserve" font-family="Georgia,Georgia" font-size="18.0" fill="#000000" transform="matrix(1.00, 0.00, -0.00, -1.00, 241.4, 13.1)">m</text><text xml:space="preserve" font-family="Georgia,Georgia" font-size="18.0" fill="#000000" transform="matrix(1.00, 0.00, -0.00, -1.00, 257.2, 13.1)">a</text><text xml:space="preserve" font-family="Georgia,Georgia" font-size="18.0" fill="#000000" transform="matrix(1.00, 0.00, -0.00, -1.00, 266.3, 13.1)">l</text><text xml:space="preserve" font-family="Georgia,Georgia" font-size="18.0" fill="#000000" transform="matrix(1.00, 0.00, -0.00, -1.00, 271.5, 13.1)">i</text><text xml:space="preserve" font-family="Georgia,Georgia" font-size="18.0" fill="#000000" transform="matrix(1.00, 0.00, -0.00, -1.00, 276.7, 13.1)">z</text><text xml:space="preserve" font-family="Georgia,Georgia" font-size="18.0" fill="#000000" transform="matrix(1.00, 0.00, -0.00, -1.00, 284.7, 13.1)">e</text><text xml:space="preserve" font-family="Georgia,Georgia" font-size="18.0" fill="#000000" transform="matrix(1.00, 0.00, -0.00, -1.00, 293.4, 13.1)">d</text><text xml:space="preserve" font-family="Georgia,Georgia" font-size="18.0" fill="#000000" transform="matrix(1.00, 0.00, -0.00, -1.00, 303.8, 13.1)"> </text><text xml:space="preserve" font-family="Georgia,Georgia" font-size="18.0" fill="#000000" transform="matrix(1.00, 0.00, -0.00, -1.00, 308.1, 13.1)">c</text><text xml:space="preserve" font-family="Georgia,Georgia" font-size="18.0" fill="#000000" transform="matrix(1.00, 0.00, -0.00, -1.00, 316.3, 13.1)">r</text><text xml:space="preserve" font-family="Georgia,Georgia" font-size="18.0" fill="#000000" transform="matrix(1.00, 0.00, -0.00, -1.00, 323.7, 13.1)">o</text><text xml:space="preserve" font-family="Georgia,Georgia" font-size="18.0" fill="#000000" transform="matrix(1.00, 0.00, -0.00, -1.00, 333.4, 13.1)">s</text><text xml:space="preserve" font-family="Georgia,Georgia" font-size="18.0" fill="#000000" transform="matrix(1.00, 0.00, -0.00, -1.00, 341.2, 13.1)">s</text><text xml:space="preserve" font-family="Georgia,Georgia" font-size="18.0" fill="#000000" transform="matrix(1.00, 0.00, -0.00, -1.00, 348.9, 13.1)">-</text><text xml:space="preserve" font-family="Georgia,Georgia" font-size="18.0" fill="#000000" transform="matrix(1.00, 0.00, -0.00, -1.00, 355.7, 13.1)">c</text><text xml:space="preserve" font-family="Georgia,Georgia" font-size="18.0" fill="#000000" transform="matrix(1.00, 0.00, -0.00, -1.00, 363.8, 13.1)">o</text><text xml:space="preserve" font-family="Georgia,Georgia" font-size="18.0" fill="#000000" transform="matrix(1.00, 0.00, -0.00, -1.00, 373.5, 13.1)">r</text><text xml:space="preserve" font-family="Georgia,Georgia" font-size="18.0" fill="#000000" transform="matrix(1.00, 0.00, -0.00, -1.00, 380.9, 13.1)">r</text><text xml:space="preserve" font-family="Georgia,Georgia" font-size="18.0" fill="#000000" transform="matrix(1.00, 0.00, -0.00, -1.00, 388.3, 13.1)">e</text><text xml:space="preserve" font-family="Georgia,Georgia" font-size="18.0" fill="#000000" transform="matrix(1.00, 0.00, -0.00, -1.00, 397.0, 13.1)">l</text><text xml:space="preserve" font-family="Georgia,Georgia" font-size="18.0" fill="#000000" transform="matrix(1.00, 0.00, -0.00, -1.00, 402.1, 13.1)">a</text><text xml:space="preserve" font-family="Georgia,Georgia" font-size="18.0" fill="#000000" transform="matrix(1.00, 0.00, -0.00, -1.00, 411.2, 13.1)">t</text><text xml:space="preserve" font-family="Georgia,Georgia" font-size="18.0" fill="#000000" transform="matrix(1.00, 0.00, -0.00, -1.00, 417.4, 13.1)">i</text><text xml:space="preserve" font-family="Georgia,Georgia" font-size="18.0" fill="#000000" transform="matrix(1.00, 0.00, -0.00, -1.00, 422.7, 13.1)">o</text><text xml:space="preserve" font-family="Georgia,Georgia" font-size="18.0" fill="#000000" transform="matrix(1.00, 0.00, -0.00, -1.00, 432.4, 13.1)">n</text><text xml:space="preserve" font-family="Georgia,Georgia" font-size="18.0" fill="#000000" transform="matrix(1.00, 0.00, -0.00, -1.00, 443.0, 13.1)"> </text><text xml:space="preserve" font-family="Georgia,Georgia" font-size="18.0" fill="#000000" transform="matrix(1.00, 0.00, -0.00, -1.00, 447.4, 13.1)">s</text><text xml:space="preserve" font-family="Georgia,Georgia" font-size="18.0" fill="#000000" transform="matrix(1.00, 0.00, -0.00, -1.00, 455.2, 13.1)">u</text><text xml:space="preserve" font-family="Georgia,Georgia" font-size="18.0" fill="#000000" transform="matrix(1.00, 0.00, -0.00, -1.00, 465.5, 13.1)">r</text><text xml:space="preserve" font-family="Georgia,Georgia" font-size="18.0" fill="#000000" transform="matrix(1.00, 0.00, -0.00, -1.00, 472.9, 13.1)">f</text><text xml:space="preserve" font-family="Georgia,Georgia" font-size="18.0" fill="#000000" transform="matrix(1.00, 0.00, -0.00, -1.00, 478.7, 13.1)">a</text><text xml:space="preserve" font-family="Georgia,Georgia" font-size="18.0" fill="#000000" transform="matrix(1.00, 0.00, -0.00, -1.00, 487.8, 13.1)">c</text><text xml:space="preserve" font-family="Georgia,Georgia" font-size="18.0" fill="#000000" transform="matrix(1.00, 0.00, -0.00, -1.00, 496.0, 13.1)">e</text></g></g><g><clipPath id="clip0x608002ca4aa0"><path d="M 371.2 274.3 L 494.1 274.3 L 494.1 305.5 L 371.2 305.5 Z M 371.2 274.3 "></path></clipPath><g clip-path="url(#clip0x608002ca4aa0)"><text xml:space="preserve" font-family="Georgia,Georgia" font-size="18.0" fill="#000000" transform="matrix(1.00, 0.00, -0.00, -1.00, 376.3, 283.4)">(</text><text xml:space="preserve" font-family="Georgia,Georgia" font-size="18.0" fill="#000000" transform="matrix(1.00, 0.00, -0.00, -1.00, 383.1, 283.4)">x</text><text xml:space="preserve" font-family="Georgia,Georgia" font-size="18.0" fill="#000000" transform="matrix(1.00, 0.00, -0.00, -1.00, 392.2, 283.4)">p</text><text xml:space="preserve" font-family="Georgia,Georgia" font-size="18.0" fill="#000000" transform="matrix(1.00, 0.00, -0.00, -1.00, 402.5, 283.4)">e</text><text xml:space="preserve" font-family="Georgia,Georgia" font-size="18.0" fill="#000000" transform="matrix(1.00, 0.00, -0.00, -1.00, 411.2, 283.4)">a</text><text xml:space="preserve" font-family="Georgia,Georgia" font-size="18.0" fill="#000000" transform="matrix(1.00, 0.00, -0.00, -1.00, 420.2, 283.4)">k</text><text xml:space="preserve" font-family="Georgia,Georgia" font-size="18.0" fill="#000000" transform="matrix(1.00, 0.00, -0.00, -1.00, 429.9, 283.4)">,</text><text xml:space="preserve" font-family="Georgia,Georgia" font-size="18.0" fill="#000000" transform="matrix(1.00, 0.00, -0.00, -1.00, 434.7, 283.4)">y</text><text xml:space="preserve" font-family="Georgia,Georgia" font-size="18.0" fill="#000000" transform="matrix(1.00, 0.00, -0.00, -1.00, 443.6, 283.4)">p</text><text xml:space="preserve" font-family="Georgia,Georgia" font-size="18.0" fill="#000000" transform="matrix(1.00, 0.00, -0.00, -1.00, 453.9, 283.4)">e</text><text xml:space="preserve" font-family="Georgia,Georgia" font-size="18.0" fill="#000000" transform="matrix(1.00, 0.00, -0.00, -1.00, 462.6, 283.4)">a</text><text xml:space="preserve" font-family="Georgia,Georgia" font-size="18.0" fill="#000000" transform="matrix(1.00, 0.00, -0.00, -1.00, 471.6, 283.4)">k</text><text xml:space="preserve" font-family="Georgia,Georgia" font-size="18.0" fill="#000000" transform="matrix(1.00, 0.00, -0.00, -1.00, 481.3, 283.4)">)</text></g></g><g><clipPath id="clip0x608002ca5160"><path d="M 367.7 218.7 L 424.6 279.6 L 430.2 274.4 L 373.2 213.5 Z M 367.7 218.7 "></path></clipPath><g clip-path="url(#clip0x608002ca5160)"><path d="M 0.0 0.0 L 78.3 0.0 L 78.7 0.0 " fill="none" stroke="#4962C6" stroke-width="0.75" stroke-linejoin="bevel" transform="matrix(0.68, 0.73, 0.73, -0.68, 371.1, 216.8)"></path><path d="M 426.7 276.3 L 421.5 274.7 L 421.5 274.7 C 421.2 274.6 421.0 274.3 421.1 274.0 C 421.2 273.6 421.5 273.4 421.9 273.5 L 425.0 274.5 L 424.3 271.3 L 424.3 271.3 C 424.2 270.9 424.4 270.6 424.8 270.5 C 425.1 270.5 425.4 270.7 425.5 271.0 C 425.5 271.0 425.5 271.0 425.5 271.0 Z M 426.7 276.3 " fill="#4962C6"></path></g></g><text xml:space="preserve" font-family="TrebuchetMS-Bold,Trebuchet MS" font-weight="bold" font-size="34.0" fill="#212744" transform="matrix(1.00, 0.00, -0.00, -1.00, 12.1, 454.1)">N</text><text xml:space="preserve" font-family="TrebuchetMS-Bold,Trebuchet MS" font-weight="bold" font-size="34.0" fill="#212744" transform="matrix(1.00, 0.00, -0.00, -1.00, 34.8, 454.1)">o</text><text xml:space="preserve" font-family="TrebuchetMS-Bold,Trebuchet MS" font-weight="bold" font-size="34.0" fill="#212744" transform="matrix(1.00, 0.00, -0.00, -1.00, 54.0, 454.1)">r</text><text xml:space="preserve" font-family="TrebuchetMS-Bold,Trebuchet MS" font-weight="bold" font-size="34.0" fill="#212744" transform="matrix(1.00, 0.00, -0.00, -1.00, 68.5, 454.1)">m</text><text xml:space="preserve" font-family="TrebuchetMS-Bold,Trebuchet MS" font-weight="bold" font-size="34.0" fill="#212744" transform="matrix(1.00, 0.00, -0.00, -1.00, 97.8, 454.1)">a</text><text xml:space="preserve" font-family="TrebuchetMS-Bold,Trebuchet MS" font-weight="bold" font-size="34.0" fill="#212744" transform="matrix(1.00, 0.00, -0.00, -1.00, 115.9, 454.1)">l</text><text xml:space="preserve" font-family="TrebuchetMS-Bold,Trebuchet MS" font-weight="bold" font-size="34.0" fill="#212744" transform="matrix(1.00, 0.00, -0.00, -1.00, 125.9, 454.1)">i</text><text xml:space="preserve" font-family="TrebuchetMS-Bold,Trebuchet MS" font-weight="bold" font-size="34.0" fill="#212744" transform="matrix(1.00, 0.00, -0.00, -1.00, 136.0, 454.1)">z</text><text xml:space="preserve" font-family="TrebuchetMS-Bold,Trebuchet MS" font-weight="bold" font-size="34.0" fill="#212744" transform="matrix(1.00, 0.00, -0.00, -1.00, 154.0, 454.1)">e</text><text xml:space="preserve" font-family="TrebuchetMS-Bold,Trebuchet MS" font-weight="bold" font-size="34.0" fill="#212744" transform="matrix(1.00, 0.00, -0.00, -1.00, 173.5, 454.1)">d</text><text xml:space="preserve" font-family="TrebuchetMS-Bold,Trebuchet MS" font-weight="bold" font-size="34.0" fill="#212744" transform="matrix(1.00, 0.00, -0.00, -1.00, 193.3, 454.1)"> </text><text xml:space="preserve" font-family="TrebuchetMS-Bold,Trebuchet MS" font-weight="bold" font-size="34.0" fill="#212744" transform="matrix(1.00, 0.00, -0.00, -1.00, 203.5, 454.1)">c</text><text xml:space="preserve" font-family="TrebuchetMS-Bold,Trebuchet MS" font-weight="bold" font-size="34.0" fill="#212744" transform="matrix(1.00, 0.00, -0.00, -1.00, 220.9, 454.1)">r</text><text xml:space="preserve" font-family="TrebuchetMS-Bold,Trebuchet MS" font-weight="bold" font-size="34.0" fill="#212744" transform="matrix(1.00, 0.00, -0.00, -1.00, 235.5, 454.1)">o</text><text xml:space="preserve" font-family="TrebuchetMS-Bold,Trebuchet MS" font-weight="bold" font-size="34.0" fill="#212744" transform="matrix(1.00, 0.00, -0.00, -1.00, 254.7, 454.1)">s</text><text xml:space="preserve" font-family="TrebuchetMS-Bold,Trebuchet MS" font-weight="bold" font-size="34.0" fill="#212744" transform="matrix(1.00, 0.00, -0.00, -1.00, 269.3, 454.1)">s</text><text xml:space="preserve" font-family="TrebuchetMS-Bold,Trebuchet MS" font-weight="bold" font-size="34.0" fill="#212744" transform="matrix(1.00, 0.00, -0.00, -1.00, 283.9, 454.1)">-</text><text xml:space="preserve" font-family="TrebuchetMS-Bold,Trebuchet MS" font-weight="bold" font-size="34.0" fill="#212744" transform="matrix(1.00, 0.00, -0.00, -1.00, 296.4, 454.1)">c</text><text xml:space="preserve" font-family="TrebuchetMS-Bold,Trebuchet MS" font-weight="bold" font-size="34.0" fill="#212744" transform="matrix(1.00, 0.00, -0.00, -1.00, 313.8, 454.1)">o</text><text xml:space="preserve" font-family="TrebuchetMS-Bold,Trebuchet MS" font-weight="bold" font-size="34.0" fill="#212744" transform="matrix(1.00, 0.00, -0.00, -1.00, 333.0, 454.1)">r</text><text xml:space="preserve" font-family="TrebuchetMS-Bold,Trebuchet MS" font-weight="bold" font-size="34.0" fill="#212744" transform="matrix(1.00, 0.00, -0.00, -1.00, 347.6, 454.1)">r</text><text xml:space="preserve" font-family="TrebuchetMS-Bold,Trebuchet MS" font-weight="bold" font-size="34.0" fill="#212744" transform="matrix(1.00, 0.00, -0.00, -1.00, 362.1, 454.1)">e</text><text xml:space="preserve" font-family="TrebuchetMS-Bold,Trebuchet MS" font-weight="bold" font-size="34.0" fill="#212744" transform="matrix(1.00, 0.00, -0.00, -1.00, 381.6, 454.1)">l</text><text xml:space="preserve" font-family="TrebuchetMS-Bold,Trebuchet MS" font-weight="bold" font-size="34.0" fill="#212744" transform="matrix(1.00, 0.00, -0.00, -1.00, 391.7, 454.1)">a</text><text xml:space="preserve" font-family="TrebuchetMS-Bold,Trebuchet MS" font-weight="bold" font-size="34.0" fill="#212744" transform="matrix(1.00, 0.00, -0.00, -1.00, 409.8, 454.1)">t</text><text xml:space="preserve" font-family="TrebuchetMS-Bold,Trebuchet MS" font-weight="bold" font-size="34.0" fill="#212744" transform="matrix(1.00, 0.00, -0.00, -1.00, 423.3, 454.1)">i</text><text xml:space="preserve" font-family="TrebuchetMS-Bold,Trebuchet MS" font-weight="bold" font-size="34.0" fill="#212744" transform="matrix(1.00, 0.00, -0.00, -1.00, 433.4, 454.1)">o</text><text xml:space="preserve" font-family="TrebuchetMS-Bold,Trebuchet MS" font-weight="bold" font-size="34.0" fill="#212744" transform="matrix(1.00, 0.00, -0.00, -1.00, 452.6, 454.1)">n</text><text xml:space="preserve" font-family="Georgia,Georgia" font-size="26.0" fill="#000000" transform="matrix(1.00, 0.00, -0.00, -1.00, 49.1, 389.5)">•</text><text xml:space="preserve" font-family="Georgia,Georgia" font-size="26.0" fill="#000000" transform="matrix(1.00, 0.00, -0.00, -1.00, 69.2, 389.5)">T</text><text xml:space="preserve" font-family="Georgia,Georgia" font-size="26.0" fill="#000000" transform="matrix(1.00, 0.00, -0.00, -1.00, 85.3, 389.5)">h</text><text xml:space="preserve" font-family="Georgia,Georgia" font-size="26.0" fill="#000000" transform="matrix(1.00, 0.00, -0.00, -1.00, 100.4, 389.5)">e</text><text xml:space="preserve" font-family="Georgia,Georgia" font-size="26.0" fill="#000000" transform="matrix(1.00, 0.00, -0.00, -1.00, 113.0, 389.5)"> </text><text xml:space="preserve" font-family="Georgia,Georgia" font-size="26.0" fill="#000000" transform="matrix(1.00, 0.00, -0.00, -1.00, 126.6, 389.5)">p</text><text xml:space="preserve" font-family="Georgia,Georgia" font-size="26.0" fill="#000000" transform="matrix(1.00, 0.00, -0.00, -1.00, 141.5, 389.5)">e</text><text xml:space="preserve" font-family="Georgia,Georgia" font-size="26.0" fill="#000000" transform="matrix(1.00, 0.00, -0.00, -1.00, 154.0, 389.5)">a</text><text xml:space="preserve" font-family="Georgia,Georgia" font-size="26.0" fill="#000000" transform="matrix(1.00, 0.00, -0.00, -1.00, 167.1, 389.5)">k</text><text xml:space="preserve" font-family="Georgia,Georgia" font-size="26.0" fill="#000000" transform="matrix(1.00, 0.00, -0.00, -1.00, 181.1, 389.5)"> </text><text xml:space="preserve" font-family="Georgia,Georgia" font-size="26.0" fill="#000000" transform="matrix(1.00, 0.00, -0.00, -1.00, 194.7, 389.5)">o</text><text xml:space="preserve" font-family="Georgia,Georgia" font-size="26.0" fill="#000000" transform="matrix(1.00, 0.00, -0.00, -1.00, 208.7, 389.5)">f</text><text xml:space="preserve" font-family="Georgia,Georgia" font-size="26.0" fill="#000000" transform="matrix(1.00, 0.00, -0.00, -1.00, 217.1, 389.5)"> </text><text xml:space="preserve" font-family="Georgia,Georgia" font-size="26.0" fill="#000000" transform="matrix(1.00, 0.00, -0.00, -1.00, 230.8, 389.5)">n</text><text xml:space="preserve" font-family="Georgia,Georgia" font-size="26.0" fill="#000000" transform="matrix(1.00, 0.00, -0.00, -1.00, 246.1, 389.5)">o</text><text xml:space="preserve" font-family="Georgia,Georgia" font-size="26.0" fill="#000000" transform="matrix(1.00, 0.00, -0.00, -1.00, 260.1, 389.5)">r</text><text xml:space="preserve" font-family="Georgia,Georgia" font-size="26.0" fill="#000000" transform="matrix(1.00, 0.00, -0.00, -1.00, 270.8, 389.5)">m</text><text xml:space="preserve" font-family="Georgia,Georgia" font-size="26.0" fill="#000000" transform="matrix(1.00, 0.00, -0.00, -1.00, 293.7, 389.5)">a</text><text xml:space="preserve" font-family="Georgia,Georgia" font-size="26.0" fill="#000000" transform="matrix(1.00, 0.00, -0.00, -1.00, 306.8, 389.5)">l</text><text xml:space="preserve" font-family="Georgia,Georgia" font-size="26.0" fill="#000000" transform="matrix(1.00, 0.00, -0.00, -1.00, 314.2, 389.5)">i</text><text xml:space="preserve" font-family="Georgia,Georgia" font-size="26.0" fill="#000000" transform="matrix(1.00, 0.00, -0.00, -1.00, 321.8, 389.5)">z</text><text xml:space="preserve" font-family="Georgia,Georgia" font-size="26.0" fill="#000000" transform="matrix(1.00, 0.00, -0.00, -1.00, 333.4, 389.5)">e</text><text xml:space="preserve" font-family="Georgia,Georgia" font-size="26.0" fill="#000000" transform="matrix(1.00, 0.00, -0.00, -1.00, 345.9, 389.5)">d</text><text xml:space="preserve" font-family="Georgia,Georgia" font-size="26.0" fill="#000000" transform="matrix(1.00, 0.00, -0.00, -1.00, 360.9, 389.5)"> </text><text xml:space="preserve" font-family="Georgia,Georgia" font-size="26.0" fill="#000000" transform="matrix(1.00, 0.00, -0.00, -1.00, 374.5, 389.5)">c</text><text xml:space="preserve" font-family="Georgia,Georgia" font-size="26.0" fill="#000000" transform="matrix(1.00, 0.00, -0.00, -1.00, 386.3, 389.5)">r</text><text xml:space="preserve" font-family="Georgia,Georgia" font-size="26.0" fill="#000000" transform="matrix(1.00, 0.00, -0.00, -1.00, 396.9, 389.5)">o</text><text xml:space="preserve" font-family="Georgia,Georgia" font-size="26.0" fill="#000000" transform="matrix(1.00, 0.00, -0.00, -1.00, 411.0, 389.5)">s</text><text xml:space="preserve" font-family="Georgia,Georgia" font-size="26.0" fill="#000000" transform="matrix(1.00, 0.00, -0.00, -1.00, 422.2, 389.5)">s</text><text xml:space="preserve" font-family="Georgia,Georgia" font-size="26.0" fill="#000000" transform="matrix(1.00, 0.00, -0.00, -1.00, 433.4, 389.5)">-</text><text xml:space="preserve" font-family="Georgia,Georgia" font-size="26.0" fill="#000000" transform="matrix(1.00, 0.00, -0.00, -1.00, 443.2, 389.5)">c</text><text xml:space="preserve" font-family="Georgia,Georgia" font-size="26.0" fill="#000000" transform="matrix(1.00, 0.00, -0.00, -1.00, 455.0, 389.5)">o</text><text xml:space="preserve" font-family="Georgia,Georgia" font-size="26.0" fill="#000000" transform="matrix(1.00, 0.00, -0.00, -1.00, 469.0, 389.5)">r</text><text xml:space="preserve" font-family="Georgia,Georgia" font-size="26.0" fill="#000000" transform="matrix(1.00, 0.00, -0.00, -1.00, 479.6, 389.5)">r</text><text xml:space="preserve" font-family="Georgia,Georgia" font-size="26.0" fill="#000000" transform="matrix(1.00, 0.00, -0.00, -1.00, 490.3, 389.5)">e</text><text xml:space="preserve" font-family="Georgia,Georgia" font-size="26.0" fill="#000000" transform="matrix(1.00, 0.00, -0.00, -1.00, 502.9, 389.5)">l</text><text xml:space="preserve" font-family="Georgia,Georgia" font-size="26.0" fill="#000000" transform="matrix(1.00, 0.00, -0.00, -1.00, 510.3, 389.5)">a</text><text xml:space="preserve" font-family="Georgia,Georgia" font-size="26.0" fill="#000000" transform="matrix(1.00, 0.00, -0.00, -1.00, 523.4, 389.5)">t</text><text xml:space="preserve" font-family="Georgia,Georgia" font-size="26.0" fill="#000000" transform="matrix(1.00, 0.00, -0.00, -1.00, 532.4, 389.5)">i</text><text xml:space="preserve" font-family="Georgia,Georgia" font-size="26.0" fill="#000000" transform="matrix(1.00, 0.00, -0.00, -1.00, 540.0, 389.5)">o</text><text xml:space="preserve" font-family="Georgia,Georgia" font-size="26.0" fill="#000000" transform="matrix(1.00, 0.00, -0.00, -1.00, 554.0, 389.5)">n</text><text xml:space="preserve" font-family="Georgia,Georgia" font-size="26.0" fill="#000000" transform="matrix(1.00, 0.00, -0.00, -1.00, 569.4, 389.5)"> </text><text xml:space="preserve" font-family="Georgia,Georgia" font-size="26.0" fill="#000000" transform="matrix(1.00, 0.00, -0.00, -1.00, 583.0, 389.5)">i</text><text xml:space="preserve" font-family="Georgia,Georgia" font-size="26.0" fill="#000000" transform="matrix(1.00, 0.00, -0.00, -1.00, 590.6, 389.5)">s</text><text xml:space="preserve" font-family="Georgia,Georgia" font-size="26.0" fill="#000000" transform="matrix(1.00, 0.00, -0.00, -1.00, 601.8, 389.5)"> </text><text xml:space="preserve" font-family="Georgia,Georgia" font-size="26.0" fill="#000000" transform="matrix(1.00, 0.00, -0.00, -1.00, 615.4, 389.5)">t</text><text xml:space="preserve" font-family="Georgia,Georgia" font-size="26.0" fill="#000000" transform="matrix(1.00, 0.00, -0.00, -1.00, 624.4, 389.5)">h</text><text xml:space="preserve" font-family="Georgia,Georgia" font-size="26.0" fill="#000000" transform="matrix(1.00, 0.00, -0.00, -1.00, 639.5, 389.5)">e</text><text xml:space="preserve" font-family="Georgia,Georgia" font-size="26.0" fill="#000000" transform="matrix(1.00, 0.00, -0.00, -1.00, 652.1, 389.5)"> </text><text xml:space="preserve" font-family="Georgia,Georgia" font-size="26.0" fill="#000000" transform="matrix(1.00, 0.00, -0.00, -1.00, 69.2, 359.5)">i</text><text xml:space="preserve" font-family="Georgia,Georgia" font-size="26.0" fill="#000000" transform="matrix(1.00, 0.00, -0.00, -1.00, 76.8, 359.5)">m</text><text xml:space="preserve" font-family="Georgia,Georgia" font-size="26.0" fill="#000000" transform="matrix(1.00, 0.00, -0.00, -1.00, 99.7, 359.5)">a</text><text xml:space="preserve" font-family="Georgia,Georgia" font-size="26.0" fill="#000000" transform="matrix(1.00, 0.00, -0.00, -1.00, 112.8, 359.5)">g</text><text xml:space="preserve" font-family="Georgia,Georgia" font-size="26.0" fill="#000000" transform="matrix(1.00, 0.00, -0.00, -1.00, 126.1, 359.5)">e</text><text xml:space="preserve" font-family="Georgia,Georgia" font-size="26.0" fill="#000000" transform="matrix(1.00, 0.00, -0.00, -1.00, 138.7, 359.5)"> </text><text xml:space="preserve" font-family="Georgia,Georgia" font-size="26.0" fill="#000000" transform="matrix(1.00, 0.00, -0.00, -1.00, 155.7, 359.5)">r</text><text xml:space="preserve" font-family="Georgia,Georgia" font-size="26.0" fill="#000000" transform="matrix(1.00, 0.00, -0.00, -1.00, 166.3, 359.5)">e</text><text xml:space="preserve" font-family="Georgia,Georgia" font-size="26.0" fill="#000000" transform="matrix(1.00, 0.00, -0.00, -1.00, 178.9, 359.5)">g</text><text xml:space="preserve" font-family="Georgia,Georgia" font-size="26.0" fill="#000000" transform="matrix(1.00, 0.00, -0.00, -1.00, 192.1, 359.5)">i</text><text xml:space="preserve" font-family="Georgia,Georgia" font-size="26.0" fill="#000000" transform="matrix(1.00, 0.00, -0.00, -1.00, 199.7, 359.5)">o</text><text xml:space="preserve" font-family="Georgia,Georgia" font-size="26.0" fill="#000000" transform="matrix(1.00, 0.00, -0.00, -1.00, 213.8, 359.5)">n</text><text xml:space="preserve" font-family="Georgia,Georgia" font-size="26.0" fill="#000000" transform="matrix(1.00, 0.00, -0.00, -1.00, 229.1, 359.5)"> </text><text xml:space="preserve" font-family="Georgia,Georgia" font-size="26.0" fill="#000000" transform="matrix(1.00, 0.00, -0.00, -1.00, 246.1, 359.5)">w</text><text xml:space="preserve" font-family="Georgia,Georgia" font-size="26.0" fill="#000000" transform="matrix(1.00, 0.00, -0.00, -1.00, 265.3, 359.5)">i</text><text xml:space="preserve" font-family="Georgia,Georgia" font-size="26.0" fill="#000000" transform="matrix(1.00, 0.00, -0.00, -1.00, 272.9, 359.5)">t</text><text xml:space="preserve" font-family="Georgia,Georgia" font-size="26.0" fill="#000000" transform="matrix(1.00, 0.00, -0.00, -1.00, 281.9, 359.5)">h</text><text xml:space="preserve" font-family="Georgia,Georgia" font-size="26.0" fill="#000000" transform="matrix(1.00, 0.00, -0.00, -1.00, 297.0, 359.5)"> </text><text xml:space="preserve" font-family="Georgia,Georgia" font-size="26.0" fill="#000000" transform="matrix(1.00, 0.00, -0.00, -1.00, 314.0, 359.5)">m</text><text xml:space="preserve" font-family="Georgia,Georgia" font-size="26.0" fill="#000000" transform="matrix(1.00, 0.00, -0.00, -1.00, 336.9, 359.5)">a</text><text xml:space="preserve" font-family="Georgia,Georgia" font-size="26.0" fill="#000000" transform="matrix(1.00, 0.00, -0.00, -1.00, 350.0, 359.5)">x</text><text xml:space="preserve" font-family="Georgia,Georgia" font-size="26.0" fill="#000000" transform="matrix(1.00, 0.00, -0.00, -1.00, 363.1, 359.5)">i</text><text xml:space="preserve" font-family="Georgia,Georgia" font-size="26.0" fill="#000000" transform="matrix(1.00, 0.00, -0.00, -1.00, 370.8, 359.5)">m</text><text xml:space="preserve" font-family="Georgia,Georgia" font-size="26.0" fill="#000000" transform="matrix(1.00, 0.00, -0.00, -1.00, 393.7, 359.5)">u</text><text xml:space="preserve" font-family="Georgia,Georgia" font-size="26.0" fill="#000000" transform="matrix(1.00, 0.00, -0.00, -1.00, 408.6, 359.5)">m</text><text xml:space="preserve" font-family="Georgia,Georgia" font-size="26.0" fill="#000000" transform="matrix(1.00, 0.00, -0.00, -1.00, 431.5, 359.5)"> </text><text xml:space="preserve" font-family="Georgia,Georgia" font-size="26.0" fill="#000000" transform="matrix(1.00, 0.00, -0.00, -1.00, 448.5, 359.5)">s</text><text xml:space="preserve" font-family="Georgia,Georgia" font-size="26.0" fill="#000000" transform="matrix(1.00, 0.00, -0.00, -1.00, 459.7, 359.5)">i</text><text xml:space="preserve" font-family="Georgia,Georgia" font-size="26.0" fill="#000000" transform="matrix(1.00, 0.00, -0.00, -1.00, 467.4, 359.5)">m</text><text xml:space="preserve" font-family="Georgia,Georgia" font-size="26.0" fill="#000000" transform="matrix(1.00, 0.00, -0.00, -1.00, 490.3, 359.5)">i</text><text xml:space="preserve" font-family="Georgia,Georgia" font-size="26.0" fill="#000000" transform="matrix(1.00, 0.00, -0.00, -1.00, 497.9, 359.5)">l</text><text xml:space="preserve" font-family="Georgia,Georgia" font-size="26.0" fill="#000000" transform="matrix(1.00, 0.00, -0.00, -1.00, 505.3, 359.5)">a</text><text xml:space="preserve" font-family="Georgia,Georgia" font-size="26.0" fill="#000000" transform="matrix(1.00, 0.00, -0.00, -1.00, 518.4, 359.5)">r</text><text xml:space="preserve" font-family="Georgia,Georgia" font-size="26.0" fill="#000000" transform="matrix(1.00, 0.00, -0.00, -1.00, 529.1, 359.5)">i</text><text xml:space="preserve" font-family="Georgia,Georgia" font-size="26.0" fill="#000000" transform="matrix(1.00, 0.00, -0.00, -1.00, 536.7, 359.5)">t</text><text xml:space="preserve" font-family="Georgia,Georgia" font-size="26.0" fill="#000000" transform="matrix(1.00, 0.00, -0.00, -1.00, 545.7, 359.5)">y</text><text xml:space="preserve" font-family="Georgia,Georgia" font-size="26.0" fill="#000000" transform="matrix(1.00, 0.00, -0.00, -1.00, 558.5, 359.5)"> </text><text xml:space="preserve" font-family="Georgia,Georgia" font-size="26.0" fill="#000000" transform="matrix(1.00, 0.00, -0.00, -1.00, 575.5, 359.5)">t</text><text xml:space="preserve" font-family="Georgia,Georgia" font-size="26.0" fill="#000000" transform="matrix(1.00, 0.00, -0.00, -1.00, 584.4, 359.5)">o</text><text xml:space="preserve" font-family="Georgia,Georgia" font-size="26.0" fill="#000000" transform="matrix(1.00, 0.00, -0.00, -1.00, 598.5, 359.5)"> </text><text xml:space="preserve" font-family="Georgia,Georgia" font-size="26.0" fill="#000000" transform="matrix(1.00, 0.00, -0.00, -1.00, 615.4, 359.5)">t</text><text xml:space="preserve" font-family="Georgia,Georgia" font-size="26.0" fill="#000000" transform="matrix(1.00, 0.00, -0.00, -1.00, 624.4, 359.5)">h</text><text xml:space="preserve" font-family="Georgia,Georgia" font-size="26.0" fill="#000000" transform="matrix(1.00, 0.00, -0.00, -1.00, 639.6, 359.5)">e</text><text xml:space="preserve" font-family="Georgia,Georgia" font-size="26.0" fill="#000000" transform="matrix(1.00, 0.00, -0.00, -1.00, 652.1, 359.5)"> </text><text xml:space="preserve" font-family="Georgia,Georgia" font-size="26.0" fill="#000000" transform="matrix(1.00, 0.00, -0.00, -1.00, 69.2, 329.5)">t</text><text xml:space="preserve" font-family="Georgia,Georgia" font-size="26.0" fill="#000000" transform="matrix(1.00, 0.00, -0.00, -1.00, 78.2, 329.5)">e</text><text xml:space="preserve" font-family="Georgia,Georgia" font-size="26.0" fill="#000000" transform="matrix(1.00, 0.00, -0.00, -1.00, 90.8, 329.5)">m</text><text xml:space="preserve" font-family="Georgia,Georgia" font-size="26.0" fill="#000000" transform="matrix(1.00, 0.00, -0.00, -1.00, 113.7, 329.5)">p</text><text xml:space="preserve" font-family="Georgia,Georgia" font-size="26.0" fill="#000000" transform="matrix(1.00, 0.00, -0.00, -1.00, 128.5, 329.5)">l</text><text xml:space="preserve" font-family="Georgia,Georgia" font-size="26.0" fill="#000000" transform="matrix(1.00, 0.00, -0.00, -1.00, 136.0, 329.5)">a</text><text xml:space="preserve" font-family="Georgia,Georgia" font-size="26.0" fill="#000000" transform="matrix(1.00, 0.00, -0.00, -1.00, 149.1, 329.5)">t</text><text xml:space="preserve" font-family="Georgia,Georgia" font-size="26.0" fill="#000000" transform="matrix(1.00, 0.00, -0.00, -1.00, 158.1, 329.5)">e</text><text xml:space="preserve" font-family="Georgia,Georgia" font-size="26.0" fill="#000000" transform="matrix(1.00, 0.00, -0.00, -1.00, 170.6, 329.5)"> </text><text xml:space="preserve" font-family="Georgia,Georgia" font-size="26.0" fill="#000000" transform="matrix(1.00, 0.00, -0.00, -1.00, 176.9, 329.5)">(</text><text xml:space="preserve" font-family="Georgia,Georgia" font-size="26.0" fill="#000000" transform="matrix(1.00, 0.00, -0.00, -1.00, 186.7, 329.5)">t</text><text xml:space="preserve" font-family="Georgia,Georgia" font-size="26.0" fill="#000000" transform="matrix(1.00, 0.00, -0.00, -1.00, 195.6, 329.5)">h</text><text xml:space="preserve" font-family="Georgia,Georgia" font-size="26.0" fill="#000000" transform="matrix(1.00, 0.00, -0.00, -1.00, 210.8, 329.5)">e</text><text xml:space="preserve" font-family="Georgia,Georgia" font-size="26.0" fill="#000000" transform="matrix(1.00, 0.00, -0.00, -1.00, 223.4, 329.5)"> </text><text xml:space="preserve" font-family="Georgia,Georgia" font-size="26.0" fill="#000000" transform="matrix(1.00, 0.00, -0.00, -1.00, 229.6, 329.5)">b</text><text xml:space="preserve" font-family="Georgia,Georgia" font-size="26.0" fill="#000000" transform="matrix(1.00, 0.00, -0.00, -1.00, 244.2, 329.5)">i</text><text xml:space="preserve" font-family="Georgia,Georgia" font-size="26.0" fill="#000000" transform="matrix(1.00, 0.00, -0.00, -1.00, 251.8, 329.5)">g</text><text xml:space="preserve" font-family="Georgia,Georgia" font-size="26.0" fill="#000000" transform="matrix(1.00, 0.00, -0.00, -1.00, 265.1, 329.5)">g</text><text xml:space="preserve" font-family="Georgia,Georgia" font-size="26.0" fill="#000000" transform="matrix(1.00, 0.00, -0.00, -1.00, 278.3, 329.5)">e</text><text xml:space="preserve" font-family="Georgia,Georgia" font-size="26.0" fill="#000000" transform="matrix(1.00, 0.00, -0.00, -1.00, 290.9, 329.5)">s</text><text xml:space="preserve" font-family="Georgia,Georgia" font-size="26.0" fill="#000000" transform="matrix(1.00, 0.00, -0.00, -1.00, 302.1, 329.5)">t</text><text xml:space="preserve" font-family="Georgia,Georgia" font-size="26.0" fill="#000000" transform="matrix(1.00, 0.00, -0.00, -1.00, 311.1, 329.5)"> </text><text xml:space="preserve" font-family="Georgia,Georgia" font-size="26.0" fill="#000000" transform="matrix(1.00, 0.00, -0.00, -1.00, 317.4, 329.5)">v</text><text xml:space="preserve" font-family="Georgia,Georgia" font-size="26.0" fill="#000000" transform="matrix(1.00, 0.00, -0.00, -1.00, 330.3, 329.5)">a</text><text xml:space="preserve" font-family="Georgia,Georgia" font-size="26.0" fill="#000000" transform="matrix(1.00, 0.00, -0.00, -1.00, 343.4, 329.5)">l</text><text xml:space="preserve" font-family="Georgia,Georgia" font-size="26.0" fill="#000000" transform="matrix(1.00, 0.00, -0.00, -1.00, 350.8, 329.5)">u</text><text xml:space="preserve" font-family="Georgia,Georgia" font-size="26.0" fill="#000000" transform="matrix(1.00, 0.00, -0.00, -1.00, 365.8, 329.5)">e</text><text xml:space="preserve" font-family="Georgia,Georgia" font-size="26.0" fill="#000000" transform="matrix(1.00, 0.00, -0.00, -1.00, 378.4, 329.5)"> </text><text xml:space="preserve" font-family="Georgia,Georgia" font-size="26.0" fill="#000000" transform="matrix(1.00, 0.00, -0.00, -1.00, 384.6, 329.5)">i</text><text xml:space="preserve" font-family="Georgia,Georgia" font-size="26.0" fill="#000000" transform="matrix(1.00, 0.00, -0.00, -1.00, 392.3, 329.5)">n</text><text xml:space="preserve" font-family="Georgia,Georgia" font-size="26.0" fill="#000000" transform="matrix(1.00, 0.00, -0.00, -1.00, 407.6, 329.5)"> </text><text xml:space="preserve" font-family="Georgia,Georgia" font-size="26.0" fill="#000000" transform="matrix(1.00, 0.00, -0.00, -1.00, 413.9, 329.5)">m</text><text xml:space="preserve" font-family="Georgia,Georgia" font-size="26.0" fill="#000000" transform="matrix(1.00, 0.00, -0.00, -1.00, 436.8, 329.5)">a</text><text xml:space="preserve" font-family="Georgia,Georgia" font-size="26.0" fill="#000000" transform="matrix(1.00, 0.00, -0.00, -1.00, 449.9, 329.5)">t</text><text xml:space="preserve" font-family="Georgia,Georgia" font-size="26.0" fill="#000000" transform="matrix(1.00, 0.00, -0.00, -1.00, 458.9, 329.5)">r</text><text xml:space="preserve" font-family="Georgia,Georgia" font-size="26.0" fill="#000000" transform="matrix(1.00, 0.00, -0.00, -1.00, 469.5, 329.5)">i</text><text xml:space="preserve" font-family="Georgia,Georgia" font-size="26.0" fill="#000000" transform="matrix(1.00, 0.00, -0.00, -1.00, 477.1, 329.5)">x</text><text xml:space="preserve" font-family="Georgia,Georgia" font-size="26.0" fill="#000000" transform="matrix(1.00, 0.00, -0.00, -1.00, 490.3, 329.5)"> </text><text xml:space="preserve" font-family="Georgia,Georgia" font-size="26.0" fill="#000000" transform="matrix(1.00, 0.00, -0.00, -1.00, 496.5, 329.5)">G</text><text xml:space="preserve" font-family="Georgia,Georgia" font-size="26.0" fill="#000000" transform="matrix(1.00, 0.00, -0.00, -1.00, 515.4, 329.5)">)</text><text xml:space="preserve" font-family="Georgia,Georgia" font-size="26.0" fill="#000000" transform="matrix(1.00, 0.00, -0.00, -1.00, 525.1, 329.5)">.</text></g></svg>