<?xml version="1.0" encoding="UTF-8"?><svg xmlns="http://www.w3.org/2000/svg" xmlns:xlink="http://www.w3.org/1999/xlink" clip-rule="evenodd" stroke-miterlimit="10" viewBox="0 0 720 540"><desc>SVG generated by Keynote</desc><defs></defs><g transform="matrix(1.00, 0.00, -0.00, -1.00, 0.0, 540.0)"><path d="M 0.0 0.0 L 720.0 0.0 L 720.0 540.0 L 0.0 540.0 Z M 0.0 0.0 " fill="#FFFFFF"></path><path d="M 0.0 511.0 L 720.0 511.0 L 720.0 504.0 L 0.0 504.0 Z M 0.0 511.1 " fill="#5ECCF3" fill-opacity="0.50"></path><path d="M 0.0 540.0 L 720.0 540.0 L 720.0 516.0 L 0.0 516.0 Z M 0.0 540.0 " fill="#212744"></path><path d="M 0.0 516.0 L 720.0 516.0 L 720.0 509.0 L 0.0 509.0 Z M 0.0 515.7 " fill="#5ECCF3"></path><path d="M 426.0 504.0 L 720.0 504.0 L 720.0 512.0 L 426.0 512.0 Z M 426.0 504.5 " fill="#5ECCF3"></path><path d="M 426.0 491.0 L 720.0 491.0 L 720.0 505.0 L 426.0 505.0 Z M 426.0 491.2 " fill="#5ECCF3" fill-opacity="0.50"></path><path d="M 425.8 499.0 L 426.0 500.5 C 426.0 500.7 425.9 501.0 426.1 501.0 L 666.6 501.0 C 666.8 501.0 667.0 500.7 667.0 500.5 L 667.0 499.0 C 667.0 498.8 666.8 499.0 666.6 499.0 L 426.1 499.0 C 425.9 499.0 425.8 498.8 425.8 499.0 Z M 425.8 499.0 " fill="#FFFFFF"></path><path d="M 580.6 491.2 L 581.0 493.1 C 581.0 493.4 580.8 494.0 581.1 494.0 L 706.1 494.0 C 706.4 494.0 707.0 493.4 707.0 493.1 L 707.0 491.2 C 707.0 491.0 706.4 491.0 706.1 491.0 L 581.1 491.0 C 580.8 491.0 580.6 491.0 580.6 491.2 Z M 580.6 491.2 " fill="#FFFFFF"></path><path d="M 715.0 540.0 L 720.0 540.0 L 720.0 491.0 L 715.0 491.0 Z M 715.4 540.2 " fill="#FFFFFF" fill-opacity="0.65"></path><path d="M 712.0 540.0 L 714.0 540.0 L 714.0 491.0 L 712.0 491.0 Z M 712.2 540.2 " fill="#FFFFFF" fill-opacity="0.65"></path><path d="M 711.0 540.0 L 711.0 540.0 L 711.0 491.0 L 711.0 491.0 Z M 710.7 540.2 " fill="#FFFFFF" fill-opacity="0.60"></path><path d="M 707.0 540.0 L 709.0 540.0 L 709.0 491.0 L 707.0 491.0 Z M 706.7 540.2 " fill="#FFFFFF" fill-opacity="0.40"></path><path d="M 702.0 540.0 L 706.0 540.0 L 706.0 494.0 L 702.0 494.0 Z M 702.0 540.0 " fill="#FFFFFF" fill-opacity="0.20"></path><path d="M 699.0 540.0 L 699.0 540.0 L 699.0 494.0 L 699.0 494.0 Z M 698.7 540.0 " fill="#FFFFFF" fill-opacity="0.30"></path><text xml:space="preserve" font-family="TrebuchetMS-Bold,Trebuchet MS" font-weight="bold" font-size="34.0" fill="#212744" transform="matrix(1.00, 0.00, -0.00, -1.00, 38.8, 465.4)">3</text><text xml:space="preserve" font-family="TrebuchetMS-Bold,Trebuchet MS" font-weight="bold" font-size="34.0" fill="#212744" transform="matrix(1.00, 0.00, -0.00, -1.00, 58.7, 465.4)">)</text><text xml:space="preserve" font-family="TrebuchetMS-Bold,Trebuchet MS" font-weight="bold" font-size="34.0" fill="#212744" transform="matrix(1.00, 0.00, -0.00, -1.00, 71.2, 465.4)"> </text><text xml:space="preserve" font-family="TrebuchetMS-Bold,Trebuchet MS" font-weight="bold" font-size="34.0" fill="#212744" transform="matrix(1.00, 0.00, -0.00, -1.00, 80.8, 465.4)">T</text><text xml:space="preserve" font-family="TrebuchetMS-Bold,Trebuchet MS" font-weight="bold" font-size="34.0" fill="#212744" transform="matrix(1.00, 0.00, -0.00, -1.00, 97.8, 465.4)">e</text><text xml:space="preserve" font-family="TrebuchetMS-Bold,Trebuchet MS" font-weight="bold" font-size="34.0" fill="#212744" transform="matrix(1.00, 0.00, -0.00, -1.00, 117.4, 465.4)">m</text><text xml:space="preserve" font-family="TrebuchetMS-Bold,Trebuchet MS" font-weight="bold" font-size="34.0" fill="#212744" transform="matrix(1.00, 0.00, -0.00, -1.00, 146.6, 465.4)">p</text><text xml:space="preserve" font-family="TrebuchetMS-Bold,Trebuchet MS" font-weight="bold" font-size="34.0" fill="#212744" transform="matrix(1.00, 0.00, -0.00, -1.00, 166.4, 465.4)">l</text><text xml:space="preserve" font-family="TrebuchetMS-Bold,Trebuchet MS" font-weight="bold" font-size="34.0" fill="#212744" transform="matrix(1.00, 0.00, -0.00, -1.00, 176.4, 465.4)">a</text><text xml:space="preserve" font-family="TrebuchetMS-Bold,Trebuchet MS" font-weight="bold" font-size="34.0" fill="#212744" transform="matrix(1.00, 0.00, -0.00, -1.00, 194.6, 465.4)">t</text><text xml:space="preserve" font-family="TrebuchetMS-Bold,Trebuchet MS" font-weight="bold" font-size="34.0" fill="#212744" transform="matrix(1.00, 0.00, -0.00, -1.00, 208.1, 465.4)">e</text><text xml:space="preserve" font-family="TrebuchetMS-Bold,Trebuchet MS" font-weight="bold" font-size="34.0" fill="#212744" transform="matrix(1.00, 0.00, -0.00, -1.00, 227.6, 465.4)"> </text><text xml:space="preserve" font-family="TrebuchetMS-Bold,Trebuchet MS" font-weight="bold" font-size="34.0" fill="#212744" transform="matrix(1.00, 0.00, -0.00, -1.00, 237.8, 465.4)">s</text><text xml:space="preserve" font-family="TrebuchetMS-Bold,Trebuchet MS" font-weight="bold" font-size="34.0" fill="#212744" transform="matrix(1.00, 0.00, -0.00, -1.00, 252.5, 465.4)">e</text><text xml:space="preserve" font-family="TrebuchetMS-Bold,Trebuchet MS" font-weight="bold" font-size="34.0" fill="#212744" transform="matrix(1.00, 0.00, -0.00, -1.00, 272.0, 465.4)">l</text><text xml:space="preserve" font-family="TrebuchetMS-Bold,Trebuchet MS" font-weight="bold" font-size="34.0" fill="#212744" transform="matrix(1.00, 0.00, -0.00, -1.00, 282.0, 465.4)">e</text><text xml:space="preserve" font-family="TrebuchetMS-Bold,Trebuchet MS" font-weight="bold" font-size="34.0" fill="#212744" transform="matrix(1.00, 0.00, -0.00, -1.00, 301.6, 465.4)">c</text><text xml:space="preserve" font-family="TrebuchetMS-Bold,Trebuchet MS" font-weight="bold" font-size="34.0" fill="#212744" transform="matrix(1.00, 0.00, -0.00, -1.00, 319.0, 465.4)">t</text><text xml:space="preserve" font-family="TrebuchetMS-Bold,Trebuchet MS" font-weight="bold" font-size="34.0" fill="#212744" transform="matrix(1.00, 0.00, -0.00, -1.00, 332.5, 465.4)">i</text><text xml:space="preserve" font-family="TrebuchetMS-Bold,Trebuchet MS" font-weight="bold" font-size="34.0" fill="#212744" transform="matrix(1.00, 0.00, -0.00, -1.00, 342.6, 465.4)">o</text><text xml:space="preserve" font-family="TrebuchetMS-Bold,Trebuchet MS" font-weight="bold" font-size="34.0" fill="#212744" transform="matrix(1.00, 0.00, -0.00, -1.00, 361.9, 465.4)">n</text><text xml:space="preserve" font-family="Georgia-Bold,Georgia" font-weight="bold" font-size="28.0" fill="#000000" transform="matrix(1.00, 0.00, -0.00, -1.00, 209.1, 410.8)">A</text><text xml:space="preserve" font-family="Georgia-Bold,Georgia" font-weight="bold" font-size="28.0" fill="#000000" transform="matrix(1.00, 0.00, -0.00, -1.00, 230.4, 410.8)">t</text><text xml:space="preserve" font-family="Georgia-Bold,Georgia" font-weight="bold" font-size="28.0" fill="#000000" transform="matrix(1.00, 0.00, -0.00, -1.00, 241.5, 410.8)">t</text><text xml:space="preserve" font-family="Georgia-Bold,Georgia" font-weight="bold" font-size="28.0" fill="#000000" transform="matrix(1.00, 0.00, -0.00, -1.00, 252.6, 410.8)">e</text><text xml:space="preserve" font-family="Georgia-Bold,Georgia" font-weight="bold" font-size="28.0" fill="#000000" transform="matrix(1.00, 0.00, -0.00, -1.00, 268.6, 410.8)">m</text><text xml:space="preserve" font-family="Georgia-Bold,Georgia" font-weight="bold" font-size="28.0" fill="#000000" transform="matrix(1.00, 0.00, -0.00, -1.00, 297.1, 410.8)">p</text><text xml:space="preserve" font-family="Georgia-Bold,Georgia" font-weight="bold" font-size="28.0" fill="#000000" transform="matrix(1.00, 0.00, -0.00, -1.00, 315.4, 410.8)">t</text><text xml:space="preserve" font-family="Georgia-Bold,Georgia" font-weight="bold" font-size="28.0" fill="#000000" transform="matrix(1.00, 0.00, -0.00, -1.00, 326.6, 410.8)">e</text><text xml:space="preserve" font-family="Georgia-Bold,Georgia" font-weight="bold" font-size="28.0" fill="#000000" transform="matrix(1.00, 0.00, -0.00, -1.00, 342.6, 410.8)">d</text><text xml:space="preserve" font-family="Georgia-Bold,Georgia" font-weight="bold" font-size="28.0" fill="#000000" transform="matrix(1.00, 0.00, -0.00, -1.00, 361.1, 410.8)"> </text><text xml:space="preserve" font-family="Georgia-Bold,Georgia" font-weight="bold" font-size="28.0" fill="#000000" transform="matrix(1.00, 0.00, -0.00, -1.00, 368.3, 410.8)">m</text><text xml:space="preserve" font-family="Georgia-Bold,Georgia" font-weight="bold" font-size="28.0" fill="#000000" transform="matrix(1.00, 0.00, -0.00, -1.00, 396.7, 410.8)">e</text><text xml:space="preserve" font-family="Georgia-Bold,Georgia" font-weight="bold" font-size="28.0" fill="#000000" transform="matrix(1.00, 0.00, -0.00, -1.00, 412.7, 410.8)">t</text><text xml:space="preserve" font-family="Georgia-Bold,Georgia" font-weight="bold" font-size="28.0" fill="#000000" transform="matrix(1.00, 0.00, -0.00, -1.00, 423.8, 410.8)">h</text><text xml:space="preserve" font-family="Georgia-Bold,Georgia" font-weight="bold" font-size="28.0" fill="#000000" transform="matrix(1.00, 0.00, -0.00, -1.00, 442.8, 410.8)">o</text><text xml:space="preserve" font-family="Georgia-Bold,Georgia" font-weight="bold" font-size="28.0" fill="#000000" transform="matrix(1.00, 0.00, -0.00, -1.00, 460.6, 410.8)">d</text><text xml:space="preserve" font-family="Georgia-Bold,Georgia" font-weight="bold" font-size="28.0" fill="#000000" transform="matrix(1.00, 0.00, -0.00, -1.00, 479.2, 410.8)">s</text><g><clipPath id="clip0x6000028a9fc0"><path d="M 122.8 196.9 L 311.2 196.9 L 311.2 260.4 L 122.8 260.4 Z M 122.8 196.9 "></path></clipPath><g clip-path="url(#clip0x6000028a9fc0)"><path d="M 124.6 203.2 L 125.0 254.2 C 125.0 256.6 126.6 259.0 129.1 259.0 L 304.9 259.0 C 307.4 259.0 309.0 256.6 309.0 254.2 L 309.0 203.2 C 309.0 200.7 307.4 199.0 304.9 199.0 L 129.1 199.0 C 126.6 199.0 124.6 200.7 124.6 203.2 Z M 124.6 203.2 " fill="#212744"></path><path d="M 0.0 55.5 L 0.4 4.5 C 0.4 2.0 2.0 -0.3 4.5 -0.3 L 180.4 -0.3 C 182.9 -0.3 184.4 2.0 184.4 4.5 L 184.4 55.5 C 184.4 58.0 182.9 59.7 180.4 59.7 L 4.5 59.7 C 2.0 59.7 0.0 58.0 0.0 55.5 Z M 0.0 55.5 " fill="none" stroke="#B4DCFA" stroke-width="2.00" stroke-linejoin="bevel" transform="matrix(1.00, 0.00, 0.00, -1.00, 124.6, 258.7)"></path></g></g><g><clipPath id="clip0x6000028aa2c0"><path d="M 123.8 201.0 L 310.2 201.0 L 310.2 256.4 L 123.8 256.4 Z M 123.8 201.0 "></path></clipPath><g clip-path="url(#clip0x6000028aa2c0)"><text xml:space="preserve" font-family="Georgia,Georgia" font-size="20.0" fill="#FFFFFF" transform="matrix(1.00, 0.00, -0.00, -1.00, 146.3, 233.1)">D</text><text xml:space="preserve" font-family="Georgia,Georgia" font-size="20.0" fill="#FFFFFF" transform="matrix(1.00, 0.00, -0.00, -1.00, 161.3, 233.1)">e</text><text xml:space="preserve" font-family="Georgia,Georgia" font-size="20.0" fill="#FFFFFF" transform="matrix(1.00, 0.00, -0.00, -1.00, 171.0, 233.1)">t</text><text xml:space="preserve" font-family="Georgia,Georgia" font-size="20.0" fill="#FFFFFF" transform="matrix(1.00, 0.00, -0.00, -1.00, 177.9, 233.1)">e</text><text xml:space="preserve" font-family="Georgia,Georgia" font-size="20.0" fill="#FFFFFF" transform="matrix(1.00, 0.00, -0.00, -1.00, 187.5, 233.1)">c</text><text xml:space="preserve" font-family="Georgia,Georgia" font-size="20.0" fill="#FFFFFF" transform="matrix(1.00, 0.00, -0.00, -1.00, 196.6, 233.1)">t</text><text xml:space="preserve" font-family="Georgia,Georgia" font-size="20.0" fill="#FFFFFF" transform="matrix(1.00, 0.00, -0.00, -1.00, 203.5, 233.1)"> </text><text xml:space="preserve" font-family="Georgia,Georgia" font-size="20.0" fill="#FFFFFF" transform="matrix(1.00, 0.00, -0.00, -1.00, 208.4, 233.1)">o</text><text xml:space="preserve" font-family="Georgia,Georgia" font-size="20.0" fill="#FFFFFF" transform="matrix(1.00, 0.00, -0.00, -1.00, 219.1, 233.1)">b</text><text xml:space="preserve" font-family="Georgia,Georgia" font-size="20.0" fill="#FFFFFF" transform="matrix(1.00, 0.00, -0.00, -1.00, 230.3, 233.1)">j</text><text xml:space="preserve" font-family="Georgia,Georgia" font-size="20.0" fill="#FFFFFF" transform="matrix(1.00, 0.00, -0.00, -1.00, 236.2, 233.1)">e</text><text xml:space="preserve" font-family="Georgia,Georgia" font-size="20.0" fill="#FFFFFF" transform="matrix(1.00, 0.00, -0.00, -1.00, 245.9, 233.1)">c</text><text xml:space="preserve" font-family="Georgia,Georgia" font-size="20.0" fill="#FFFFFF" transform="matrix(1.00, 0.00, -0.00, -1.00, 254.9, 233.1)">t</text><text xml:space="preserve" font-family="Georgia,Georgia" font-size="20.0" fill="#FFFFFF" transform="matrix(1.00, 0.00, -0.00, -1.00, 261.9, 233.1)"> </text><text xml:space="preserve" font-family="Georgia,Georgia" font-size="20.0" fill="#FFFFFF" transform="matrix(1.00, 0.00, -0.00, -1.00, 266.7, 233.1)">b</text><text xml:space="preserve" font-family="Georgia,Georgia" font-size="20.0" fill="#FFFFFF" transform="matrix(1.00, 0.00, -0.00, -1.00, 277.9, 233.1)">y</text><text xml:space="preserve" font-family="Georgia,Georgia" font-size="20.0" fill="#FFFFFF" transform="matrix(1.00, 0.00, -0.00, -1.00, 287.7, 233.1)"> </text><text xml:space="preserve" font-family="Georgia,Georgia" font-size="20.0" fill="#FFFFFF" transform="matrix(1.00, 0.00, -0.00, -1.00, 191.3, 211.1)">s</text><text xml:space="preserve" font-family="Georgia,Georgia" font-size="20.0" fill="#FFFFFF" transform="matrix(1.00, 0.00, -0.00, -1.00, 199.9, 211.1)">h</text><text xml:space="preserve" font-family="Georgia,Georgia" font-size="20.0" fill="#FFFFFF" transform="matrix(1.00, 0.00, -0.00, -1.00, 211.5, 211.1)">a</text><text xml:space="preserve" font-family="Georgia,Georgia" font-size="20.0" fill="#FFFFFF" transform="matrix(1.00, 0.00, -0.00, -1.00, 221.6, 211.1)">p</text><text xml:space="preserve" font-family="Georgia,Georgia" font-size="20.0" fill="#FFFFFF" transform="matrix(1.00, 0.00, -0.00, -1.00, 233.1, 211.1)">e</text></g></g><g><clipPath id="clip0x6080020a1b00"><path d="M 122.8 108.2 L 311.2 108.2 L 311.2 171.7 L 122.8 171.7 Z M 122.8 108.2 "></path></clipPath><g clip-path="url(#clip0x6080020a1b00)"><path d="M 124.6 114.4 L 125.0 165.4 C 125.0 167.9 126.6 170.0 129.1 170.0 L 304.9 170.0 C 307.4 170.0 309.0 167.9 309.0 165.4 L 309.0 114.4 C 309.0 112.0 307.4 110.0 304.9 110.0 L 129.1 110.0 C 126.6 110.0 124.6 112.0 124.6 114.4 Z M 124.6 114.4 " fill="#212744"></path><path d="M 0.0 55.5 L 0.4 4.5 C 0.4 2.0 2.0 -0.1 4.5 -0.1 L 180.4 -0.1 C 182.9 -0.1 184.4 2.0 184.4 4.5 L 184.4 55.5 C 184.4 58.0 182.9 59.9 180.4 59.9 L 4.5 59.9 C 2.0 59.9 0.0 58.0 0.0 55.5 Z M 0.0 55.5 " fill="none" stroke="#B4DCFA" stroke-width="2.00" stroke-linejoin="bevel" transform="matrix(1.00, 0.00, 0.00, -1.00, 124.6, 169.9)"></path></g></g><g><clipPath id="clip0x6080020a1e00"><path d="M 123.5 110.0 L 310.5 110.0 L 310.5 169.9 L 123.5 169.9 Z M 123.5 110.0 "></path></clipPath><g clip-path="url(#clip0x6080020a1e00)"><text xml:space="preserve" font-family="Georgia,Georgia" font-size="21.0" fill="#FFFFFF" transform="matrix(1.00, 0.00, -0.00, -1.00, 145.4, 144.5)">S</text><text xml:space="preserve" font-family="Georgia,Georgia" font-size="21.0" fill="#FFFFFF" transform="matrix(1.00, 0.00, -0.00, -1.00, 157.1, 144.5)">e</text><text xml:space="preserve" font-family="Georgia,Georgia" font-size="21.0" fill="#FFFFFF" transform="matrix(1.00, 0.00, -0.00, -1.00, 167.3, 144.5)">l</text><text xml:space="preserve" font-family="Georgia,Georgia" font-size="21.0" fill="#FFFFFF" transform="matrix(1.00, 0.00, -0.00, -1.00, 173.3, 144.5)">e</text><text xml:space="preserve" font-family="Georgia,Georgia" font-size="21.0" fill="#FFFFFF" transform="matrix(1.00, 0.00, -0.00, -1.00, 183.5, 144.5)">c</text><text xml:space="preserve" font-family="Georgia,Georgia" font-size="21.0" fill="#FFFFFF" transform="matrix(1.00, 0.00, -0.00, -1.00, 193.0, 144.5)">t</text><text xml:space="preserve" font-family="Georgia,Georgia" font-size="21.0" fill="#FFFFFF" transform="matrix(1.00, 0.00, -0.00, -1.00, 200.3, 144.5)"> </text><text xml:space="preserve" font-family="Georgia,Georgia" font-size="21.0" fill="#FFFFFF" transform="matrix(1.00, 0.00, -0.00, -1.00, 205.3, 144.5)">o</text><text xml:space="preserve" font-family="Georgia,Georgia" font-size="21.0" fill="#FFFFFF" transform="matrix(1.00, 0.00, -0.00, -1.00, 216.7, 144.5)">b</text><text xml:space="preserve" font-family="Georgia,Georgia" font-size="21.0" fill="#FFFFFF" transform="matrix(1.00, 0.00, -0.00, -1.00, 228.4, 144.5)">j</text><text xml:space="preserve" font-family="Georgia,Georgia" font-size="21.0" fill="#FFFFFF" transform="matrix(1.00, 0.00, -0.00, -1.00, 234.6, 144.5)">e</text><text xml:space="preserve" font-family="Georgia,Georgia" font-size="21.0" fill="#FFFFFF" transform="matrix(1.00, 0.00, -0.00, -1.00, 244.7, 144.5)">c</text><text xml:space="preserve" font-family="Georgia,Georgia" font-size="21.0" fill="#FFFFFF" transform="matrix(1.00, 0.00, -0.00, -1.00, 254.3, 144.5)">t</text><text xml:space="preserve" font-family="Georgia,Georgia" font-size="21.0" fill="#FFFFFF" transform="matrix(1.00, 0.00, -0.00, -1.00, 261.5, 144.5)"> </text><text xml:space="preserve" font-family="Georgia,Georgia" font-size="21.0" fill="#FFFFFF" transform="matrix(1.00, 0.00, -0.00, -1.00, 266.6, 144.5)">b</text><text xml:space="preserve" font-family="Georgia,Georgia" font-size="21.0" fill="#FFFFFF" transform="matrix(1.00, 0.00, -0.00, -1.00, 278.3, 144.5)">y</text><text xml:space="preserve" font-family="Georgia,Georgia" font-size="21.0" fill="#FFFFFF" transform="matrix(1.00, 0.00, -0.00, -1.00, 288.7, 144.5)"> </text><text xml:space="preserve" font-family="Georgia,Georgia" font-size="21.0" fill="#FFFFFF" transform="matrix(1.00, 0.00, -0.00, -1.00, 195.7, 120.5)">c</text><text xml:space="preserve" font-family="Georgia,Georgia" font-size="21.0" fill="#FFFFFF" transform="matrix(1.00, 0.00, -0.00, -1.00, 205.3, 120.5)">l</text><text xml:space="preserve" font-family="Georgia,Georgia" font-size="21.0" fill="#FFFFFF" transform="matrix(1.00, 0.00, -0.00, -1.00, 211.3, 120.5)">i</text><text xml:space="preserve" font-family="Georgia,Georgia" font-size="21.0" fill="#FFFFFF" transform="matrix(1.00, 0.00, -0.00, -1.00, 217.5, 120.5)">c</text><text xml:space="preserve" font-family="Georgia,Georgia" font-size="21.0" fill="#FFFFFF" transform="matrix(1.00, 0.00, -0.00, -1.00, 227.0, 120.5)">k</text></g></g><g><clipPath id="clip0x6080020a2820"><path d="M 423.6 222.9 L 624.2 222.9 L 624.2 339.8 L 423.6 339.8 Z M 423.6 222.9 "></path></clipPath><g clip-path="url(#clip0x6080020a2820)"><path d="M 425.4 233.1 L 425.0 329.5 C 425.0 334.2 429.2 338.0 433.9 338.0 L 614.0 338.0 C 618.7 338.0 622.0 334.2 622.0 329.5 L 622.0 233.1 C 622.0 228.4 618.7 225.0 614.0 225.0 L 433.9 225.0 C 429.2 225.0 425.4 228.4 425.4 233.1 Z M 425.4 233.1 " fill="#FFFFFF"></path><path d="M 0.0 104.9 L -0.4 8.5 C -0.4 3.8 3.8 0.0 8.5 0.0 L 188.6 0.0 C 193.3 0.0 196.6 3.8 196.6 8.5 L 196.6 104.9 C 196.6 109.6 193.3 113.0 188.6 113.0 L 8.5 113.0 C 3.8 113.0 0.0 109.6 0.0 104.9 Z M 0.0 104.9 " fill="none" stroke="#54B8DB" stroke-width="2.00" stroke-linejoin="bevel" transform="matrix(1.00, 0.00, 0.00, -1.00, 425.4, 338.0)"></path></g></g><g><clipPath id="clip0x6080020a2b20"><path d="M 425.0 235.9 L 622.8 235.9 L 622.8 326.8 L 425.0 326.8 Z M 425.0 235.9 "></path></clipPath><g clip-path="url(#clip0x6080020a2b20)"><text xml:space="preserve" font-family="Georgia,Georgia" font-size="22.7" fill="#000000" transform="matrix(1.00, 0.00, -0.00, -1.00, 468.2, 299.3)">T</text><text xml:space="preserve" font-family="Georgia,Georgia" font-size="22.7" fill="#000000" transform="matrix(1.00, 0.00, -0.00, -1.00, 482.2, 299.3)">h</text><text xml:space="preserve" font-family="Georgia,Georgia" font-size="22.7" fill="#000000" transform="matrix(1.00, 0.00, -0.00, -1.00, 495.4, 299.3)">e</text><text xml:space="preserve" font-family="Georgia,Georgia" font-size="22.7" fill="#000000" transform="matrix(1.00, 0.00, -0.00, -1.00, 506.4, 299.3)">r</text><text xml:space="preserve" font-family="Georgia,Georgia" font-size="22.7" fill="#000000" transform="matrix(1.00, 0.00, -0.00, -1.00, 515.7, 299.3)">e</text><text xml:space="preserve" font-family="Georgia,Georgia" font-size="22.7" fill="#000000" transform="matrix(1.00, 0.00, -0.00, -1.00, 526.6, 299.3)"> </text><text xml:space="preserve" font-family="Georgia,Georgia" font-size="22.7" fill="#000000" transform="matrix(1.00, 0.00, -0.00, -1.00, 532.1, 299.3)">i</text><text xml:space="preserve" font-family="Georgia,Georgia" font-size="22.7" fill="#000000" transform="matrix(1.00, 0.00, -0.00, -1.00, 538.8, 299.3)">s</text><text xml:space="preserve" font-family="Georgia,Georgia" font-size="22.7" fill="#000000" transform="matrix(1.00, 0.00, -0.00, -1.00, 548.6, 299.3)"> </text><text xml:space="preserve" font-family="Georgia,Georgia" font-size="22.7" fill="#000000" transform="matrix(1.00, 0.00, -0.00, -1.00, 554.0, 299.3)">n</text><text xml:space="preserve" font-family="Georgia,Georgia" font-size="22.7" fill="#000000" transform="matrix(1.00, 0.00, -0.00, -1.00, 567.4, 299.3)">o</text><text xml:space="preserve" font-family="Georgia,Georgia" font-size="22.7" fill="#000000" transform="matrix(1.00, 0.00, -0.00, -1.00, 579.7, 299.3)"> </text><text xml:space="preserve" font-family="Georgia,Georgia" font-size="22.7" fill="#000000" transform="matrix(1.00, 0.00, -0.00, -1.00, 441.8, 273.3)">s</text><text xml:space="preserve" font-family="Georgia,Georgia" font-size="22.7" fill="#000000" transform="matrix(1.00, 0.00, -0.00, -1.00, 451.6, 273.3)">p</text><text xml:space="preserve" font-family="Georgia,Georgia" font-size="22.7" fill="#000000" transform="matrix(1.00, 0.00, -0.00, -1.00, 464.5, 273.3)">e</text><text xml:space="preserve" font-family="Georgia,Georgia" font-size="22.7" fill="#000000" transform="matrix(1.00, 0.00, -0.00, -1.00, 475.5, 273.3)">c</text><text xml:space="preserve" font-family="Georgia,Georgia" font-size="22.7" fill="#000000" transform="matrix(1.00, 0.00, -0.00, -1.00, 485.8, 273.3)">i</text><text xml:space="preserve" font-family="Georgia,Georgia" font-size="22.7" fill="#000000" transform="matrix(1.00, 0.00, -0.00, -1.00, 492.5, 273.3)">f</text><text xml:space="preserve" font-family="Georgia,Georgia" font-size="22.7" fill="#000000" transform="matrix(1.00, 0.00, -0.00, -1.00, 499.8, 273.3)">i</text><text xml:space="preserve" font-family="Georgia,Georgia" font-size="22.7" fill="#000000" transform="matrix(1.00, 0.00, -0.00, -1.00, 506.5, 273.3)">c</text><text xml:space="preserve" font-family="Georgia,Georgia" font-size="22.7" fill="#000000" transform="matrix(1.00, 0.00, -0.00, -1.00, 516.8, 273.3)"> </text><text xml:space="preserve" font-family="Georgia,Georgia" font-size="22.7" fill="#000000" transform="matrix(1.00, 0.00, -0.00, -1.00, 522.3, 273.3)">s</text><text xml:space="preserve" font-family="Georgia,Georgia" font-size="22.7" fill="#000000" transform="matrix(1.00, 0.00, -0.00, -1.00, 532.1, 273.3)">h</text><text xml:space="preserve" font-family="Georgia,Georgia" font-size="22.7" fill="#000000" transform="matrix(1.00, 0.00, -0.00, -1.00, 545.3, 273.3)">a</text><text xml:space="preserve" font-family="Georgia,Georgia" font-size="22.7" fill="#000000" transform="matrix(1.00, 0.00, -0.00, -1.00, 556.7, 273.3)">p</text><text xml:space="preserve" font-family="Georgia,Georgia" font-size="22.7" fill="#000000" transform="matrix(1.00, 0.00, -0.00, -1.00, 569.6, 273.3)">e</text><text xml:space="preserve" font-family="Georgia,Georgia" font-size="22.7" fill="#000000" transform="matrix(1.00, 0.00, -0.00, -1.00, 580.6, 273.3)"> </text><text xml:space="preserve" font-family="Georgia,Georgia" font-size="22.7" fill="#000000" transform="matrix(1.00, 0.00, -0.00, -1.00, 586.1, 273.3)">i</text><text xml:space="preserve" font-family="Georgia,Georgia" font-size="22.7" fill="#000000" transform="matrix(1.00, 0.00, -0.00, -1.00, 592.7, 273.3)">n</text><text xml:space="preserve" font-family="Georgia,Georgia" font-size="22.7" fill="#000000" transform="matrix(1.00, 0.00, -0.00, -1.00, 606.1, 273.3)"> </text><text xml:space="preserve" font-family="Georgia,Georgia" font-size="22.7" fill="#000000" transform="matrix(1.00, 0.00, -0.00, -1.00, 493.6, 247.3)">i</text><text xml:space="preserve" font-family="Georgia,Georgia" font-size="22.7" fill="#000000" transform="matrix(1.00, 0.00, -0.00, -1.00, 500.3, 247.3)">m</text><text xml:space="preserve" font-family="Georgia,Georgia" font-size="22.7" fill="#000000" transform="matrix(1.00, 0.00, -0.00, -1.00, 520.3, 247.3)">a</text><text xml:space="preserve" font-family="Georgia,Georgia" font-size="22.7" fill="#000000" transform="matrix(1.00, 0.00, -0.00, -1.00, 531.7, 247.3)">g</text><text xml:space="preserve" font-family="Georgia,Georgia" font-size="22.7" fill="#000000" transform="matrix(1.00, 0.00, -0.00, -1.00, 543.2, 247.3)">e</text></g></g><g><clipPath id="clip0x6080020a3a20"><path d="M 423.6 55.1 L 624.2 55.1 L 624.2 172.0 L 423.6 172.0 Z M 423.6 55.1 "></path></clipPath><g clip-path="url(#clip0x6080020a3a20)"><path d="M 425.4 65.3 L 425.0 161.7 C 425.0 166.4 429.2 170.0 433.9 170.0 L 614.0 170.0 C 618.7 170.0 622.0 166.4 622.0 161.7 L 622.0 65.3 C 622.0 60.6 618.7 57.0 614.0 57.0 L 433.9 57.0 C 429.2 57.0 425.4 60.6 425.4 65.3 Z M 425.4 65.3 " fill="#FFFFFF"></path><path d="M 0.0 104.9 L -0.4 8.5 C -0.4 3.8 3.8 0.2 8.5 0.2 L 188.6 0.2 C 193.3 0.2 196.6 3.8 196.6 8.5 L 196.6 104.9 C 196.6 109.6 193.3 113.2 188.6 113.2 L 8.5 113.2 C 3.8 113.2 0.0 109.6 0.0 104.9 Z M 0.0 104.9 " fill="none" stroke="#54B8DB" stroke-width="2.00" stroke-linejoin="bevel" transform="matrix(1.00, 0.00, 0.00, -1.00, 425.4, 170.2)"></path></g></g><g><clipPath id="clip0x6080020a3d20"><path d="M 425.0 81.1 L 622.8 81.1 L 622.8 146.0 L 425.0 146.0 Z M 425.0 81.1 "></path></clipPath><g clip-path="url(#clip0x6080020a3d20)"><text xml:space="preserve" font-family="Georgia,Georgia" font-size="22.7" fill="#000000" transform="matrix(1.00, 0.00, -0.00, -1.00, 434.2, 118.5)">N</text><text xml:space="preserve" font-family="Georgia,Georgia" font-size="22.7" fill="#000000" transform="matrix(1.00, 0.00, -0.00, -1.00, 451.6, 118.5)">e</text><text xml:space="preserve" font-family="Georgia,Georgia" font-size="22.7" fill="#000000" transform="matrix(1.00, 0.00, -0.00, -1.00, 462.5, 118.5)">e</text><text xml:space="preserve" font-family="Georgia,Georgia" font-size="22.7" fill="#000000" transform="matrix(1.00, 0.00, -0.00, -1.00, 473.5, 118.5)">d</text><text xml:space="preserve" font-family="Georgia,Georgia" font-size="22.7" fill="#000000" transform="matrix(1.00, 0.00, -0.00, -1.00, 486.5, 118.5)"> </text><text xml:space="preserve" font-family="Georgia,Georgia" font-size="22.7" fill="#000000" transform="matrix(1.00, 0.00, -0.00, -1.00, 492.0, 118.5)">b</text><text xml:space="preserve" font-family="Georgia,Georgia" font-size="22.7" fill="#000000" transform="matrix(1.00, 0.00, -0.00, -1.00, 504.7, 118.5)">i</text><text xml:space="preserve" font-family="Georgia,Georgia" font-size="22.7" fill="#000000" transform="matrix(1.00, 0.00, -0.00, -1.00, 511.4, 118.5)">n</text><text xml:space="preserve" font-family="Georgia,Georgia" font-size="22.7" fill="#000000" transform="matrix(1.00, 0.00, -0.00, -1.00, 524.8, 118.5)">a</text><text xml:space="preserve" font-family="Georgia,Georgia" font-size="22.7" fill="#000000" transform="matrix(1.00, 0.00, -0.00, -1.00, 536.2, 118.5)">r</text><text xml:space="preserve" font-family="Georgia,Georgia" font-size="22.7" fill="#000000" transform="matrix(1.00, 0.00, -0.00, -1.00, 545.5, 118.5)">i</text><text xml:space="preserve" font-family="Georgia,Georgia" font-size="22.7" fill="#000000" transform="matrix(1.00, 0.00, -0.00, -1.00, 552.1, 118.5)">z</text><text xml:space="preserve" font-family="Georgia,Georgia" font-size="22.7" fill="#000000" transform="matrix(1.00, 0.00, -0.00, -1.00, 562.2, 118.5)">a</text><text xml:space="preserve" font-family="Georgia,Georgia" font-size="22.7" fill="#000000" transform="matrix(1.00, 0.00, -0.00, -1.00, 573.6, 118.5)">t</text><text xml:space="preserve" font-family="Georgia,Georgia" font-size="22.7" fill="#000000" transform="matrix(1.00, 0.00, -0.00, -1.00, 581.4, 118.5)">i</text><text xml:space="preserve" font-family="Georgia,Georgia" font-size="22.7" fill="#000000" transform="matrix(1.00, 0.00, -0.00, -1.00, 588.1, 118.5)">o</text><text xml:space="preserve" font-family="Georgia,Georgia" font-size="22.7" fill="#000000" transform="matrix(1.00, 0.00, -0.00, -1.00, 600.3, 118.5)">n</text><text xml:space="preserve" font-family="Georgia,Georgia" font-size="22.7" fill="#000000" transform="matrix(1.00, 0.00, -0.00, -1.00, 613.7, 118.5)"> </text><text xml:space="preserve" font-family="Georgia,Georgia" font-size="22.7" fill="#000000" transform="matrix(1.00, 0.00, -0.00, -1.00, 434.4, 92.5)">a</text><text xml:space="preserve" font-family="Georgia,Georgia" font-size="22.7" fill="#000000" transform="matrix(1.00, 0.00, -0.00, -1.00, 445.8, 92.5)">n</text><text xml:space="preserve" font-family="Georgia,Georgia" font-size="22.7" fill="#000000" transform="matrix(1.00, 0.00, -0.00, -1.00, 459.2, 92.5)">d</text><text xml:space="preserve" font-family="Georgia,Georgia" font-size="22.7" fill="#000000" transform="matrix(1.00, 0.00, -0.00, -1.00, 472.2, 92.5)"> </text><text xml:space="preserve" font-family="Georgia,Georgia" font-size="22.7" fill="#000000" transform="matrix(1.00, 0.00, -0.00, -1.00, 477.7, 92.5)">b</text><text xml:space="preserve" font-family="Georgia,Georgia" font-size="22.7" fill="#000000" transform="matrix(1.00, 0.00, -0.00, -1.00, 490.4, 92.5)">a</text><text xml:space="preserve" font-family="Georgia,Georgia" font-size="22.7" fill="#000000" transform="matrix(1.00, 0.00, -0.00, -1.00, 501.8, 92.5)">d</text><text xml:space="preserve" font-family="Georgia,Georgia" font-size="22.7" fill="#000000" transform="matrix(1.00, 0.00, -0.00, -1.00, 514.8, 92.5)"> </text><text xml:space="preserve" font-family="Georgia,Georgia" font-size="22.7" fill="#000000" transform="matrix(1.00, 0.00, -0.00, -1.00, 520.3, 92.5)">d</text><text xml:space="preserve" font-family="Georgia,Georgia" font-size="22.7" fill="#000000" transform="matrix(1.00, 0.00, -0.00, -1.00, 533.3, 92.5)">e</text><text xml:space="preserve" font-family="Georgia,Georgia" font-size="22.7" fill="#000000" transform="matrix(1.00, 0.00, -0.00, -1.00, 544.3, 92.5)">t</text><text xml:space="preserve" font-family="Georgia,Georgia" font-size="22.7" fill="#000000" transform="matrix(1.00, 0.00, -0.00, -1.00, 552.2, 92.5)">e</text><text xml:space="preserve" font-family="Georgia,Georgia" font-size="22.7" fill="#000000" transform="matrix(1.00, 0.00, -0.00, -1.00, 563.1, 92.5)">c</text><text xml:space="preserve" font-family="Georgia,Georgia" font-size="22.7" fill="#000000" transform="matrix(1.00, 0.00, -0.00, -1.00, 573.4, 92.5)">t</text><text xml:space="preserve" font-family="Georgia,Georgia" font-size="22.7" fill="#000000" transform="matrix(1.00, 0.00, -0.00, -1.00, 581.3, 92.5)">i</text><text xml:space="preserve" font-family="Georgia,Georgia" font-size="22.7" fill="#000000" transform="matrix(1.00, 0.00, -0.00, -1.00, 587.9, 92.5)">o</text><text xml:space="preserve" font-family="Georgia,Georgia" font-size="22.7" fill="#000000" transform="matrix(1.00, 0.00, -0.00, -1.00, 600.1, 92.5)">n</text></g></g><g><clipPath id="clip0x6000028aafe0"><path d="M 164.0 266.6 L 274.3 266.6 L 274.3 307.2 L 164.0 307.2 Z M 164.0 266.6 "></path></clipPath><g clip-path="url(#clip0x6000028aafe0)"><text xml:space="preserve" font-family="Georgia-Bold,Georgia" font-weight="bold" font-size="24.0" fill="#000000" transform="matrix(1.00, 0.00, -0.00, -1.00, 170.8, 278.7)">P</text><text xml:space="preserve" font-family="Georgia-Bold,Georgia" font-weight="bold" font-size="24.0" fill="#000000" transform="matrix(1.00, 0.00, -0.00, -1.00, 187.6, 278.7)">r</text><text xml:space="preserve" font-family="Georgia-Bold,Georgia" font-weight="bold" font-size="24.0" fill="#000000" transform="matrix(1.00, 0.00, -0.00, -1.00, 200.1, 278.7)">o</text><text xml:space="preserve" font-family="Georgia-Bold,Georgia" font-weight="bold" font-size="24.0" fill="#000000" transform="matrix(1.00, 0.00, -0.00, -1.00, 215.4, 278.7)">c</text><text xml:space="preserve" font-family="Georgia-Bold,Georgia" font-weight="bold" font-size="24.0" fill="#000000" transform="matrix(1.00, 0.00, -0.00, -1.00, 228.1, 278.7)">e</text><text xml:space="preserve" font-family="Georgia-Bold,Georgia" font-weight="bold" font-size="24.0" fill="#000000" transform="matrix(1.00, 0.00, -0.00, -1.00, 241.8, 278.7)">s</text><text xml:space="preserve" font-family="Georgia-Bold,Georgia" font-weight="bold" font-size="24.0" fill="#000000" transform="matrix(1.00, 0.00, -0.00, -1.00, 254.1, 278.7)">s</text></g></g><g><clipPath id="clip0x6000028ab280"><path d="M 430.5 263.3 L 643.4 263.3 L 643.4 303.9 L 430.5 303.9 Z M 430.5 263.3 "></path></clipPath><g clip-path="url(#clip0x6000028ab280)"><text xml:space="preserve" font-family="Georgia-Bold,Georgia" font-weight="bold" font-size="24.0" fill="#000000" transform="matrix(1.00, 0.00, -0.00, -1.00, 437.3, 275.3)">N</text><text xml:space="preserve" font-family="Georgia-Bold,Georgia" font-weight="bold" font-size="24.0" fill="#000000" transform="matrix(1.00, 0.00, -0.00, -1.00, 457.4, 275.3)">e</text><text xml:space="preserve" font-family="Georgia-Bold,Georgia" font-weight="bold" font-size="24.0" fill="#000000" transform="matrix(1.00, 0.00, -0.00, -1.00, 471.2, 275.3)">g</text><text xml:space="preserve" font-family="Georgia-Bold,Georgia" font-weight="bold" font-size="24.0" fill="#000000" transform="matrix(1.00, 0.00, -0.00, -1.00, 485.0, 275.3)">a</text><text xml:space="preserve" font-family="Georgia-Bold,Georgia" font-weight="bold" font-size="24.0" fill="#000000" transform="matrix(1.00, 0.00, -0.00, -1.00, 499.3, 275.3)">t</text><text xml:space="preserve" font-family="Georgia-Bold,Georgia" font-weight="bold" font-size="24.0" fill="#000000" transform="matrix(1.00, 0.00, -0.00, -1.00, 508.8, 275.3)">i</text><text xml:space="preserve" font-family="Georgia-Bold,Georgia" font-weight="bold" font-size="24.0" fill="#000000" transform="matrix(1.00, 0.00, -0.00, -1.00, 517.3, 275.3)">v</text><text xml:space="preserve" font-family="Georgia-Bold,Georgia" font-weight="bold" font-size="24.0" fill="#000000" transform="matrix(1.00, 0.00, -0.00, -1.00, 530.9, 275.3)">e</text><text xml:space="preserve" font-family="Georgia-Bold,Georgia" font-weight="bold" font-size="24.0" fill="#000000" transform="matrix(1.00, 0.00, -0.00, -1.00, 544.6, 275.3)"> </text><text xml:space="preserve" font-family="Georgia-Bold,Georgia" font-weight="bold" font-size="24.0" fill="#000000" transform="matrix(1.00, 0.00, -0.00, -1.00, 550.7, 275.3)">r</text><text xml:space="preserve" font-family="Georgia-Bold,Georgia" font-weight="bold" font-size="24.0" fill="#000000" transform="matrix(1.00, 0.00, -0.00, -1.00, 563.2, 275.3)">e</text><text xml:space="preserve" font-family="Georgia-Bold,Georgia" font-weight="bold" font-size="24.0" fill="#000000" transform="matrix(1.00, 0.00, -0.00, -1.00, 576.9, 275.3)">s</text><text xml:space="preserve" font-family="Georgia-Bold,Georgia" font-weight="bold" font-size="24.0" fill="#000000" transform="matrix(1.00, 0.00, -0.00, -1.00, 589.2, 275.3)">u</text><text xml:space="preserve" font-family="Georgia-Bold,Georgia" font-weight="bold" font-size="24.0" fill="#000000" transform="matrix(1.00, 0.00, -0.00, -1.00, 605.5, 275.3)">l</text><text xml:space="preserve" font-family="Georgia-Bold,Georgia" font-weight="bold" font-size="24.0" fill="#000000" transform="matrix(1.00, 0.00, -0.00, -1.00, 613.7, 275.3)">t</text><text xml:space="preserve" font-family="Georgia-Bold,Georgia" font-weight="bold" font-size="24.0" fill="#000000" transform="matrix(1.00, 0.00, -0.00, -1.00, 623.3, 275.3)">s</text></g></g></g></svg>