<?xml version="1.0" encoding="UTF-8"?><svg xmlns="http://www.w3.org/2000/svg" xmlns:xlink="http://www.w3.org/1999/xlink" clip-rule="evenodd" stroke-miterlimit="10" viewBox="0 0 720 540"><desc>SVG generated by Keynote</desc><defs></defs><g transform="matrix(1.00, 0.00, -0.00, -1.00, 0.0, 540.0)"><path d="M 0.0 0.0 L 720.0 0.0 L 720.0 540.0 L 0.0 540.0 Z M 0.0 0.0 " fill="#FFFFFF"></path><path d="M 426.0 233.0 L 720.0 233.0 L 720.0 240.0 L 426.0 240.0 Z M 426.0 232.8 " fill="#5ECCF3"></path><path d="M 426.0 218.0 L 720.0 218.0 L 720.0 233.0 L 426.0 233.0 Z M 426.0 218.0 " fill="#5ECCF3" fill-opacity="0.50"></path><path d="M 426.0 215.0 L 720.0 215.0 L 720.0 216.0 L 426.0 216.0 Z M 426.0 215.3 " fill="#5ECCF3" fill-opacity="0.65"></path><path d="M 426.0 211.0 L 581.0 211.0 L 581.0 212.0 L 426.0 212.0 Z M 426.0 210.7 " fill="#5ECCF3" fill-opacity="0.60"></path><path d="M 426.0 209.0 L 581.0 209.0 L 581.0 209.0 L 426.0 209.0 Z M 426.0 208.6 " fill="#5ECCF3" fill-opacity="0.65"></path><path d="M 426.0 226.2 L 426.0 227.6 C 426.0 227.8 426.2 228.0 426.4 228.0 L 666.8 228.0 C 667.0 228.0 667.0 227.8 667.0 227.6 L 667.0 226.2 C 667.0 226.0 667.0 226.0 666.8 226.0 L 426.4 226.0 C 426.2 226.0 426.0 226.0 426.0 226.2 Z M 426.0 226.2 " fill="#FFFFFF"></path><path d="M 580.8 217.8 L 581.0 219.8 C 581.0 220.0 581.0 220.0 581.3 220.0 L 706.3 220.0 C 706.6 220.0 707.0 220.0 707.0 219.8 L 707.0 217.8 C 707.0 217.6 706.6 217.0 706.3 217.0 L 581.3 217.0 C 581.0 217.0 580.8 217.6 580.8 217.8 Z M 580.8 217.8 " fill="#FFFFFF"></path><path d="M 0.0 253.0 L 720.0 253.0 L 720.0 233.0 L 0.0 233.0 Z M 0.0 252.6 " fill="#5ECCF3" fill-opacity="0.50"></path><path d="M 0.0 251.0 L 720.0 251.0 L 720.0 240.0 L 0.0 240.0 Z M 0.0 250.6 " fill="#5ECCF3"></path><path d="M 505.0 234.0 L 720.0 234.0 L 720.0 253.0 L 505.0 253.0 Z M 505.0 233.6 " fill="#5ECCF3"></path><path d="M 0.0 540.0 L 720.0 540.0 L 720.0 249.0 L 0.0 249.0 Z M 0.0 540.0 " fill="#212744"></path><text xml:space="preserve" font-family="TrebuchetMS-Bold,Trebuchet MS" font-weight="bold" font-size="36.0" fill="#FFFFFF" transform="matrix(1.00, 0.00, -0.00, -1.00, 130.9, 306.1)">A</text><text xml:space="preserve" font-family="TrebuchetMS-Bold,Trebuchet MS" font-weight="bold" font-size="36.0" fill="#FFFFFF" transform="matrix(1.00, 0.00, -0.00, -1.00, 153.7, 306.1)">u</text><text xml:space="preserve" font-family="TrebuchetMS-Bold,Trebuchet MS" font-weight="bold" font-size="36.0" fill="#FFFFFF" transform="matrix(1.00, 0.00, -0.00, -1.00, 174.9, 306.1)">t</text><text xml:space="preserve" font-family="TrebuchetMS-Bold,Trebuchet MS" font-weight="bold" font-size="36.0" fill="#FFFFFF" transform="matrix(1.00, 0.00, -0.00, -1.00, 189.2, 306.1)">o</text><text xml:space="preserve" font-family="TrebuchetMS-Bold,Trebuchet MS" font-weight="bold" font-size="36.0" fill="#FFFFFF" transform="matrix(1.00, 0.00, -0.00, -1.00, 209.6, 306.1)">m</text><text xml:space="preserve" font-family="TrebuchetMS-Bold,Trebuchet MS" font-weight="bold" font-size="36.0" fill="#FFFFFF" transform="matrix(1.00, 0.00, -0.00, -1.00, 240.6, 306.1)">a</text><text xml:space="preserve" font-family="TrebuchetMS-Bold,Trebuchet MS" font-weight="bold" font-size="36.0" fill="#FFFFFF" transform="matrix(1.00, 0.00, -0.00, -1.00, 259.7, 306.1)">t</text><text xml:space="preserve" font-family="TrebuchetMS-Bold,Trebuchet MS" font-weight="bold" font-size="36.0" fill="#FFFFFF" transform="matrix(1.00, 0.00, -0.00, -1.00, 274.0, 306.1)">i</text><text xml:space="preserve" font-family="TrebuchetMS-Bold,Trebuchet MS" font-weight="bold" font-size="36.0" fill="#FFFFFF" transform="matrix(1.00, 0.00, -0.00, -1.00, 284.7, 306.1)">o</text><text xml:space="preserve" font-family="TrebuchetMS-Bold,Trebuchet MS" font-weight="bold" font-size="36.0" fill="#FFFFFF" transform="matrix(1.00, 0.00, -0.00, -1.00, 305.1, 306.1)">n</text><text xml:space="preserve" font-family="TrebuchetMS-Bold,Trebuchet MS" font-weight="bold" font-size="36.0" fill="#FFFFFF" transform="matrix(1.00, 0.00, -0.00, -1.00, 326.4, 306.1)"> </text><text xml:space="preserve" font-family="TrebuchetMS-Bold,Trebuchet MS" font-weight="bold" font-size="36.0" fill="#FFFFFF" transform="matrix(1.00, 0.00, -0.00, -1.00, 337.2, 306.1)">–</text><text xml:space="preserve" font-family="TrebuchetMS-Bold,Trebuchet MS" font-weight="bold" font-size="36.0" fill="#FFFFFF" transform="matrix(1.00, 0.00, -0.00, -1.00, 350.5, 306.1)"> </text><text xml:space="preserve" font-family="TrebuchetMS-Bold,Trebuchet MS" font-weight="bold" font-size="36.0" fill="#FFFFFF" transform="matrix(1.00, 0.00, -0.00, -1.00, 361.3, 306.1)">P</text><text xml:space="preserve" font-family="TrebuchetMS-Bold,Trebuchet MS" font-weight="bold" font-size="36.0" fill="#FFFFFF" transform="matrix(1.00, 0.00, -0.00, -1.00, 382.5, 306.1)">r</text><text xml:space="preserve" font-family="TrebuchetMS-Bold,Trebuchet MS" font-weight="bold" font-size="36.0" fill="#FFFFFF" transform="matrix(1.00, 0.00, -0.00, -1.00, 397.9, 306.1)">o</text><text xml:space="preserve" font-family="TrebuchetMS-Bold,Trebuchet MS" font-weight="bold" font-size="36.0" fill="#FFFFFF" transform="matrix(1.00, 0.00, -0.00, -1.00, 418.2, 306.1)">b</text><text xml:space="preserve" font-family="TrebuchetMS-Bold,Trebuchet MS" font-weight="bold" font-size="36.0" fill="#FFFFFF" transform="matrix(1.00, 0.00, -0.00, -1.00, 439.2, 306.1)">e</text><text xml:space="preserve" font-family="TrebuchetMS-Bold,Trebuchet MS" font-weight="bold" font-size="36.0" fill="#FFFFFF" transform="matrix(1.00, 0.00, -0.00, -1.00, 459.8, 306.1)"> </text><text xml:space="preserve" font-family="TrebuchetMS-Bold,Trebuchet MS" font-weight="bold" font-size="36.0" fill="#FFFFFF" transform="matrix(1.00, 0.00, -0.00, -1.00, 470.7, 306.1)">S</text><text xml:space="preserve" font-family="TrebuchetMS-Bold,Trebuchet MS" font-weight="bold" font-size="36.0" fill="#FFFFFF" transform="matrix(1.00, 0.00, -0.00, -1.00, 489.1, 306.1)">t</text><text xml:space="preserve" font-family="TrebuchetMS-Bold,Trebuchet MS" font-weight="bold" font-size="36.0" fill="#FFFFFF" transform="matrix(1.00, 0.00, -0.00, -1.00, 503.4, 306.1)">a</text><text xml:space="preserve" font-family="TrebuchetMS-Bold,Trebuchet MS" font-weight="bold" font-size="36.0" fill="#FFFFFF" transform="matrix(1.00, 0.00, -0.00, -1.00, 522.5, 306.1)">t</text><text xml:space="preserve" font-family="TrebuchetMS-Bold,Trebuchet MS" font-weight="bold" font-size="36.0" fill="#FFFFFF" transform="matrix(1.00, 0.00, -0.00, -1.00, 536.8, 306.1)">i</text><text xml:space="preserve" font-family="TrebuchetMS-Bold,Trebuchet MS" font-weight="bold" font-size="36.0" fill="#FFFFFF" transform="matrix(1.00, 0.00, -0.00, -1.00, 547.6, 306.1)">o</text><text xml:space="preserve" font-family="TrebuchetMS-Bold,Trebuchet MS" font-weight="bold" font-size="36.0" fill="#FFFFFF" transform="matrix(1.00, 0.00, -0.00, -1.00, 568.0, 306.1)">n</text><text xml:space="preserve" font-family="TrebuchetMS-Bold,Trebuchet MS" font-weight="bold" font-size="36.0" fill="#FFFFFF" transform="matrix(1.00, 0.00, -0.00, -1.00, 589.2, 306.1)"> </text><g><clipPath id="clip0x608000cb5cc0"><path d="M 47.1 256.3 L 672.9 256.3 L 672.9 365.1 L 47.1 365.1 Z M 47.1 256.3 "></path></clipPath><g clip-path="url(#clip0x608000cb5cc0)"><text xml:space="preserve" font-family="TrebuchetMS-Bold,Trebuchet MS" font-weight="bold" font-size="36.0" fill="#FFFFFF" transform="matrix(1.00, 0.00, -0.00, -1.00, 238.9, 264.1)">M</text><text xml:space="preserve" font-family="TrebuchetMS-Bold,Trebuchet MS" font-weight="bold" font-size="36.0" fill="#FFFFFF" transform="matrix(1.00, 0.00, -0.00, -1.00, 265.7, 264.1)">e</text><text xml:space="preserve" font-family="TrebuchetMS-Bold,Trebuchet MS" font-weight="bold" font-size="36.0" fill="#FFFFFF" transform="matrix(1.00, 0.00, -0.00, -1.00, 286.4, 264.1)">a</text><text xml:space="preserve" font-family="TrebuchetMS-Bold,Trebuchet MS" font-weight="bold" font-size="36.0" fill="#FFFFFF" transform="matrix(1.00, 0.00, -0.00, -1.00, 305.6, 264.1)">s</text><text xml:space="preserve" font-family="TrebuchetMS-Bold,Trebuchet MS" font-weight="bold" font-size="36.0" fill="#FFFFFF" transform="matrix(1.00, 0.00, -0.00, -1.00, 321.1, 264.1)">u</text><text xml:space="preserve" font-family="TrebuchetMS-Bold,Trebuchet MS" font-weight="bold" font-size="36.0" fill="#FFFFFF" transform="matrix(1.00, 0.00, -0.00, -1.00, 342.4, 264.1)">r</text><text xml:space="preserve" font-family="TrebuchetMS-Bold,Trebuchet MS" font-weight="bold" font-size="36.0" fill="#FFFFFF" transform="matrix(1.00, 0.00, -0.00, -1.00, 357.8, 264.1)">e</text><text xml:space="preserve" font-family="TrebuchetMS-Bold,Trebuchet MS" font-weight="bold" font-size="36.0" fill="#FFFFFF" transform="matrix(1.00, 0.00, -0.00, -1.00, 378.5, 264.1)">m</text><text xml:space="preserve" font-family="TrebuchetMS-Bold,Trebuchet MS" font-weight="bold" font-size="36.0" fill="#FFFFFF" transform="matrix(1.00, 0.00, -0.00, -1.00, 409.4, 264.1)">e</text><text xml:space="preserve" font-family="TrebuchetMS-Bold,Trebuchet MS" font-weight="bold" font-size="36.0" fill="#FFFFFF" transform="matrix(1.00, 0.00, -0.00, -1.00, 430.1, 264.1)">n</text><text xml:space="preserve" font-family="TrebuchetMS-Bold,Trebuchet MS" font-weight="bold" font-size="36.0" fill="#FFFFFF" transform="matrix(1.00, 0.00, -0.00, -1.00, 451.4, 264.1)">t</text><text xml:space="preserve" font-family="TrebuchetMS-Bold,Trebuchet MS" font-weight="bold" font-size="36.0" fill="#FFFFFF" transform="matrix(1.00, 0.00, -0.00, -1.00, 465.6, 264.1)">s</text></g></g><text xml:space="preserve" font-family="Georgia,Georgia" font-size="20.0" fill="#212744" transform="matrix(1.00, 0.00, -0.00, -1.00, 262.8, 101.4)">J</text><text xml:space="preserve" font-family="Georgia,Georgia" font-size="20.0" fill="#212744" transform="matrix(1.00, 0.00, -0.00, -1.00, 273.1, 101.4)">é</text><text xml:space="preserve" font-family="Georgia,Georgia" font-size="20.0" fill="#212744" transform="matrix(1.00, 0.00, -0.00, -1.00, 282.8, 101.4)">s</text><text xml:space="preserve" font-family="Georgia,Georgia" font-size="20.0" fill="#212744" transform="matrix(1.00, 0.00, -0.00, -1.00, 291.5, 101.4)">s</text><text xml:space="preserve" font-family="Georgia,Georgia" font-size="20.0" fill="#212744" transform="matrix(1.00, 0.00, -0.00, -1.00, 300.1, 101.4)">i</text><text xml:space="preserve" font-family="Georgia,Georgia" font-size="20.0" fill="#212744" transform="matrix(1.00, 0.00, -0.00, -1.00, 306.0, 101.4)">c</text><text xml:space="preserve" font-family="Georgia,Georgia" font-size="20.0" fill="#212744" transform="matrix(1.00, 0.00, -0.00, -1.00, 315.0, 101.4)">a</text><text xml:space="preserve" font-family="Georgia,Georgia" font-size="20.0" fill="#212744" transform="matrix(1.00, 0.00, -0.00, -1.00, 325.1, 101.4)"> </text><text xml:space="preserve" font-family="Georgia,Georgia" font-size="20.0" fill="#212744" transform="matrix(1.00, 0.00, -0.00, -1.00, 329.9, 101.4)">F</text><text xml:space="preserve" font-family="Georgia,Georgia" font-size="20.0" fill="#212744" transform="matrix(1.00, 0.00, -0.00, -1.00, 341.9, 101.4)">e</text><text xml:space="preserve" font-family="Georgia,Georgia" font-size="20.0" fill="#212744" transform="matrix(1.00, 0.00, -0.00, -1.00, 351.6, 101.4)">r</text><text xml:space="preserve" font-family="Georgia,Georgia" font-size="20.0" fill="#212744" transform="matrix(1.00, 0.00, -0.00, -1.00, 359.8, 101.4)">r</text><text xml:space="preserve" font-family="Georgia,Georgia" font-size="20.0" fill="#212744" transform="matrix(1.00, 0.00, -0.00, -1.00, 368.0, 101.4)">e</text><text xml:space="preserve" font-family="Georgia,Georgia" font-size="20.0" fill="#212744" transform="matrix(1.00, 0.00, -0.00, -1.00, 377.7, 101.4)">i</text><text xml:space="preserve" font-family="Georgia,Georgia" font-size="20.0" fill="#212744" transform="matrix(1.00, 0.00, -0.00, -1.00, 383.5, 101.4)">r</text><text xml:space="preserve" font-family="Georgia,Georgia" font-size="20.0" fill="#212744" transform="matrix(1.00, 0.00, -0.00, -1.00, 391.7, 101.4)">a</text><text xml:space="preserve" font-family="Georgia,Georgia" font-size="20.0" fill="#212744" transform="matrix(1.00, 0.00, -0.00, -1.00, 401.8, 101.4)"> </text><text xml:space="preserve" font-family="Georgia,Georgia" font-size="20.0" fill="#212744" transform="matrix(1.00, 0.00, -0.00, -1.00, 406.6, 101.4)">S</text><text xml:space="preserve" font-family="Georgia,Georgia" font-size="20.0" fill="#212744" transform="matrix(1.00, 0.00, -0.00, -1.00, 417.8, 101.4)">o</text><text xml:space="preserve" font-family="Georgia,Georgia" font-size="20.0" fill="#212744" transform="matrix(1.00, 0.00, -0.00, -1.00, 428.6, 101.4)">a</text><text xml:space="preserve" font-family="Georgia,Georgia" font-size="20.0" fill="#212744" transform="matrix(1.00, 0.00, -0.00, -1.00, 438.7, 101.4)">r</text><text xml:space="preserve" font-family="Georgia,Georgia" font-size="20.0" fill="#212744" transform="matrix(1.00, 0.00, -0.00, -1.00, 446.9, 101.4)">e</text><text xml:space="preserve" font-family="Georgia,Georgia" font-size="20.0" fill="#212744" transform="matrix(1.00, 0.00, -0.00, -1.00, 456.6, 101.4)">s</text><text xml:space="preserve" font-family="Georgia,Georgia" font-size="20.0" fill="#212744" transform="matrix(1.00, 0.00, -0.00, -1.00, 465.2, 101.4)"> </text><text xml:space="preserve" font-family="Georgia,Georgia" font-size="20.0" fill="#212744" transform="matrix(1.00, 0.00, -0.00, -1.00, 301.4, 76.4)">D</text><text xml:space="preserve" font-family="Georgia,Georgia" font-size="20.0" fill="#212744" transform="matrix(1.00, 0.00, -0.00, -1.00, 316.4, 76.4)">a</text><text xml:space="preserve" font-family="Georgia,Georgia" font-size="20.0" fill="#212744" transform="matrix(1.00, 0.00, -0.00, -1.00, 326.4, 76.4)">v</text><text xml:space="preserve" font-family="Georgia,Georgia" font-size="20.0" fill="#212744" transform="matrix(1.00, 0.00, -0.00, -1.00, 336.4, 76.4)">i</text><text xml:space="preserve" font-family="Georgia,Georgia" font-size="20.0" fill="#212744" transform="matrix(1.00, 0.00, -0.00, -1.00, 342.2, 76.4)">d</text><text xml:space="preserve" font-family="Georgia,Georgia" font-size="20.0" fill="#212744" transform="matrix(1.00, 0.00, -0.00, -1.00, 353.7, 76.4)"> </text><text xml:space="preserve" font-family="Georgia,Georgia" font-size="20.0" fill="#212744" transform="matrix(1.00, 0.00, -0.00, -1.00, 358.5, 76.4)">B</text><text xml:space="preserve" font-family="Georgia,Georgia" font-size="20.0" fill="#212744" transform="matrix(1.00, 0.00, -0.00, -1.00, 371.6, 76.4)">u</text><text xml:space="preserve" font-family="Georgia,Georgia" font-size="20.0" fill="#212744" transform="matrix(1.00, 0.00, -0.00, -1.00, 383.1, 76.4)">r</text><text xml:space="preserve" font-family="Georgia,Georgia" font-size="20.0" fill="#212744" transform="matrix(1.00, 0.00, -0.00, -1.00, 391.3, 76.4)">n</text><text xml:space="preserve" font-family="Georgia,Georgia" font-size="20.0" fill="#212744" transform="matrix(1.00, 0.00, -0.00, -1.00, 403.1, 76.4)">e</text><text xml:space="preserve" font-family="Georgia,Georgia" font-size="20.0" fill="#212744" transform="matrix(1.00, 0.00, -0.00, -1.00, 412.8, 76.4)">t</text><text xml:space="preserve" font-family="Georgia,Georgia" font-size="20.0" fill="#212744" transform="matrix(1.00, 0.00, -0.00, -1.00, 419.7, 76.4)">t</text><text xml:space="preserve" font-family="Georgia,Georgia" font-size="20.0" fill="#212744" transform="matrix(1.00, 0.00, -0.00, -1.00, 426.6, 76.4)"> </text><text xml:space="preserve" font-family="Georgia,Georgia" font-size="20.0" fill="#212744" transform="matrix(1.00, 0.00, -0.00, -1.00, 303.2, 51.4)">P</text><text xml:space="preserve" font-family="Georgia,Georgia" font-size="20.0" fill="#212744" transform="matrix(1.00, 0.00, -0.00, -1.00, 315.4, 51.4)">i</text><text xml:space="preserve" font-family="Georgia,Georgia" font-size="20.0" fill="#212744" transform="matrix(1.00, 0.00, -0.00, -1.00, 321.3, 51.4)">s</text><text xml:space="preserve" font-family="Georgia,Georgia" font-size="20.0" fill="#212744" transform="matrix(1.00, 0.00, -0.00, -1.00, 329.9, 51.4)">t</text><text xml:space="preserve" font-family="Georgia,Georgia" font-size="20.0" fill="#212744" transform="matrix(1.00, 0.00, -0.00, -1.00, 336.8, 51.4)">e</text><text xml:space="preserve" font-family="Georgia,Georgia" font-size="20.0" fill="#212744" transform="matrix(1.00, 0.00, -0.00, -1.00, 346.5, 51.4)">r</text><text xml:space="preserve" font-family="Georgia,Georgia" font-size="20.0" fill="#212744" transform="matrix(1.00, 0.00, -0.00, -1.00, 354.7, 51.4)">’</text><text xml:space="preserve" font-family="Georgia,Georgia" font-size="20.0" fill="#212744" transform="matrix(1.00, 0.00, -0.00, -1.00, 359.2, 51.4)">s</text><text xml:space="preserve" font-family="Georgia,Georgia" font-size="20.0" fill="#212744" transform="matrix(1.00, 0.00, -0.00, -1.00, 367.9, 51.4)"> </text><text xml:space="preserve" font-family="Georgia,Georgia" font-size="20.0" fill="#212744" transform="matrix(1.00, 0.00, -0.00, -1.00, 372.7, 51.4)">g</text><text xml:space="preserve" font-family="Georgia,Georgia" font-size="20.0" fill="#212744" transform="matrix(1.00, 0.00, -0.00, -1.00, 382.9, 51.4)">r</text><text xml:space="preserve" font-family="Georgia,Georgia" font-size="20.0" fill="#212744" transform="matrix(1.00, 0.00, -0.00, -1.00, 391.1, 51.4)">o</text><text xml:space="preserve" font-family="Georgia,Georgia" font-size="20.0" fill="#212744" transform="matrix(1.00, 0.00, -0.00, -1.00, 401.8, 51.4)">u</text><text xml:space="preserve" font-family="Georgia,Georgia" font-size="20.0" fill="#212744" transform="matrix(1.00, 0.00, -0.00, -1.00, 413.4, 51.4)">p</text><image xlink:href="21FA5839161815147BB93ED8A1878A89.png" width="260.00" height="260.00" transform="matrix(0.33, 0.00, -0.00, -0.33, 615.0, 531.0)"></image><text xml:space="preserve" font-family="TrebuchetMS,Trebuchet MS" font-size="28.0" fill="#FFFFFF" transform="matrix(1.00, 0.00, -0.00, -1.00, 162.4, 491.8)">U</text><text xml:space="preserve" font-family="TrebuchetMS,Trebuchet MS" font-size="28.0" fill="#FFFFFF" transform="matrix(1.00, 0.00, -0.00, -1.00, 180.6, 491.8)">n</text><text xml:space="preserve" font-family="TrebuchetMS,Trebuchet MS" font-size="28.0" fill="#FFFFFF" transform="matrix(1.00, 0.00, -0.00, -1.00, 195.9, 491.8)">i</text><text xml:space="preserve" font-family="TrebuchetMS,Trebuchet MS" font-size="28.0" fill="#FFFFFF" transform="matrix(1.00, 0.00, -0.00, -1.00, 203.9, 491.8)">v</text><text xml:space="preserve" font-family="TrebuchetMS,Trebuchet MS" font-size="28.0" fill="#FFFFFF" transform="matrix(1.00, 0.00, -0.00, -1.00, 217.6, 491.8)">e</text><text xml:space="preserve" font-family="TrebuchetMS,Trebuchet MS" font-size="28.0" fill="#FFFFFF" transform="matrix(1.00, 0.00, -0.00, -1.00, 232.8, 491.8)">r</text><text xml:space="preserve" font-family="TrebuchetMS,Trebuchet MS" font-size="28.0" fill="#FFFFFF" transform="matrix(1.00, 0.00, -0.00, -1.00, 243.7, 491.8)">s</text><text xml:space="preserve" font-family="TrebuchetMS,Trebuchet MS" font-size="28.0" fill="#FFFFFF" transform="matrix(1.00, 0.00, -0.00, -1.00, 255.0, 491.8)">i</text><text xml:space="preserve" font-family="TrebuchetMS,Trebuchet MS" font-size="28.0" fill="#FFFFFF" transform="matrix(1.00, 0.00, -0.00, -1.00, 263.0, 491.8)">t</text><text xml:space="preserve" font-family="TrebuchetMS,Trebuchet MS" font-size="28.0" fill="#FFFFFF" transform="matrix(1.00, 0.00, -0.00, -1.00, 274.1, 491.8)">y</text><text xml:space="preserve" font-family="TrebuchetMS,Trebuchet MS" font-size="28.0" fill="#FFFFFF" transform="matrix(1.00, 0.00, -0.00, -1.00, 288.0, 491.8)"> </text><text xml:space="preserve" font-family="TrebuchetMS,Trebuchet MS" font-size="28.0" fill="#FFFFFF" transform="matrix(1.00, 0.00, -0.00, -1.00, 296.4, 491.8)">o</text><text xml:space="preserve" font-family="TrebuchetMS,Trebuchet MS" font-size="28.0" fill="#FFFFFF" transform="matrix(1.00, 0.00, -0.00, -1.00, 311.4, 491.8)">f</text><text xml:space="preserve" font-family="TrebuchetMS,Trebuchet MS" font-size="28.0" fill="#FFFFFF" transform="matrix(1.00, 0.00, -0.00, -1.00, 321.7, 491.8)"> </text><text xml:space="preserve" font-family="TrebuchetMS,Trebuchet MS" font-size="28.0" fill="#FFFFFF" transform="matrix(1.00, 0.00, -0.00, -1.00, 330.2, 491.8)">C</text><text xml:space="preserve" font-family="TrebuchetMS,Trebuchet MS" font-size="28.0" fill="#FFFFFF" transform="matrix(1.00, 0.00, -0.00, -1.00, 347.0, 491.8)">a</text><text xml:space="preserve" font-family="TrebuchetMS,Trebuchet MS" font-size="28.0" fill="#FFFFFF" transform="matrix(1.00, 0.00, -0.00, -1.00, 361.7, 491.8)">l</text><text xml:space="preserve" font-family="TrebuchetMS,Trebuchet MS" font-size="28.0" fill="#FFFFFF" transform="matrix(1.00, 0.00, -0.00, -1.00, 369.9, 491.8)">i</text><text xml:space="preserve" font-family="TrebuchetMS,Trebuchet MS" font-size="28.0" fill="#FFFFFF" transform="matrix(1.00, 0.00, -0.00, -1.00, 377.9, 491.8)">f</text><text xml:space="preserve" font-family="TrebuchetMS,Trebuchet MS" font-size="28.0" fill="#FFFFFF" transform="matrix(1.00, 0.00, -0.00, -1.00, 388.2, 491.8)">o</text><text xml:space="preserve" font-family="TrebuchetMS,Trebuchet MS" font-size="28.0" fill="#FFFFFF" transform="matrix(1.00, 0.00, -0.00, -1.00, 403.3, 491.8)">r</text><text xml:space="preserve" font-family="TrebuchetMS,Trebuchet MS" font-size="28.0" fill="#FFFFFF" transform="matrix(1.00, 0.00, -0.00, -1.00, 414.1, 491.8)">n</text><text xml:space="preserve" font-family="TrebuchetMS,Trebuchet MS" font-size="28.0" fill="#FFFFFF" transform="matrix(1.00, 0.00, -0.00, -1.00, 429.4, 491.8)">i</text><text xml:space="preserve" font-family="TrebuchetMS,Trebuchet MS" font-size="28.0" fill="#FFFFFF" transform="matrix(1.00, 0.00, -0.00, -1.00, 437.4, 491.8)">a</text><text xml:space="preserve" font-family="TrebuchetMS,Trebuchet MS" font-size="28.0" fill="#FFFFFF" transform="matrix(1.00, 0.00, -0.00, -1.00, 452.1, 491.8)"> </text><text xml:space="preserve" font-family="TrebuchetMS,Trebuchet MS" font-size="28.0" fill="#FFFFFF" transform="matrix(1.00, 0.00, -0.00, -1.00, 460.6, 491.8)">B</text><text xml:space="preserve" font-family="TrebuchetMS,Trebuchet MS" font-size="28.0" fill="#FFFFFF" transform="matrix(1.00, 0.00, -0.00, -1.00, 476.4, 491.8)">e</text><text xml:space="preserve" font-family="TrebuchetMS,Trebuchet MS" font-size="28.0" fill="#FFFFFF" transform="matrix(1.00, 0.00, -0.00, -1.00, 491.7, 491.8)">r</text><text xml:space="preserve" font-family="TrebuchetMS,Trebuchet MS" font-size="28.0" fill="#FFFFFF" transform="matrix(1.00, 0.00, -0.00, -1.00, 502.6, 491.8)">k</text><text xml:space="preserve" font-family="TrebuchetMS,Trebuchet MS" font-size="28.0" fill="#FFFFFF" transform="matrix(1.00, 0.00, -0.00, -1.00, 516.7, 491.8)">e</text><text xml:space="preserve" font-family="TrebuchetMS,Trebuchet MS" font-size="28.0" fill="#FFFFFF" transform="matrix(1.00, 0.00, -0.00, -1.00, 532.0, 491.8)">l</text><text xml:space="preserve" font-family="TrebuchetMS,Trebuchet MS" font-size="28.0" fill="#FFFFFF" transform="matrix(1.00, 0.00, -0.00, -1.00, 540.2, 491.8)">e</text><text xml:space="preserve" font-family="TrebuchetMS,Trebuchet MS" font-size="28.0" fill="#FFFFFF" transform="matrix(1.00, 0.00, -0.00, -1.00, 555.5, 491.8)">y</text><image xlink:href="37D36B3F055C614E3F5A4D8FD4A466A3.png" width="237.00" height="93.00" transform="matrix(0.43, 0.00, -0.00, -0.43, 320.0, 185.0)"></image><text xml:space="preserve" font-family="TrebuchetMS,Trebuchet MS" font-size="23.0" fill="#FFFFFF" transform="matrix(1.00, 0.00, -0.00, -1.00, 181.6, 438.6)">U</text><text xml:space="preserve" font-family="TrebuchetMS,Trebuchet MS" font-size="23.0" fill="#FFFFFF" transform="matrix(1.00, 0.00, -0.00, -1.00, 196.5, 438.6)">n</text><text xml:space="preserve" font-family="TrebuchetMS,Trebuchet MS" font-size="23.0" fill="#FFFFFF" transform="matrix(1.00, 0.00, -0.00, -1.00, 209.1, 438.6)">i</text><text xml:space="preserve" font-family="TrebuchetMS,Trebuchet MS" font-size="23.0" fill="#FFFFFF" transform="matrix(1.00, 0.00, -0.00, -1.00, 215.7, 438.6)">v</text><text xml:space="preserve" font-family="TrebuchetMS,Trebuchet MS" font-size="23.0" fill="#FFFFFF" transform="matrix(1.00, 0.00, -0.00, -1.00, 226.9, 438.6)">e</text><text xml:space="preserve" font-family="TrebuchetMS,Trebuchet MS" font-size="23.0" fill="#FFFFFF" transform="matrix(1.00, 0.00, -0.00, -1.00, 239.5, 438.6)">r</text><text xml:space="preserve" font-family="TrebuchetMS,Trebuchet MS" font-size="23.0" fill="#FFFFFF" transform="matrix(1.00, 0.00, -0.00, -1.00, 248.4, 438.6)">s</text><text xml:space="preserve" font-family="TrebuchetMS,Trebuchet MS" font-size="23.0" fill="#FFFFFF" transform="matrix(1.00, 0.00, -0.00, -1.00, 257.7, 438.6)">i</text><text xml:space="preserve" font-family="TrebuchetMS,Trebuchet MS" font-size="23.0" fill="#FFFFFF" transform="matrix(1.00, 0.00, -0.00, -1.00, 264.3, 438.6)">d</text><text xml:space="preserve" font-family="TrebuchetMS,Trebuchet MS" font-size="23.0" fill="#FFFFFF" transform="matrix(1.00, 0.00, -0.00, -1.00, 277.1, 438.6)">a</text><text xml:space="preserve" font-family="TrebuchetMS,Trebuchet MS" font-size="23.0" fill="#FFFFFF" transform="matrix(1.00, 0.00, -0.00, -1.00, 289.2, 438.6)">d</text><text xml:space="preserve" font-family="TrebuchetMS,Trebuchet MS" font-size="23.0" fill="#FFFFFF" transform="matrix(1.00, 0.00, -0.00, -1.00, 302.0, 438.6)">e</text><text xml:space="preserve" font-family="TrebuchetMS,Trebuchet MS" font-size="23.0" fill="#FFFFFF" transform="matrix(1.00, 0.00, -0.00, -1.00, 314.5, 438.6)"> </text><text xml:space="preserve" font-family="TrebuchetMS,Trebuchet MS" font-size="23.0" fill="#FFFFFF" transform="matrix(1.00, 0.00, -0.00, -1.00, 321.5, 438.6)">F</text><text xml:space="preserve" font-family="TrebuchetMS,Trebuchet MS" font-size="23.0" fill="#FFFFFF" transform="matrix(1.00, 0.00, -0.00, -1.00, 333.5, 438.6)">e</text><text xml:space="preserve" font-family="TrebuchetMS,Trebuchet MS" font-size="23.0" fill="#FFFFFF" transform="matrix(1.00, 0.00, -0.00, -1.00, 346.1, 438.6)">d</text><text xml:space="preserve" font-family="TrebuchetMS,Trebuchet MS" font-size="23.0" fill="#FFFFFF" transform="matrix(1.00, 0.00, -0.00, -1.00, 358.9, 438.6)">e</text><text xml:space="preserve" font-family="TrebuchetMS,Trebuchet MS" font-size="23.0" fill="#FFFFFF" transform="matrix(1.00, 0.00, -0.00, -1.00, 371.5, 438.6)">r</text><text xml:space="preserve" font-family="TrebuchetMS,Trebuchet MS" font-size="23.0" fill="#FFFFFF" transform="matrix(1.00, 0.00, -0.00, -1.00, 380.4, 438.6)">a</text><text xml:space="preserve" font-family="TrebuchetMS,Trebuchet MS" font-size="23.0" fill="#FFFFFF" transform="matrix(1.00, 0.00, -0.00, -1.00, 392.5, 438.6)">l</text><text xml:space="preserve" font-family="TrebuchetMS,Trebuchet MS" font-size="23.0" fill="#FFFFFF" transform="matrix(1.00, 0.00, -0.00, -1.00, 399.3, 438.6)"> </text><text xml:space="preserve" font-family="TrebuchetMS,Trebuchet MS" font-size="23.0" fill="#FFFFFF" transform="matrix(1.00, 0.00, -0.00, -1.00, 406.2, 438.6)">d</text><text xml:space="preserve" font-family="TrebuchetMS,Trebuchet MS" font-size="23.0" fill="#FFFFFF" transform="matrix(1.00, 0.00, -0.00, -1.00, 419.0, 438.6)">e</text><text xml:space="preserve" font-family="TrebuchetMS,Trebuchet MS" font-size="23.0" fill="#FFFFFF" transform="matrix(1.00, 0.00, -0.00, -1.00, 431.6, 438.6)"> </text><text xml:space="preserve" font-family="TrebuchetMS,Trebuchet MS" font-size="23.0" fill="#FFFFFF" transform="matrix(1.00, 0.00, -0.00, -1.00, 438.5, 438.6)">O</text><text xml:space="preserve" font-family="TrebuchetMS,Trebuchet MS" font-size="23.0" fill="#FFFFFF" transform="matrix(1.00, 0.00, -0.00, -1.00, 454.0, 438.6)">u</text><text xml:space="preserve" font-family="TrebuchetMS,Trebuchet MS" font-size="23.0" fill="#FFFFFF" transform="matrix(1.00, 0.00, -0.00, -1.00, 466.6, 438.6)">r</text><text xml:space="preserve" font-family="TrebuchetMS,Trebuchet MS" font-size="23.0" fill="#FFFFFF" transform="matrix(1.00, 0.00, -0.00, -1.00, 475.5, 438.6)">o</text><text xml:space="preserve" font-family="TrebuchetMS,Trebuchet MS" font-size="23.0" fill="#FFFFFF" transform="matrix(1.00, 0.00, -0.00, -1.00, 487.8, 438.6)"> </text><text xml:space="preserve" font-family="TrebuchetMS,Trebuchet MS" font-size="23.0" fill="#FFFFFF" transform="matrix(1.00, 0.00, -0.00, -1.00, 494.8, 438.6)">P</text><text xml:space="preserve" font-family="TrebuchetMS,Trebuchet MS" font-size="23.0" fill="#FFFFFF" transform="matrix(1.00, 0.00, -0.00, -1.00, 506.5, 438.6)">r</text><text xml:space="preserve" font-family="TrebuchetMS,Trebuchet MS" font-size="23.0" fill="#FFFFFF" transform="matrix(1.00, 0.00, -0.00, -1.00, 515.4, 438.6)">e</text><text xml:space="preserve" font-family="TrebuchetMS,Trebuchet MS" font-size="23.0" fill="#FFFFFF" transform="matrix(1.00, 0.00, -0.00, -1.00, 528.0, 438.6)">t</text><text xml:space="preserve" font-family="TrebuchetMS,Trebuchet MS" font-size="23.0" fill="#FFFFFF" transform="matrix(1.00, 0.00, -0.00, -1.00, 537.1, 438.6)">o</text><text xml:space="preserve" font-family="TrebuchetMS,Trebuchet MS" font-size="23.0" fill="#FFFFFF" transform="matrix(1.00, 0.00, -0.00, -1.00, 549.4, 438.6)"> </text><text xml:space="preserve" font-family="TrebuchetMS,Trebuchet MS" font-size="23.0" fill="#FFFFFF" transform="matrix(1.00, 0.00, -0.00, -1.00, 243.5, 411.6)">C</text><text xml:space="preserve" font-family="TrebuchetMS,Trebuchet MS" font-size="23.0" fill="#FFFFFF" transform="matrix(1.00, 0.00, -0.00, -1.00, 257.2, 411.6)">i</text><text xml:space="preserve" font-family="TrebuchetMS,Trebuchet MS" font-size="23.0" fill="#FFFFFF" transform="matrix(1.00, 0.00, -0.00, -1.00, 263.8, 411.6)">ê</text><text xml:space="preserve" font-family="TrebuchetMS,Trebuchet MS" font-size="23.0" fill="#FFFFFF" transform="matrix(1.00, 0.00, -0.00, -1.00, 276.3, 411.6)">n</text><text xml:space="preserve" font-family="TrebuchetMS,Trebuchet MS" font-size="23.0" fill="#FFFFFF" transform="matrix(1.00, 0.00, -0.00, -1.00, 288.9, 411.6)">c</text><text xml:space="preserve" font-family="TrebuchetMS,Trebuchet MS" font-size="23.0" fill="#FFFFFF" transform="matrix(1.00, 0.00, -0.00, -1.00, 300.3, 411.6)">i</text><text xml:space="preserve" font-family="TrebuchetMS,Trebuchet MS" font-size="23.0" fill="#FFFFFF" transform="matrix(1.00, 0.00, -0.00, -1.00, 306.9, 411.6)">a</text><text xml:space="preserve" font-family="TrebuchetMS,Trebuchet MS" font-size="23.0" fill="#FFFFFF" transform="matrix(1.00, 0.00, -0.00, -1.00, 318.9, 411.6)">s</text><text xml:space="preserve" font-family="TrebuchetMS,Trebuchet MS" font-size="23.0" fill="#FFFFFF" transform="matrix(1.00, 0.00, -0.00, -1.00, 328.3, 411.6)"> </text><text xml:space="preserve" font-family="TrebuchetMS,Trebuchet MS" font-size="23.0" fill="#FFFFFF" transform="matrix(1.00, 0.00, -0.00, -1.00, 335.2, 411.6)">s</text><text xml:space="preserve" font-family="TrebuchetMS,Trebuchet MS" font-size="23.0" fill="#FFFFFF" transform="matrix(1.00, 0.00, -0.00, -1.00, 344.5, 411.6)">e</text><text xml:space="preserve" font-family="TrebuchetMS,Trebuchet MS" font-size="23.0" fill="#FFFFFF" transform="matrix(1.00, 0.00, -0.00, -1.00, 357.0, 411.6)">m</text><text xml:space="preserve" font-family="TrebuchetMS,Trebuchet MS" font-size="23.0" fill="#FFFFFF" transform="matrix(1.00, 0.00, -0.00, -1.00, 376.1, 411.6)"> </text><text xml:space="preserve" font-family="TrebuchetMS,Trebuchet MS" font-size="23.0" fill="#FFFFFF" transform="matrix(1.00, 0.00, -0.00, -1.00, 383.1, 411.6)">F</text><text xml:space="preserve" font-family="TrebuchetMS,Trebuchet MS" font-size="23.0" fill="#FFFFFF" transform="matrix(1.00, 0.00, -0.00, -1.00, 395.1, 411.6)">r</text><text xml:space="preserve" font-family="TrebuchetMS,Trebuchet MS" font-size="23.0" fill="#FFFFFF" transform="matrix(1.00, 0.00, -0.00, -1.00, 404.1, 411.6)">o</text><text xml:space="preserve" font-family="TrebuchetMS,Trebuchet MS" font-size="23.0" fill="#FFFFFF" transform="matrix(1.00, 0.00, -0.00, -1.00, 416.4, 411.6)">n</text><text xml:space="preserve" font-family="TrebuchetMS,Trebuchet MS" font-size="23.0" fill="#FFFFFF" transform="matrix(1.00, 0.00, -0.00, -1.00, 429.0, 411.6)">t</text><text xml:space="preserve" font-family="TrebuchetMS,Trebuchet MS" font-size="23.0" fill="#FFFFFF" transform="matrix(1.00, 0.00, -0.00, -1.00, 438.1, 411.6)">e</text><text xml:space="preserve" font-family="TrebuchetMS,Trebuchet MS" font-size="23.0" fill="#FFFFFF" transform="matrix(1.00, 0.00, -0.00, -1.00, 450.6, 411.6)">i</text><text xml:space="preserve" font-family="TrebuchetMS,Trebuchet MS" font-size="23.0" fill="#FFFFFF" transform="matrix(1.00, 0.00, -0.00, -1.00, 457.2, 411.6)">r</text><text xml:space="preserve" font-family="TrebuchetMS,Trebuchet MS" font-size="23.0" fill="#FFFFFF" transform="matrix(1.00, 0.00, -0.00, -1.00, 466.2, 411.6)">a</text><text xml:space="preserve" font-family="TrebuchetMS,Trebuchet MS" font-size="23.0" fill="#FFFFFF" transform="matrix(1.00, 0.00, -0.00, -1.00, 478.2, 411.6)">s</text><image xlink:href="DD911CAB2FAF9C4D42BC3C22D0C25FB6.png" width="147.00" height="272.00" transform="matrix(0.33, 0.00, -0.00, -0.33, 59.0, 525.0)"></image></g></svg>