<?xml version="1.0" encoding="UTF-8"?><svg xmlns="http://www.w3.org/2000/svg" xmlns:xlink="http://www.w3.org/1999/xlink" clip-rule="evenodd" stroke-miterlimit="10" viewBox="0 0 720 540"><desc>SVG generated by Keynote</desc><defs></defs><g transform="matrix(1.00, 0.00, -0.00, -1.00, 0.0, 540.0)"><path d="M 0.0 0.0 L 720.0 0.0 L 720.0 540.0 L 0.0 540.0 Z M 0.0 0.0 " fill="#FFFFFF"></path><path d="M 0.0 511.0 L 720.0 511.0 L 720.0 504.0 L 0.0 504.0 Z M 0.0 511.1 " fill="#5ECCF3" fill-opacity="0.50"></path><path d="M 0.0 540.0 L 720.0 540.0 L 720.0 516.0 L 0.0 516.0 Z M 0.0 540.0 " fill="#212744"></path><path d="M 0.0 516.0 L 720.0 516.0 L 720.0 509.0 L 0.0 509.0 Z M 0.0 515.7 " fill="#5ECCF3"></path><path d="M 426.0 504.0 L 720.0 504.0 L 720.0 512.0 L 426.0 512.0 Z M 426.0 504.5 " fill="#5ECCF3"></path><path d="M 426.0 491.0 L 720.0 491.0 L 720.0 505.0 L 426.0 505.0 Z M 426.0 491.2 " fill="#5ECCF3" fill-opacity="0.50"></path><path d="M 425.8 499.0 L 426.0 500.5 C 426.0 500.7 425.9 501.0 426.1 501.0 L 666.6 501.0 C 666.8 501.0 667.0 500.7 667.0 500.5 L 667.0 499.0 C 667.0 498.8 666.8 499.0 666.6 499.0 L 426.1 499.0 C 425.9 499.0 425.8 498.8 425.8 499.0 Z M 425.8 499.0 " fill="#FFFFFF"></path><path d="M 580.6 491.2 L 581.0 493.1 C 581.0 493.4 580.8 494.0 581.1 494.0 L 706.1 494.0 C 706.4 494.0 707.0 493.4 707.0 493.1 L 707.0 491.2 C 707.0 491.0 706.4 491.0 706.1 491.0 L 581.1 491.0 C 580.8 491.0 580.6 491.0 580.6 491.2 Z M 580.6 491.2 " fill="#FFFFFF"></path><path d="M 715.0 540.0 L 720.0 540.0 L 720.0 491.0 L 715.0 491.0 Z M 715.4 540.2 " fill="#FFFFFF" fill-opacity="0.65"></path><path d="M 712.0 540.0 L 714.0 540.0 L 714.0 491.0 L 712.0 491.0 Z M 712.2 540.2 " fill="#FFFFFF" fill-opacity="0.65"></path><path d="M 711.0 540.0 L 711.0 540.0 L 711.0 491.0 L 711.0 491.0 Z M 710.7 540.2 " fill="#FFFFFF" fill-opacity="0.60"></path><path d="M 707.0 540.0 L 709.0 540.0 L 709.0 491.0 L 707.0 491.0 Z M 706.7 540.2 " fill="#FFFFFF" fill-opacity="0.40"></path><path d="M 702.0 540.0 L 706.0 540.0 L 706.0 494.0 L 702.0 494.0 Z M 702.0 540.0 " fill="#FFFFFF" fill-opacity="0.20"></path><path d="M 699.0 540.0 L 699.0 540.0 L 699.0 494.0 L 699.0 494.0 Z M 698.7 540.0 " fill="#FFFFFF" fill-opacity="0.30"></path><g><clipPath id="clip0x6080022a7c20"><path d="M 301.3 148.9 L 396.0 148.9 L 396.0 221.0 L 301.3 221.0 Z M 301.3 148.9 "></path></clipPath><g clip-path="url(#clip0x6080022a7c20)"><path d="M -0.3 -0.0 L 90.7 -0.0 L 90.7 68.0 L -0.3 68.0 Z M 0.0 0.0 " fill="none" stroke="#384B91" stroke-width="2.00" stroke-linejoin="bevel" transform="matrix(1.00, 0.00, 0.00, -1.00, 303.3, 219.0)"></path></g></g><g><clipPath id="clip0x6080022a7e60"><path d="M 227.6 72.6 L 469.2 72.6 L 469.2 289.0 L 227.6 289.0 Z M 227.6 72.6 "></path></clipPath><g clip-path="url(#clip0x6080022a7e60)"><path d="M 0.4 0.0 L 237.4 0.0 L 237.4 212.0 L 0.4 212.0 Z M 0.0 0.0 " fill="none" stroke="#00B050" stroke-width="2.00" stroke-linejoin="bevel" transform="matrix(1.00, 0.00, 0.00, -1.00, 229.6, 287.0)"></path></g></g><g><clipPath id="clip0x6080022a80a0"><path d="M 352.2 288.0 L 352.5 218.0 L 344.9 218.0 L 344.6 288.0 Z M 352.2 288.0 "></path></clipPath><g clip-path="url(#clip0x6080022a80a0)"><path d="M 2.7 0.0 L 3.1 0.0 L 64.9 0.0 L 65.3 0.0 " fill="none" stroke="#C3260C" stroke-width="0.75" stroke-linejoin="bevel" transform="matrix(0.00, -1.00, -1.00, -0.00, 348.4, 287.0)"></path><path d="M 348.7 219.0 L 351.4 223.7 L 351.4 223.7 C 351.5 224.0 351.4 224.3 351.1 224.5 C 350.8 224.7 350.5 224.6 350.3 224.3 L 348.7 221.5 L 347.0 224.3 L 347.0 224.3 C 346.8 224.6 346.4 224.7 346.1 224.5 C 345.8 224.3 345.7 223.9 345.9 223.6 C 345.9 223.6 345.9 223.6 345.9 223.6 Z M 348.7 219.0 " fill="#C3260C"></path><path d="M 348.4 287.0 L 345.7 282.3 L 345.7 282.3 C 345.5 282.0 345.6 281.6 345.9 281.5 C 346.2 281.3 346.6 281.4 346.8 281.7 L 348.4 284.5 L 350.1 281.7 L 350.1 281.7 C 350.2 281.4 350.6 281.3 350.9 281.5 C 351.2 281.7 351.3 282.0 351.1 282.3 C 351.1 282.3 351.1 282.3 351.1 282.3 Z M 348.4 287.0 " fill="#C3260C"></path></g></g><g><clipPath id="clip0x6080022a8400"><path d="M 393.0 181.1 L 467.9 181.1 L 467.9 188.8 L 393.0 188.8 Z M 393.0 181.1 "></path></clipPath><g clip-path="url(#clip0x6080022a8400)"><path d="M 3.0 0.5 L 3.1 0.5 L 69.8 0.5 L 70.0 0.5 " fill="none" stroke="#C3260C" stroke-width="0.75" stroke-linejoin="bevel" transform="matrix(1.00, 0.00, 0.00, -1.00, 394.0, 185.0)"></path><path d="M 466.7 184.5 L 462.0 187.2 L 462.0 187.2 C 461.8 187.4 461.4 187.3 461.2 187.0 C 461.0 186.7 461.1 186.3 461.4 186.1 L 464.2 184.5 L 461.4 182.9 L 461.4 182.9 C 461.1 182.7 461.0 182.3 461.2 182.0 C 461.4 181.7 461.8 181.6 462.0 181.8 C 462.0 181.8 462.0 181.8 462.0 181.8 Z M 466.7 184.5 " fill="#C3260C"></path><path d="M 394.3 184.5 L 399.0 181.8 L 399.0 181.8 C 399.2 181.6 399.6 181.7 399.8 182.0 C 400.0 182.3 399.9 182.7 399.6 182.9 L 396.8 184.5 L 399.6 186.1 L 399.6 186.1 C 399.9 186.3 400.0 186.7 399.8 187.0 C 399.6 187.3 399.2 187.4 399.0 187.2 C 399.0 187.2 399.0 187.2 399.0 187.2 Z M 394.3 184.5 " fill="#C3260C"></path></g></g><g><clipPath id="clip0x6080022a8760"><path d="M 352.8 237.7 L 418.5 237.7 L 418.5 268.9 L 352.8 268.9 Z M 352.8 237.7 "></path></clipPath><g clip-path="url(#clip0x6080022a8760)"><text xml:space="preserve" font-family="Georgia,Georgia" font-size="18.0" fill="#C3260C" transform="matrix(1.00, 0.00, -0.00, -1.00, 357.9, 246.7)">H</text><text xml:space="preserve" font-family="Georgia,Georgia" font-size="18.0" fill="#C3260C" transform="matrix(1.00, 0.00, -0.00, -1.00, 372.6, 246.7)">e</text><text xml:space="preserve" font-family="Georgia,Georgia" font-size="18.0" fill="#C3260C" transform="matrix(1.00, 0.00, -0.00, -1.00, 381.3, 246.7)">i</text><text xml:space="preserve" font-family="Georgia,Georgia" font-size="18.0" fill="#C3260C" transform="matrix(1.00, 0.00, -0.00, -1.00, 386.6, 246.7)">g</text><text xml:space="preserve" font-family="Georgia,Georgia" font-size="18.0" fill="#C3260C" transform="matrix(1.00, 0.00, -0.00, -1.00, 395.8, 246.7)">h</text><text xml:space="preserve" font-family="Georgia,Georgia" font-size="18.0" fill="#C3260C" transform="matrix(1.00, 0.00, -0.00, -1.00, 406.2, 246.7)">t</text></g></g><g><clipPath id="clip0x6080022a8b80"><path d="M 397.3 144.6 L 458.4 144.6 L 458.4 175.9 L 397.3 175.9 Z M 397.3 144.6 "></path></clipPath><g clip-path="url(#clip0x6080022a8b80)"><text xml:space="preserve" font-family="Georgia,Georgia" font-size="18.0" fill="#C3260C" transform="matrix(1.00, 0.00, -0.00, -1.00, 402.4, 153.7)">W</text><text xml:space="preserve" font-family="Georgia,Georgia" font-size="18.0" fill="#C3260C" transform="matrix(1.00, 0.00, -0.00, -1.00, 420.0, 153.7)">i</text><text xml:space="preserve" font-family="Georgia,Georgia" font-size="18.0" fill="#C3260C" transform="matrix(1.00, 0.00, -0.00, -1.00, 425.3, 153.7)">d</text><text xml:space="preserve" font-family="Georgia,Georgia" font-size="18.0" fill="#C3260C" transform="matrix(1.00, 0.00, -0.00, -1.00, 435.6, 153.7)">t</text><text xml:space="preserve" font-family="Georgia,Georgia" font-size="18.0" fill="#C3260C" transform="matrix(1.00, 0.00, -0.00, -1.00, 441.8, 153.7)">h</text></g></g><g><clipPath id="clip0x6080022a8f40"><path d="M 304.2 166.6 L 390.6 166.6 L 390.6 197.8 L 304.2 197.8 Z M 304.2 166.6 "></path></clipPath><g clip-path="url(#clip0x6080022a8f40)"><text xml:space="preserve" font-family="Georgia,Georgia" font-size="18.0" fill="#181D33" transform="matrix(1.00, 0.00, -0.00, -1.00, 309.3, 175.6)">T</text><text xml:space="preserve" font-family="Georgia,Georgia" font-size="18.0" fill="#181D33" transform="matrix(1.00, 0.00, -0.00, -1.00, 320.5, 175.6)">e</text><text xml:space="preserve" font-family="Georgia,Georgia" font-size="18.0" fill="#181D33" transform="matrix(1.00, 0.00, -0.00, -1.00, 329.2, 175.6)">m</text><text xml:space="preserve" font-family="Georgia,Georgia" font-size="18.0" fill="#181D33" transform="matrix(1.00, 0.00, -0.00, -1.00, 345.0, 175.6)">p</text><text xml:space="preserve" font-family="Georgia,Georgia" font-size="18.0" fill="#181D33" transform="matrix(1.00, 0.00, -0.00, -1.00, 355.3, 175.6)">l</text><text xml:space="preserve" font-family="Georgia,Georgia" font-size="18.0" fill="#181D33" transform="matrix(1.00, 0.00, -0.00, -1.00, 360.5, 175.6)">a</text><text xml:space="preserve" font-family="Georgia,Georgia" font-size="18.0" fill="#181D33" transform="matrix(1.00, 0.00, -0.00, -1.00, 369.5, 175.6)">t</text><text xml:space="preserve" font-family="Georgia,Georgia" font-size="18.0" fill="#181D33" transform="matrix(1.00, 0.00, -0.00, -1.00, 375.8, 175.6)">e</text></g></g><g><clipPath id="clip0x600002aaf360"><path d="M 355.3 34.3 L 475.3 34.3 L 475.3 65.5 L 355.3 65.5 Z M 355.3 34.3 "></path></clipPath><g clip-path="url(#clip0x600002aaf360)"><text xml:space="preserve" font-family="Georgia,Georgia" font-size="18.0" fill="#00B050" transform="matrix(1.00, 0.00, -0.00, -1.00, 360.4, 43.3)">S</text><text xml:space="preserve" font-family="Georgia,Georgia" font-size="18.0" fill="#00B050" transform="matrix(1.00, 0.00, -0.00, -1.00, 370.5, 43.3)">e</text><text xml:space="preserve" font-family="Georgia,Georgia" font-size="18.0" fill="#00B050" transform="matrix(1.00, 0.00, -0.00, -1.00, 379.2, 43.3)">a</text><text xml:space="preserve" font-family="Georgia,Georgia" font-size="18.0" fill="#00B050" transform="matrix(1.00, 0.00, -0.00, -1.00, 388.2, 43.3)">r</text><text xml:space="preserve" font-family="Georgia,Georgia" font-size="18.0" fill="#00B050" transform="matrix(1.00, 0.00, -0.00, -1.00, 395.6, 43.3)">c</text><text xml:space="preserve" font-family="Georgia,Georgia" font-size="18.0" fill="#00B050" transform="matrix(1.00, 0.00, -0.00, -1.00, 403.8, 43.3)">h</text><text xml:space="preserve" font-family="Georgia,Georgia" font-size="18.0" fill="#00B050" transform="matrix(1.00, 0.00, -0.00, -1.00, 414.3, 43.3)"> </text><text xml:space="preserve" font-family="Georgia,Georgia" font-size="18.0" fill="#00B050" transform="matrix(1.00, 0.00, -0.00, -1.00, 418.6, 43.3)">a</text><text xml:space="preserve" font-family="Georgia,Georgia" font-size="18.0" fill="#00B050" transform="matrix(1.00, 0.00, -0.00, -1.00, 427.7, 43.3)">r</text><text xml:space="preserve" font-family="Georgia,Georgia" font-size="18.0" fill="#00B050" transform="matrix(1.00, 0.00, -0.00, -1.00, 435.0, 43.3)">e</text><text xml:space="preserve" font-family="Georgia,Georgia" font-size="18.0" fill="#00B050" transform="matrix(1.00, 0.00, -0.00, -1.00, 443.8, 43.3)">a</text><text xml:space="preserve" font-family="Georgia,Georgia" font-size="18.0" fill="#00B050" transform="matrix(1.00, 0.00, -0.00, -1.00, 452.8, 43.3)"> </text><text xml:space="preserve" font-family="Georgia,Georgia" font-size="18.0" fill="#00B050" transform="matrix(1.00, 0.00, -0.00, -1.00, 457.2, 43.3)">A</text></g></g><text xml:space="preserve" font-family="Georgia,Georgia" font-size="23.0" fill="#000000" transform="matrix(1.00, 0.00, -0.00, -1.00, 74.4, 348.6)">W</text><text xml:space="preserve" font-family="Georgia,Georgia" font-size="23.0" fill="#000000" transform="matrix(1.00, 0.00, -0.00, -1.00, 96.9, 348.6)">i</text><text xml:space="preserve" font-family="Georgia,Georgia" font-size="23.0" fill="#000000" transform="matrix(1.00, 0.00, -0.00, -1.00, 103.6, 348.6)">d</text><text xml:space="preserve" font-family="Georgia,Georgia" font-size="23.0" fill="#000000" transform="matrix(1.00, 0.00, -0.00, -1.00, 116.8, 348.6)">t</text><text xml:space="preserve" font-family="Georgia,Georgia" font-size="23.0" fill="#000000" transform="matrix(1.00, 0.00, -0.00, -1.00, 124.8, 348.6)">h</text><text xml:space="preserve" font-family="Georgia,Georgia" font-size="23.0" fill="#000000" transform="matrix(1.00, 0.00, -0.00, -1.00, 138.1, 348.6)"> </text><text xml:space="preserve" font-family="Georgia,Georgia" font-size="23.0" fill="#000000" transform="matrix(1.00, 0.00, -0.00, -1.00, 143.7, 348.6)">=</text><text xml:space="preserve" font-family="Georgia,Georgia" font-size="23.0" fill="#000000" transform="matrix(1.00, 0.00, -0.00, -1.00, 158.5, 348.6)"> </text><text xml:space="preserve" font-family="Georgia,Georgia" font-size="23.0" fill="#000000" transform="matrix(1.00, 0.00, -0.00, -1.00, 164.0, 348.6)">H</text><text xml:space="preserve" font-family="Georgia,Georgia" font-size="23.0" fill="#000000" transform="matrix(1.00, 0.00, -0.00, -1.00, 182.8, 348.6)">e</text><text xml:space="preserve" font-family="Georgia,Georgia" font-size="23.0" fill="#000000" transform="matrix(1.00, 0.00, -0.00, -1.00, 193.9, 348.6)">i</text><text xml:space="preserve" font-family="Georgia,Georgia" font-size="23.0" fill="#000000" transform="matrix(1.00, 0.00, -0.00, -1.00, 200.6, 348.6)">g</text><text xml:space="preserve" font-family="Georgia,Georgia" font-size="23.0" fill="#000000" transform="matrix(1.00, 0.00, -0.00, -1.00, 212.4, 348.6)">h</text><text xml:space="preserve" font-family="Georgia,Georgia" font-size="23.0" fill="#000000" transform="matrix(1.00, 0.00, -0.00, -1.00, 225.8, 348.6)">t</text><text xml:space="preserve" font-family="Georgia,Georgia" font-size="23.0" fill="#000000" transform="matrix(1.00, 0.00, -0.00, -1.00, 233.7, 348.6)"> </text><text xml:space="preserve" font-family="Georgia,Georgia" font-size="23.0" fill="#000000" transform="matrix(1.00, 0.00, -0.00, -1.00, 239.3, 348.6)">=</text><text xml:space="preserve" font-family="Georgia,Georgia" font-size="23.0" fill="#000000" transform="matrix(1.00, 0.00, -0.00, -1.00, 254.0, 348.6)"> </text><text xml:space="preserve" font-family="Georgia,Georgia" font-size="23.0" fill="#000000" transform="matrix(1.00, 0.00, -0.00, -1.00, 259.6, 348.6)">m</text><text xml:space="preserve" font-family="Georgia,Georgia" font-size="23.0" fill="#000000" transform="matrix(1.00, 0.00, -0.00, -1.00, 279.9, 348.6)">a</text><text xml:space="preserve" font-family="Georgia,Georgia" font-size="23.0" fill="#000000" transform="matrix(1.00, 0.00, -0.00, -1.00, 291.4, 348.6)">x</text><text xml:space="preserve" font-family="Georgia,Georgia" font-size="23.0" fill="#000000" transform="matrix(1.00, 0.00, -0.00, -1.00, 303.1, 348.6)">i</text><text xml:space="preserve" font-family="Georgia,Georgia" font-size="23.0" fill="#000000" transform="matrix(1.00, 0.00, -0.00, -1.00, 309.8, 348.6)">m</text><text xml:space="preserve" font-family="Georgia,Georgia" font-size="23.0" fill="#000000" transform="matrix(1.00, 0.00, -0.00, -1.00, 330.0, 348.6)">u</text><text xml:space="preserve" font-family="Georgia,Georgia" font-size="23.0" fill="#000000" transform="matrix(1.00, 0.00, -0.00, -1.00, 343.3, 348.6)">m</text><text xml:space="preserve" font-family="Georgia,Georgia" font-size="23.0" fill="#000000" transform="matrix(1.00, 0.00, -0.00, -1.00, 363.5, 348.6)"> </text><text xml:space="preserve" font-family="Georgia,Georgia" font-size="23.0" fill="#000000" transform="matrix(1.00, 0.00, -0.00, -1.00, 369.1, 348.6)">d</text><text xml:space="preserve" font-family="Georgia,Georgia" font-size="23.0" fill="#000000" transform="matrix(1.00, 0.00, -0.00, -1.00, 382.3, 348.6)">i</text><text xml:space="preserve" font-family="Georgia,Georgia" font-size="23.0" fill="#000000" transform="matrix(1.00, 0.00, -0.00, -1.00, 389.0, 348.6)">s</text><text xml:space="preserve" font-family="Georgia,Georgia" font-size="23.0" fill="#000000" transform="matrix(1.00, 0.00, -0.00, -1.00, 399.0, 348.6)">p</text><text xml:space="preserve" font-family="Georgia,Georgia" font-size="23.0" fill="#000000" transform="matrix(1.00, 0.00, -0.00, -1.00, 412.1, 348.6)">l</text><text xml:space="preserve" font-family="Georgia,Georgia" font-size="23.0" fill="#000000" transform="matrix(1.00, 0.00, -0.00, -1.00, 418.7, 348.6)">a</text><text xml:space="preserve" font-family="Georgia,Georgia" font-size="23.0" fill="#000000" transform="matrix(1.00, 0.00, -0.00, -1.00, 430.3, 348.6)">c</text><text xml:space="preserve" font-family="Georgia,Georgia" font-size="23.0" fill="#000000" transform="matrix(1.00, 0.00, -0.00, -1.00, 440.7, 348.6)">e</text><text xml:space="preserve" font-family="Georgia,Georgia" font-size="23.0" fill="#000000" transform="matrix(1.00, 0.00, -0.00, -1.00, 451.9, 348.6)">m</text><text xml:space="preserve" font-family="Georgia,Georgia" font-size="23.0" fill="#000000" transform="matrix(1.00, 0.00, -0.00, -1.00, 472.1, 348.6)">e</text><text xml:space="preserve" font-family="Georgia,Georgia" font-size="23.0" fill="#000000" transform="matrix(1.00, 0.00, -0.00, -1.00, 483.3, 348.6)">n</text><text xml:space="preserve" font-family="Georgia,Georgia" font-size="23.0" fill="#000000" transform="matrix(1.00, 0.00, -0.00, -1.00, 496.8, 348.6)">t</text><text xml:space="preserve" font-family="Georgia,Georgia" font-size="23.0" fill="#000000" transform="matrix(1.00, 0.00, -0.00, -1.00, 504.8, 348.6)"> </text><text xml:space="preserve" font-family="Georgia,Georgia" font-size="23.0" fill="#000000" transform="matrix(1.00, 0.00, -0.00, -1.00, 510.3, 348.6)">(</text><text xml:space="preserve" font-family="Georgia,Georgia" font-size="23.0" fill="#000000" transform="matrix(1.00, 0.00, -0.00, -1.00, 519.0, 348.6)">u</text><text xml:space="preserve" font-family="Georgia,Georgia" font-size="23.0" fill="#000000" transform="matrix(1.00, 0.00, -0.00, -1.00, 532.2, 348.6)">s</text><text xml:space="preserve" font-family="Georgia,Georgia" font-size="23.0" fill="#000000" transform="matrix(1.00, 0.00, -0.00, -1.00, 542.1, 348.6)">e</text><text xml:space="preserve" font-family="Georgia,Georgia" font-size="23.0" fill="#000000" transform="matrix(1.00, 0.00, -0.00, -1.00, 553.3, 348.6)">r</text><text xml:space="preserve" font-family="Georgia,Georgia" font-size="23.0" fill="#000000" transform="matrix(1.00, 0.00, -0.00, -1.00, 562.7, 348.6)">’</text><text xml:space="preserve" font-family="Georgia,Georgia" font-size="23.0" fill="#000000" transform="matrix(1.00, 0.00, -0.00, -1.00, 567.9, 348.6)">s</text><text xml:space="preserve" font-family="Georgia,Georgia" font-size="23.0" fill="#000000" transform="matrix(1.00, 0.00, -0.00, -1.00, 577.8, 348.6)"> </text><text xml:space="preserve" font-family="Georgia,Georgia" font-size="23.0" fill="#000000" transform="matrix(1.00, 0.00, -0.00, -1.00, 583.4, 348.6)">i</text><text xml:space="preserve" font-family="Georgia,Georgia" font-size="23.0" fill="#000000" transform="matrix(1.00, 0.00, -0.00, -1.00, 590.1, 348.6)">n</text><text xml:space="preserve" font-family="Georgia,Georgia" font-size="23.0" fill="#000000" transform="matrix(1.00, 0.00, -0.00, -1.00, 603.7, 348.6)">p</text><text xml:space="preserve" font-family="Georgia,Georgia" font-size="23.0" fill="#000000" transform="matrix(1.00, 0.00, -0.00, -1.00, 616.8, 348.6)">u</text><text xml:space="preserve" font-family="Georgia,Georgia" font-size="23.0" fill="#000000" transform="matrix(1.00, 0.00, -0.00, -1.00, 630.1, 348.6)">t</text><text xml:space="preserve" font-family="Georgia,Georgia" font-size="23.0" fill="#000000" transform="matrix(1.00, 0.00, -0.00, -1.00, 638.0, 348.6)">)</text><text xml:space="preserve" font-family="TrebuchetMS-Bold,Trebuchet MS" font-weight="bold" font-size="34.0" fill="#212744" transform="matrix(1.00, 0.00, -0.00, -1.00, 2.6, 453.0)">4</text><text xml:space="preserve" font-family="TrebuchetMS-Bold,Trebuchet MS" font-weight="bold" font-size="34.0" fill="#212744" transform="matrix(1.00, 0.00, -0.00, -1.00, 22.5, 453.0)">)</text><text xml:space="preserve" font-family="TrebuchetMS-Bold,Trebuchet MS" font-weight="bold" font-size="34.0" fill="#212744" transform="matrix(1.00, 0.00, -0.00, -1.00, 35.0, 453.0)"> </text><text xml:space="preserve" font-family="TrebuchetMS-Bold,Trebuchet MS" font-weight="bold" font-size="34.0" fill="#212744" transform="matrix(1.00, 0.00, -0.00, -1.00, 45.2, 453.0)">D</text><text xml:space="preserve" font-family="TrebuchetMS-Bold,Trebuchet MS" font-weight="bold" font-size="34.0" fill="#212744" transform="matrix(1.00, 0.00, -0.00, -1.00, 67.1, 453.0)">i</text><text xml:space="preserve" font-family="TrebuchetMS-Bold,Trebuchet MS" font-weight="bold" font-size="34.0" fill="#212744" transform="matrix(1.00, 0.00, -0.00, -1.00, 77.2, 453.0)">s</text><text xml:space="preserve" font-family="TrebuchetMS-Bold,Trebuchet MS" font-weight="bold" font-size="34.0" fill="#212744" transform="matrix(1.00, 0.00, -0.00, -1.00, 91.9, 453.0)">p</text><text xml:space="preserve" font-family="TrebuchetMS-Bold,Trebuchet MS" font-weight="bold" font-size="34.0" fill="#212744" transform="matrix(1.00, 0.00, -0.00, -1.00, 111.7, 453.0)">l</text><text xml:space="preserve" font-family="TrebuchetMS-Bold,Trebuchet MS" font-weight="bold" font-size="34.0" fill="#212744" transform="matrix(1.00, 0.00, -0.00, -1.00, 121.7, 453.0)">a</text><text xml:space="preserve" font-family="TrebuchetMS-Bold,Trebuchet MS" font-weight="bold" font-size="34.0" fill="#212744" transform="matrix(1.00, 0.00, -0.00, -1.00, 139.8, 453.0)">c</text><text xml:space="preserve" font-family="TrebuchetMS-Bold,Trebuchet MS" font-weight="bold" font-size="34.0" fill="#212744" transform="matrix(1.00, 0.00, -0.00, -1.00, 157.2, 453.0)">e</text><text xml:space="preserve" font-family="TrebuchetMS-Bold,Trebuchet MS" font-weight="bold" font-size="34.0" fill="#212744" transform="matrix(1.00, 0.00, -0.00, -1.00, 176.7, 453.0)">m</text><text xml:space="preserve" font-family="TrebuchetMS-Bold,Trebuchet MS" font-weight="bold" font-size="34.0" fill="#212744" transform="matrix(1.00, 0.00, -0.00, -1.00, 206.0, 453.0)">e</text><text xml:space="preserve" font-family="TrebuchetMS-Bold,Trebuchet MS" font-weight="bold" font-size="34.0" fill="#212744" transform="matrix(1.00, 0.00, -0.00, -1.00, 225.5, 453.0)">n</text><text xml:space="preserve" font-family="TrebuchetMS-Bold,Trebuchet MS" font-weight="bold" font-size="34.0" fill="#212744" transform="matrix(1.00, 0.00, -0.00, -1.00, 245.6, 453.0)">t</text><text xml:space="preserve" font-family="TrebuchetMS-Bold,Trebuchet MS" font-weight="bold" font-size="34.0" fill="#212744" transform="matrix(1.00, 0.00, -0.00, -1.00, 259.1, 453.0)"> </text><text xml:space="preserve" font-family="TrebuchetMS-Bold,Trebuchet MS" font-weight="bold" font-size="34.0" fill="#212744" transform="matrix(1.00, 0.00, -0.00, -1.00, 269.3, 453.0)">m</text><text xml:space="preserve" font-family="TrebuchetMS-Bold,Trebuchet MS" font-weight="bold" font-size="34.0" fill="#212744" transform="matrix(1.00, 0.00, -0.00, -1.00, 298.6, 453.0)">e</text><text xml:space="preserve" font-family="TrebuchetMS-Bold,Trebuchet MS" font-weight="bold" font-size="34.0" fill="#212744" transform="matrix(1.00, 0.00, -0.00, -1.00, 318.1, 453.0)">a</text><text xml:space="preserve" font-family="TrebuchetMS-Bold,Trebuchet MS" font-weight="bold" font-size="34.0" fill="#212744" transform="matrix(1.00, 0.00, -0.00, -1.00, 336.2, 453.0)">s</text><text xml:space="preserve" font-family="TrebuchetMS-Bold,Trebuchet MS" font-weight="bold" font-size="34.0" fill="#212744" transform="matrix(1.00, 0.00, -0.00, -1.00, 350.9, 453.0)">u</text><text xml:space="preserve" font-family="TrebuchetMS-Bold,Trebuchet MS" font-weight="bold" font-size="34.0" fill="#212744" transform="matrix(1.00, 0.00, -0.00, -1.00, 370.9, 453.0)">r</text><text xml:space="preserve" font-family="TrebuchetMS-Bold,Trebuchet MS" font-weight="bold" font-size="34.0" fill="#212744" transform="matrix(1.00, 0.00, -0.00, -1.00, 385.5, 453.0)">e</text><text xml:space="preserve" font-family="TrebuchetMS-Bold,Trebuchet MS" font-weight="bold" font-size="34.0" fill="#212744" transform="matrix(1.00, 0.00, -0.00, -1.00, 405.0, 453.0)">m</text><text xml:space="preserve" font-family="TrebuchetMS-Bold,Trebuchet MS" font-weight="bold" font-size="34.0" fill="#212744" transform="matrix(1.00, 0.00, -0.00, -1.00, 434.2, 453.0)">e</text><text xml:space="preserve" font-family="TrebuchetMS-Bold,Trebuchet MS" font-weight="bold" font-size="34.0" fill="#212744" transform="matrix(1.00, 0.00, -0.00, -1.00, 453.8, 453.0)">n</text><text xml:space="preserve" font-family="TrebuchetMS-Bold,Trebuchet MS" font-weight="bold" font-size="34.0" fill="#212744" transform="matrix(1.00, 0.00, -0.00, -1.00, 473.9, 453.0)">t</text><text xml:space="preserve" font-family="TrebuchetMS-Bold,Trebuchet MS" font-weight="bold" font-size="34.0" fill="#212744" transform="matrix(1.00, 0.00, -0.00, -1.00, 487.4, 453.0)">s</text></g></svg>