<?xml version="1.0" encoding="UTF-8"?><svg xmlns="http://www.w3.org/2000/svg" xmlns:xlink="http://www.w3.org/1999/xlink" clip-rule="evenodd" stroke-miterlimit="10" viewBox="0 0 720 540"><desc>SVG generated by Keynote</desc><defs></defs><g transform="matrix(1.00, 0.00, -0.00, -1.00, 0.0, 540.0)"><path d="M 0.0 0.0 L 720.0 0.0 L 720.0 540.0 L 0.0 540.0 Z M 0.0 0.0 " fill="#FFFFFF"></path><path d="M 0.0 511.0 L 720.0 511.0 L 720.0 504.0 L 0.0 504.0 Z M 0.0 511.1 " fill="#5ECCF3" fill-opacity="0.50"></path><path d="M 0.0 540.0 L 720.0 540.0 L 720.0 516.0 L 0.0 516.0 Z M 0.0 540.0 " fill="#212744"></path><path d="M 0.0 516.0 L 720.0 516.0 L 720.0 509.0 L 0.0 509.0 Z M 0.0 515.7 " fill="#5ECCF3"></path><path d="M 426.0 504.0 L 720.0 504.0 L 720.0 512.0 L 426.0 512.0 Z M 426.0 504.5 " fill="#5ECCF3"></path><path d="M 426.0 491.0 L 720.0 491.0 L 720.0 505.0 L 426.0 505.0 Z M 426.0 491.2 " fill="#5ECCF3" fill-opacity="0.50"></path><path d="M 425.8 499.0 L 426.0 500.5 C 426.0 500.7 425.9 501.0 426.1 501.0 L 666.6 501.0 C 666.8 501.0 667.0 500.7 667.0 500.5 L 667.0 499.0 C 667.0 498.8 666.8 499.0 666.6 499.0 L 426.1 499.0 C 425.9 499.0 425.8 498.8 425.8 499.0 Z M 425.8 499.0 " fill="#FFFFFF"></path><path d="M 580.6 491.2 L 581.0 493.1 C 581.0 493.4 580.8 494.0 581.1 494.0 L 706.1 494.0 C 706.4 494.0 707.0 493.4 707.0 493.1 L 707.0 491.2 C 707.0 491.0 706.4 491.0 706.1 491.0 L 581.1 491.0 C 580.8 491.0 580.6 491.0 580.6 491.2 Z M 580.6 491.2 " fill="#FFFFFF"></path><path d="M 715.0 540.0 L 720.0 540.0 L 720.0 491.0 L 715.0 491.0 Z M 715.4 540.2 " fill="#FFFFFF" fill-opacity="0.65"></path><path d="M 712.0 540.0 L 714.0 540.0 L 714.0 491.0 L 712.0 491.0 Z M 712.2 540.2 " fill="#FFFFFF" fill-opacity="0.65"></path><path d="M 711.0 540.0 L 711.0 540.0 L 711.0 491.0 L 711.0 491.0 Z M 710.7 540.2 " fill="#FFFFFF" fill-opacity="0.60"></path><path d="M 707.0 540.0 L 709.0 540.0 L 709.0 491.0 L 707.0 491.0 Z M 706.7 540.2 " fill="#FFFFFF" fill-opacity="0.40"></path><path d="M 702.0 540.0 L 706.0 540.0 L 706.0 494.0 L 702.0 494.0 Z M 702.0 540.0 " fill="#FFFFFF" fill-opacity="0.20"></path><path d="M 699.0 540.0 L 699.0 540.0 L 699.0 494.0 L 699.0 494.0 Z M 698.7 540.0 " fill="#FFFFFF" fill-opacity="0.30"></path><text xml:space="preserve" font-family="TrebuchetMS-Bold,Trebuchet MS" font-weight="bold" font-size="34.0" fill="#212744" transform="matrix(1.00, 0.00, -0.00, -1.00, 89.8, 458.7)">P</text><text xml:space="preserve" font-family="TrebuchetMS-Bold,Trebuchet MS" font-weight="bold" font-size="34.0" fill="#212744" transform="matrix(1.00, 0.00, -0.00, -1.00, 109.8, 458.7)">r</text><text xml:space="preserve" font-family="TrebuchetMS-Bold,Trebuchet MS" font-weight="bold" font-size="34.0" fill="#212744" transform="matrix(1.00, 0.00, -0.00, -1.00, 124.3, 458.7)">o</text><text xml:space="preserve" font-family="TrebuchetMS-Bold,Trebuchet MS" font-weight="bold" font-size="34.0" fill="#212744" transform="matrix(1.00, 0.00, -0.00, -1.00, 143.5, 458.7)">b</text><text xml:space="preserve" font-family="TrebuchetMS-Bold,Trebuchet MS" font-weight="bold" font-size="34.0" fill="#212744" transform="matrix(1.00, 0.00, -0.00, -1.00, 163.3, 458.7)">e</text><text xml:space="preserve" font-family="TrebuchetMS-Bold,Trebuchet MS" font-weight="bold" font-size="34.0" fill="#212744" transform="matrix(1.00, 0.00, -0.00, -1.00, 182.8, 458.7)"> </text><text xml:space="preserve" font-family="TrebuchetMS-Bold,Trebuchet MS" font-weight="bold" font-size="34.0" fill="#212744" transform="matrix(1.00, 0.00, -0.00, -1.00, 193.1, 458.7)">S</text><text xml:space="preserve" font-family="TrebuchetMS-Bold,Trebuchet MS" font-weight="bold" font-size="34.0" fill="#212744" transform="matrix(1.00, 0.00, -0.00, -1.00, 210.5, 458.7)">t</text><text xml:space="preserve" font-family="TrebuchetMS-Bold,Trebuchet MS" font-weight="bold" font-size="34.0" fill="#212744" transform="matrix(1.00, 0.00, -0.00, -1.00, 224.0, 458.7)">a</text><text xml:space="preserve" font-family="TrebuchetMS-Bold,Trebuchet MS" font-weight="bold" font-size="34.0" fill="#212744" transform="matrix(1.00, 0.00, -0.00, -1.00, 242.1, 458.7)">t</text><text xml:space="preserve" font-family="TrebuchetMS-Bold,Trebuchet MS" font-weight="bold" font-size="34.0" fill="#212744" transform="matrix(1.00, 0.00, -0.00, -1.00, 255.6, 458.7)">i</text><text xml:space="preserve" font-family="TrebuchetMS-Bold,Trebuchet MS" font-weight="bold" font-size="34.0" fill="#212744" transform="matrix(1.00, 0.00, -0.00, -1.00, 265.7, 458.7)">o</text><text xml:space="preserve" font-family="TrebuchetMS-Bold,Trebuchet MS" font-weight="bold" font-size="34.0" fill="#212744" transform="matrix(1.00, 0.00, -0.00, -1.00, 285.0, 458.7)">n</text><text xml:space="preserve" font-family="TrebuchetMS-Bold,Trebuchet MS" font-weight="bold" font-size="34.0" fill="#212744" transform="matrix(1.00, 0.00, -0.00, -1.00, 305.0, 458.7)"> </text><text xml:space="preserve" font-family="Georgia,Georgia" font-size="20.0" fill="#000000" transform="matrix(1.00, 0.00, -0.00, -1.00, 79.3, 84.4)">1</text><text xml:space="preserve" font-family="Georgia,Georgia" font-size="20.0" fill="#000000" transform="matrix(1.00, 0.00, -0.00, -1.00, 87.9, 84.4)">)</text><text xml:space="preserve" font-family="Georgia,Georgia" font-size="20.0" fill="#000000" transform="matrix(1.00, 0.00, -0.00, -1.00, 119.8, 84.4)">C</text><text xml:space="preserve" font-family="Georgia,Georgia" font-size="20.0" fill="#000000" transform="matrix(1.00, 0.00, -0.00, -1.00, 132.6, 84.4)">h</text><text xml:space="preserve" font-family="Georgia,Georgia" font-size="20.0" fill="#000000" transform="matrix(1.00, 0.00, -0.00, -1.00, 144.3, 84.4)">i</text><text xml:space="preserve" font-family="Georgia,Georgia" font-size="20.0" fill="#000000" transform="matrix(1.00, 0.00, -0.00, -1.00, 150.1, 84.4)">p</text><text xml:space="preserve" font-family="Georgia,Georgia" font-size="20.0" fill="#000000" transform="matrix(1.00, 0.00, -0.00, -1.00, 161.6, 84.4)"> </text><text xml:space="preserve" font-family="Georgia,Georgia" font-size="20.0" fill="#000000" transform="matrix(1.00, 0.00, -0.00, -1.00, 166.4, 84.4)">i</text><text xml:space="preserve" font-family="Georgia,Georgia" font-size="20.0" fill="#000000" transform="matrix(1.00, 0.00, -0.00, -1.00, 172.3, 84.4)">s</text><text xml:space="preserve" font-family="Georgia,Georgia" font-size="20.0" fill="#000000" transform="matrix(1.00, 0.00, -0.00, -1.00, 180.9, 84.4)"> </text><text xml:space="preserve" font-family="Georgia,Georgia" font-size="20.0" fill="#000000" transform="matrix(1.00, 0.00, -0.00, -1.00, 185.7, 84.4)">p</text><text xml:space="preserve" font-family="Georgia,Georgia" font-size="20.0" fill="#000000" transform="matrix(1.00, 0.00, -0.00, -1.00, 197.2, 84.4)">l</text><text xml:space="preserve" font-family="Georgia,Georgia" font-size="20.0" fill="#000000" transform="matrix(1.00, 0.00, -0.00, -1.00, 202.9, 84.4)">a</text><text xml:space="preserve" font-family="Georgia,Georgia" font-size="20.0" fill="#000000" transform="matrix(1.00, 0.00, -0.00, -1.00, 213.0, 84.4)">c</text><text xml:space="preserve" font-family="Georgia,Georgia" font-size="20.0" fill="#000000" transform="matrix(1.00, 0.00, -0.00, -1.00, 222.0, 84.4)">e</text><text xml:space="preserve" font-family="Georgia,Georgia" font-size="20.0" fill="#000000" transform="matrix(1.00, 0.00, -0.00, -1.00, 231.7, 84.4)">d</text><text xml:space="preserve" font-family="Georgia,Georgia" font-size="20.0" fill="#000000" transform="matrix(1.00, 0.00, -0.00, -1.00, 243.2, 84.4)"> </text><text xml:space="preserve" font-family="Georgia,Georgia" font-size="20.0" fill="#000000" transform="matrix(1.00, 0.00, -0.00, -1.00, 248.0, 84.4)">i</text><text xml:space="preserve" font-family="Georgia,Georgia" font-size="20.0" fill="#000000" transform="matrix(1.00, 0.00, -0.00, -1.00, 253.9, 84.4)">n</text><text xml:space="preserve" font-family="Georgia,Georgia" font-size="20.0" fill="#000000" transform="matrix(1.00, 0.00, -0.00, -1.00, 265.7, 84.4)"> </text><text xml:space="preserve" font-family="Georgia,Georgia" font-size="20.0" fill="#000000" transform="matrix(1.00, 0.00, -0.00, -1.00, 270.5, 84.4)">t</text><text xml:space="preserve" font-family="Georgia,Georgia" font-size="20.0" fill="#000000" transform="matrix(1.00, 0.00, -0.00, -1.00, 277.4, 84.4)">h</text><text xml:space="preserve" font-family="Georgia,Georgia" font-size="20.0" fill="#000000" transform="matrix(1.00, 0.00, -0.00, -1.00, 289.1, 84.4)">e</text><text xml:space="preserve" font-family="Georgia,Georgia" font-size="20.0" fill="#000000" transform="matrix(1.00, 0.00, -0.00, -1.00, 298.8, 84.4)"> </text><text xml:space="preserve" font-family="Georgia,Georgia" font-size="20.0" fill="#000000" transform="matrix(1.00, 0.00, -0.00, -1.00, 303.6, 84.4)">p</text><text xml:space="preserve" font-family="Georgia,Georgia" font-size="20.0" fill="#000000" transform="matrix(1.00, 0.00, -0.00, -1.00, 315.0, 84.4)">r</text><text xml:space="preserve" font-family="Georgia,Georgia" font-size="20.0" fill="#000000" transform="matrix(1.00, 0.00, -0.00, -1.00, 323.2, 84.4)">o</text><text xml:space="preserve" font-family="Georgia,Georgia" font-size="20.0" fill="#000000" transform="matrix(1.00, 0.00, -0.00, -1.00, 334.0, 84.4)">b</text><text xml:space="preserve" font-family="Georgia,Georgia" font-size="20.0" fill="#000000" transform="matrix(1.00, 0.00, -0.00, -1.00, 345.2, 84.4)">e</text><text xml:space="preserve" font-family="Georgia,Georgia" font-size="20.0" fill="#000000" transform="matrix(1.00, 0.00, -0.00, -1.00, 354.9, 84.4)"> </text><text xml:space="preserve" font-family="Georgia,Georgia" font-size="20.0" fill="#000000" transform="matrix(1.00, 0.00, -0.00, -1.00, 359.7, 84.4)">s</text><text xml:space="preserve" font-family="Georgia,Georgia" font-size="20.0" fill="#000000" transform="matrix(1.00, 0.00, -0.00, -1.00, 368.3, 84.4)">t</text><text xml:space="preserve" font-family="Georgia,Georgia" font-size="20.0" fill="#000000" transform="matrix(1.00, 0.00, -0.00, -1.00, 375.3, 84.4)">a</text><text xml:space="preserve" font-family="Georgia,Georgia" font-size="20.0" fill="#000000" transform="matrix(1.00, 0.00, -0.00, -1.00, 385.3, 84.4)">t</text><text xml:space="preserve" font-family="Georgia,Georgia" font-size="20.0" fill="#000000" transform="matrix(1.00, 0.00, -0.00, -1.00, 392.2, 84.4)">i</text><text xml:space="preserve" font-family="Georgia,Georgia" font-size="20.0" fill="#000000" transform="matrix(1.00, 0.00, -0.00, -1.00, 398.1, 84.4)">o</text><text xml:space="preserve" font-family="Georgia,Georgia" font-size="20.0" fill="#000000" transform="matrix(1.00, 0.00, -0.00, -1.00, 408.9, 84.4)">n</text><text xml:space="preserve" font-family="Georgia,Georgia" font-size="20.0" fill="#000000" transform="matrix(1.00, 0.00, -0.00, -1.00, 420.7, 84.4)"> </text><text xml:space="preserve" font-family="Georgia,Georgia" font-size="20.0" fill="#000000" transform="matrix(1.00, 0.00, -0.00, -1.00, 425.5, 84.4)">f</text><text xml:space="preserve" font-family="Georgia,Georgia" font-size="20.0" fill="#000000" transform="matrix(1.00, 0.00, -0.00, -1.00, 432.0, 84.4)">o</text><text xml:space="preserve" font-family="Georgia,Georgia" font-size="20.0" fill="#000000" transform="matrix(1.00, 0.00, -0.00, -1.00, 442.8, 84.4)">r</text><text xml:space="preserve" font-family="Georgia,Georgia" font-size="20.0" fill="#000000" transform="matrix(1.00, 0.00, -0.00, -1.00, 451.0, 84.4)"> </text><text xml:space="preserve" font-family="Georgia,Georgia" font-size="20.0" fill="#000000" transform="matrix(1.00, 0.00, -0.00, -1.00, 455.8, 84.4)">a</text><text xml:space="preserve" font-family="Georgia,Georgia" font-size="20.0" fill="#000000" transform="matrix(1.00, 0.00, -0.00, -1.00, 465.9, 84.4)">n</text><text xml:space="preserve" font-family="Georgia,Georgia" font-size="20.0" fill="#000000" transform="matrix(1.00, 0.00, -0.00, -1.00, 477.7, 84.4)">a</text><text xml:space="preserve" font-family="Georgia,Georgia" font-size="20.0" fill="#000000" transform="matrix(1.00, 0.00, -0.00, -1.00, 487.8, 84.4)">l</text><text xml:space="preserve" font-family="Georgia,Georgia" font-size="20.0" fill="#000000" transform="matrix(1.00, 0.00, -0.00, -1.00, 493.5, 84.4)">y</text><text xml:space="preserve" font-family="Georgia,Georgia" font-size="20.0" fill="#000000" transform="matrix(1.00, 0.00, -0.00, -1.00, 503.4, 84.4)">s</text><text xml:space="preserve" font-family="Georgia,Georgia" font-size="20.0" fill="#000000" transform="matrix(1.00, 0.00, -0.00, -1.00, 512.0, 84.4)">i</text><text xml:space="preserve" font-family="Georgia,Georgia" font-size="20.0" fill="#000000" transform="matrix(1.00, 0.00, -0.00, -1.00, 517.9, 84.4)">s</text><text xml:space="preserve" font-family="Georgia,Georgia" font-size="20.0" fill="#000000" transform="matrix(1.00, 0.00, -0.00, -1.00, 526.5, 84.4)"> </text><text xml:space="preserve" font-family="Georgia,Georgia" font-size="20.0" fill="#000000" transform="matrix(1.00, 0.00, -0.00, -1.00, 79.3, 59.4)">2</text><text xml:space="preserve" font-family="Georgia,Georgia" font-size="20.0" fill="#000000" transform="matrix(1.00, 0.00, -0.00, -1.00, 90.5, 59.4)">)</text><text xml:space="preserve" font-family="Georgia,Georgia" font-size="20.0" fill="#000000" transform="matrix(1.00, 0.00, -0.00, -1.00, 119.8, 59.4)">C</text><text xml:space="preserve" font-family="Georgia,Georgia" font-size="20.0" fill="#000000" transform="matrix(1.00, 0.00, -0.00, -1.00, 132.6, 59.4)">a</text><text xml:space="preserve" font-family="Georgia,Georgia" font-size="20.0" fill="#000000" transform="matrix(1.00, 0.00, -0.00, -1.00, 142.7, 59.4)">m</text><text xml:space="preserve" font-family="Georgia,Georgia" font-size="20.0" fill="#000000" transform="matrix(1.00, 0.00, -0.00, -1.00, 160.3, 59.4)">e</text><text xml:space="preserve" font-family="Georgia,Georgia" font-size="20.0" fill="#000000" transform="matrix(1.00, 0.00, -0.00, -1.00, 170.0, 59.4)">r</text><text xml:space="preserve" font-family="Georgia,Georgia" font-size="20.0" fill="#000000" transform="matrix(1.00, 0.00, -0.00, -1.00, 178.2, 59.4)">a</text><text xml:space="preserve" font-family="Georgia,Georgia" font-size="20.0" fill="#000000" transform="matrix(1.00, 0.00, -0.00, -1.00, 188.3, 59.4)"> </text><text xml:space="preserve" font-family="Georgia,Georgia" font-size="20.0" fill="#000000" transform="matrix(1.00, 0.00, -0.00, -1.00, 193.1, 59.4)">g</text><text xml:space="preserve" font-family="Georgia,Georgia" font-size="20.0" fill="#000000" transform="matrix(1.00, 0.00, -0.00, -1.00, 203.3, 59.4)">e</text><text xml:space="preserve" font-family="Georgia,Georgia" font-size="20.0" fill="#000000" transform="matrix(1.00, 0.00, -0.00, -1.00, 213.0, 59.4)">t</text><text xml:space="preserve" font-family="Georgia,Georgia" font-size="20.0" fill="#000000" transform="matrix(1.00, 0.00, -0.00, -1.00, 219.9, 59.4)"> </text><text xml:space="preserve" font-family="Georgia,Georgia" font-size="20.0" fill="#000000" transform="matrix(1.00, 0.00, -0.00, -1.00, 224.7, 59.4)">i</text><text xml:space="preserve" font-family="Georgia,Georgia" font-size="20.0" fill="#000000" transform="matrix(1.00, 0.00, -0.00, -1.00, 230.6, 59.4)">m</text><text xml:space="preserve" font-family="Georgia,Georgia" font-size="20.0" fill="#000000" transform="matrix(1.00, 0.00, -0.00, -1.00, 248.2, 59.4)">a</text><text xml:space="preserve" font-family="Georgia,Georgia" font-size="20.0" fill="#000000" transform="matrix(1.00, 0.00, -0.00, -1.00, 258.2, 59.4)">g</text><text xml:space="preserve" font-family="Georgia,Georgia" font-size="20.0" fill="#000000" transform="matrix(1.00, 0.00, -0.00, -1.00, 268.4, 59.4)">e</text><text xml:space="preserve" font-family="Georgia,Georgia" font-size="20.0" fill="#000000" transform="matrix(1.00, 0.00, -0.00, -1.00, 278.1, 59.4)"> </text><text xml:space="preserve" font-family="Georgia,Georgia" font-size="20.0" fill="#000000" transform="matrix(1.00, 0.00, -0.00, -1.00, 282.9, 59.4)">f</text><text xml:space="preserve" font-family="Georgia,Georgia" font-size="20.0" fill="#000000" transform="matrix(1.00, 0.00, -0.00, -1.00, 289.5, 59.4)">r</text><text xml:space="preserve" font-family="Georgia,Georgia" font-size="20.0" fill="#000000" transform="matrix(1.00, 0.00, -0.00, -1.00, 297.6, 59.4)">o</text><text xml:space="preserve" font-family="Georgia,Georgia" font-size="20.0" fill="#000000" transform="matrix(1.00, 0.00, -0.00, -1.00, 308.4, 59.4)">m</text><text xml:space="preserve" font-family="Georgia,Georgia" font-size="20.0" fill="#000000" transform="matrix(1.00, 0.00, -0.00, -1.00, 326.0, 59.4)"> </text><text xml:space="preserve" font-family="Georgia,Georgia" font-size="20.0" fill="#000000" transform="matrix(1.00, 0.00, -0.00, -1.00, 330.9, 59.4)">t</text><text xml:space="preserve" font-family="Georgia,Georgia" font-size="20.0" fill="#000000" transform="matrix(1.00, 0.00, -0.00, -1.00, 337.8, 59.4)">h</text><text xml:space="preserve" font-family="Georgia,Georgia" font-size="20.0" fill="#000000" transform="matrix(1.00, 0.00, -0.00, -1.00, 349.4, 59.4)">e</text><text xml:space="preserve" font-family="Georgia,Georgia" font-size="20.0" fill="#000000" transform="matrix(1.00, 0.00, -0.00, -1.00, 359.1, 59.4)"> </text><text xml:space="preserve" font-family="Georgia,Georgia" font-size="20.0" fill="#000000" transform="matrix(1.00, 0.00, -0.00, -1.00, 363.9, 59.4)">m</text><text xml:space="preserve" font-family="Georgia,Georgia" font-size="20.0" fill="#000000" transform="matrix(1.00, 0.00, -0.00, -1.00, 381.5, 59.4)">i</text><text xml:space="preserve" font-family="Georgia,Georgia" font-size="20.0" fill="#000000" transform="matrix(1.00, 0.00, -0.00, -1.00, 387.4, 59.4)">c</text><text xml:space="preserve" font-family="Georgia,Georgia" font-size="20.0" fill="#000000" transform="matrix(1.00, 0.00, -0.00, -1.00, 396.5, 59.4)">r</text><text xml:space="preserve" font-family="Georgia,Georgia" font-size="20.0" fill="#000000" transform="matrix(1.00, 0.00, -0.00, -1.00, 404.7, 59.4)">o</text><text xml:space="preserve" font-family="Georgia,Georgia" font-size="20.0" fill="#000000" transform="matrix(1.00, 0.00, -0.00, -1.00, 415.4, 59.4)">s</text><text xml:space="preserve" font-family="Georgia,Georgia" font-size="20.0" fill="#000000" transform="matrix(1.00, 0.00, -0.00, -1.00, 424.1, 59.4)">c</text><text xml:space="preserve" font-family="Georgia,Georgia" font-size="20.0" fill="#000000" transform="matrix(1.00, 0.00, -0.00, -1.00, 433.2, 59.4)">o</text><text xml:space="preserve" font-family="Georgia,Georgia" font-size="20.0" fill="#000000" transform="matrix(1.00, 0.00, -0.00, -1.00, 444.0, 59.4)">p</text><text xml:space="preserve" font-family="Georgia,Georgia" font-size="20.0" fill="#000000" transform="matrix(1.00, 0.00, -0.00, -1.00, 455.4, 59.4)">e</text><text xml:space="preserve" font-family="Georgia,Georgia" font-size="20.0" fill="#000000" transform="matrix(1.00, 0.00, -0.00, -1.00, 465.1, 59.4)"> </text><text xml:space="preserve" font-family="Georgia,Georgia" font-size="20.0" fill="#000000" transform="matrix(1.00, 0.00, -0.00, -1.00, 79.3, 34.4)">3</text><text xml:space="preserve" font-family="Georgia,Georgia" font-size="20.0" fill="#000000" transform="matrix(1.00, 0.00, -0.00, -1.00, 90.3, 34.4)">)</text><text xml:space="preserve" font-family="Georgia,Georgia" font-size="20.0" fill="#000000" transform="matrix(1.00, 0.00, -0.00, -1.00, 119.8, 34.4)">C</text><text xml:space="preserve" font-family="Georgia,Georgia" font-size="20.0" fill="#000000" transform="matrix(1.00, 0.00, -0.00, -1.00, 132.6, 34.4)">o</text><text xml:space="preserve" font-family="Georgia,Georgia" font-size="20.0" fill="#000000" transform="matrix(1.00, 0.00, -0.00, -1.00, 143.4, 34.4)">m</text><text xml:space="preserve" font-family="Georgia,Georgia" font-size="20.0" fill="#000000" transform="matrix(1.00, 0.00, -0.00, -1.00, 161.0, 34.4)">p</text><text xml:space="preserve" font-family="Georgia,Georgia" font-size="20.0" fill="#000000" transform="matrix(1.00, 0.00, -0.00, -1.00, 172.5, 34.4)">u</text><text xml:space="preserve" font-family="Georgia,Georgia" font-size="20.0" fill="#000000" transform="matrix(1.00, 0.00, -0.00, -1.00, 184.0, 34.4)">t</text><text xml:space="preserve" font-family="Georgia,Georgia" font-size="20.0" fill="#000000" transform="matrix(1.00, 0.00, -0.00, -1.00, 190.9, 34.4)">e</text><text xml:space="preserve" font-family="Georgia,Georgia" font-size="20.0" fill="#000000" transform="matrix(1.00, 0.00, -0.00, -1.00, 200.6, 34.4)">r</text><text xml:space="preserve" font-family="Georgia,Georgia" font-size="20.0" fill="#000000" transform="matrix(1.00, 0.00, -0.00, -1.00, 208.7, 34.4)"> </text><text xml:space="preserve" font-family="Georgia,Georgia" font-size="20.0" fill="#000000" transform="matrix(1.00, 0.00, -0.00, -1.00, 213.6, 34.4)">p</text><text xml:space="preserve" font-family="Georgia,Georgia" font-size="20.0" fill="#000000" transform="matrix(1.00, 0.00, -0.00, -1.00, 225.0, 34.4)">r</text><text xml:space="preserve" font-family="Georgia,Georgia" font-size="20.0" fill="#000000" transform="matrix(1.00, 0.00, -0.00, -1.00, 233.2, 34.4)">o</text><text xml:space="preserve" font-family="Georgia,Georgia" font-size="20.0" fill="#000000" transform="matrix(1.00, 0.00, -0.00, -1.00, 244.0, 34.4)">c</text><text xml:space="preserve" font-family="Georgia,Georgia" font-size="20.0" fill="#000000" transform="matrix(1.00, 0.00, -0.00, -1.00, 253.1, 34.4)">e</text><text xml:space="preserve" font-family="Georgia,Georgia" font-size="20.0" fill="#000000" transform="matrix(1.00, 0.00, -0.00, -1.00, 262.7, 34.4)">s</text><text xml:space="preserve" font-family="Georgia,Georgia" font-size="20.0" fill="#000000" transform="matrix(1.00, 0.00, -0.00, -1.00, 271.4, 34.4)">s</text><text xml:space="preserve" font-family="Georgia,Georgia" font-size="20.0" fill="#000000" transform="matrix(1.00, 0.00, -0.00, -1.00, 280.0, 34.4)"> </text><text xml:space="preserve" font-family="Georgia,Georgia" font-size="20.0" fill="#000000" transform="matrix(1.00, 0.00, -0.00, -1.00, 284.9, 34.4)">t</text><text xml:space="preserve" font-family="Georgia,Georgia" font-size="20.0" fill="#000000" transform="matrix(1.00, 0.00, -0.00, -1.00, 291.8, 34.4)">h</text><text xml:space="preserve" font-family="Georgia,Georgia" font-size="20.0" fill="#000000" transform="matrix(1.00, 0.00, -0.00, -1.00, 303.4, 34.4)">e</text><text xml:space="preserve" font-family="Georgia,Georgia" font-size="20.0" fill="#000000" transform="matrix(1.00, 0.00, -0.00, -1.00, 313.1, 34.4)"> </text><text xml:space="preserve" font-family="Georgia,Georgia" font-size="20.0" fill="#000000" transform="matrix(1.00, 0.00, -0.00, -1.00, 317.9, 34.4)">i</text><text xml:space="preserve" font-family="Georgia,Georgia" font-size="20.0" fill="#000000" transform="matrix(1.00, 0.00, -0.00, -1.00, 323.8, 34.4)">m</text><text xml:space="preserve" font-family="Georgia,Georgia" font-size="20.0" fill="#000000" transform="matrix(1.00, 0.00, -0.00, -1.00, 341.4, 34.4)">a</text><text xml:space="preserve" font-family="Georgia,Georgia" font-size="20.0" fill="#000000" transform="matrix(1.00, 0.00, -0.00, -1.00, 351.5, 34.4)">g</text><text xml:space="preserve" font-family="Georgia,Georgia" font-size="20.0" fill="#000000" transform="matrix(1.00, 0.00, -0.00, -1.00, 361.6, 34.4)">e</text><text xml:space="preserve" font-family="Georgia,Georgia" font-size="20.0" fill="#000000" transform="matrix(1.00, 0.00, -0.00, -1.00, 371.3, 34.4)"> </text><text xml:space="preserve" font-family="Georgia,Georgia" font-size="20.0" fill="#000000" transform="matrix(1.00, 0.00, -0.00, -1.00, 376.2, 34.4)">a</text><text xml:space="preserve" font-family="Georgia,Georgia" font-size="20.0" fill="#000000" transform="matrix(1.00, 0.00, -0.00, -1.00, 386.2, 34.4)">n</text><text xml:space="preserve" font-family="Georgia,Georgia" font-size="20.0" fill="#000000" transform="matrix(1.00, 0.00, -0.00, -1.00, 398.0, 34.4)">d</text><text xml:space="preserve" font-family="Georgia,Georgia" font-size="20.0" fill="#000000" transform="matrix(1.00, 0.00, -0.00, -1.00, 409.5, 34.4)"> </text><text xml:space="preserve" font-family="Georgia,Georgia" font-size="20.0" fill="#000000" transform="matrix(1.00, 0.00, -0.00, -1.00, 414.4, 34.4)">c</text><text xml:space="preserve" font-family="Georgia,Georgia" font-size="20.0" fill="#000000" transform="matrix(1.00, 0.00, -0.00, -1.00, 423.4, 34.4)">a</text><text xml:space="preserve" font-family="Georgia,Georgia" font-size="20.0" fill="#000000" transform="matrix(1.00, 0.00, -0.00, -1.00, 433.5, 34.4)">l</text><text xml:space="preserve" font-family="Georgia,Georgia" font-size="20.0" fill="#000000" transform="matrix(1.00, 0.00, -0.00, -1.00, 439.2, 34.4)">c</text><text xml:space="preserve" font-family="Georgia,Georgia" font-size="20.0" fill="#000000" transform="matrix(1.00, 0.00, -0.00, -1.00, 448.3, 34.4)">u</text><text xml:space="preserve" font-family="Georgia,Georgia" font-size="20.0" fill="#000000" transform="matrix(1.00, 0.00, -0.00, -1.00, 459.8, 34.4)">l</text><text xml:space="preserve" font-family="Georgia,Georgia" font-size="20.0" fill="#000000" transform="matrix(1.00, 0.00, -0.00, -1.00, 465.6, 34.4)">a</text><text xml:space="preserve" font-family="Georgia,Georgia" font-size="20.0" fill="#000000" transform="matrix(1.00, 0.00, -0.00, -1.00, 475.6, 34.4)">t</text><text xml:space="preserve" font-family="Georgia,Georgia" font-size="20.0" fill="#000000" transform="matrix(1.00, 0.00, -0.00, -1.00, 482.5, 34.4)">e</text><text xml:space="preserve" font-family="Georgia,Georgia" font-size="20.0" fill="#000000" transform="matrix(1.00, 0.00, -0.00, -1.00, 492.2, 34.4)"> </text><text xml:space="preserve" font-family="Georgia,Georgia" font-size="20.0" fill="#000000" transform="matrix(1.00, 0.00, -0.00, -1.00, 497.0, 34.4)">t</text><text xml:space="preserve" font-family="Georgia,Georgia" font-size="20.0" fill="#000000" transform="matrix(1.00, 0.00, -0.00, -1.00, 504.0, 34.4)">h</text><text xml:space="preserve" font-family="Georgia,Georgia" font-size="20.0" fill="#000000" transform="matrix(1.00, 0.00, -0.00, -1.00, 515.6, 34.4)">e</text><text xml:space="preserve" font-family="Georgia,Georgia" font-size="20.0" fill="#000000" transform="matrix(1.00, 0.00, -0.00, -1.00, 525.3, 34.4)"> </text><text xml:space="preserve" font-family="Georgia,Georgia" font-size="20.0" fill="#000000" transform="matrix(1.00, 0.00, -0.00, -1.00, 530.1, 34.4)">d</text><text xml:space="preserve" font-family="Georgia,Georgia" font-size="20.0" fill="#000000" transform="matrix(1.00, 0.00, -0.00, -1.00, 541.6, 34.4)">i</text><text xml:space="preserve" font-family="Georgia,Georgia" font-size="20.0" fill="#000000" transform="matrix(1.00, 0.00, -0.00, -1.00, 547.4, 34.4)">s</text><text xml:space="preserve" font-family="Georgia,Georgia" font-size="20.0" fill="#000000" transform="matrix(1.00, 0.00, -0.00, -1.00, 556.1, 34.4)">p</text><text xml:space="preserve" font-family="Georgia,Georgia" font-size="20.0" fill="#000000" transform="matrix(1.00, 0.00, -0.00, -1.00, 567.5, 34.4)">l</text><text xml:space="preserve" font-family="Georgia,Georgia" font-size="20.0" fill="#000000" transform="matrix(1.00, 0.00, -0.00, -1.00, 573.2, 34.4)">a</text><text xml:space="preserve" font-family="Georgia,Georgia" font-size="20.0" fill="#000000" transform="matrix(1.00, 0.00, -0.00, -1.00, 583.3, 34.4)">c</text><text xml:space="preserve" font-family="Georgia,Georgia" font-size="20.0" fill="#000000" transform="matrix(1.00, 0.00, -0.00, -1.00, 592.4, 34.4)">e</text><text xml:space="preserve" font-family="Georgia,Georgia" font-size="20.0" fill="#000000" transform="matrix(1.00, 0.00, -0.00, -1.00, 602.1, 34.4)">m</text><text xml:space="preserve" font-family="Georgia,Georgia" font-size="20.0" fill="#000000" transform="matrix(1.00, 0.00, -0.00, -1.00, 619.7, 34.4)">e</text><text xml:space="preserve" font-family="Georgia,Georgia" font-size="20.0" fill="#000000" transform="matrix(1.00, 0.00, -0.00, -1.00, 629.4, 34.4)">n</text><text xml:space="preserve" font-family="Georgia,Georgia" font-size="20.0" fill="#000000" transform="matrix(1.00, 0.00, -0.00, -1.00, 641.2, 34.4)">t</text><text xml:space="preserve" font-family="Georgia,Georgia" font-size="20.0" fill="#000000" transform="matrix(1.00, 0.00, -0.00, -1.00, 648.1, 34.4)"> </text><g><clipPath id="clip0x600000ebd6a0"><path d="M 138.9 138.9 L 609.5 138.9 L 609.5 383.4 L 138.9 383.4 Z M 138.9 138.9 "></path></clipPath><g clip-path="url(#clip0x600000ebd6a0)"><image xlink:href="1F8419878413DEB60F1BCA85E318804C.png" width="509.00" height="289.00" transform="matrix(0.92, 0.00, -0.00, -0.84, 139.0, 383.0)"></image></g></g><g><clipPath id="clip0x600000ebd820"><path d="M 381.5 353.6 L 470.4 353.6 L 470.4 387.0 L 381.5 387.0 Z M 381.5 353.6 "></path></clipPath><g clip-path="url(#clip0x600000ebd820)"><text xml:space="preserve" font-family="Georgia-Bold,Georgia" font-weight="bold" font-size="20.0" fill="#FF0000" transform="matrix(1.00, 0.00, -0.00, -1.00, 387.2, 363.7)">c</text><text xml:space="preserve" font-family="Georgia-Bold,Georgia" font-weight="bold" font-size="20.0" fill="#FF0000" transform="matrix(1.00, 0.00, -0.00, -1.00, 397.8, 363.7)">a</text><text xml:space="preserve" font-family="Georgia-Bold,Georgia" font-weight="bold" font-size="20.0" fill="#FF0000" transform="matrix(1.00, 0.00, -0.00, -1.00, 409.7, 363.7)">m</text><text xml:space="preserve" font-family="Georgia-Bold,Georgia" font-weight="bold" font-size="20.0" fill="#FF0000" transform="matrix(1.00, 0.00, -0.00, -1.00, 430.0, 363.7)">e</text><text xml:space="preserve" font-family="Georgia-Bold,Georgia" font-weight="bold" font-size="20.0" fill="#FF0000" transform="matrix(1.00, 0.00, -0.00, -1.00, 441.4, 363.7)">r</text><text xml:space="preserve" font-family="Georgia-Bold,Georgia" font-weight="bold" font-size="20.0" fill="#FF0000" transform="matrix(1.00, 0.00, -0.00, -1.00, 451.8, 363.7)">a</text></g></g><g><clipPath id="clip0x600000ebdd00"><path d="M 378.4 146.8 L 435.2 146.8 L 435.2 180.1 L 378.4 180.1 Z M 378.4 146.8 "></path></clipPath><g clip-path="url(#clip0x600000ebdd00)"><text xml:space="preserve" font-family="Georgia-Bold,Georgia" font-weight="bold" font-size="20.0" fill="#FF0000" transform="matrix(1.00, 0.00, -0.00, -1.00, 384.1, 156.8)">c</text><text xml:space="preserve" font-family="Georgia-Bold,Georgia" font-weight="bold" font-size="20.0" fill="#FF0000" transform="matrix(1.00, 0.00, -0.00, -1.00, 394.8, 156.8)">h</text><text xml:space="preserve" font-family="Georgia-Bold,Georgia" font-weight="bold" font-size="20.0" fill="#FF0000" transform="matrix(1.00, 0.00, -0.00, -1.00, 408.3, 156.8)">i</text><text xml:space="preserve" font-family="Georgia-Bold,Georgia" font-weight="bold" font-size="20.0" fill="#FF0000" transform="matrix(1.00, 0.00, -0.00, -1.00, 415.4, 156.8)">p</text></g></g><g><clipPath id="clip0x600000ebe060"><path d="M 148.1 323.2 L 249.4 323.2 L 249.4 354.4 L 148.1 354.4 Z M 148.1 323.2 "></path></clipPath><g clip-path="url(#clip0x600000ebe060)"><text xml:space="preserve" font-family="Georgia-Bold,Georgia" font-weight="bold" font-size="18.0" fill="#FF0000" transform="matrix(1.00, 0.00, -0.00, -1.00, 153.2, 332.3)">c</text><text xml:space="preserve" font-family="Georgia-Bold,Georgia" font-weight="bold" font-size="18.0" fill="#FF0000" transform="matrix(1.00, 0.00, -0.00, -1.00, 162.8, 332.3)">o</text><text xml:space="preserve" font-family="Georgia-Bold,Georgia" font-weight="bold" font-size="18.0" fill="#FF0000" transform="matrix(1.00, 0.00, -0.00, -1.00, 174.2, 332.3)">m</text><text xml:space="preserve" font-family="Georgia-Bold,Georgia" font-weight="bold" font-size="18.0" fill="#FF0000" transform="matrix(1.00, 0.00, -0.00, -1.00, 192.5, 332.3)">p</text><text xml:space="preserve" font-family="Georgia-Bold,Georgia" font-weight="bold" font-size="18.0" fill="#FF0000" transform="matrix(1.00, 0.00, -0.00, -1.00, 204.3, 332.3)">u</text><text xml:space="preserve" font-family="Georgia-Bold,Georgia" font-weight="bold" font-size="18.0" fill="#FF0000" transform="matrix(1.00, 0.00, -0.00, -1.00, 216.5, 332.3)">t</text><text xml:space="preserve" font-family="Georgia-Bold,Georgia" font-weight="bold" font-size="18.0" fill="#FF0000" transform="matrix(1.00, 0.00, -0.00, -1.00, 223.6, 332.3)">e</text><text xml:space="preserve" font-family="Georgia-Bold,Georgia" font-weight="bold" font-size="18.0" fill="#FF0000" transform="matrix(1.00, 0.00, -0.00, -1.00, 233.9, 332.3)">r</text></g></g><g><clipPath id="clip0x600000ebe540"><path d="M 458.9 377.0 L 497.2 369.5 L 494.3 354.6 L 456.0 362.2 Z M 458.9 377.0 "></path></clipPath><g clip-path="url(#clip0x600000ebe540)"><path d="M 0.0 0.0 L 29.8 0.0 L 30.9 0.0 " fill="none" stroke="#FF0000" stroke-width="2.25" stroke-linejoin="bevel" transform="matrix(0.98, -0.19, -0.19, -0.98, 458.4, 369.4)"></path><path d="M 494.8 362.2 L 485.3 370.6 L 485.3 370.6 C 484.7 371.1 483.7 371.1 483.2 370.5 C 482.7 369.9 482.7 368.9 483.3 368.4 L 489.1 363.4 L 481.9 360.9 L 481.9 360.9 C 481.1 360.6 480.7 359.8 481.0 359.0 C 481.2 358.2 482.1 357.8 482.8 358.1 C 482.8 358.1 482.8 358.1 482.8 358.1 Z M 494.8 362.2 " fill="#FF0000"></path></g></g><g><clipPath id="clip0x600000ebe840"><path d="M 423.9 170.6 L 474.1 195.2 L 480.8 181.7 L 430.6 157.0 Z M 423.9 170.6 "></path></clipPath><g clip-path="url(#clip0x600000ebe840)"><path d="M 0.0 0.0 L 46.7 0.0 L 47.8 0.0 " fill="none" stroke="#FF0000" stroke-width="2.25" stroke-linejoin="bevel" transform="matrix(0.90, 0.44, 0.44, -0.90, 428.1, 164.2)"></path><path d="M 476.6 188.0 L 464.0 188.9 L 464.0 188.9 C 463.2 189.0 462.5 188.3 462.4 187.5 C 462.4 186.7 463.0 186.0 463.8 186.0 L 471.4 185.4 L 467.1 179.1 L 467.1 179.1 C 466.7 178.4 466.9 177.5 467.6 177.1 C 468.2 176.6 469.1 176.8 469.6 177.5 C 469.6 177.5 469.6 177.5 469.6 177.5 Z M 476.6 188.0 " fill="#FF0000"></path></g></g><g><clipPath id="clip0x600000ebeb40"><path d="M 182.5 304.3 L 197.7 304.3 L 197.7 328.4 L 182.5 328.4 Z M 182.5 304.3 "></path></clipPath><g clip-path="url(#clip0x600000ebeb40)"><path d="M 0.4 0.1 L 14.8 0.1 L 16.4 0.1 " fill="none" stroke="#FF0000" stroke-width="2.00" stroke-linejoin="bevel" transform="matrix(0.00, -1.00, -1.00, 0.00, 190.1, 327.4)"></path><path d="M 190.0 304.9 L 196.4 315.8 L 196.4 315.8 C 196.8 316.5 196.5 317.4 195.8 317.8 C 195.1 318.2 194.2 318.0 193.8 317.3 L 190.0 310.7 L 186.2 317.3 L 186.2 317.3 C 185.8 318.0 184.9 318.2 184.2 317.8 C 183.5 317.4 183.2 316.5 183.6 315.8 C 183.6 315.8 183.6 315.8 183.6 315.8 Z M 190.0 304.9 " fill="#FF0000"></path></g></g></g></svg>