<?xml version="1.0" encoding="UTF-8"?><svg xmlns="http://www.w3.org/2000/svg" xmlns:xlink="http://www.w3.org/1999/xlink" clip-rule="evenodd" stroke-miterlimit="10" viewBox="0 0 720 540"><desc>SVG generated by Keynote</desc><defs></defs><g transform="matrix(1.00, 0.00, -0.00, -1.00, 0.0, 540.0)"><path d="M 0.0 0.0 L 720.0 0.0 L 720.0 540.0 L 0.0 540.0 Z M 0.0 0.0 " fill="#FFFFFF"></path><path d="M 0.0 511.0 L 720.0 511.0 L 720.0 504.0 L 0.0 504.0 Z M 0.0 511.1 " fill="#5ECCF3" fill-opacity="0.50"></path><path d="M 0.0 540.0 L 720.0 540.0 L 720.0 516.0 L 0.0 516.0 Z M 0.0 540.0 " fill="#212744"></path><path d="M 0.0 516.0 L 720.0 516.0 L 720.0 509.0 L 0.0 509.0 Z M 0.0 515.7 " fill="#5ECCF3"></path><path d="M 426.0 504.0 L 720.0 504.0 L 720.0 512.0 L 426.0 512.0 Z M 426.0 504.5 " fill="#5ECCF3"></path><path d="M 426.0 491.0 L 720.0 491.0 L 720.0 505.0 L 426.0 505.0 Z M 426.0 491.2 " fill="#5ECCF3" fill-opacity="0.50"></path><path d="M 425.8 499.0 L 426.0 500.5 C 426.0 500.7 425.9 501.0 426.1 501.0 L 666.6 501.0 C 666.8 501.0 667.0 500.7 667.0 500.5 L 667.0 499.0 C 667.0 498.8 666.8 499.0 666.6 499.0 L 426.1 499.0 C 425.9 499.0 425.8 498.8 425.8 499.0 Z M 425.8 499.0 " fill="#FFFFFF"></path><path d="M 580.6 491.2 L 581.0 493.1 C 581.0 493.4 580.8 494.0 581.1 494.0 L 706.1 494.0 C 706.4 494.0 707.0 493.4 707.0 493.1 L 707.0 491.2 C 707.0 491.0 706.4 491.0 706.1 491.0 L 581.1 491.0 C 580.8 491.0 580.6 491.0 580.6 491.2 Z M 580.6 491.2 " fill="#FFFFFF"></path><path d="M 715.0 540.0 L 720.0 540.0 L 720.0 491.0 L 715.0 491.0 Z M 715.4 540.2 " fill="#FFFFFF" fill-opacity="0.65"></path><path d="M 712.0 540.0 L 714.0 540.0 L 714.0 491.0 L 712.0 491.0 Z M 712.2 540.2 " fill="#FFFFFF" fill-opacity="0.65"></path><path d="M 711.0 540.0 L 711.0 540.0 L 711.0 491.0 L 711.0 491.0 Z M 710.7 540.2 " fill="#FFFFFF" fill-opacity="0.60"></path><path d="M 707.0 540.0 L 709.0 540.0 L 709.0 491.0 L 707.0 491.0 Z M 706.7 540.2 " fill="#FFFFFF" fill-opacity="0.40"></path><path d="M 702.0 540.0 L 706.0 540.0 L 706.0 494.0 L 702.0 494.0 Z M 702.0 540.0 " fill="#FFFFFF" fill-opacity="0.20"></path><path d="M 699.0 540.0 L 699.0 540.0 L 699.0 494.0 L 699.0 494.0 Z M 698.7 540.0 " fill="#FFFFFF" fill-opacity="0.30"></path><text xml:space="preserve" font-family="TrebuchetMS-Bold,Trebuchet MS" font-weight="bold" font-size="44.0" fill="#212744" transform="matrix(1.00, 0.00, -0.00, -1.00, 276.8, 395.3)">T</text><text xml:space="preserve" font-family="TrebuchetMS-Bold,Trebuchet MS" font-weight="bold" font-size="44.0" fill="#212744" transform="matrix(1.00, 0.00, -0.00, -1.00, 303.7, 395.3)">h</text><text xml:space="preserve" font-family="TrebuchetMS-Bold,Trebuchet MS" font-weight="bold" font-size="44.0" fill="#212744" transform="matrix(1.00, 0.00, -0.00, -1.00, 329.8, 395.3)">e</text><text xml:space="preserve" font-family="TrebuchetMS-Bold,Trebuchet MS" font-weight="bold" font-size="44.0" fill="#212744" transform="matrix(1.00, 0.00, -0.00, -1.00, 355.0, 395.3)"> </text><text xml:space="preserve" font-family="TrebuchetMS-Bold,Trebuchet MS" font-weight="bold" font-size="44.0" fill="#212744" transform="matrix(1.00, 0.00, -0.00, -1.00, 368.3, 395.3)">E</text><text xml:space="preserve" font-family="TrebuchetMS-Bold,Trebuchet MS" font-weight="bold" font-size="44.0" fill="#212744" transform="matrix(1.00, 0.00, -0.00, -1.00, 393.3, 395.3)">n</text><text xml:space="preserve" font-family="TrebuchetMS-Bold,Trebuchet MS" font-weight="bold" font-size="44.0" fill="#212744" transform="matrix(1.00, 0.00, -0.00, -1.00, 419.4, 395.3)">d</text><text xml:space="preserve" font-family="TrebuchetMS-Bold,Trebuchet MS" font-weight="bold" font-size="44.0" fill="#212744" transform="matrix(1.00, 0.00, -0.00, -1.00, 444.9, 395.3)"> </text><text xml:space="preserve" font-family="TrebuchetMS-Bold,Trebuchet MS" font-weight="bold" font-size="32.0" fill="#212744" transform="matrix(1.00, 0.00, -0.00, -1.00, 225.8, 315.6)">A</text><text xml:space="preserve" font-family="TrebuchetMS-Bold,Trebuchet MS" font-weight="bold" font-size="32.0" fill="#212744" transform="matrix(1.00, 0.00, -0.00, -1.00, 246.1, 315.6)">c</text><text xml:space="preserve" font-family="TrebuchetMS-Bold,Trebuchet MS" font-weight="bold" font-size="32.0" fill="#212744" transform="matrix(1.00, 0.00, -0.00, -1.00, 262.5, 315.6)">k</text><text xml:space="preserve" font-family="TrebuchetMS-Bold,Trebuchet MS" font-weight="bold" font-size="32.0" fill="#212744" transform="matrix(1.00, 0.00, -0.00, -1.00, 280.0, 315.6)">n</text><text xml:space="preserve" font-family="TrebuchetMS-Bold,Trebuchet MS" font-weight="bold" font-size="32.0" fill="#212744" transform="matrix(1.00, 0.00, -0.00, -1.00, 298.9, 315.6)">o</text><text xml:space="preserve" font-family="TrebuchetMS-Bold,Trebuchet MS" font-weight="bold" font-size="32.0" fill="#212744" transform="matrix(1.00, 0.00, -0.00, -1.00, 317.0, 315.6)">w</text><text xml:space="preserve" font-family="TrebuchetMS-Bold,Trebuchet MS" font-weight="bold" font-size="32.0" fill="#212744" transform="matrix(1.00, 0.00, -0.00, -1.00, 342.1, 315.6)">l</text><text xml:space="preserve" font-family="TrebuchetMS-Bold,Trebuchet MS" font-weight="bold" font-size="32.0" fill="#212744" transform="matrix(1.00, 0.00, -0.00, -1.00, 351.5, 315.6)">e</text><text xml:space="preserve" font-family="TrebuchetMS-Bold,Trebuchet MS" font-weight="bold" font-size="32.0" fill="#212744" transform="matrix(1.00, 0.00, -0.00, -1.00, 369.9, 315.6)">d</text><text xml:space="preserve" font-family="TrebuchetMS-Bold,Trebuchet MS" font-weight="bold" font-size="32.0" fill="#212744" transform="matrix(1.00, 0.00, -0.00, -1.00, 388.5, 315.6)">g</text><text xml:space="preserve" font-family="TrebuchetMS-Bold,Trebuchet MS" font-weight="bold" font-size="32.0" fill="#212744" transform="matrix(1.00, 0.00, -0.00, -1.00, 404.5, 315.6)">m</text><text xml:space="preserve" font-family="TrebuchetMS-Bold,Trebuchet MS" font-weight="bold" font-size="32.0" fill="#212744" transform="matrix(1.00, 0.00, -0.00, -1.00, 432.0, 315.6)">e</text><text xml:space="preserve" font-family="TrebuchetMS-Bold,Trebuchet MS" font-weight="bold" font-size="32.0" fill="#212744" transform="matrix(1.00, 0.00, -0.00, -1.00, 450.4, 315.6)">n</text><text xml:space="preserve" font-family="TrebuchetMS-Bold,Trebuchet MS" font-weight="bold" font-size="32.0" fill="#212744" transform="matrix(1.00, 0.00, -0.00, -1.00, 469.3, 315.6)">t</text><text xml:space="preserve" font-family="TrebuchetMS-Bold,Trebuchet MS" font-weight="bold" font-size="32.0" fill="#212744" transform="matrix(1.00, 0.00, -0.00, -1.00, 482.0, 315.6)">s</text><text xml:space="preserve" font-family="TrebuchetMS-Bold,Trebuchet MS" font-weight="bold" font-size="34.0" fill="#212744" transform="matrix(1.00, 0.00, -0.00, -1.00, 495.8, 315.6)"> </text><text xml:space="preserve" font-family="TrebuchetMS-Bold,Trebuchet MS" font-weight="bold" font-size="18.0" fill="#212744" transform="matrix(1.00, 0.00, -0.00, -1.00, 291.0, 264.7)">D</text><text xml:space="preserve" font-family="TrebuchetMS-Bold,Trebuchet MS" font-weight="bold" font-size="18.0" fill="#212744" transform="matrix(1.00, 0.00, -0.00, -1.00, 302.5, 264.7)">a</text><text xml:space="preserve" font-family="TrebuchetMS-Bold,Trebuchet MS" font-weight="bold" font-size="18.0" fill="#212744" transform="matrix(1.00, 0.00, -0.00, -1.00, 312.1, 264.7)">n</text><text xml:space="preserve" font-family="TrebuchetMS-Bold,Trebuchet MS" font-weight="bold" font-size="18.0" fill="#212744" transform="matrix(1.00, 0.00, -0.00, -1.00, 322.7, 264.7)">i</text><text xml:space="preserve" font-family="TrebuchetMS-Bold,Trebuchet MS" font-weight="bold" font-size="18.0" fill="#212744" transform="matrix(1.00, 0.00, -0.00, -1.00, 328.1, 264.7)">e</text><text xml:space="preserve" font-family="TrebuchetMS-Bold,Trebuchet MS" font-weight="bold" font-size="18.0" fill="#212744" transform="matrix(1.00, 0.00, -0.00, -1.00, 338.5, 264.7)">l</text><text xml:space="preserve" font-family="TrebuchetMS-Bold,Trebuchet MS" font-weight="bold" font-size="18.0" fill="#212744" transform="matrix(1.00, 0.00, -0.00, -1.00, 343.8, 264.7)"> </text><text xml:space="preserve" font-family="TrebuchetMS-Bold,Trebuchet MS" font-weight="bold" font-size="18.0" fill="#212744" transform="matrix(1.00, 0.00, -0.00, -1.00, 349.2, 264.7)">C</text><text xml:space="preserve" font-family="TrebuchetMS-Bold,Trebuchet MS" font-weight="bold" font-size="18.0" fill="#212744" transform="matrix(1.00, 0.00, -0.00, -1.00, 360.2, 264.7)">o</text><text xml:space="preserve" font-family="TrebuchetMS-Bold,Trebuchet MS" font-weight="bold" font-size="18.0" fill="#212744" transform="matrix(1.00, 0.00, -0.00, -1.00, 370.4, 264.7)">n</text><text xml:space="preserve" font-family="TrebuchetMS-Bold,Trebuchet MS" font-weight="bold" font-size="18.0" fill="#212744" transform="matrix(1.00, 0.00, -0.00, -1.00, 381.0, 264.7)">t</text><text xml:space="preserve" font-family="TrebuchetMS-Bold,Trebuchet MS" font-weight="bold" font-size="18.0" fill="#212744" transform="matrix(1.00, 0.00, -0.00, -1.00, 388.2, 264.7)">r</text><text xml:space="preserve" font-family="TrebuchetMS-Bold,Trebuchet MS" font-weight="bold" font-size="18.0" fill="#212744" transform="matrix(1.00, 0.00, -0.00, -1.00, 395.9, 264.7)">e</text><text xml:space="preserve" font-family="TrebuchetMS-Bold,Trebuchet MS" font-weight="bold" font-size="18.0" fill="#212744" transform="matrix(1.00, 0.00, -0.00, -1.00, 406.2, 264.7)">r</text><text xml:space="preserve" font-family="TrebuchetMS-Bold,Trebuchet MS" font-weight="bold" font-size="18.0" fill="#212744" transform="matrix(1.00, 0.00, -0.00, -1.00, 413.3, 264.7)">a</text><text xml:space="preserve" font-family="TrebuchetMS-Bold,Trebuchet MS" font-weight="bold" font-size="18.0" fill="#212744" transform="matrix(1.00, 0.00, -0.00, -1.00, 422.9, 264.7)">s</text><text xml:space="preserve" font-family="TrebuchetMS-Bold,Trebuchet MS" font-weight="bold" font-size="18.0" fill="#212744" transform="matrix(1.00, 0.00, -0.00, -1.00, 430.7, 264.7)"> </text><text xml:space="preserve" font-family="TrebuchetMS-Bold,Trebuchet MS" font-weight="bold" font-size="18.0" fill="#212744" transform="matrix(1.00, 0.00, -0.00, -1.00, 304.3, 241.6)">T</text><text xml:space="preserve" font-family="TrebuchetMS-Bold,Trebuchet MS" font-weight="bold" font-size="18.0" fill="#212744" transform="matrix(1.00, 0.00, -0.00, -1.00, 313.5, 241.6)">r</text><text xml:space="preserve" font-family="TrebuchetMS-Bold,Trebuchet MS" font-weight="bold" font-size="18.0" fill="#212744" transform="matrix(1.00, 0.00, -0.00, -1.00, 320.6, 241.6)">a</text><text xml:space="preserve" font-family="TrebuchetMS-Bold,Trebuchet MS" font-weight="bold" font-size="18.0" fill="#212744" transform="matrix(1.00, 0.00, -0.00, -1.00, 330.2, 241.6)">v</text><text xml:space="preserve" font-family="TrebuchetMS-Bold,Trebuchet MS" font-weight="bold" font-size="18.0" fill="#212744" transform="matrix(1.00, 0.00, -0.00, -1.00, 340.3, 241.6)">i</text><text xml:space="preserve" font-family="TrebuchetMS-Bold,Trebuchet MS" font-weight="bold" font-size="18.0" fill="#212744" transform="matrix(1.00, 0.00, -0.00, -1.00, 345.7, 241.6)">s</text><text xml:space="preserve" font-family="TrebuchetMS-Bold,Trebuchet MS" font-weight="bold" font-size="18.0" fill="#212744" transform="matrix(1.00, 0.00, -0.00, -1.00, 353.4, 241.6)"> </text><text xml:space="preserve" font-family="TrebuchetMS-Bold,Trebuchet MS" font-weight="bold" font-size="18.0" fill="#212744" transform="matrix(1.00, 0.00, -0.00, -1.00, 358.8, 241.6)">M</text><text xml:space="preserve" font-family="TrebuchetMS-Bold,Trebuchet MS" font-weight="bold" font-size="18.0" fill="#212744" transform="matrix(1.00, 0.00, -0.00, -1.00, 372.2, 241.6)">a</text><text xml:space="preserve" font-family="TrebuchetMS-Bold,Trebuchet MS" font-weight="bold" font-size="18.0" fill="#212744" transform="matrix(1.00, 0.00, -0.00, -1.00, 381.8, 241.6)">s</text><text xml:space="preserve" font-family="TrebuchetMS-Bold,Trebuchet MS" font-weight="bold" font-size="18.0" fill="#212744" transform="matrix(1.00, 0.00, -0.00, -1.00, 389.6, 241.6)">s</text><text xml:space="preserve" font-family="TrebuchetMS-Bold,Trebuchet MS" font-weight="bold" font-size="18.0" fill="#212744" transform="matrix(1.00, 0.00, -0.00, -1.00, 397.3, 241.6)">e</text><text xml:space="preserve" font-family="TrebuchetMS-Bold,Trebuchet MS" font-weight="bold" font-size="18.0" fill="#212744" transform="matrix(1.00, 0.00, -0.00, -1.00, 407.6, 241.6)">y</text><image xlink:href="7EFFAEE773D04D16DEA417B8D11AF263.jpeg" width="224.00" height="136.00" transform="matrix(0.33, 0.00, -0.00, -0.33, 264.0, 140.0)"></image><image xlink:href="ED857549FB88EF358ADDF535CE2E8845.png" width="139.00" height="80.00" transform="matrix(0.61, 0.00, -0.00, -0.61, 371.0, 206.0)"></image><image xlink:href="A1D5435289CF53322182072AAAD820DF.png" width="149.00" height="59.00" transform="matrix(0.64, 0.00, -0.00, -0.63, 377.0, 145.0)"></image><image xlink:href="1D4329C94F9637BFB4E84D7DF93FB883.png" width="111.00" height="71.00" transform="matrix(0.60, 0.00, -0.00, -0.61, 343.0, 77.0)"></image></g></svg>