<?xml version="1.0" encoding="UTF-8"?><svg xmlns="http://www.w3.org/2000/svg" xmlns:xlink="http://www.w3.org/1999/xlink" clip-rule="evenodd" stroke-miterlimit="10" viewBox="0 0 720 540"><desc>SVG generated by Keynote</desc><defs></defs><g transform="matrix(1.00, 0.00, -0.00, -1.00, 0.0, 540.0)"><path d="M 0.0 0.0 L 720.0 0.0 L 720.0 540.0 L 0.0 540.0 Z M 0.0 0.0 " fill="#FFFFFF"></path><path d="M 0.0 511.0 L 720.0 511.0 L 720.0 504.0 L 0.0 504.0 Z M 0.0 511.1 " fill="#5ECCF3" fill-opacity="0.50"></path><path d="M 0.0 540.0 L 720.0 540.0 L 720.0 516.0 L 0.0 516.0 Z M 0.0 540.0 " fill="#212744"></path><path d="M 0.0 516.0 L 720.0 516.0 L 720.0 509.0 L 0.0 509.0 Z M 0.0 515.7 " fill="#5ECCF3"></path><path d="M 426.0 504.0 L 720.0 504.0 L 720.0 512.0 L 426.0 512.0 Z M 426.0 504.5 " fill="#5ECCF3"></path><path d="M 426.0 491.0 L 720.0 491.0 L 720.0 505.0 L 426.0 505.0 Z M 426.0 491.2 " fill="#5ECCF3" fill-opacity="0.50"></path><path d="M 425.8 499.0 L 426.0 500.5 C 426.0 500.7 425.9 501.0 426.1 501.0 L 666.6 501.0 C 666.8 501.0 667.0 500.7 667.0 500.5 L 667.0 499.0 C 667.0 498.8 666.8 499.0 666.6 499.0 L 426.1 499.0 C 425.9 499.0 425.8 498.8 425.8 499.0 Z M 425.8 499.0 " fill="#FFFFFF"></path><path d="M 580.6 491.2 L 581.0 493.1 C 581.0 493.4 580.8 494.0 581.1 494.0 L 706.1 494.0 C 706.4 494.0 707.0 493.4 707.0 493.1 L 707.0 491.2 C 707.0 491.0 706.4 491.0 706.1 491.0 L 581.1 491.0 C 580.8 491.0 580.6 491.0 580.6 491.2 Z M 580.6 491.2 " fill="#FFFFFF"></path><path d="M 715.0 540.0 L 720.0 540.0 L 720.0 491.0 L 715.0 491.0 Z M 715.4 540.2 " fill="#FFFFFF" fill-opacity="0.65"></path><path d="M 712.0 540.0 L 714.0 540.0 L 714.0 491.0 L 712.0 491.0 Z M 712.2 540.2 " fill="#FFFFFF" fill-opacity="0.65"></path><path d="M 711.0 540.0 L 711.0 540.0 L 711.0 491.0 L 711.0 491.0 Z M 710.7 540.2 " fill="#FFFFFF" fill-opacity="0.60"></path><path d="M 707.0 540.0 L 709.0 540.0 L 709.0 491.0 L 707.0 491.0 Z M 706.7 540.2 " fill="#FFFFFF" fill-opacity="0.40"></path><path d="M 702.0 540.0 L 706.0 540.0 L 706.0 494.0 L 702.0 494.0 Z M 702.0 540.0 " fill="#FFFFFF" fill-opacity="0.20"></path><path d="M 699.0 540.0 L 699.0 540.0 L 699.0 494.0 L 699.0 494.0 Z M 698.7 540.0 " fill="#FFFFFF" fill-opacity="0.30"></path><text xml:space="preserve" font-family="Georgia-Bold,Georgia" font-weight="bold" font-size="28.0" fill="#000000" transform="matrix(1.00, 0.00, -0.00, -1.00, 145.2, 344.8)">C</text><text xml:space="preserve" font-family="Georgia-Bold,Georgia" font-weight="bold" font-size="28.0" fill="#000000" transform="matrix(1.00, 0.00, -0.00, -1.00, 165.3, 344.8)">o</text><text xml:space="preserve" font-family="Georgia-Bold,Georgia" font-weight="bold" font-size="28.0" fill="#000000" transform="matrix(1.00, 0.00, -0.00, -1.00, 183.1, 344.8)">n</text><text xml:space="preserve" font-family="Georgia-Bold,Georgia" font-weight="bold" font-size="28.0" fill="#000000" transform="matrix(1.00, 0.00, -0.00, -1.00, 202.4, 344.8)">v</text><text xml:space="preserve" font-family="Georgia-Bold,Georgia" font-weight="bold" font-size="28.0" fill="#000000" transform="matrix(1.00, 0.00, -0.00, -1.00, 218.3, 344.8)">e</text><text xml:space="preserve" font-family="Georgia-Bold,Georgia" font-weight="bold" font-size="28.0" fill="#000000" transform="matrix(1.00, 0.00, -0.00, -1.00, 234.3, 344.8)">r</text><text xml:space="preserve" font-family="Georgia-Bold,Georgia" font-weight="bold" font-size="28.0" fill="#000000" transform="matrix(1.00, 0.00, -0.00, -1.00, 248.8, 344.8)">s</text><text xml:space="preserve" font-family="Georgia-Bold,Georgia" font-weight="bold" font-size="28.0" fill="#000000" transform="matrix(1.00, 0.00, -0.00, -1.00, 263.2, 344.8)">i</text><text xml:space="preserve" font-family="Georgia-Bold,Georgia" font-weight="bold" font-size="28.0" fill="#000000" transform="matrix(1.00, 0.00, -0.00, -1.00, 273.0, 344.8)">o</text><text xml:space="preserve" font-family="Georgia-Bold,Georgia" font-weight="bold" font-size="28.0" fill="#000000" transform="matrix(1.00, 0.00, -0.00, -1.00, 290.8, 344.8)">n</text><text xml:space="preserve" font-family="Georgia-Bold,Georgia" font-weight="bold" font-size="28.0" fill="#000000" transform="matrix(1.00, 0.00, -0.00, -1.00, 310.2, 344.8)">:</text><text xml:space="preserve" font-family="Georgia-Bold,Georgia" font-weight="bold" font-size="28.0" fill="#000000" transform="matrix(1.00, 0.00, -0.00, -1.00, 320.4, 344.8)"> </text><text xml:space="preserve" font-family="Georgia-Bold,Georgia" font-weight="bold" font-size="28.0" fill="#000000" transform="matrix(1.00, 0.00, -0.00, -1.00, 327.5, 344.8)">p</text><text xml:space="preserve" font-family="Georgia-Bold,Georgia" font-weight="bold" font-size="28.0" fill="#000000" transform="matrix(1.00, 0.00, -0.00, -1.00, 346.0, 344.8)">i</text><text xml:space="preserve" font-family="Georgia-Bold,Georgia" font-weight="bold" font-size="28.0" fill="#000000" transform="matrix(1.00, 0.00, -0.00, -1.00, 355.8, 344.8)">x</text><text xml:space="preserve" font-family="Georgia-Bold,Georgia" font-weight="bold" font-size="28.0" fill="#000000" transform="matrix(1.00, 0.00, -0.00, -1.00, 372.3, 344.8)">e</text><text xml:space="preserve" font-family="Georgia-Bold,Georgia" font-weight="bold" font-size="28.0" fill="#000000" transform="matrix(1.00, 0.00, -0.00, -1.00, 388.3, 344.8)">l</text><text xml:space="preserve" font-family="Georgia-Bold,Georgia" font-weight="bold" font-size="28.0" fill="#000000" transform="matrix(1.00, 0.00, -0.00, -1.00, 397.9, 344.8)">s</text><text xml:space="preserve" font-family="Georgia-Bold,Georgia" font-weight="bold" font-size="28.0" fill="#000000" transform="matrix(1.00, 0.00, -0.00, -1.00, 412.3, 344.8)"> </text><text xml:space="preserve" font-family="Georgia-Bold,Georgia" font-weight="bold" font-size="28.0" fill="#000000" transform="matrix(1.00, 0.00, -0.00, -1.00, 419.4, 344.8)">t</text><text xml:space="preserve" font-family="Georgia-Bold,Georgia" font-weight="bold" font-size="28.0" fill="#000000" transform="matrix(1.00, 0.00, -0.00, -1.00, 430.5, 344.8)">o</text><text xml:space="preserve" font-family="Georgia-Bold,Georgia" font-weight="bold" font-size="28.0" fill="#000000" transform="matrix(1.00, 0.00, -0.00, -1.00, 448.3, 344.8)"> </text><text xml:space="preserve" font-family="Georgia-Bold,Georgia" font-weight="bold" font-size="28.0" fill="#000000" transform="matrix(1.00, 0.00, -0.00, -1.00, 455.4, 344.8)">m</text><text xml:space="preserve" font-family="Georgia-Bold,Georgia" font-weight="bold" font-size="28.0" fill="#000000" transform="matrix(1.00, 0.00, -0.00, -1.00, 483.9, 344.8)">i</text><text xml:space="preserve" font-family="Georgia-Bold,Georgia" font-weight="bold" font-size="28.0" fill="#000000" transform="matrix(1.00, 0.00, -0.00, -1.00, 493.8, 344.8)">c</text><text xml:space="preserve" font-family="Georgia-Bold,Georgia" font-weight="bold" font-size="28.0" fill="#000000" transform="matrix(1.00, 0.00, -0.00, -1.00, 508.6, 344.8)">r</text><text xml:space="preserve" font-family="Georgia-Bold,Georgia" font-weight="bold" font-size="28.0" fill="#000000" transform="matrix(1.00, 0.00, -0.00, -1.00, 523.2, 344.8)">o</text><text xml:space="preserve" font-family="Georgia-Bold,Georgia" font-weight="bold" font-size="28.0" fill="#000000" transform="matrix(1.00, 0.00, -0.00, -1.00, 541.0, 344.8)">n</text><text xml:space="preserve" font-family="Georgia-Bold,Georgia" font-weight="bold" font-size="28.0" fill="#000000" transform="matrix(1.00, 0.00, -0.00, -1.00, 560.3, 344.8)">s</text><text xml:space="preserve" font-family="Georgia-Bold,Georgia" font-weight="bold" font-size="26.0" fill="#000000" transform="matrix(1.00, 0.00, -0.00, -1.00, 23.4, 262.0)">A</text><text xml:space="preserve" font-family="Georgia-Bold,Georgia" font-weight="bold" font-size="26.0" fill="#000000" transform="matrix(1.00, 0.00, -0.00, -1.00, 43.1, 262.0)">t</text><text xml:space="preserve" font-family="Georgia-Bold,Georgia" font-weight="bold" font-size="26.0" fill="#000000" transform="matrix(1.00, 0.00, -0.00, -1.00, 53.5, 262.0)">t</text><text xml:space="preserve" font-family="Georgia-Bold,Georgia" font-weight="bold" font-size="26.0" fill="#000000" transform="matrix(1.00, 0.00, -0.00, -1.00, 63.8, 262.0)">e</text><text xml:space="preserve" font-family="Georgia-Bold,Georgia" font-weight="bold" font-size="26.0" fill="#000000" transform="matrix(1.00, 0.00, -0.00, -1.00, 78.7, 262.0)">m</text><text xml:space="preserve" font-family="Georgia-Bold,Georgia" font-weight="bold" font-size="26.0" fill="#000000" transform="matrix(1.00, 0.00, -0.00, -1.00, 105.0, 262.0)">p</text><text xml:space="preserve" font-family="Georgia-Bold,Georgia" font-weight="bold" font-size="26.0" fill="#000000" transform="matrix(1.00, 0.00, -0.00, -1.00, 122.1, 262.0)">t</text><text xml:space="preserve" font-family="Georgia-Bold,Georgia" font-weight="bold" font-size="26.0" fill="#000000" transform="matrix(1.00, 0.00, -0.00, -1.00, 132.5, 262.0)">e</text><text xml:space="preserve" font-family="Georgia-Bold,Georgia" font-weight="bold" font-size="26.0" fill="#000000" transform="matrix(1.00, 0.00, -0.00, -1.00, 147.3, 262.0)">d</text><text xml:space="preserve" font-family="Georgia-Bold,Georgia" font-weight="bold" font-size="26.0" fill="#000000" transform="matrix(1.00, 0.00, -0.00, -1.00, 164.6, 262.0)"> </text><text xml:space="preserve" font-family="Georgia-Bold,Georgia" font-weight="bold" font-size="26.0" fill="#000000" transform="matrix(1.00, 0.00, -0.00, -1.00, 182.1, 262.0)">m</text><text xml:space="preserve" font-family="Georgia-Bold,Georgia" font-weight="bold" font-size="26.0" fill="#000000" transform="matrix(1.00, 0.00, -0.00, -1.00, 208.5, 262.0)">e</text><text xml:space="preserve" font-family="Georgia-Bold,Georgia" font-weight="bold" font-size="26.0" fill="#000000" transform="matrix(1.00, 0.00, -0.00, -1.00, 223.3, 262.0)">t</text><text xml:space="preserve" font-family="Georgia-Bold,Georgia" font-weight="bold" font-size="26.0" fill="#000000" transform="matrix(1.00, 0.00, -0.00, -1.00, 233.7, 262.0)">h</text><text xml:space="preserve" font-family="Georgia-Bold,Georgia" font-weight="bold" font-size="26.0" fill="#000000" transform="matrix(1.00, 0.00, -0.00, -1.00, 251.3, 262.0)">o</text><text xml:space="preserve" font-family="Georgia-Bold,Georgia" font-weight="bold" font-size="26.0" fill="#000000" transform="matrix(1.00, 0.00, -0.00, -1.00, 267.8, 262.0)">d</text><text xml:space="preserve" font-family="Georgia-Bold,Georgia" font-weight="bold" font-size="26.0" fill="#000000" transform="matrix(1.00, 0.00, -0.00, -1.00, 285.1, 262.0)">:</text><text xml:space="preserve" font-family="Georgia-Bold,Georgia" font-weight="bold" font-size="26.0" fill="#000000" transform="matrix(1.00, 0.00, -0.00, -1.00, 294.6, 262.0)"> </text><text xml:space="preserve" font-family="Georgia,Georgia" font-size="26.0" fill="#000000" transform="matrix(1.00, 0.00, -0.00, -1.00, 312.2, 262.0)">t</text><text xml:space="preserve" font-family="Georgia,Georgia" font-size="26.0" fill="#000000" transform="matrix(1.00, 0.00, -0.00, -1.00, 321.2, 262.0)">h</text><text xml:space="preserve" font-family="Georgia,Georgia" font-size="26.0" fill="#000000" transform="matrix(1.00, 0.00, -0.00, -1.00, 336.4, 262.0)">e</text><text xml:space="preserve" font-family="Georgia,Georgia" font-size="26.0" fill="#000000" transform="matrix(1.00, 0.00, -0.00, -1.00, 348.9, 262.0)">r</text><text xml:space="preserve" font-family="Georgia,Georgia" font-size="26.0" fill="#000000" transform="matrix(1.00, 0.00, -0.00, -1.00, 359.6, 262.0)">e</text><text xml:space="preserve" font-family="Georgia,Georgia" font-size="26.0" fill="#000000" transform="matrix(1.00, 0.00, -0.00, -1.00, 372.2, 262.0)"> </text><text xml:space="preserve" font-family="Georgia,Georgia" font-size="26.0" fill="#000000" transform="matrix(1.00, 0.00, -0.00, -1.00, 389.4, 262.0)">i</text><text xml:space="preserve" font-family="Georgia,Georgia" font-size="26.0" fill="#000000" transform="matrix(1.00, 0.00, -0.00, -1.00, 397.0, 262.0)">s</text><text xml:space="preserve" font-family="Georgia,Georgia" font-size="26.0" fill="#000000" transform="matrix(1.00, 0.00, -0.00, -1.00, 408.2, 262.0)"> </text><text xml:space="preserve" font-family="Georgia,Georgia" font-size="26.0" fill="#000000" transform="matrix(1.00, 0.00, -0.00, -1.00, 425.4, 262.0)">o</text><text xml:space="preserve" font-family="Georgia,Georgia" font-size="26.0" fill="#000000" transform="matrix(1.00, 0.00, -0.00, -1.00, 439.4, 262.0)">t</text><text xml:space="preserve" font-family="Georgia,Georgia" font-size="26.0" fill="#000000" transform="matrix(1.00, 0.00, -0.00, -1.00, 448.4, 262.0)">h</text><text xml:space="preserve" font-family="Georgia,Georgia" font-size="26.0" fill="#000000" transform="matrix(1.00, 0.00, -0.00, -1.00, 463.5, 262.0)">e</text><text xml:space="preserve" font-family="Georgia,Georgia" font-size="26.0" fill="#000000" transform="matrix(1.00, 0.00, -0.00, -1.00, 476.1, 262.0)">r</text><text xml:space="preserve" font-family="Georgia,Georgia" font-size="26.0" fill="#000000" transform="matrix(1.00, 0.00, -0.00, -1.00, 486.8, 262.0)"> </text><text xml:space="preserve" font-family="Georgia,Georgia" font-size="26.0" fill="#000000" transform="matrix(1.00, 0.00, -0.00, -1.00, 504.0, 262.0)">l</text><text xml:space="preserve" font-family="Georgia,Georgia" font-size="26.0" fill="#000000" transform="matrix(1.00, 0.00, -0.00, -1.00, 511.4, 262.0)">e</text><text xml:space="preserve" font-family="Georgia,Georgia" font-size="26.0" fill="#000000" transform="matrix(1.00, 0.00, -0.00, -1.00, 524.0, 262.0)">n</text><text xml:space="preserve" font-family="Georgia,Georgia" font-size="26.0" fill="#000000" transform="matrix(1.00, 0.00, -0.00, -1.00, 539.3, 262.0)">s</text><text xml:space="preserve" font-family="Georgia,Georgia" font-size="26.0" fill="#000000" transform="matrix(1.00, 0.00, -0.00, -1.00, 550.6, 262.0)"> </text><text xml:space="preserve" font-family="Georgia,Georgia" font-size="26.0" fill="#000000" transform="matrix(1.00, 0.00, -0.00, -1.00, 567.8, 262.0)">i</text><text xml:space="preserve" font-family="Georgia,Georgia" font-size="26.0" fill="#000000" transform="matrix(1.00, 0.00, -0.00, -1.00, 575.4, 262.0)">n</text><text xml:space="preserve" font-family="Georgia,Georgia" font-size="26.0" fill="#000000" transform="matrix(1.00, 0.00, -0.00, -1.00, 590.8, 262.0)">s</text><text xml:space="preserve" font-family="Georgia,Georgia" font-size="26.0" fill="#000000" transform="matrix(1.00, 0.00, -0.00, -1.00, 602.0, 262.0)">i</text><text xml:space="preserve" font-family="Georgia,Georgia" font-size="26.0" fill="#000000" transform="matrix(1.00, 0.00, -0.00, -1.00, 609.6, 262.0)">d</text><text xml:space="preserve" font-family="Georgia,Georgia" font-size="26.0" fill="#000000" transform="matrix(1.00, 0.00, -0.00, -1.00, 624.5, 262.0)">e</text><text xml:space="preserve" font-family="Georgia,Georgia" font-size="26.0" fill="#000000" transform="matrix(1.00, 0.00, -0.00, -1.00, 637.1, 262.0)"> </text><text xml:space="preserve" font-family="Georgia,Georgia" font-size="26.0" fill="#000000" transform="matrix(1.00, 0.00, -0.00, -1.00, 654.3, 262.0)">t</text><text xml:space="preserve" font-family="Georgia,Georgia" font-size="26.0" fill="#000000" transform="matrix(1.00, 0.00, -0.00, -1.00, 663.3, 262.0)">h</text><text xml:space="preserve" font-family="Georgia,Georgia" font-size="26.0" fill="#000000" transform="matrix(1.00, 0.00, -0.00, -1.00, 678.4, 262.0)">e</text><text xml:space="preserve" font-family="Georgia,Georgia" font-size="26.0" fill="#000000" transform="matrix(1.00, 0.00, -0.00, -1.00, 691.0, 262.0)"> </text><text xml:space="preserve" font-family="Georgia,Georgia" font-size="26.0" fill="#000000" transform="matrix(1.00, 0.00, -0.00, -1.00, 23.4, 232.0)">m</text><text xml:space="preserve" font-family="Georgia,Georgia" font-size="26.0" fill="#000000" transform="matrix(1.00, 0.00, -0.00, -1.00, 46.3, 232.0)">i</text><text xml:space="preserve" font-family="Georgia,Georgia" font-size="26.0" fill="#000000" transform="matrix(1.00, 0.00, -0.00, -1.00, 53.9, 232.0)">c</text><text xml:space="preserve" font-family="Georgia,Georgia" font-size="26.0" fill="#000000" transform="matrix(1.00, 0.00, -0.00, -1.00, 65.7, 232.0)">r</text><text xml:space="preserve" font-family="Georgia,Georgia" font-size="26.0" fill="#000000" transform="matrix(1.00, 0.00, -0.00, -1.00, 76.4, 232.0)">o</text><text xml:space="preserve" font-family="Georgia,Georgia" font-size="26.0" fill="#000000" transform="matrix(1.00, 0.00, -0.00, -1.00, 90.4, 232.0)">s</text><text xml:space="preserve" font-family="Georgia,Georgia" font-size="26.0" fill="#000000" transform="matrix(1.00, 0.00, -0.00, -1.00, 101.6, 232.0)">c</text><text xml:space="preserve" font-family="Georgia,Georgia" font-size="26.0" fill="#000000" transform="matrix(1.00, 0.00, -0.00, -1.00, 113.4, 232.0)">o</text><text xml:space="preserve" font-family="Georgia,Georgia" font-size="26.0" fill="#000000" transform="matrix(1.00, 0.00, -0.00, -1.00, 127.5, 232.0)">p</text><text xml:space="preserve" font-family="Georgia,Georgia" font-size="26.0" fill="#000000" transform="matrix(1.00, 0.00, -0.00, -1.00, 142.3, 232.0)">e</text><text xml:space="preserve" font-family="Georgia,Georgia" font-size="26.0" fill="#000000" transform="matrix(1.00, 0.00, -0.00, -1.00, 154.9, 232.0)"> </text><text xml:space="preserve" font-family="Georgia,Georgia" font-size="26.0" fill="#000000" transform="matrix(1.00, 0.00, -0.00, -1.00, 166.0, 232.0)">t</text><text xml:space="preserve" font-family="Georgia,Georgia" font-size="26.0" fill="#000000" transform="matrix(1.00, 0.00, -0.00, -1.00, 175.0, 232.0)">h</text><text xml:space="preserve" font-family="Georgia,Georgia" font-size="26.0" fill="#000000" transform="matrix(1.00, 0.00, -0.00, -1.00, 190.1, 232.0)">a</text><text xml:space="preserve" font-family="Georgia,Georgia" font-size="26.0" fill="#000000" transform="matrix(1.00, 0.00, -0.00, -1.00, 203.2, 232.0)">t</text><text xml:space="preserve" font-family="Georgia,Georgia" font-size="26.0" fill="#000000" transform="matrix(1.00, 0.00, -0.00, -1.00, 212.2, 232.0)"> </text><text xml:space="preserve" font-family="Georgia,Georgia" font-size="26.0" fill="#000000" transform="matrix(1.00, 0.00, -0.00, -1.00, 223.3, 232.0)">c</text><text xml:space="preserve" font-family="Georgia,Georgia" font-size="26.0" fill="#000000" transform="matrix(1.00, 0.00, -0.00, -1.00, 235.1, 232.0)">h</text><text xml:space="preserve" font-family="Georgia,Georgia" font-size="26.0" fill="#000000" transform="matrix(1.00, 0.00, -0.00, -1.00, 250.2, 232.0)">a</text><text xml:space="preserve" font-family="Georgia,Georgia" font-size="26.0" fill="#000000" transform="matrix(1.00, 0.00, -0.00, -1.00, 263.3, 232.0)">n</text><text xml:space="preserve" font-family="Georgia,Georgia" font-size="26.0" fill="#000000" transform="matrix(1.00, 0.00, -0.00, -1.00, 278.7, 232.0)">g</text><text xml:space="preserve" font-family="Georgia,Georgia" font-size="26.0" fill="#000000" transform="matrix(1.00, 0.00, -0.00, -1.00, 291.9, 232.0)">e</text><text xml:space="preserve" font-family="Georgia,Georgia" font-size="26.0" fill="#000000" transform="matrix(1.00, 0.00, -0.00, -1.00, 304.5, 232.0)">s</text><text xml:space="preserve" font-family="Georgia,Georgia" font-size="26.0" fill="#000000" transform="matrix(1.00, 0.00, -0.00, -1.00, 315.7, 232.0)"> </text><text xml:space="preserve" font-family="Georgia,Georgia" font-size="26.0" fill="#000000" transform="matrix(1.00, 0.00, -0.00, -1.00, 326.8, 232.0)">t</text><text xml:space="preserve" font-family="Georgia,Georgia" font-size="26.0" fill="#000000" transform="matrix(1.00, 0.00, -0.00, -1.00, 335.8, 232.0)">h</text><text xml:space="preserve" font-family="Georgia,Georgia" font-size="26.0" fill="#000000" transform="matrix(1.00, 0.00, -0.00, -1.00, 350.9, 232.0)">e</text><text xml:space="preserve" font-family="Georgia,Georgia" font-size="26.0" fill="#000000" transform="matrix(1.00, 0.00, -0.00, -1.00, 363.5, 232.0)"> </text><text xml:space="preserve" font-family="Georgia,Georgia" font-size="26.0" fill="#000000" transform="matrix(1.00, 0.00, -0.00, -1.00, 374.6, 232.0)">p</text><text xml:space="preserve" font-family="Georgia,Georgia" font-size="26.0" fill="#000000" transform="matrix(1.00, 0.00, -0.00, -1.00, 389.4, 232.0)">r</text><text xml:space="preserve" font-family="Georgia,Georgia" font-size="26.0" fill="#000000" transform="matrix(1.00, 0.00, -0.00, -1.00, 400.1, 232.0)">e</text><text xml:space="preserve" font-family="Georgia,Georgia" font-size="26.0" fill="#000000" transform="matrix(1.00, 0.00, -0.00, -1.00, 412.7, 232.0)">v</text><text xml:space="preserve" font-family="Georgia,Georgia" font-size="26.0" fill="#000000" transform="matrix(1.00, 0.00, -0.00, -1.00, 425.6, 232.0)">i</text><text xml:space="preserve" font-family="Georgia,Georgia" font-size="26.0" fill="#000000" transform="matrix(1.00, 0.00, -0.00, -1.00, 433.2, 232.0)">o</text><text xml:space="preserve" font-family="Georgia,Georgia" font-size="26.0" fill="#000000" transform="matrix(1.00, 0.00, -0.00, -1.00, 447.2, 232.0)">u</text><text xml:space="preserve" font-family="Georgia,Georgia" font-size="26.0" fill="#000000" transform="matrix(1.00, 0.00, -0.00, -1.00, 462.2, 232.0)">s</text><text xml:space="preserve" font-family="Georgia,Georgia" font-size="26.0" fill="#000000" transform="matrix(1.00, 0.00, -0.00, -1.00, 473.4, 232.0)"> </text><text xml:space="preserve" font-family="Georgia,Georgia" font-size="26.0" fill="#000000" transform="matrix(1.00, 0.00, -0.00, -1.00, 484.5, 232.0)">f</text><text xml:space="preserve" font-family="Georgia,Georgia" font-size="26.0" fill="#000000" transform="matrix(1.00, 0.00, -0.00, -1.00, 492.9, 232.0)">o</text><text xml:space="preserve" font-family="Georgia,Georgia" font-size="26.0" fill="#000000" transform="matrix(1.00, 0.00, -0.00, -1.00, 507.0, 232.0)">r</text><text xml:space="preserve" font-family="Georgia,Georgia" font-size="26.0" fill="#000000" transform="matrix(1.00, 0.00, -0.00, -1.00, 517.6, 232.0)">m</text><text xml:space="preserve" font-family="Georgia,Georgia" font-size="26.0" fill="#000000" transform="matrix(1.00, 0.00, -0.00, -1.00, 540.5, 232.0)">u</text><text xml:space="preserve" font-family="Georgia,Georgia" font-size="26.0" fill="#000000" transform="matrix(1.00, 0.00, -0.00, -1.00, 555.5, 232.0)">l</text><text xml:space="preserve" font-family="Georgia,Georgia" font-size="26.0" fill="#000000" transform="matrix(1.00, 0.00, -0.00, -1.00, 562.9, 232.0)">a</text><text xml:space="preserve" font-family="Georgia,Georgia" font-size="26.0" fill="#000000" transform="matrix(1.00, 0.00, -0.00, -1.00, 576.0, 232.0)">.</text><text xml:space="preserve" font-family="Georgia,Georgia" font-size="26.0" fill="#000000" transform="matrix(1.00, 0.00, -0.00, -1.00, 583.0, 232.0)"> </text><text xml:space="preserve" font-family="Georgia,Georgia" font-size="26.0" fill="#000000" transform="matrix(1.00, 0.00, -0.00, -1.00, 594.1, 232.0)">T</text><text xml:space="preserve" font-family="Georgia,Georgia" font-size="26.0" fill="#000000" transform="matrix(1.00, 0.00, -0.00, -1.00, 610.2, 232.0)">h</text><text xml:space="preserve" font-family="Georgia,Georgia" font-size="26.0" fill="#000000" transform="matrix(1.00, 0.00, -0.00, -1.00, 625.3, 232.0)">e</text><text xml:space="preserve" font-family="Georgia,Georgia" font-size="26.0" fill="#000000" transform="matrix(1.00, 0.00, -0.00, -1.00, 637.9, 232.0)">r</text><text xml:space="preserve" font-family="Georgia,Georgia" font-size="26.0" fill="#000000" transform="matrix(1.00, 0.00, -0.00, -1.00, 648.5, 232.0)">e</text><text xml:space="preserve" font-family="Georgia,Georgia" font-size="26.0" fill="#000000" transform="matrix(1.00, 0.00, -0.00, -1.00, 661.1, 232.0)"> </text><text xml:space="preserve" font-family="Georgia,Georgia" font-size="26.0" fill="#000000" transform="matrix(1.00, 0.00, -0.00, -1.00, 672.2, 232.0)">i</text><text xml:space="preserve" font-family="Georgia,Georgia" font-size="26.0" fill="#000000" transform="matrix(1.00, 0.00, -0.00, -1.00, 679.8, 232.0)">s</text><text xml:space="preserve" font-family="Georgia,Georgia" font-size="26.0" fill="#000000" transform="matrix(1.00, 0.00, -0.00, -1.00, 691.0, 232.0)"> </text><text xml:space="preserve" font-family="Georgia,Georgia" font-size="26.0" fill="#000000" transform="matrix(1.00, 0.00, -0.00, -1.00, 23.4, 202.0)">n</text><text xml:space="preserve" font-family="Georgia,Georgia" font-size="26.0" fill="#000000" transform="matrix(1.00, 0.00, -0.00, -1.00, 39.8, 202.0)">o</text><text xml:space="preserve" font-family="Georgia,Georgia" font-size="26.0" fill="#000000" transform="matrix(1.00, 0.00, -0.00, -1.00, 53.8, 202.0)"> </text><text xml:space="preserve" font-family="Georgia,Georgia" font-size="26.0" fill="#000000" transform="matrix(1.00, 0.00, -0.00, -1.00, 73.6, 202.0)">i</text><text xml:space="preserve" font-family="Georgia,Georgia" font-size="26.0" fill="#000000" transform="matrix(1.00, 0.00, -0.00, -1.00, 82.3, 202.0)">n</text><text xml:space="preserve" font-family="Georgia,Georgia" font-size="26.0" fill="#000000" transform="matrix(1.00, 0.00, -0.00, -1.00, 98.6, 202.0)">f</text><text xml:space="preserve" font-family="Georgia,Georgia" font-size="26.0" fill="#000000" transform="matrix(1.00, 0.00, -0.00, -1.00, 108.1, 202.0)">o</text><text xml:space="preserve" font-family="Georgia,Georgia" font-size="26.0" fill="#000000" transform="matrix(1.00, 0.00, -0.00, -1.00, 123.2, 202.0)">r</text><text xml:space="preserve" font-family="Georgia,Georgia" font-size="26.0" fill="#000000" transform="matrix(1.00, 0.00, -0.00, -1.00, 134.9, 202.0)">m</text><text xml:space="preserve" font-family="Georgia,Georgia" font-size="26.0" fill="#000000" transform="matrix(1.00, 0.00, -0.00, -1.00, 158.8, 202.0)">a</text><text xml:space="preserve" font-family="Georgia,Georgia" font-size="26.0" fill="#000000" transform="matrix(1.00, 0.00, -0.00, -1.00, 172.9, 202.0)">t</text><text xml:space="preserve" font-family="Georgia,Georgia" font-size="26.0" fill="#000000" transform="matrix(1.00, 0.00, -0.00, -1.00, 182.9, 202.0)">i</text><text xml:space="preserve" font-family="Georgia,Georgia" font-size="26.0" fill="#000000" transform="matrix(1.00, 0.00, -0.00, -1.00, 191.6, 202.0)">o</text><text xml:space="preserve" font-family="Georgia,Georgia" font-size="26.0" fill="#000000" transform="matrix(1.00, 0.00, -0.00, -1.00, 206.6, 202.0)">n</text><text xml:space="preserve" font-family="Georgia,Georgia" font-size="26.0" fill="#000000" transform="matrix(1.00, 0.00, -0.00, -1.00, 222.0, 202.0)"> </text><text xml:space="preserve" font-family="Georgia,Georgia" font-size="26.0" fill="#000000" transform="matrix(1.00, 0.00, -0.00, -1.00, 241.8, 202.0)">a</text><text xml:space="preserve" font-family="Georgia,Georgia" font-size="26.0" fill="#000000" transform="matrix(1.00, 0.00, -0.00, -1.00, 255.9, 202.0)">b</text><text xml:space="preserve" font-family="Georgia,Georgia" font-size="26.0" fill="#000000" transform="matrix(1.00, 0.00, -0.00, -1.00, 271.5, 202.0)">o</text><text xml:space="preserve" font-family="Georgia,Georgia" font-size="26.0" fill="#000000" transform="matrix(1.00, 0.00, -0.00, -1.00, 286.5, 202.0)">u</text><text xml:space="preserve" font-family="Georgia,Georgia" font-size="26.0" fill="#000000" transform="matrix(1.00, 0.00, -0.00, -1.00, 302.5, 202.0)">t</text><text xml:space="preserve" font-family="Georgia,Georgia" font-size="26.0" fill="#000000" transform="matrix(1.00, 0.00, -0.00, -1.00, 311.5, 202.0)"> </text><text xml:space="preserve" font-family="Georgia,Georgia" font-size="26.0" fill="#000000" transform="matrix(1.00, 0.00, -0.00, -1.00, 331.3, 202.0)">t</text><text xml:space="preserve" font-family="Georgia,Georgia" font-size="26.0" fill="#000000" transform="matrix(1.00, 0.00, -0.00, -1.00, 341.3, 202.0)">h</text><text xml:space="preserve" font-family="Georgia,Georgia" font-size="26.0" fill="#000000" transform="matrix(1.00, 0.00, -0.00, -1.00, 357.5, 202.0)">e</text><text xml:space="preserve" font-family="Georgia,Georgia" font-size="26.0" fill="#000000" transform="matrix(1.00, 0.00, -0.00, -1.00, 371.1, 202.0)">s</text><text xml:space="preserve" font-family="Georgia,Georgia" font-size="26.0" fill="#000000" transform="matrix(1.00, 0.00, -0.00, -1.00, 383.4, 202.0)">e</text><text xml:space="preserve" font-family="Georgia,Georgia" font-size="26.0" fill="#000000" transform="matrix(1.00, 0.00, -0.00, -1.00, 396.0, 202.0)"> </text><text xml:space="preserve" font-family="Georgia,Georgia" font-size="26.0" fill="#000000" transform="matrix(1.00, 0.00, -0.00, -1.00, 415.8, 202.0)">l</text><text xml:space="preserve" font-family="Georgia,Georgia" font-size="26.0" fill="#000000" transform="matrix(1.00, 0.00, -0.00, -1.00, 424.2, 202.0)">e</text><text xml:space="preserve" font-family="Georgia,Georgia" font-size="26.0" fill="#000000" transform="matrix(1.00, 0.00, -0.00, -1.00, 437.9, 202.0)">n</text><text xml:space="preserve" font-family="Georgia,Georgia" font-size="26.0" fill="#000000" transform="matrix(1.00, 0.00, -0.00, -1.00, 454.3, 202.0)">s</text><text xml:space="preserve" font-family="Georgia,Georgia" font-size="26.0" fill="#000000" transform="matrix(1.00, 0.00, -0.00, -1.00, 465.5, 202.0)"> </text><text xml:space="preserve" font-family="Georgia,Georgia" font-size="26.0" fill="#000000" transform="matrix(1.00, 0.00, -0.00, -1.00, 485.3, 202.0)">f</text><text xml:space="preserve" font-family="Georgia,Georgia" font-size="26.0" fill="#000000" transform="matrix(1.00, 0.00, -0.00, -1.00, 494.8, 202.0)">o</text><text xml:space="preserve" font-family="Georgia,Georgia" font-size="26.0" fill="#000000" transform="matrix(1.00, 0.00, -0.00, -1.00, 509.8, 202.0)">r</text><text xml:space="preserve" font-family="Georgia,Georgia" font-size="26.0" fill="#000000" transform="matrix(1.00, 0.00, -0.00, -1.00, 520.5, 202.0)"> </text><text xml:space="preserve" font-family="Georgia,Georgia" font-size="26.0" fill="#000000" transform="matrix(1.00, 0.00, -0.00, -1.00, 540.3, 202.0)">a</text><text xml:space="preserve" font-family="Georgia,Georgia" font-size="26.0" fill="#000000" transform="matrix(1.00, 0.00, -0.00, -1.00, 554.4, 202.0)">n</text><text xml:space="preserve" font-family="Georgia,Georgia" font-size="26.0" fill="#000000" transform="matrix(1.00, 0.00, -0.00, -1.00, 570.8, 202.0)">y</text><text xml:space="preserve" font-family="Georgia,Georgia" font-size="26.0" fill="#000000" transform="matrix(1.00, 0.00, -0.00, -1.00, 583.6, 202.0)"> </text><text xml:space="preserve" font-family="Georgia,Georgia" font-size="26.0" fill="#000000" transform="matrix(1.00, 0.00, -0.00, -1.00, 603.4, 202.0)">f</text><text xml:space="preserve" font-family="Georgia,Georgia" font-size="26.0" fill="#000000" transform="matrix(1.00, 0.00, -0.00, -1.00, 612.9, 202.0)">u</text><text xml:space="preserve" font-family="Georgia,Georgia" font-size="26.0" fill="#000000" transform="matrix(1.00, 0.00, -0.00, -1.00, 628.9, 202.0)">r</text><text xml:space="preserve" font-family="Georgia,Georgia" font-size="26.0" fill="#000000" transform="matrix(1.00, 0.00, -0.00, -1.00, 640.6, 202.0)">t</text><text xml:space="preserve" font-family="Georgia,Georgia" font-size="26.0" fill="#000000" transform="matrix(1.00, 0.00, -0.00, -1.00, 650.6, 202.0)">h</text><text xml:space="preserve" font-family="Georgia,Georgia" font-size="26.0" fill="#000000" transform="matrix(1.00, 0.00, -0.00, -1.00, 666.7, 202.0)">e</text><text xml:space="preserve" font-family="Georgia,Georgia" font-size="26.0" fill="#000000" transform="matrix(1.00, 0.00, -0.00, -1.00, 680.4, 202.0)">r</text><text xml:space="preserve" font-family="Georgia,Georgia" font-size="26.0" fill="#000000" transform="matrix(1.00, 0.00, -0.00, -1.00, 691.0, 202.0)"> </text><text xml:space="preserve" font-family="Georgia,Georgia" font-size="26.0" fill="#000000" transform="matrix(1.00, 0.00, -0.00, -1.00, 23.4, 172.0)">m</text><text xml:space="preserve" font-family="Georgia,Georgia" font-size="26.0" fill="#000000" transform="matrix(1.00, 0.00, -0.00, -1.00, 46.3, 172.0)">o</text><text xml:space="preserve" font-family="Georgia,Georgia" font-size="26.0" fill="#000000" transform="matrix(1.00, 0.00, -0.00, -1.00, 60.3, 172.0)">d</text><text xml:space="preserve" font-family="Georgia,Georgia" font-size="26.0" fill="#000000" transform="matrix(1.00, 0.00, -0.00, -1.00, 75.3, 172.0)">i</text><text xml:space="preserve" font-family="Georgia,Georgia" font-size="26.0" fill="#000000" transform="matrix(1.00, 0.00, -0.00, -1.00, 82.9, 172.0)">f</text><text xml:space="preserve" font-family="Georgia,Georgia" font-size="26.0" fill="#000000" transform="matrix(1.00, 0.00, -0.00, -1.00, 91.3, 172.0)">i</text><text xml:space="preserve" font-family="Georgia,Georgia" font-size="26.0" fill="#000000" transform="matrix(1.00, 0.00, -0.00, -1.00, 99.0, 172.0)">c</text><text xml:space="preserve" font-family="Georgia,Georgia" font-size="26.0" fill="#000000" transform="matrix(1.00, 0.00, -0.00, -1.00, 110.8, 172.0)">a</text><text xml:space="preserve" font-family="Georgia,Georgia" font-size="26.0" fill="#000000" transform="matrix(1.00, 0.00, -0.00, -1.00, 123.9, 172.0)">t</text><text xml:space="preserve" font-family="Georgia,Georgia" font-size="26.0" fill="#000000" transform="matrix(1.00, 0.00, -0.00, -1.00, 132.8, 172.0)">i</text><text xml:space="preserve" font-family="Georgia,Georgia" font-size="26.0" fill="#000000" transform="matrix(1.00, 0.00, -0.00, -1.00, 140.5, 172.0)">o</text><text xml:space="preserve" font-family="Georgia,Georgia" font-size="26.0" fill="#000000" transform="matrix(1.00, 0.00, -0.00, -1.00, 154.5, 172.0)">n</text><text xml:space="preserve" font-family="Georgia,Georgia" font-size="26.0" fill="#000000" transform="matrix(1.00, 0.00, -0.00, -1.00, 169.8, 172.0)"> </text><text xml:space="preserve" font-family="TrebuchetMS-Bold,Trebuchet MS" font-weight="bold" font-size="34.0" fill="#212744" transform="matrix(1.00, 0.00, -0.00, -1.00, 2.6, 453.0)">4</text><text xml:space="preserve" font-family="TrebuchetMS-Bold,Trebuchet MS" font-weight="bold" font-size="34.0" fill="#212744" transform="matrix(1.00, 0.00, -0.00, -1.00, 22.5, 453.0)">)</text><text xml:space="preserve" font-family="TrebuchetMS-Bold,Trebuchet MS" font-weight="bold" font-size="34.0" fill="#212744" transform="matrix(1.00, 0.00, -0.00, -1.00, 35.0, 453.0)"> </text><text xml:space="preserve" font-family="TrebuchetMS-Bold,Trebuchet MS" font-weight="bold" font-size="34.0" fill="#212744" transform="matrix(1.00, 0.00, -0.00, -1.00, 45.2, 453.0)">D</text><text xml:space="preserve" font-family="TrebuchetMS-Bold,Trebuchet MS" font-weight="bold" font-size="34.0" fill="#212744" transform="matrix(1.00, 0.00, -0.00, -1.00, 67.1, 453.0)">i</text><text xml:space="preserve" font-family="TrebuchetMS-Bold,Trebuchet MS" font-weight="bold" font-size="34.0" fill="#212744" transform="matrix(1.00, 0.00, -0.00, -1.00, 77.2, 453.0)">s</text><text xml:space="preserve" font-family="TrebuchetMS-Bold,Trebuchet MS" font-weight="bold" font-size="34.0" fill="#212744" transform="matrix(1.00, 0.00, -0.00, -1.00, 91.9, 453.0)">p</text><text xml:space="preserve" font-family="TrebuchetMS-Bold,Trebuchet MS" font-weight="bold" font-size="34.0" fill="#212744" transform="matrix(1.00, 0.00, -0.00, -1.00, 111.7, 453.0)">l</text><text xml:space="preserve" font-family="TrebuchetMS-Bold,Trebuchet MS" font-weight="bold" font-size="34.0" fill="#212744" transform="matrix(1.00, 0.00, -0.00, -1.00, 121.7, 453.0)">a</text><text xml:space="preserve" font-family="TrebuchetMS-Bold,Trebuchet MS" font-weight="bold" font-size="34.0" fill="#212744" transform="matrix(1.00, 0.00, -0.00, -1.00, 139.8, 453.0)">c</text><text xml:space="preserve" font-family="TrebuchetMS-Bold,Trebuchet MS" font-weight="bold" font-size="34.0" fill="#212744" transform="matrix(1.00, 0.00, -0.00, -1.00, 157.2, 453.0)">e</text><text xml:space="preserve" font-family="TrebuchetMS-Bold,Trebuchet MS" font-weight="bold" font-size="34.0" fill="#212744" transform="matrix(1.00, 0.00, -0.00, -1.00, 176.7, 453.0)">m</text><text xml:space="preserve" font-family="TrebuchetMS-Bold,Trebuchet MS" font-weight="bold" font-size="34.0" fill="#212744" transform="matrix(1.00, 0.00, -0.00, -1.00, 206.0, 453.0)">e</text><text xml:space="preserve" font-family="TrebuchetMS-Bold,Trebuchet MS" font-weight="bold" font-size="34.0" fill="#212744" transform="matrix(1.00, 0.00, -0.00, -1.00, 225.5, 453.0)">n</text><text xml:space="preserve" font-family="TrebuchetMS-Bold,Trebuchet MS" font-weight="bold" font-size="34.0" fill="#212744" transform="matrix(1.00, 0.00, -0.00, -1.00, 245.6, 453.0)">t</text><text xml:space="preserve" font-family="TrebuchetMS-Bold,Trebuchet MS" font-weight="bold" font-size="34.0" fill="#212744" transform="matrix(1.00, 0.00, -0.00, -1.00, 259.1, 453.0)"> </text><text xml:space="preserve" font-family="TrebuchetMS-Bold,Trebuchet MS" font-weight="bold" font-size="34.0" fill="#212744" transform="matrix(1.00, 0.00, -0.00, -1.00, 269.3, 453.0)">m</text><text xml:space="preserve" font-family="TrebuchetMS-Bold,Trebuchet MS" font-weight="bold" font-size="34.0" fill="#212744" transform="matrix(1.00, 0.00, -0.00, -1.00, 298.6, 453.0)">e</text><text xml:space="preserve" font-family="TrebuchetMS-Bold,Trebuchet MS" font-weight="bold" font-size="34.0" fill="#212744" transform="matrix(1.00, 0.00, -0.00, -1.00, 318.1, 453.0)">a</text><text xml:space="preserve" font-family="TrebuchetMS-Bold,Trebuchet MS" font-weight="bold" font-size="34.0" fill="#212744" transform="matrix(1.00, 0.00, -0.00, -1.00, 336.2, 453.0)">s</text><text xml:space="preserve" font-family="TrebuchetMS-Bold,Trebuchet MS" font-weight="bold" font-size="34.0" fill="#212744" transform="matrix(1.00, 0.00, -0.00, -1.00, 350.9, 453.0)">u</text><text xml:space="preserve" font-family="TrebuchetMS-Bold,Trebuchet MS" font-weight="bold" font-size="34.0" fill="#212744" transform="matrix(1.00, 0.00, -0.00, -1.00, 370.9, 453.0)">r</text><text xml:space="preserve" font-family="TrebuchetMS-Bold,Trebuchet MS" font-weight="bold" font-size="34.0" fill="#212744" transform="matrix(1.00, 0.00, -0.00, -1.00, 385.5, 453.0)">e</text><text xml:space="preserve" font-family="TrebuchetMS-Bold,Trebuchet MS" font-weight="bold" font-size="34.0" fill="#212744" transform="matrix(1.00, 0.00, -0.00, -1.00, 405.0, 453.0)">m</text><text xml:space="preserve" font-family="TrebuchetMS-Bold,Trebuchet MS" font-weight="bold" font-size="34.0" fill="#212744" transform="matrix(1.00, 0.00, -0.00, -1.00, 434.2, 453.0)">e</text><text xml:space="preserve" font-family="TrebuchetMS-Bold,Trebuchet MS" font-weight="bold" font-size="34.0" fill="#212744" transform="matrix(1.00, 0.00, -0.00, -1.00, 453.8, 453.0)">n</text><text xml:space="preserve" font-family="TrebuchetMS-Bold,Trebuchet MS" font-weight="bold" font-size="34.0" fill="#212744" transform="matrix(1.00, 0.00, -0.00, -1.00, 473.9, 453.0)">t</text><text xml:space="preserve" font-family="TrebuchetMS-Bold,Trebuchet MS" font-weight="bold" font-size="34.0" fill="#212744" transform="matrix(1.00, 0.00, -0.00, -1.00, 487.4, 453.0)">s</text></g></svg>