<?xml version="1.0" encoding="UTF-8"?><svg xmlns="http://www.w3.org/2000/svg" xmlns:xlink="http://www.w3.org/1999/xlink" clip-rule="evenodd" stroke-miterlimit="10" viewBox="0 0 720 540"><desc>SVG generated by Keynote</desc><defs></defs><g transform="matrix(1.00, 0.00, -0.00, -1.00, 0.0, 540.0)"><path d="M 0.0 0.0 L 720.0 0.0 L 720.0 540.0 L 0.0 540.0 Z M 0.0 0.0 " fill="#FFFFFF"></path><path d="M 0.0 511.0 L 720.0 511.0 L 720.0 504.0 L 0.0 504.0 Z M 0.0 511.1 " fill="#5ECCF3" fill-opacity="0.50"></path><path d="M 0.0 540.0 L 720.0 540.0 L 720.0 516.0 L 0.0 516.0 Z M 0.0 540.0 " fill="#212744"></path><path d="M 0.0 516.0 L 720.0 516.0 L 720.0 509.0 L 0.0 509.0 Z M 0.0 515.7 " fill="#5ECCF3"></path><path d="M 426.0 504.0 L 720.0 504.0 L 720.0 512.0 L 426.0 512.0 Z M 426.0 504.5 " fill="#5ECCF3"></path><path d="M 426.0 491.0 L 720.0 491.0 L 720.0 505.0 L 426.0 505.0 Z M 426.0 491.2 " fill="#5ECCF3" fill-opacity="0.50"></path><path d="M 425.8 499.0 L 426.0 500.5 C 426.0 500.7 425.9 501.0 426.1 501.0 L 666.6 501.0 C 666.8 501.0 667.0 500.7 667.0 500.5 L 667.0 499.0 C 667.0 498.8 666.8 499.0 666.6 499.0 L 426.1 499.0 C 425.9 499.0 425.8 498.8 425.8 499.0 Z M 425.8 499.0 " fill="#FFFFFF"></path><path d="M 580.6 491.2 L 581.0 493.1 C 581.0 493.4 580.8 494.0 581.1 494.0 L 706.1 494.0 C 706.4 494.0 707.0 493.4 707.0 493.1 L 707.0 491.2 C 707.0 491.0 706.4 491.0 706.1 491.0 L 581.1 491.0 C 580.8 491.0 580.6 491.0 580.6 491.2 Z M 580.6 491.2 " fill="#FFFFFF"></path><path d="M 715.0 540.0 L 720.0 540.0 L 720.0 491.0 L 715.0 491.0 Z M 715.4 540.2 " fill="#FFFFFF" fill-opacity="0.65"></path><path d="M 712.0 540.0 L 714.0 540.0 L 714.0 491.0 L 712.0 491.0 Z M 712.2 540.2 " fill="#FFFFFF" fill-opacity="0.65"></path><path d="M 711.0 540.0 L 711.0 540.0 L 711.0 491.0 L 711.0 491.0 Z M 710.7 540.2 " fill="#FFFFFF" fill-opacity="0.60"></path><path d="M 707.0 540.0 L 709.0 540.0 L 709.0 491.0 L 707.0 491.0 Z M 706.7 540.2 " fill="#FFFFFF" fill-opacity="0.40"></path><path d="M 702.0 540.0 L 706.0 540.0 L 706.0 494.0 L 702.0 494.0 Z M 702.0 540.0 " fill="#FFFFFF" fill-opacity="0.20"></path><path d="M 699.0 540.0 L 699.0 540.0 L 699.0 494.0 L 699.0 494.0 Z M 698.7 540.0 " fill="#FFFFFF" fill-opacity="0.30"></path><text xml:space="preserve" font-family="Georgia,Georgia" font-size="26.0" fill="#000000" transform="matrix(1.00, 0.00, -0.00, -1.00, 48.2, 344.5)">•</text><text xml:space="preserve" font-family="Georgia,Georgia" font-size="26.0" fill="#000000" transform="matrix(1.00, 0.00, -0.00, -1.00, 68.4, 344.5)">G</text><text xml:space="preserve" font-family="Georgia,Georgia" font-size="26.0" fill="#000000" transform="matrix(1.00, 0.00, -0.00, -1.00, 87.3, 344.5)">e</text><text xml:space="preserve" font-family="Georgia,Georgia" font-size="26.0" fill="#000000" transform="matrix(1.00, 0.00, -0.00, -1.00, 99.8, 344.5)">t</text><text xml:space="preserve" font-family="Georgia,Georgia" font-size="26.0" fill="#000000" transform="matrix(1.00, 0.00, -0.00, -1.00, 108.8, 344.5)"> </text><text xml:space="preserve" font-family="Georgia,Georgia" font-size="26.0" fill="#000000" transform="matrix(1.00, 0.00, -0.00, -1.00, 115.1, 344.5)">t</text><text xml:space="preserve" font-family="Georgia,Georgia" font-size="26.0" fill="#000000" transform="matrix(1.00, 0.00, -0.00, -1.00, 124.1, 344.5)">e</text><text xml:space="preserve" font-family="Georgia,Georgia" font-size="26.0" fill="#000000" transform="matrix(1.00, 0.00, -0.00, -1.00, 136.7, 344.5)">m</text><text xml:space="preserve" font-family="Georgia,Georgia" font-size="26.0" fill="#000000" transform="matrix(1.00, 0.00, -0.00, -1.00, 159.6, 344.5)">p</text><text xml:space="preserve" font-family="Georgia,Georgia" font-size="26.0" fill="#000000" transform="matrix(1.00, 0.00, -0.00, -1.00, 174.4, 344.5)">l</text><text xml:space="preserve" font-family="Georgia,Georgia" font-size="26.0" fill="#000000" transform="matrix(1.00, 0.00, -0.00, -1.00, 181.9, 344.5)">a</text><text xml:space="preserve" font-family="Georgia,Georgia" font-size="26.0" fill="#000000" transform="matrix(1.00, 0.00, -0.00, -1.00, 195.0, 344.5)">t</text><text xml:space="preserve" font-family="Georgia,Georgia" font-size="26.0" fill="#000000" transform="matrix(1.00, 0.00, -0.00, -1.00, 203.9, 344.5)">e</text><text xml:space="preserve" font-family="Georgia,Georgia" font-size="26.0" fill="#000000" transform="matrix(1.00, 0.00, -0.00, -1.00, 216.5, 344.5)"> </text><text xml:space="preserve" font-family="Georgia,Georgia" font-size="26.0" fill="#000000" transform="matrix(1.00, 0.00, -0.00, -1.00, 222.8, 344.5)">c</text><text xml:space="preserve" font-family="Georgia,Georgia" font-size="26.0" fill="#000000" transform="matrix(1.00, 0.00, -0.00, -1.00, 234.6, 344.5)">o</text><text xml:space="preserve" font-family="Georgia,Georgia" font-size="26.0" fill="#000000" transform="matrix(1.00, 0.00, -0.00, -1.00, 248.6, 344.5)">o</text><text xml:space="preserve" font-family="Georgia,Georgia" font-size="26.0" fill="#000000" transform="matrix(1.00, 0.00, -0.00, -1.00, 262.6, 344.5)">r</text><text xml:space="preserve" font-family="Georgia,Georgia" font-size="26.0" fill="#000000" transform="matrix(1.00, 0.00, -0.00, -1.00, 273.3, 344.5)">d</text><text xml:space="preserve" font-family="Georgia,Georgia" font-size="26.0" fill="#000000" transform="matrix(1.00, 0.00, -0.00, -1.00, 288.2, 344.5)">i</text><text xml:space="preserve" font-family="Georgia,Georgia" font-size="26.0" fill="#000000" transform="matrix(1.00, 0.00, -0.00, -1.00, 295.8, 344.5)">n</text><text xml:space="preserve" font-family="Georgia,Georgia" font-size="26.0" fill="#000000" transform="matrix(1.00, 0.00, -0.00, -1.00, 311.2, 344.5)">a</text><text xml:space="preserve" font-family="Georgia,Georgia" font-size="26.0" fill="#000000" transform="matrix(1.00, 0.00, -0.00, -1.00, 324.3, 344.5)">t</text><text xml:space="preserve" font-family="Georgia,Georgia" font-size="26.0" fill="#000000" transform="matrix(1.00, 0.00, -0.00, -1.00, 333.3, 344.5)">e</text><text xml:space="preserve" font-family="Georgia,Georgia" font-size="26.0" fill="#000000" transform="matrix(1.00, 0.00, -0.00, -1.00, 345.8, 344.5)">s</text><text xml:space="preserve" font-family="Georgia,Georgia" font-size="26.0" fill="#000000" transform="matrix(1.00, 0.00, -0.00, -1.00, 357.1, 344.5)"> </text><text xml:space="preserve" font-family="Georgia,Georgia" font-size="26.0" fill="#000000" transform="matrix(1.00, 0.00, -0.00, -1.00, 363.4, 344.5)">t</text><text xml:space="preserve" font-family="Georgia,Georgia" font-size="26.0" fill="#000000" transform="matrix(1.00, 0.00, -0.00, -1.00, 372.3, 344.5)">h</text><text xml:space="preserve" font-family="Georgia,Georgia" font-size="26.0" fill="#000000" transform="matrix(1.00, 0.00, -0.00, -1.00, 387.5, 344.5)">r</text><text xml:space="preserve" font-family="Georgia,Georgia" font-size="26.0" fill="#000000" transform="matrix(1.00, 0.00, -0.00, -1.00, 398.1, 344.5)">o</text><text xml:space="preserve" font-family="Georgia,Georgia" font-size="26.0" fill="#000000" transform="matrix(1.00, 0.00, -0.00, -1.00, 412.1, 344.5)">u</text><text xml:space="preserve" font-family="Georgia,Georgia" font-size="26.0" fill="#000000" transform="matrix(1.00, 0.00, -0.00, -1.00, 427.1, 344.5)">g</text><text xml:space="preserve" font-family="Georgia,Georgia" font-size="26.0" fill="#000000" transform="matrix(1.00, 0.00, -0.00, -1.00, 440.3, 344.5)">h</text><text xml:space="preserve" font-family="Georgia,Georgia" font-size="26.0" fill="#000000" transform="matrix(1.00, 0.00, -0.00, -1.00, 455.5, 344.5)"> </text><text xml:space="preserve" font-family="Georgia,Georgia" font-size="26.0" fill="#000000" transform="matrix(1.00, 0.00, -0.00, -1.00, 461.8, 344.5)">n</text><text xml:space="preserve" font-family="Georgia,Georgia" font-size="26.0" fill="#000000" transform="matrix(1.00, 0.00, -0.00, -1.00, 477.1, 344.5)">o</text><text xml:space="preserve" font-family="Georgia,Georgia" font-size="26.0" fill="#000000" transform="matrix(1.00, 0.00, -0.00, -1.00, 491.1, 344.5)">r</text><text xml:space="preserve" font-family="Georgia,Georgia" font-size="26.0" fill="#000000" transform="matrix(1.00, 0.00, -0.00, -1.00, 501.8, 344.5)">m</text><text xml:space="preserve" font-family="Georgia,Georgia" font-size="26.0" fill="#000000" transform="matrix(1.00, 0.00, -0.00, -1.00, 524.7, 344.5)">a</text><text xml:space="preserve" font-family="Georgia,Georgia" font-size="26.0" fill="#000000" transform="matrix(1.00, 0.00, -0.00, -1.00, 537.8, 344.5)">l</text><text xml:space="preserve" font-family="Georgia,Georgia" font-size="26.0" fill="#000000" transform="matrix(1.00, 0.00, -0.00, -1.00, 545.2, 344.5)">i</text><text xml:space="preserve" font-family="Georgia,Georgia" font-size="26.0" fill="#000000" transform="matrix(1.00, 0.00, -0.00, -1.00, 552.8, 344.5)">z</text><text xml:space="preserve" font-family="Georgia,Georgia" font-size="26.0" fill="#000000" transform="matrix(1.00, 0.00, -0.00, -1.00, 564.4, 344.5)">e</text><text xml:space="preserve" font-family="Georgia,Georgia" font-size="26.0" fill="#000000" transform="matrix(1.00, 0.00, -0.00, -1.00, 576.9, 344.5)">d</text><text xml:space="preserve" font-family="Georgia,Georgia" font-size="26.0" fill="#000000" transform="matrix(1.00, 0.00, -0.00, -1.00, 591.9, 344.5)"> </text><text xml:space="preserve" font-family="Georgia,Georgia" font-size="26.0" fill="#000000" transform="matrix(1.00, 0.00, -0.00, -1.00, 598.2, 344.5)">c</text><text xml:space="preserve" font-family="Georgia,Georgia" font-size="26.0" fill="#000000" transform="matrix(1.00, 0.00, -0.00, -1.00, 610.0, 344.5)">r</text><text xml:space="preserve" font-family="Georgia,Georgia" font-size="26.0" fill="#000000" transform="matrix(1.00, 0.00, -0.00, -1.00, 620.6, 344.5)">o</text><text xml:space="preserve" font-family="Georgia,Georgia" font-size="26.0" fill="#000000" transform="matrix(1.00, 0.00, -0.00, -1.00, 634.6, 344.5)">s</text><text xml:space="preserve" font-family="Georgia,Georgia" font-size="26.0" fill="#000000" transform="matrix(1.00, 0.00, -0.00, -1.00, 645.9, 344.5)">s</text><text xml:space="preserve" font-family="Georgia,Georgia" font-size="26.0" fill="#000000" transform="matrix(1.00, 0.00, -0.00, -1.00, 657.1, 344.5)">-</text><text xml:space="preserve" font-family="Georgia,Georgia" font-size="26.0" fill="#000000" transform="matrix(1.00, 0.00, -0.00, -1.00, 68.4, 314.5)">c</text><text xml:space="preserve" font-family="Georgia,Georgia" font-size="26.0" fill="#000000" transform="matrix(1.00, 0.00, -0.00, -1.00, 80.2, 314.5)">o</text><text xml:space="preserve" font-family="Georgia,Georgia" font-size="26.0" fill="#000000" transform="matrix(1.00, 0.00, -0.00, -1.00, 94.2, 314.5)">r</text><text xml:space="preserve" font-family="Georgia,Georgia" font-size="26.0" fill="#000000" transform="matrix(1.00, 0.00, -0.00, -1.00, 104.9, 314.5)">r</text><text xml:space="preserve" font-family="Georgia,Georgia" font-size="26.0" fill="#000000" transform="matrix(1.00, 0.00, -0.00, -1.00, 115.5, 314.5)">e</text><text xml:space="preserve" font-family="Georgia,Georgia" font-size="26.0" fill="#000000" transform="matrix(1.00, 0.00, -0.00, -1.00, 128.1, 314.5)">l</text><text xml:space="preserve" font-family="Georgia,Georgia" font-size="26.0" fill="#000000" transform="matrix(1.00, 0.00, -0.00, -1.00, 135.5, 314.5)">a</text><text xml:space="preserve" font-family="Georgia,Georgia" font-size="26.0" fill="#000000" transform="matrix(1.00, 0.00, -0.00, -1.00, 148.6, 314.5)">t</text><text xml:space="preserve" font-family="Georgia,Georgia" font-size="26.0" fill="#000000" transform="matrix(1.00, 0.00, -0.00, -1.00, 157.6, 314.5)">i</text><text xml:space="preserve" font-family="Georgia,Georgia" font-size="26.0" fill="#000000" transform="matrix(1.00, 0.00, -0.00, -1.00, 165.2, 314.5)">o</text><text xml:space="preserve" font-family="Georgia,Georgia" font-size="26.0" fill="#000000" transform="matrix(1.00, 0.00, -0.00, -1.00, 179.3, 314.5)">n</text><text xml:space="preserve" font-family="Georgia,Georgia" font-size="26.0" fill="#000000" transform="matrix(1.00, 0.00, -0.00, -1.00, 194.6, 314.5)"> </text><text xml:space="preserve" font-family="Georgia,Georgia" font-size="26.0" fill="#000000" transform="matrix(1.00, 0.00, -0.00, -1.00, 200.9, 314.5)">(</text><text xml:space="preserve" font-family="Georgia,Georgia" font-size="26.0" fill="#000000" transform="matrix(1.00, 0.00, -0.00, -1.00, 210.6, 314.5)">N</text><text xml:space="preserve" font-family="Georgia,Georgia" font-size="26.0" fill="#000000" transform="matrix(1.00, 0.00, -0.00, -1.00, 230.6, 314.5)">C</text><text xml:space="preserve" font-family="Georgia,Georgia" font-size="26.0" fill="#000000" transform="matrix(1.00, 0.00, -0.00, -1.00, 247.3, 314.5)">C</text><text xml:space="preserve" font-family="Georgia,Georgia" font-size="26.0" fill="#000000" transform="matrix(1.00, 0.00, -0.00, -1.00, 264.0, 314.5)">)</text><text xml:space="preserve" font-family="Georgia,Georgia" font-size="26.0" fill="#000000" transform="matrix(1.00, 0.00, -0.00, -1.00, 273.7, 314.5)">.</text><text xml:space="preserve" font-family="Georgia,Georgia" font-size="26.0" fill="#FF0000" transform="matrix(1.00, 0.00, -0.00, -1.00, 280.7, 314.5)"> </text><text xml:space="preserve" font-family="Georgia,Georgia" font-size="26.0" fill="#000000" transform="matrix(1.00, 0.00, -0.00, -1.00, 287.0, 314.5)">T</text><text xml:space="preserve" font-family="Georgia,Georgia" font-size="26.0" fill="#000000" transform="matrix(1.00, 0.00, -0.00, -1.00, 303.1, 314.5)">h</text><text xml:space="preserve" font-family="Georgia,Georgia" font-size="26.0" fill="#000000" transform="matrix(1.00, 0.00, -0.00, -1.00, 318.2, 314.5)">e</text><text xml:space="preserve" font-family="Georgia,Georgia" font-size="26.0" fill="#000000" transform="matrix(1.00, 0.00, -0.00, -1.00, 330.8, 314.5)"> </text><text xml:space="preserve" font-family="Georgia,Georgia" font-size="26.0" fill="#000000" transform="matrix(1.00, 0.00, -0.00, -1.00, 337.1, 314.5)">e</text><text xml:space="preserve" font-family="Georgia,Georgia" font-size="26.0" fill="#000000" transform="matrix(1.00, 0.00, -0.00, -1.00, 349.6, 314.5)">n</text><text xml:space="preserve" font-family="Georgia,Georgia" font-size="26.0" fill="#000000" transform="matrix(1.00, 0.00, -0.00, -1.00, 365.0, 314.5)">t</text><text xml:space="preserve" font-family="Georgia,Georgia" font-size="26.0" fill="#000000" transform="matrix(1.00, 0.00, -0.00, -1.00, 374.0, 314.5)">i</text><text xml:space="preserve" font-family="Georgia,Georgia" font-size="26.0" fill="#000000" transform="matrix(1.00, 0.00, -0.00, -1.00, 381.6, 314.5)">r</text><text xml:space="preserve" font-family="Georgia,Georgia" font-size="26.0" fill="#000000" transform="matrix(1.00, 0.00, -0.00, -1.00, 392.2, 314.5)">e</text><text xml:space="preserve" font-family="Georgia,Georgia" font-size="26.0" fill="#000000" transform="matrix(1.00, 0.00, -0.00, -1.00, 404.8, 314.5)"> </text><text xml:space="preserve" font-family="Georgia,Georgia" font-size="26.0" fill="#000000" transform="matrix(1.00, 0.00, -0.00, -1.00, 411.1, 314.5)">i</text><text xml:space="preserve" font-family="Georgia,Georgia" font-size="26.0" fill="#000000" transform="matrix(1.00, 0.00, -0.00, -1.00, 418.7, 314.5)">m</text><text xml:space="preserve" font-family="Georgia,Georgia" font-size="26.0" fill="#000000" transform="matrix(1.00, 0.00, -0.00, -1.00, 441.6, 314.5)">a</text><text xml:space="preserve" font-family="Georgia,Georgia" font-size="26.0" fill="#000000" transform="matrix(1.00, 0.00, -0.00, -1.00, 454.7, 314.5)">g</text><text xml:space="preserve" font-family="Georgia,Georgia" font-size="26.0" fill="#000000" transform="matrix(1.00, 0.00, -0.00, -1.00, 468.0, 314.5)">e</text><text xml:space="preserve" font-family="Georgia,Georgia" font-size="26.0" fill="#000000" transform="matrix(1.00, 0.00, -0.00, -1.00, 480.5, 314.5)"> </text><text xml:space="preserve" font-family="Georgia,Georgia" font-size="26.0" fill="#000000" transform="matrix(1.00, 0.00, -0.00, -1.00, 486.8, 314.5)">i</text><text xml:space="preserve" font-family="Georgia,Georgia" font-size="26.0" fill="#000000" transform="matrix(1.00, 0.00, -0.00, -1.00, 494.4, 314.5)">s</text><text xml:space="preserve" font-family="Georgia,Georgia" font-size="26.0" fill="#000000" transform="matrix(1.00, 0.00, -0.00, -1.00, 505.7, 314.5)"> </text><text xml:space="preserve" font-family="Georgia,Georgia" font-size="26.0" fill="#000000" transform="matrix(1.00, 0.00, -0.00, -1.00, 511.9, 314.5)">a</text><text xml:space="preserve" font-family="Georgia,Georgia" font-size="26.0" fill="#000000" transform="matrix(1.00, 0.00, -0.00, -1.00, 525.0, 314.5)">n</text><text xml:space="preserve" font-family="Georgia,Georgia" font-size="26.0" fill="#000000" transform="matrix(1.00, 0.00, -0.00, -1.00, 540.4, 314.5)">a</text><text xml:space="preserve" font-family="Georgia,Georgia" font-size="26.0" fill="#000000" transform="matrix(1.00, 0.00, -0.00, -1.00, 553.5, 314.5)">l</text><text xml:space="preserve" font-family="Georgia,Georgia" font-size="26.0" fill="#000000" transform="matrix(1.00, 0.00, -0.00, -1.00, 560.9, 314.5)">y</text><text xml:space="preserve" font-family="Georgia,Georgia" font-size="26.0" fill="#000000" transform="matrix(1.00, 0.00, -0.00, -1.00, 573.7, 314.5)">z</text><text xml:space="preserve" font-family="Georgia,Georgia" font-size="26.0" fill="#000000" transform="matrix(1.00, 0.00, -0.00, -1.00, 585.3, 314.5)">e</text><text xml:space="preserve" font-family="Georgia,Georgia" font-size="26.0" fill="#000000" transform="matrix(1.00, 0.00, -0.00, -1.00, 597.8, 314.5)">d</text><text xml:space="preserve" font-family="Georgia,Georgia" font-size="26.0" fill="#000000" transform="matrix(1.00, 0.00, -0.00, -1.00, 612.8, 314.5)"> </text><text xml:space="preserve" font-family="Georgia,Georgia" font-size="26.0" fill="#000000" transform="matrix(1.00, 0.00, -0.00, -1.00, 619.1, 314.5)">t</text><text xml:space="preserve" font-family="Georgia,Georgia" font-size="26.0" fill="#000000" transform="matrix(1.00, 0.00, -0.00, -1.00, 628.0, 314.5)">o</text><text xml:space="preserve" font-family="Georgia,Georgia" font-size="26.0" fill="#000000" transform="matrix(1.00, 0.00, -0.00, -1.00, 642.1, 314.5)"> </text><text xml:space="preserve" font-family="Georgia,Georgia" font-size="26.0" fill="#000000" transform="matrix(1.00, 0.00, -0.00, -1.00, 68.4, 284.5)">g</text><text xml:space="preserve" font-family="Georgia,Georgia" font-size="26.0" fill="#000000" transform="matrix(1.00, 0.00, -0.00, -1.00, 81.6, 284.5)">u</text><text xml:space="preserve" font-family="Georgia,Georgia" font-size="26.0" fill="#000000" transform="matrix(1.00, 0.00, -0.00, -1.00, 96.6, 284.5)">a</text><text xml:space="preserve" font-family="Georgia,Georgia" font-size="26.0" fill="#000000" transform="matrix(1.00, 0.00, -0.00, -1.00, 109.7, 284.5)">r</text><text xml:space="preserve" font-family="Georgia,Georgia" font-size="26.0" fill="#000000" transform="matrix(1.00, 0.00, -0.00, -1.00, 120.4, 284.5)">a</text><text xml:space="preserve" font-family="Georgia,Georgia" font-size="26.0" fill="#000000" transform="matrix(1.00, 0.00, -0.00, -1.00, 133.5, 284.5)">n</text><text xml:space="preserve" font-family="Georgia,Georgia" font-size="26.0" fill="#000000" transform="matrix(1.00, 0.00, -0.00, -1.00, 148.8, 284.5)">t</text><text xml:space="preserve" font-family="Georgia,Georgia" font-size="26.0" fill="#000000" transform="matrix(1.00, 0.00, -0.00, -1.00, 157.8, 284.5)">e</text><text xml:space="preserve" font-family="Georgia,Georgia" font-size="26.0" fill="#000000" transform="matrix(1.00, 0.00, -0.00, -1.00, 170.4, 284.5)">e</text><text xml:space="preserve" font-family="Georgia,Georgia" font-size="26.0" fill="#000000" transform="matrix(1.00, 0.00, -0.00, -1.00, 182.9, 284.5)"> </text><text xml:space="preserve" font-family="Georgia,Georgia" font-size="26.0" fill="#000000" transform="matrix(1.00, 0.00, -0.00, -1.00, 189.2, 284.5)">a</text><text xml:space="preserve" font-family="Georgia,Georgia" font-size="26.0" fill="#000000" transform="matrix(1.00, 0.00, -0.00, -1.00, 202.3, 284.5)">c</text><text xml:space="preserve" font-family="Georgia,Georgia" font-size="26.0" fill="#000000" transform="matrix(1.00, 0.00, -0.00, -1.00, 214.1, 284.5)">c</text><text xml:space="preserve" font-family="Georgia,Georgia" font-size="26.0" fill="#000000" transform="matrix(1.00, 0.00, -0.00, -1.00, 225.9, 284.5)">u</text><text xml:space="preserve" font-family="Georgia,Georgia" font-size="26.0" fill="#000000" transform="matrix(1.00, 0.00, -0.00, -1.00, 240.9, 284.5)">r</text><text xml:space="preserve" font-family="Georgia,Georgia" font-size="26.0" fill="#000000" transform="matrix(1.00, 0.00, -0.00, -1.00, 251.5, 284.5)">a</text><text xml:space="preserve" font-family="Georgia,Georgia" font-size="26.0" fill="#000000" transform="matrix(1.00, 0.00, -0.00, -1.00, 264.6, 284.5)">t</text><text xml:space="preserve" font-family="Georgia,Georgia" font-size="26.0" fill="#000000" transform="matrix(1.00, 0.00, -0.00, -1.00, 273.6, 284.5)">e</text><text xml:space="preserve" font-family="Georgia,Georgia" font-size="26.0" fill="#000000" transform="matrix(1.00, 0.00, -0.00, -1.00, 286.2, 284.5)"> </text><text xml:space="preserve" font-family="Georgia,Georgia" font-size="26.0" fill="#000000" transform="matrix(1.00, 0.00, -0.00, -1.00, 292.5, 284.5)">c</text><text xml:space="preserve" font-family="Georgia,Georgia" font-size="26.0" fill="#000000" transform="matrix(1.00, 0.00, -0.00, -1.00, 304.3, 284.5)">o</text><text xml:space="preserve" font-family="Georgia,Georgia" font-size="26.0" fill="#000000" transform="matrix(1.00, 0.00, -0.00, -1.00, 318.3, 284.5)">o</text><text xml:space="preserve" font-family="Georgia,Georgia" font-size="26.0" fill="#000000" transform="matrix(1.00, 0.00, -0.00, -1.00, 332.3, 284.5)">r</text><text xml:space="preserve" font-family="Georgia,Georgia" font-size="26.0" fill="#000000" transform="matrix(1.00, 0.00, -0.00, -1.00, 343.0, 284.5)">d</text><text xml:space="preserve" font-family="Georgia,Georgia" font-size="26.0" fill="#000000" transform="matrix(1.00, 0.00, -0.00, -1.00, 357.9, 284.5)">i</text><text xml:space="preserve" font-family="Georgia,Georgia" font-size="26.0" fill="#000000" transform="matrix(1.00, 0.00, -0.00, -1.00, 365.5, 284.5)">n</text><text xml:space="preserve" font-family="Georgia,Georgia" font-size="26.0" fill="#000000" transform="matrix(1.00, 0.00, -0.00, -1.00, 380.9, 284.5)">a</text><text xml:space="preserve" font-family="Georgia,Georgia" font-size="26.0" fill="#000000" transform="matrix(1.00, 0.00, -0.00, -1.00, 394.0, 284.5)">t</text><text xml:space="preserve" font-family="Georgia,Georgia" font-size="26.0" fill="#000000" transform="matrix(1.00, 0.00, -0.00, -1.00, 403.0, 284.5)">e</text><text xml:space="preserve" font-family="Georgia,Georgia" font-size="26.0" fill="#000000" transform="matrix(1.00, 0.00, -0.00, -1.00, 415.5, 284.5)">s</text><text xml:space="preserve" font-family="Georgia,Georgia" font-size="26.0" fill="#000000" transform="matrix(1.00, 0.00, -0.00, -1.00, 426.8, 284.5)"> </text><text xml:space="preserve" font-family="Georgia,Georgia" font-size="26.0" fill="#000000" transform="matrix(1.00, 0.00, -0.00, -1.00, 48.2, 251.5)">•</text><text xml:space="preserve" font-family="Georgia,Georgia" font-size="26.0" fill="#000000" transform="matrix(1.00, 0.00, -0.00, -1.00, 68.4, 251.5)">P</text><text xml:space="preserve" font-family="Georgia,Georgia" font-size="26.0" fill="#000000" transform="matrix(1.00, 0.00, -0.00, -1.00, 84.3, 251.5)">e</text><text xml:space="preserve" font-family="Georgia,Georgia" font-size="26.0" fill="#000000" transform="matrix(1.00, 0.00, -0.00, -1.00, 96.8, 251.5)">a</text><text xml:space="preserve" font-family="Georgia,Georgia" font-size="26.0" fill="#000000" transform="matrix(1.00, 0.00, -0.00, -1.00, 109.9, 251.5)">k</text><text xml:space="preserve" font-family="Georgia,Georgia" font-size="26.0" fill="#000000" transform="matrix(1.00, 0.00, -0.00, -1.00, 123.8, 251.5)"> </text><text xml:space="preserve" font-family="Georgia,Georgia" font-size="26.0" fill="#000000" transform="matrix(1.00, 0.00, -0.00, -1.00, 130.1, 251.5)">o</text><text xml:space="preserve" font-family="Georgia,Georgia" font-size="26.0" fill="#000000" transform="matrix(1.00, 0.00, -0.00, -1.00, 144.1, 251.5)">f</text><text xml:space="preserve" font-family="Georgia,Georgia" font-size="26.0" fill="#000000" transform="matrix(1.00, 0.00, -0.00, -1.00, 152.6, 251.5)"> </text><text xml:space="preserve" font-family="Georgia,Georgia" font-size="26.0" fill="#000000" transform="matrix(1.00, 0.00, -0.00, -1.00, 158.9, 251.5)">N</text><text xml:space="preserve" font-family="Georgia,Georgia" font-size="26.0" fill="#000000" transform="matrix(1.00, 0.00, -0.00, -1.00, 178.8, 251.5)">C</text><text xml:space="preserve" font-family="Georgia,Georgia" font-size="26.0" fill="#000000" transform="matrix(1.00, 0.00, -0.00, -1.00, 195.5, 251.5)"> </text><text xml:space="preserve" font-family="Georgia,Georgia" font-size="26.0" fill="#000000" transform="matrix(1.00, 0.00, -0.00, -1.00, 201.8, 251.5)">w</text><text xml:space="preserve" font-family="Georgia,Georgia" font-size="26.0" fill="#000000" transform="matrix(1.00, 0.00, -0.00, -1.00, 221.0, 251.5)">i</text><text xml:space="preserve" font-family="Georgia,Georgia" font-size="26.0" fill="#000000" transform="matrix(1.00, 0.00, -0.00, -1.00, 228.6, 251.5)">l</text><text xml:space="preserve" font-family="Georgia,Georgia" font-size="26.0" fill="#000000" transform="matrix(1.00, 0.00, -0.00, -1.00, 236.0, 251.5)">l</text><text xml:space="preserve" font-family="Georgia,Georgia" font-size="26.0" fill="#000000" transform="matrix(1.00, 0.00, -0.00, -1.00, 243.5, 251.5)"> </text><text xml:space="preserve" font-family="Georgia,Georgia" font-size="26.0" fill="#000000" transform="matrix(1.00, 0.00, -0.00, -1.00, 249.8, 251.5)">b</text><text xml:space="preserve" font-family="Georgia,Georgia" font-size="26.0" fill="#000000" transform="matrix(1.00, 0.00, -0.00, -1.00, 264.3, 251.5)">e</text><text xml:space="preserve" font-family="Georgia,Georgia" font-size="26.0" fill="#000000" transform="matrix(1.00, 0.00, -0.00, -1.00, 276.9, 251.5)"> </text><text xml:space="preserve" font-family="Georgia,Georgia" font-size="26.0" fill="#000000" transform="matrix(1.00, 0.00, -0.00, -1.00, 283.2, 251.5)">(</text><text xml:space="preserve" font-family="Georgia,Georgia" font-size="26.0" fill="#000000" transform="matrix(1.00, 0.00, -0.00, -1.00, 292.9, 251.5)">x</text><text xml:space="preserve" font-family="Georgia,Georgia" font-size="26.0" fill="#000000" transform="matrix(1.00, 0.00, -0.00, -1.00, 306.0, 251.5)">t</text><text xml:space="preserve" font-family="Georgia,Georgia" font-size="26.0" fill="#000000" transform="matrix(1.00, 0.00, -0.00, -1.00, 315.0, 251.5)">e</text><text xml:space="preserve" font-family="Georgia,Georgia" font-size="26.0" fill="#000000" transform="matrix(1.00, 0.00, -0.00, -1.00, 327.6, 251.5)">m</text><text xml:space="preserve" font-family="Georgia,Georgia" font-size="26.0" fill="#000000" transform="matrix(1.00, 0.00, -0.00, -1.00, 350.5, 251.5)">p</text><text xml:space="preserve" font-family="Georgia,Georgia" font-size="26.0" fill="#000000" transform="matrix(1.00, 0.00, -0.00, -1.00, 365.4, 251.5)">,</text><text xml:space="preserve" font-family="Georgia,Georgia" font-size="26.0" fill="#000000" transform="matrix(1.00, 0.00, -0.00, -1.00, 372.4, 251.5)"> </text><text xml:space="preserve" font-family="Georgia,Georgia" font-size="26.0" fill="#000000" transform="matrix(1.00, 0.00, -0.00, -1.00, 378.6, 251.5)">y</text><text xml:space="preserve" font-family="Georgia,Georgia" font-size="26.0" fill="#000000" transform="matrix(1.00, 0.00, -0.00, -1.00, 391.4, 251.5)">t</text><text xml:space="preserve" font-family="Georgia,Georgia" font-size="26.0" fill="#000000" transform="matrix(1.00, 0.00, -0.00, -1.00, 400.4, 251.5)">e</text><text xml:space="preserve" font-family="Georgia,Georgia" font-size="26.0" fill="#000000" transform="matrix(1.00, 0.00, -0.00, -1.00, 413.0, 251.5)">m</text><text xml:space="preserve" font-family="Georgia,Georgia" font-size="26.0" fill="#000000" transform="matrix(1.00, 0.00, -0.00, -1.00, 435.9, 251.5)">p</text><text xml:space="preserve" font-family="Georgia,Georgia" font-size="26.0" fill="#000000" transform="matrix(1.00, 0.00, -0.00, -1.00, 450.8, 251.5)">)</text><text xml:space="preserve" font-family="TrebuchetMS-Bold,Trebuchet MS" font-weight="bold" font-size="34.0" fill="#212744" transform="matrix(1.00, 0.00, -0.00, -1.00, 38.8, 465.4)">3</text><text xml:space="preserve" font-family="TrebuchetMS-Bold,Trebuchet MS" font-weight="bold" font-size="34.0" fill="#212744" transform="matrix(1.00, 0.00, -0.00, -1.00, 58.7, 465.4)">)</text><text xml:space="preserve" font-family="TrebuchetMS-Bold,Trebuchet MS" font-weight="bold" font-size="34.0" fill="#212744" transform="matrix(1.00, 0.00, -0.00, -1.00, 71.2, 465.4)"> </text><text xml:space="preserve" font-family="TrebuchetMS-Bold,Trebuchet MS" font-weight="bold" font-size="34.0" fill="#212744" transform="matrix(1.00, 0.00, -0.00, -1.00, 80.8, 465.4)">T</text><text xml:space="preserve" font-family="TrebuchetMS-Bold,Trebuchet MS" font-weight="bold" font-size="34.0" fill="#212744" transform="matrix(1.00, 0.00, -0.00, -1.00, 97.8, 465.4)">e</text><text xml:space="preserve" font-family="TrebuchetMS-Bold,Trebuchet MS" font-weight="bold" font-size="34.0" fill="#212744" transform="matrix(1.00, 0.00, -0.00, -1.00, 117.4, 465.4)">m</text><text xml:space="preserve" font-family="TrebuchetMS-Bold,Trebuchet MS" font-weight="bold" font-size="34.0" fill="#212744" transform="matrix(1.00, 0.00, -0.00, -1.00, 146.6, 465.4)">p</text><text xml:space="preserve" font-family="TrebuchetMS-Bold,Trebuchet MS" font-weight="bold" font-size="34.0" fill="#212744" transform="matrix(1.00, 0.00, -0.00, -1.00, 166.4, 465.4)">l</text><text xml:space="preserve" font-family="TrebuchetMS-Bold,Trebuchet MS" font-weight="bold" font-size="34.0" fill="#212744" transform="matrix(1.00, 0.00, -0.00, -1.00, 176.4, 465.4)">a</text><text xml:space="preserve" font-family="TrebuchetMS-Bold,Trebuchet MS" font-weight="bold" font-size="34.0" fill="#212744" transform="matrix(1.00, 0.00, -0.00, -1.00, 194.6, 465.4)">t</text><text xml:space="preserve" font-family="TrebuchetMS-Bold,Trebuchet MS" font-weight="bold" font-size="34.0" fill="#212744" transform="matrix(1.00, 0.00, -0.00, -1.00, 208.1, 465.4)">e</text><text xml:space="preserve" font-family="TrebuchetMS-Bold,Trebuchet MS" font-weight="bold" font-size="34.0" fill="#212744" transform="matrix(1.00, 0.00, -0.00, -1.00, 227.6, 465.4)"> </text><text xml:space="preserve" font-family="TrebuchetMS-Bold,Trebuchet MS" font-weight="bold" font-size="34.0" fill="#212744" transform="matrix(1.00, 0.00, -0.00, -1.00, 237.8, 465.4)">s</text><text xml:space="preserve" font-family="TrebuchetMS-Bold,Trebuchet MS" font-weight="bold" font-size="34.0" fill="#212744" transform="matrix(1.00, 0.00, -0.00, -1.00, 252.5, 465.4)">e</text><text xml:space="preserve" font-family="TrebuchetMS-Bold,Trebuchet MS" font-weight="bold" font-size="34.0" fill="#212744" transform="matrix(1.00, 0.00, -0.00, -1.00, 272.0, 465.4)">l</text><text xml:space="preserve" font-family="TrebuchetMS-Bold,Trebuchet MS" font-weight="bold" font-size="34.0" fill="#212744" transform="matrix(1.00, 0.00, -0.00, -1.00, 282.0, 465.4)">e</text><text xml:space="preserve" font-family="TrebuchetMS-Bold,Trebuchet MS" font-weight="bold" font-size="34.0" fill="#212744" transform="matrix(1.00, 0.00, -0.00, -1.00, 301.6, 465.4)">c</text><text xml:space="preserve" font-family="TrebuchetMS-Bold,Trebuchet MS" font-weight="bold" font-size="34.0" fill="#212744" transform="matrix(1.00, 0.00, -0.00, -1.00, 319.0, 465.4)">t</text><text xml:space="preserve" font-family="TrebuchetMS-Bold,Trebuchet MS" font-weight="bold" font-size="34.0" fill="#212744" transform="matrix(1.00, 0.00, -0.00, -1.00, 332.5, 465.4)">i</text><text xml:space="preserve" font-family="TrebuchetMS-Bold,Trebuchet MS" font-weight="bold" font-size="34.0" fill="#212744" transform="matrix(1.00, 0.00, -0.00, -1.00, 342.6, 465.4)">o</text><text xml:space="preserve" font-family="TrebuchetMS-Bold,Trebuchet MS" font-weight="bold" font-size="34.0" fill="#212744" transform="matrix(1.00, 0.00, -0.00, -1.00, 361.9, 465.4)">n</text></g></svg>