<?xml version="1.0" encoding="UTF-8"?><svg xmlns="http://www.w3.org/2000/svg" xmlns:xlink="http://www.w3.org/1999/xlink" clip-rule="evenodd" stroke-miterlimit="10" viewBox="0 0 720 540"><desc>SVG generated by Keynote</desc><defs></defs><g transform="matrix(1.00, 0.00, -0.00, -1.00, 0.0, 540.0)"><path d="M 0.0 0.0 L 720.0 0.0 L 720.0 540.0 L 0.0 540.0 Z M 0.0 0.0 " fill="#FFFFFF"></path><path d="M 0.0 511.0 L 720.0 511.0 L 720.0 504.0 L 0.0 504.0 Z M 0.0 511.1 " fill="#5ECCF3" fill-opacity="0.50"></path><path d="M 0.0 540.0 L 720.0 540.0 L 720.0 516.0 L 0.0 516.0 Z M 0.0 540.0 " fill="#212744"></path><path d="M 0.0 516.0 L 720.0 516.0 L 720.0 509.0 L 0.0 509.0 Z M 0.0 515.7 " fill="#5ECCF3"></path><path d="M 426.0 504.0 L 720.0 504.0 L 720.0 512.0 L 426.0 512.0 Z M 426.0 504.5 " fill="#5ECCF3"></path><path d="M 426.0 491.0 L 720.0 491.0 L 720.0 505.0 L 426.0 505.0 Z M 426.0 491.2 " fill="#5ECCF3" fill-opacity="0.50"></path><path d="M 425.8 499.0 L 426.0 500.5 C 426.0 500.7 425.9 501.0 426.1 501.0 L 666.6 501.0 C 666.8 501.0 667.0 500.7 667.0 500.5 L 667.0 499.0 C 667.0 498.8 666.8 499.0 666.6 499.0 L 426.1 499.0 C 425.9 499.0 425.8 498.8 425.8 499.0 Z M 425.8 499.0 " fill="#FFFFFF"></path><path d="M 580.6 491.2 L 581.0 493.1 C 581.0 493.4 580.8 494.0 581.1 494.0 L 706.1 494.0 C 706.4 494.0 707.0 493.4 707.0 493.1 L 707.0 491.2 C 707.0 491.0 706.4 491.0 706.1 491.0 L 581.1 491.0 C 580.8 491.0 580.6 491.0 580.6 491.2 Z M 580.6 491.2 " fill="#FFFFFF"></path><path d="M 715.0 540.0 L 720.0 540.0 L 720.0 491.0 L 715.0 491.0 Z M 715.4 540.2 " fill="#FFFFFF" fill-opacity="0.65"></path><path d="M 712.0 540.0 L 714.0 540.0 L 714.0 491.0 L 712.0 491.0 Z M 712.2 540.2 " fill="#FFFFFF" fill-opacity="0.65"></path><path d="M 711.0 540.0 L 711.0 540.0 L 711.0 491.0 L 711.0 491.0 Z M 710.7 540.2 " fill="#FFFFFF" fill-opacity="0.60"></path><path d="M 707.0 540.0 L 709.0 540.0 L 709.0 491.0 L 707.0 491.0 Z M 706.7 540.2 " fill="#FFFFFF" fill-opacity="0.40"></path><path d="M 702.0 540.0 L 706.0 540.0 L 706.0 494.0 L 702.0 494.0 Z M 702.0 540.0 " fill="#FFFFFF" fill-opacity="0.20"></path><path d="M 699.0 540.0 L 699.0 540.0 L 699.0 494.0 L 699.0 494.0 Z M 698.7 540.0 " fill="#FFFFFF" fill-opacity="0.30"></path><g><clipPath id="clip0x600002ca3f00"><path d="M 304.7 185.6 L 399.4 185.6 L 399.4 257.6 L 304.7 257.6 Z M 304.7 185.6 "></path></clipPath><g clip-path="url(#clip0x600002ca3f00)"><path d="M 0.3 -0.4 L 90.3 -0.4 L 90.3 67.6 L 0.3 67.6 Z M 0.0 0.0 " fill="none" stroke="#C3260C" stroke-width="2.00" stroke-linejoin="bevel" stroke-dasharray="8.0, 6.0" transform="matrix(1.00, 0.00, 0.00, -1.00, 306.7, 255.6)"></path></g></g><g><clipPath id="clip0x6080024a3900"><path d="M 278.7 157.8 L 426.5 157.8 L 426.5 283.3 L 278.7 283.3 Z M 278.7 157.8 "></path></clipPath><g clip-path="url(#clip0x6080024a3900)"><path d="M 0.3 0.3 L 144.3 0.3 L 144.3 121.3 L 0.3 121.3 Z M 0.0 0.0 " fill="none" stroke="#00B050" stroke-width="2.00" stroke-linejoin="bevel" transform="matrix(1.00, 0.00, 0.00, -1.00, 280.7, 281.3)"></path></g></g><g><clipPath id="clip0x6080024a3b40"><path d="M 356.4 282.3 L 355.8 254.5 L 348.2 254.7 L 348.8 282.4 Z M 356.4 282.3 "></path></clipPath><g clip-path="url(#clip0x6080024a3b40)"><path d="M 2.7 0.0 L 3.1 0.0 L 22.6 0.0 L 23.0 0.0 " fill="none" stroke="#903D00" stroke-width="0.75" stroke-linejoin="bevel" transform="matrix(-0.02, -1.00, -1.00, 0.02, 352.6, 281.3)"></path><path d="M 352.0 255.6 L 354.9 260.2 L 354.9 260.2 C 355.0 260.5 354.9 260.9 354.6 261.1 C 354.4 261.3 354.0 261.2 353.8 260.9 L 352.1 258.1 L 350.5 261.0 L 350.5 261.0 C 350.3 261.3 349.9 261.4 349.6 261.2 C 349.3 261.0 349.2 260.6 349.4 260.3 C 349.4 260.3 349.4 260.3 349.4 260.3 Z M 352.0 255.6 " fill="#903D00"></path><path d="M 352.6 281.3 L 349.7 276.7 L 349.7 276.7 C 349.6 276.4 349.7 276.0 350.0 275.9 C 350.2 275.7 350.6 275.8 350.8 276.1 L 352.5 278.9 L 354.1 276.0 L 354.1 276.0 C 354.3 275.7 354.7 275.6 355.0 275.7 C 355.3 275.9 355.4 276.3 355.2 276.6 C 355.2 276.6 355.2 276.6 355.2 276.6 Z M 352.6 281.3 " fill="#903D00"></path></g></g><g><clipPath id="clip0x600002ca4320"><path d="M 393.1 215.2 L 425.5 215.2 L 425.5 222.8 L 393.1 222.8 Z M 393.1 215.2 "></path></clipPath><g clip-path="url(#clip0x600002ca4320)"><path d="M 2.9 0.5 L 3.1 0.5 L 27.2 0.5 L 27.9 0.5 " fill="none" stroke="#903D00" stroke-width="0.75" stroke-linejoin="bevel" transform="matrix(1.00, 0.00, 0.00, -1.00, 394.1, 219.0)"></path><path d="M 424.7 218.5 L 420.0 221.2 L 420.0 221.2 C 419.8 221.4 419.4 221.3 419.2 221.0 C 419.0 220.7 419.1 220.3 419.4 220.1 L 422.2 218.5 L 419.4 216.9 L 419.4 216.9 C 419.1 216.7 419.0 216.3 419.2 216.0 C 419.4 215.7 419.8 215.6 420.0 215.8 C 420.0 215.8 420.0 215.8 420.0 215.8 Z M 424.7 218.5 " fill="#903D00"></path><path d="M 394.3 218.5 L 399.0 215.8 L 399.0 215.8 C 399.2 215.6 399.6 215.7 399.8 216.0 C 400.0 216.3 399.9 216.7 399.6 216.9 L 396.8 218.5 L 399.6 220.1 L 399.6 220.1 C 399.9 220.3 400.0 220.7 399.8 221.0 C 399.6 221.3 399.2 221.4 399.0 221.2 C 399.0 221.2 399.0 221.2 399.0 221.2 Z M 394.3 218.5 " fill="#903D00"></path></g></g><g><clipPath id="clip0x600002ca4680"><path d="M 337.9 285.6 L 411.4 285.6 L 411.4 316.9 L 337.9 316.9 Z M 337.9 285.6 "></path></clipPath><g clip-path="url(#clip0x600002ca4680)"><text xml:space="preserve" font-family="Georgia,Georgia" font-size="18.0" fill="#903D00" transform="matrix(1.00, 0.00, -0.00, -1.00, 343.0, 294.7)">H</text><text xml:space="preserve" font-family="Georgia,Georgia" font-size="18.0" fill="#903D00" transform="matrix(1.00, 0.00, -0.00, -1.00, 357.7, 294.7)">e</text><text xml:space="preserve" font-family="Georgia,Georgia" font-size="18.0" fill="#903D00" transform="matrix(1.00, 0.00, -0.00, -1.00, 366.4, 294.7)">i</text><text xml:space="preserve" font-family="Georgia,Georgia" font-size="18.0" fill="#903D00" transform="matrix(1.00, 0.00, -0.00, -1.00, 371.7, 294.7)">g</text><text xml:space="preserve" font-family="Georgia,Georgia" font-size="18.0" fill="#903D00" transform="matrix(1.00, 0.00, -0.00, -1.00, 380.9, 294.7)">h</text><text xml:space="preserve" font-family="Georgia,Georgia" font-size="18.0" fill="#903D00" transform="matrix(1.00, 0.00, -0.00, -1.00, 391.3, 294.7)">t</text><text xml:space="preserve" font-family="Georgia,Georgia" font-size="18.0" fill="#903D00" transform="matrix(1.00, 0.00, -0.00, -1.00, 397.6, 294.7)">1</text></g></g><g><clipPath id="clip0x600002ca4b00"><path d="M 436.6 201.3 L 505.4 201.3 L 505.4 232.6 L 436.6 232.6 Z M 436.6 201.3 "></path></clipPath><g clip-path="url(#clip0x600002ca4b00)"><text xml:space="preserve" font-family="Georgia,Georgia" font-size="18.0" fill="#903D00" transform="matrix(1.00, 0.00, -0.00, -1.00, 441.7, 210.4)">W</text><text xml:space="preserve" font-family="Georgia,Georgia" font-size="18.0" fill="#903D00" transform="matrix(1.00, 0.00, -0.00, -1.00, 459.3, 210.4)">i</text><text xml:space="preserve" font-family="Georgia,Georgia" font-size="18.0" fill="#903D00" transform="matrix(1.00, 0.00, -0.00, -1.00, 464.5, 210.4)">d</text><text xml:space="preserve" font-family="Georgia,Georgia" font-size="18.0" fill="#903D00" transform="matrix(1.00, 0.00, -0.00, -1.00, 474.9, 210.4)">t</text><text xml:space="preserve" font-family="Georgia,Georgia" font-size="18.0" fill="#903D00" transform="matrix(1.00, 0.00, -0.00, -1.00, 481.1, 210.4)">h</text><text xml:space="preserve" font-family="Georgia,Georgia" font-size="18.0" fill="#903D00" transform="matrix(1.00, 0.00, -0.00, -1.00, 491.6, 210.4)">1</text></g></g><g><clipPath id="clip0x6080024a3d80"><path d="M 311.0 196.6 L 451.2 196.6 L 451.2 248.8 L 311.0 248.8 Z M 311.0 196.6 "></path></clipPath><g clip-path="url(#clip0x6080024a3d80)"><text xml:space="preserve" font-family="Georgia,Georgia" font-size="18.0" fill="#C3260C" transform="matrix(1.00, 0.00, -0.00, -1.00, 324.5, 226.7)">M</text><text xml:space="preserve" font-family="Georgia,Georgia" font-size="18.0" fill="#C3260C" transform="matrix(1.00, 0.00, -0.00, -1.00, 341.2, 226.7)">o</text><text xml:space="preserve" font-family="Georgia,Georgia" font-size="18.0" fill="#C3260C" transform="matrix(1.00, 0.00, -0.00, -1.00, 350.9, 226.7)">v</text><text xml:space="preserve" font-family="Georgia,Georgia" font-size="18.0" fill="#C3260C" transform="matrix(1.00, 0.00, -0.00, -1.00, 359.9, 226.7)">e</text><text xml:space="preserve" font-family="Georgia,Georgia" font-size="18.0" fill="#C3260C" transform="matrix(1.00, 0.00, -0.00, -1.00, 368.6, 226.7)">d</text><text xml:space="preserve" font-family="Georgia,Georgia" font-size="18.0" fill="#C3260C" transform="matrix(1.00, 0.00, -0.00, -1.00, 378.9, 226.7)"> </text><text xml:space="preserve" font-family="Georgia,Georgia" font-size="18.0" fill="#C3260C" transform="matrix(1.00, 0.00, -0.00, -1.00, 316.6, 205.7)">t</text><text xml:space="preserve" font-family="Georgia,Georgia" font-size="18.0" fill="#C3260C" transform="matrix(1.00, 0.00, -0.00, -1.00, 322.8, 205.7)">e</text><text xml:space="preserve" font-family="Georgia,Georgia" font-size="18.0" fill="#C3260C" transform="matrix(1.00, 0.00, -0.00, -1.00, 331.6, 205.7)">m</text><text xml:space="preserve" font-family="Georgia,Georgia" font-size="18.0" fill="#C3260C" transform="matrix(1.00, 0.00, -0.00, -1.00, 347.4, 205.7)">p</text><text xml:space="preserve" font-family="Georgia,Georgia" font-size="18.0" fill="#C3260C" transform="matrix(1.00, 0.00, -0.00, -1.00, 357.7, 205.7)">l</text><text xml:space="preserve" font-family="Georgia,Georgia" font-size="18.0" fill="#C3260C" transform="matrix(1.00, 0.00, -0.00, -1.00, 362.9, 205.7)">a</text><text xml:space="preserve" font-family="Georgia,Georgia" font-size="18.0" fill="#C3260C" transform="matrix(1.00, 0.00, -0.00, -1.00, 371.9, 205.7)">t</text><text xml:space="preserve" font-family="Georgia,Georgia" font-size="18.0" fill="#C3260C" transform="matrix(1.00, 0.00, -0.00, -1.00, 378.1, 205.7)">e</text></g></g><g><clipPath id="clip0x600002ca4fe0"><path d="M 309.6 121.2 L 484.8 121.2 L 484.8 152.4 L 309.6 152.4 Z M 309.6 121.2 "></path></clipPath><g clip-path="url(#clip0x600002ca4fe0)"><text xml:space="preserve" font-family="Georgia,Georgia" font-size="18.0" fill="#00B050" transform="matrix(1.00, 0.00, -0.00, -1.00, 314.7, 130.3)">S</text><text xml:space="preserve" font-family="Georgia,Georgia" font-size="18.0" fill="#00B050" transform="matrix(1.00, 0.00, -0.00, -1.00, 324.8, 130.3)">m</text><text xml:space="preserve" font-family="Georgia,Georgia" font-size="18.0" fill="#00B050" transform="matrix(1.00, 0.00, -0.00, -1.00, 340.6, 130.3)">a</text><text xml:space="preserve" font-family="Georgia,Georgia" font-size="18.0" fill="#00B050" transform="matrix(1.00, 0.00, -0.00, -1.00, 349.7, 130.3)">l</text><text xml:space="preserve" font-family="Georgia,Georgia" font-size="18.0" fill="#00B050" transform="matrix(1.00, 0.00, -0.00, -1.00, 354.9, 130.3)">l</text><text xml:space="preserve" font-family="Georgia,Georgia" font-size="18.0" fill="#00B050" transform="matrix(1.00, 0.00, -0.00, -1.00, 360.0, 130.3)"> </text><text xml:space="preserve" font-family="Georgia,Georgia" font-size="18.0" fill="#00B050" transform="matrix(1.00, 0.00, -0.00, -1.00, 364.4, 130.3)">s</text><text xml:space="preserve" font-family="Georgia,Georgia" font-size="18.0" fill="#00B050" transform="matrix(1.00, 0.00, -0.00, -1.00, 372.1, 130.3)">e</text><text xml:space="preserve" font-family="Georgia,Georgia" font-size="18.0" fill="#00B050" transform="matrix(1.00, 0.00, -0.00, -1.00, 380.9, 130.3)">a</text><text xml:space="preserve" font-family="Georgia,Georgia" font-size="18.0" fill="#00B050" transform="matrix(1.00, 0.00, -0.00, -1.00, 389.9, 130.3)">r</text><text xml:space="preserve" font-family="Georgia,Georgia" font-size="18.0" fill="#00B050" transform="matrix(1.00, 0.00, -0.00, -1.00, 397.3, 130.3)">c</text><text xml:space="preserve" font-family="Georgia,Georgia" font-size="18.0" fill="#00B050" transform="matrix(1.00, 0.00, -0.00, -1.00, 405.5, 130.3)">h</text><text xml:space="preserve" font-family="Georgia,Georgia" font-size="18.0" fill="#00B050" transform="matrix(1.00, 0.00, -0.00, -1.00, 415.9, 130.3)"> </text><text xml:space="preserve" font-family="Georgia,Georgia" font-size="18.0" fill="#00B050" transform="matrix(1.00, 0.00, -0.00, -1.00, 420.3, 130.3)">a</text><text xml:space="preserve" font-family="Georgia,Georgia" font-size="18.0" fill="#00B050" transform="matrix(1.00, 0.00, -0.00, -1.00, 429.4, 130.3)">r</text><text xml:space="preserve" font-family="Georgia,Georgia" font-size="18.0" fill="#00B050" transform="matrix(1.00, 0.00, -0.00, -1.00, 436.7, 130.3)">e</text><text xml:space="preserve" font-family="Georgia,Georgia" font-size="18.0" fill="#00B050" transform="matrix(1.00, 0.00, -0.00, -1.00, 445.4, 130.3)">a</text><text xml:space="preserve" font-family="Georgia,Georgia" font-size="18.0" fill="#00B050" transform="matrix(1.00, 0.00, -0.00, -1.00, 454.5, 130.3)"> </text><text xml:space="preserve" font-family="Georgia,Georgia" font-size="18.0" fill="#00B050" transform="matrix(1.00, 0.00, -0.00, -1.00, 458.8, 130.3)">A</text><text xml:space="preserve" font-family="Georgia,Georgia" font-size="18.0" fill="#00B050" transform="matrix(1.00, 0.00, -0.00, -1.00, 470.9, 130.3)">1</text></g></g><text xml:space="preserve" font-family="Georgia,Georgia" font-size="23.0" fill="#000000" transform="matrix(1.00, 0.00, -0.00, -1.00, 217.7, 365.6)">W</text><text xml:space="preserve" font-family="Georgia,Georgia" font-size="23.0" fill="#000000" transform="matrix(1.00, 0.00, -0.00, -1.00, 240.1, 365.6)">i</text><text xml:space="preserve" font-family="Georgia,Georgia" font-size="23.0" fill="#000000" transform="matrix(1.00, 0.00, -0.00, -1.00, 246.8, 365.6)">d</text><text xml:space="preserve" font-family="Georgia,Georgia" font-size="23.0" fill="#000000" transform="matrix(1.00, 0.00, -0.00, -1.00, 260.1, 365.6)">t</text><text xml:space="preserve" font-family="Georgia,Georgia" font-size="23.0" fill="#000000" transform="matrix(1.00, 0.00, -0.00, -1.00, 268.0, 365.6)">h</text><text xml:space="preserve" font-family="Georgia,Georgia" font-size="23.0" fill="#000000" transform="matrix(1.00, 0.00, -0.00, -1.00, 281.4, 365.6)">1</text><text xml:space="preserve" font-family="Georgia,Georgia" font-size="23.0" fill="#000000" transform="matrix(1.00, 0.00, -0.00, -1.00, 291.3, 365.6)"> </text><text xml:space="preserve" font-family="Georgia,Georgia" font-size="23.0" fill="#000000" transform="matrix(1.00, 0.00, -0.00, -1.00, 296.8, 365.6)">=</text><text xml:space="preserve" font-family="Georgia,Georgia" font-size="23.0" fill="#000000" transform="matrix(1.00, 0.00, -0.00, -1.00, 311.6, 365.6)"> </text><text xml:space="preserve" font-family="Georgia,Georgia" font-size="23.0" fill="#000000" transform="matrix(1.00, 0.00, -0.00, -1.00, 317.2, 365.6)">H</text><text xml:space="preserve" font-family="Georgia,Georgia" font-size="23.0" fill="#000000" transform="matrix(1.00, 0.00, -0.00, -1.00, 335.9, 365.6)">e</text><text xml:space="preserve" font-family="Georgia,Georgia" font-size="23.0" fill="#000000" transform="matrix(1.00, 0.00, -0.00, -1.00, 347.0, 365.6)">i</text><text xml:space="preserve" font-family="Georgia,Georgia" font-size="23.0" fill="#000000" transform="matrix(1.00, 0.00, -0.00, -1.00, 353.8, 365.6)">g</text><text xml:space="preserve" font-family="Georgia,Georgia" font-size="23.0" fill="#000000" transform="matrix(1.00, 0.00, -0.00, -1.00, 365.5, 365.6)">h</text><text xml:space="preserve" font-family="Georgia,Georgia" font-size="23.0" fill="#000000" transform="matrix(1.00, 0.00, -0.00, -1.00, 378.9, 365.6)">t</text><text xml:space="preserve" font-family="Georgia,Georgia" font-size="23.0" fill="#000000" transform="matrix(1.00, 0.00, -0.00, -1.00, 386.8, 365.6)">1</text><text xml:space="preserve" font-family="Georgia,Georgia" font-size="23.0" fill="#000000" transform="matrix(1.00, 0.00, -0.00, -1.00, 396.7, 365.6)"> </text><text xml:space="preserve" font-family="Georgia,Georgia" font-size="23.0" fill="#000000" transform="matrix(1.00, 0.00, -0.00, -1.00, 402.3, 365.6)">=</text><text xml:space="preserve" font-family="Georgia,Georgia" font-size="23.0" fill="#000000" transform="matrix(1.00, 0.00, -0.00, -1.00, 417.0, 365.6)"> </text><text xml:space="preserve" font-family="Georgia,Georgia" font-size="23.0" fill="#000000" transform="matrix(1.00, 0.00, -0.00, -1.00, 422.6, 365.6)">2</text><text xml:space="preserve" font-family="Georgia,Georgia" font-size="23.0" fill="#000000" transform="matrix(1.00, 0.00, -0.00, -1.00, 435.4, 365.6)"> </text><text xml:space="preserve" font-family="Georgia,Georgia" font-size="23.0" fill="#000000" transform="matrix(1.00, 0.00, -0.00, -1.00, 441.0, 365.6)">p</text><text xml:space="preserve" font-family="Georgia,Georgia" font-size="23.0" fill="#000000" transform="matrix(1.00, 0.00, -0.00, -1.00, 454.1, 365.6)">i</text><text xml:space="preserve" font-family="Georgia,Georgia" font-size="23.0" fill="#000000" transform="matrix(1.00, 0.00, -0.00, -1.00, 460.9, 365.6)">x</text><text xml:space="preserve" font-family="Georgia,Georgia" font-size="23.0" fill="#000000" transform="matrix(1.00, 0.00, -0.00, -1.00, 472.5, 365.6)">e</text><text xml:space="preserve" font-family="Georgia,Georgia" font-size="23.0" fill="#000000" transform="matrix(1.00, 0.00, -0.00, -1.00, 483.6, 365.6)">l</text><text xml:space="preserve" font-family="Georgia,Georgia" font-size="23.0" fill="#000000" transform="matrix(1.00, 0.00, -0.00, -1.00, 490.2, 365.6)">s</text><text xml:space="preserve" font-family="Georgia,Georgia" font-size="18.0" fill="#000000" transform="matrix(1.00, 0.00, -0.00, -1.00, 170.8, 56.6)">S</text><text xml:space="preserve" font-family="Georgia,Georgia" font-size="18.0" fill="#000000" transform="matrix(1.00, 0.00, -0.00, -1.00, 180.9, 56.6)">e</text><text xml:space="preserve" font-family="Georgia,Georgia" font-size="18.0" fill="#000000" transform="matrix(1.00, 0.00, -0.00, -1.00, 189.6, 56.6)">a</text><text xml:space="preserve" font-family="Georgia,Georgia" font-size="18.0" fill="#000000" transform="matrix(1.00, 0.00, -0.00, -1.00, 198.7, 56.6)">r</text><text xml:space="preserve" font-family="Georgia,Georgia" font-size="18.0" fill="#000000" transform="matrix(1.00, 0.00, -0.00, -1.00, 206.1, 56.6)">c</text><text xml:space="preserve" font-family="Georgia,Georgia" font-size="18.0" fill="#000000" transform="matrix(1.00, 0.00, -0.00, -1.00, 214.2, 56.6)">h</text><text xml:space="preserve" font-family="Georgia,Georgia" font-size="18.0" fill="#000000" transform="matrix(1.00, 0.00, -0.00, -1.00, 224.7, 56.6)"> </text><text xml:space="preserve" font-family="Georgia,Georgia" font-size="18.0" fill="#000000" transform="matrix(1.00, 0.00, -0.00, -1.00, 229.1, 56.6)">a</text><text xml:space="preserve" font-family="Georgia,Georgia" font-size="18.0" fill="#000000" transform="matrix(1.00, 0.00, -0.00, -1.00, 238.1, 56.6)">r</text><text xml:space="preserve" font-family="Georgia,Georgia" font-size="18.0" fill="#000000" transform="matrix(1.00, 0.00, -0.00, -1.00, 245.5, 56.6)">e</text><text xml:space="preserve" font-family="Georgia,Georgia" font-size="18.0" fill="#000000" transform="matrix(1.00, 0.00, -0.00, -1.00, 254.2, 56.6)">a</text><text xml:space="preserve" font-family="Georgia,Georgia" font-size="18.0" fill="#000000" transform="matrix(1.00, 0.00, -0.00, -1.00, 263.3, 56.6)"> </text><text xml:space="preserve" font-family="Georgia,Georgia" font-size="18.0" fill="#000000" transform="matrix(1.00, 0.00, -0.00, -1.00, 267.6, 56.6)">i</text><text xml:space="preserve" font-family="Georgia,Georgia" font-size="18.0" fill="#000000" transform="matrix(1.00, 0.00, -0.00, -1.00, 272.9, 56.6)">s</text><text xml:space="preserve" font-family="Georgia,Georgia" font-size="18.0" fill="#000000" transform="matrix(1.00, 0.00, -0.00, -1.00, 280.7, 56.6)"> </text><text xml:space="preserve" font-family="Georgia,Georgia" font-size="18.0" fill="#000000" transform="matrix(1.00, 0.00, -0.00, -1.00, 285.0, 56.6)">r</text><text xml:space="preserve" font-family="Georgia,Georgia" font-size="18.0" fill="#000000" transform="matrix(1.00, 0.00, -0.00, -1.00, 292.4, 56.6)">e</text><text xml:space="preserve" font-family="Georgia,Georgia" font-size="18.0" fill="#000000" transform="matrix(1.00, 0.00, -0.00, -1.00, 301.1, 56.6)">d</text><text xml:space="preserve" font-family="Georgia,Georgia" font-size="18.0" fill="#000000" transform="matrix(1.00, 0.00, -0.00, -1.00, 311.4, 56.6)">u</text><text xml:space="preserve" font-family="Georgia,Georgia" font-size="18.0" fill="#000000" transform="matrix(1.00, 0.00, -0.00, -1.00, 321.8, 56.6)">c</text><text xml:space="preserve" font-family="Georgia,Georgia" font-size="18.0" fill="#000000" transform="matrix(1.00, 0.00, -0.00, -1.00, 330.0, 56.6)">e</text><text xml:space="preserve" font-family="Georgia,Georgia" font-size="18.0" fill="#000000" transform="matrix(1.00, 0.00, -0.00, -1.00, 338.7, 56.6)">d</text><text xml:space="preserve" font-family="Georgia,Georgia" font-size="18.0" fill="#000000" transform="matrix(1.00, 0.00, -0.00, -1.00, 349.0, 56.6)"> </text><text xml:space="preserve" font-family="Georgia,Georgia" font-size="18.0" fill="#000000" transform="matrix(1.00, 0.00, -0.00, -1.00, 353.4, 56.6)">i</text><text xml:space="preserve" font-family="Georgia,Georgia" font-size="18.0" fill="#000000" transform="matrix(1.00, 0.00, -0.00, -1.00, 358.6, 56.6)">n</text><text xml:space="preserve" font-family="Georgia,Georgia" font-size="18.0" fill="#000000" transform="matrix(1.00, 0.00, -0.00, -1.00, 369.3, 56.6)"> </text><text xml:space="preserve" font-family="Georgia,Georgia" font-size="18.0" fill="#000000" transform="matrix(1.00, 0.00, -0.00, -1.00, 373.6, 56.6)">o</text><text xml:space="preserve" font-family="Georgia,Georgia" font-size="18.0" fill="#000000" transform="matrix(1.00, 0.00, -0.00, -1.00, 383.3, 56.6)">r</text><text xml:space="preserve" font-family="Georgia,Georgia" font-size="18.0" fill="#000000" transform="matrix(1.00, 0.00, -0.00, -1.00, 390.7, 56.6)">d</text><text xml:space="preserve" font-family="Georgia,Georgia" font-size="18.0" fill="#000000" transform="matrix(1.00, 0.00, -0.00, -1.00, 401.0, 56.6)">e</text><text xml:space="preserve" font-family="Georgia,Georgia" font-size="18.0" fill="#000000" transform="matrix(1.00, 0.00, -0.00, -1.00, 409.7, 56.6)">r</text><text xml:space="preserve" font-family="Georgia,Georgia" font-size="18.0" fill="#000000" transform="matrix(1.00, 0.00, -0.00, -1.00, 417.1, 56.6)"> </text><text xml:space="preserve" font-family="Georgia,Georgia" font-size="18.0" fill="#000000" transform="matrix(1.00, 0.00, -0.00, -1.00, 421.5, 56.6)">t</text><text xml:space="preserve" font-family="Georgia,Georgia" font-size="18.0" fill="#000000" transform="matrix(1.00, 0.00, -0.00, -1.00, 427.7, 56.6)">o</text><text xml:space="preserve" font-family="Georgia,Georgia" font-size="18.0" fill="#000000" transform="matrix(1.00, 0.00, -0.00, -1.00, 437.4, 56.6)"> </text><text xml:space="preserve" font-family="Georgia,Georgia" font-size="18.0" fill="#000000" transform="matrix(1.00, 0.00, -0.00, -1.00, 441.7, 56.6)">a</text><text xml:space="preserve" font-family="Georgia,Georgia" font-size="18.0" fill="#000000" transform="matrix(1.00, 0.00, -0.00, -1.00, 450.8, 56.6)">p</text><text xml:space="preserve" font-family="Georgia,Georgia" font-size="18.0" fill="#000000" transform="matrix(1.00, 0.00, -0.00, -1.00, 461.1, 56.6)">p</text><text xml:space="preserve" font-family="Georgia,Georgia" font-size="18.0" fill="#000000" transform="matrix(1.00, 0.00, -0.00, -1.00, 471.4, 56.6)">l</text><text xml:space="preserve" font-family="Georgia,Georgia" font-size="18.0" fill="#000000" transform="matrix(1.00, 0.00, -0.00, -1.00, 476.5, 56.6)">y</text><text xml:space="preserve" font-family="Georgia,Georgia" font-size="18.0" fill="#000000" transform="matrix(1.00, 0.00, -0.00, -1.00, 485.4, 56.6)"> </text><text xml:space="preserve" font-family="Georgia,Georgia" font-size="18.0" fill="#000000" transform="matrix(1.00, 0.00, -0.00, -1.00, 489.7, 56.6)">i</text><text xml:space="preserve" font-family="Georgia,Georgia" font-size="18.0" fill="#000000" transform="matrix(1.00, 0.00, -0.00, -1.00, 495.0, 56.6)">n</text><text xml:space="preserve" font-family="Georgia,Georgia" font-size="18.0" fill="#000000" transform="matrix(1.00, 0.00, -0.00, -1.00, 505.6, 56.6)">t</text><text xml:space="preserve" font-family="Georgia,Georgia" font-size="18.0" fill="#000000" transform="matrix(1.00, 0.00, -0.00, -1.00, 511.8, 56.6)">e</text><text xml:space="preserve" font-family="Georgia,Georgia" font-size="18.0" fill="#000000" transform="matrix(1.00, 0.00, -0.00, -1.00, 520.6, 56.6)">r</text><text xml:space="preserve" font-family="Georgia,Georgia" font-size="18.0" fill="#000000" transform="matrix(1.00, 0.00, -0.00, -1.00, 527.9, 56.6)">p</text><text xml:space="preserve" font-family="Georgia,Georgia" font-size="18.0" fill="#000000" transform="matrix(1.00, 0.00, -0.00, -1.00, 538.2, 56.6)">o</text><text xml:space="preserve" font-family="Georgia,Georgia" font-size="18.0" fill="#000000" transform="matrix(1.00, 0.00, -0.00, -1.00, 547.9, 56.6)">l</text><text xml:space="preserve" font-family="Georgia,Georgia" font-size="18.0" fill="#000000" transform="matrix(1.00, 0.00, -0.00, -1.00, 553.1, 56.6)">a</text><text xml:space="preserve" font-family="Georgia,Georgia" font-size="18.0" fill="#000000" transform="matrix(1.00, 0.00, -0.00, -1.00, 562.1, 56.6)">t</text><text xml:space="preserve" font-family="Georgia,Georgia" font-size="18.0" fill="#000000" transform="matrix(1.00, 0.00, -0.00, -1.00, 568.4, 56.6)">i</text><text xml:space="preserve" font-family="Georgia,Georgia" font-size="18.0" fill="#000000" transform="matrix(1.00, 0.00, -0.00, -1.00, 573.6, 56.6)">o</text><text xml:space="preserve" font-family="Georgia,Georgia" font-size="18.0" fill="#000000" transform="matrix(1.00, 0.00, -0.00, -1.00, 583.3, 56.6)">n</text><text xml:space="preserve" font-family="TrebuchetMS-Bold,Trebuchet MS" font-weight="bold" font-size="34.0" fill="#212744" transform="matrix(1.00, 0.00, -0.00, -1.00, 2.6, 453.0)">4</text><text xml:space="preserve" font-family="TrebuchetMS-Bold,Trebuchet MS" font-weight="bold" font-size="34.0" fill="#212744" transform="matrix(1.00, 0.00, -0.00, -1.00, 22.5, 453.0)">)</text><text xml:space="preserve" font-family="TrebuchetMS-Bold,Trebuchet MS" font-weight="bold" font-size="34.0" fill="#212744" transform="matrix(1.00, 0.00, -0.00, -1.00, 35.0, 453.0)"> </text><text xml:space="preserve" font-family="TrebuchetMS-Bold,Trebuchet MS" font-weight="bold" font-size="34.0" fill="#212744" transform="matrix(1.00, 0.00, -0.00, -1.00, 45.2, 453.0)">D</text><text xml:space="preserve" font-family="TrebuchetMS-Bold,Trebuchet MS" font-weight="bold" font-size="34.0" fill="#212744" transform="matrix(1.00, 0.00, -0.00, -1.00, 67.1, 453.0)">i</text><text xml:space="preserve" font-family="TrebuchetMS-Bold,Trebuchet MS" font-weight="bold" font-size="34.0" fill="#212744" transform="matrix(1.00, 0.00, -0.00, -1.00, 77.2, 453.0)">s</text><text xml:space="preserve" font-family="TrebuchetMS-Bold,Trebuchet MS" font-weight="bold" font-size="34.0" fill="#212744" transform="matrix(1.00, 0.00, -0.00, -1.00, 91.9, 453.0)">p</text><text xml:space="preserve" font-family="TrebuchetMS-Bold,Trebuchet MS" font-weight="bold" font-size="34.0" fill="#212744" transform="matrix(1.00, 0.00, -0.00, -1.00, 111.7, 453.0)">l</text><text xml:space="preserve" font-family="TrebuchetMS-Bold,Trebuchet MS" font-weight="bold" font-size="34.0" fill="#212744" transform="matrix(1.00, 0.00, -0.00, -1.00, 121.7, 453.0)">a</text><text xml:space="preserve" font-family="TrebuchetMS-Bold,Trebuchet MS" font-weight="bold" font-size="34.0" fill="#212744" transform="matrix(1.00, 0.00, -0.00, -1.00, 139.8, 453.0)">c</text><text xml:space="preserve" font-family="TrebuchetMS-Bold,Trebuchet MS" font-weight="bold" font-size="34.0" fill="#212744" transform="matrix(1.00, 0.00, -0.00, -1.00, 157.2, 453.0)">e</text><text xml:space="preserve" font-family="TrebuchetMS-Bold,Trebuchet MS" font-weight="bold" font-size="34.0" fill="#212744" transform="matrix(1.00, 0.00, -0.00, -1.00, 176.7, 453.0)">m</text><text xml:space="preserve" font-family="TrebuchetMS-Bold,Trebuchet MS" font-weight="bold" font-size="34.0" fill="#212744" transform="matrix(1.00, 0.00, -0.00, -1.00, 206.0, 453.0)">e</text><text xml:space="preserve" font-family="TrebuchetMS-Bold,Trebuchet MS" font-weight="bold" font-size="34.0" fill="#212744" transform="matrix(1.00, 0.00, -0.00, -1.00, 225.5, 453.0)">n</text><text xml:space="preserve" font-family="TrebuchetMS-Bold,Trebuchet MS" font-weight="bold" font-size="34.0" fill="#212744" transform="matrix(1.00, 0.00, -0.00, -1.00, 245.6, 453.0)">t</text><text xml:space="preserve" font-family="TrebuchetMS-Bold,Trebuchet MS" font-weight="bold" font-size="34.0" fill="#212744" transform="matrix(1.00, 0.00, -0.00, -1.00, 259.1, 453.0)"> </text><text xml:space="preserve" font-family="TrebuchetMS-Bold,Trebuchet MS" font-weight="bold" font-size="34.0" fill="#212744" transform="matrix(1.00, 0.00, -0.00, -1.00, 269.3, 453.0)">m</text><text xml:space="preserve" font-family="TrebuchetMS-Bold,Trebuchet MS" font-weight="bold" font-size="34.0" fill="#212744" transform="matrix(1.00, 0.00, -0.00, -1.00, 298.6, 453.0)">e</text><text xml:space="preserve" font-family="TrebuchetMS-Bold,Trebuchet MS" font-weight="bold" font-size="34.0" fill="#212744" transform="matrix(1.00, 0.00, -0.00, -1.00, 318.1, 453.0)">a</text><text xml:space="preserve" font-family="TrebuchetMS-Bold,Trebuchet MS" font-weight="bold" font-size="34.0" fill="#212744" transform="matrix(1.00, 0.00, -0.00, -1.00, 336.2, 453.0)">s</text><text xml:space="preserve" font-family="TrebuchetMS-Bold,Trebuchet MS" font-weight="bold" font-size="34.0" fill="#212744" transform="matrix(1.00, 0.00, -0.00, -1.00, 350.9, 453.0)">u</text><text xml:space="preserve" font-family="TrebuchetMS-Bold,Trebuchet MS" font-weight="bold" font-size="34.0" fill="#212744" transform="matrix(1.00, 0.00, -0.00, -1.00, 370.9, 453.0)">r</text><text xml:space="preserve" font-family="TrebuchetMS-Bold,Trebuchet MS" font-weight="bold" font-size="34.0" fill="#212744" transform="matrix(1.00, 0.00, -0.00, -1.00, 385.5, 453.0)">e</text><text xml:space="preserve" font-family="TrebuchetMS-Bold,Trebuchet MS" font-weight="bold" font-size="34.0" fill="#212744" transform="matrix(1.00, 0.00, -0.00, -1.00, 405.0, 453.0)">m</text><text xml:space="preserve" font-family="TrebuchetMS-Bold,Trebuchet MS" font-weight="bold" font-size="34.0" fill="#212744" transform="matrix(1.00, 0.00, -0.00, -1.00, 434.2, 453.0)">e</text><text xml:space="preserve" font-family="TrebuchetMS-Bold,Trebuchet MS" font-weight="bold" font-size="34.0" fill="#212744" transform="matrix(1.00, 0.00, -0.00, -1.00, 453.8, 453.0)">n</text><text xml:space="preserve" font-family="TrebuchetMS-Bold,Trebuchet MS" font-weight="bold" font-size="34.0" fill="#212744" transform="matrix(1.00, 0.00, -0.00, -1.00, 473.9, 453.0)">t</text><text xml:space="preserve" font-family="TrebuchetMS-Bold,Trebuchet MS" font-weight="bold" font-size="34.0" fill="#212744" transform="matrix(1.00, 0.00, -0.00, -1.00, 487.4, 453.0)">s</text></g></svg>